<svg xmlns="http://www.w3.org/2000/svg" width="225" height="213" fill="none"><path fill="#FE5D5D" d="M.5.48h223.842v212.044H.5z"/><path fill="#fff" d="M74.652 41.71c.5.136.908.413 1.226.83.317.418.476.9.476 1.444 0 .844-.29 1.497-.871 1.96-.581.454-1.407.681-2.478.681h-3.267v-9.53h3.13c.945 0 1.689.227 2.234.68.544.445.816 1.053.816 1.825 0 .481-.118.912-.354 1.293a1.934 1.934 0 0 1-.912.817Zm.286-2.11c0-.526-.186-.94-.558-1.239-.363-.3-.867-.45-1.511-.45h-2.151v3.472h2.11c1.407 0 2.11-.594 2.11-1.783Zm-2.07 6.208c.89 0 1.53-.14 1.92-.422.39-.29.586-.758.586-1.402 0-.636-.204-1.098-.613-1.389-.4-.29-1.039-.435-1.92-.435h-2.123v3.648h2.15Zm5.436-9.952h.926v10.769h-.926V35.856Zm6.012 10.905c-1.053 0-1.847-.327-2.383-.98-.535-.654-.803-1.625-.803-2.914 0-2.577 1.062-3.866 3.186-3.866 2.124 0 3.186 1.289 3.186 3.866 0 1.29-.268 2.26-.803 2.914-.536.653-1.33.98-2.383.98Zm0-.762c.772 0 1.334-.25 1.688-.75.363-.507.545-1.302.545-2.382 0-1.07-.182-1.856-.545-2.355-.354-.5-.916-.749-1.688-.749-.772 0-1.339.25-1.702.75-.354.498-.53 1.283-.53 2.354 0 1.08.176 1.875.53 2.383.363.5.93.749 1.702.749ZM97.043 39c.645 0 1.167.209 1.566.626.409.418.613.958.613 1.62v5.378h-.94v-5.337c0-.526-.118-.916-.354-1.17-.236-.255-.594-.382-1.075-.382-.772 0-1.489.354-2.151 1.062.018.145.027.254.027.327v5.5h-.926v-5.473c0-.427-.131-.767-.395-1.021-.254-.263-.594-.395-1.02-.395-.391 0-.763.086-1.117.259-.345.172-.694.45-1.048.83v5.8h-.926v-4.942c0-1.343-.055-2.142-.164-2.396.29-.136.522-.204.695-.204.263 0 .395.263.395.79v.054a3.393 3.393 0 0 1 1.061-.708A3.462 3.462 0 0 1 92.551 39c.426 0 .807.1 1.143.3.336.19.595.453.776.79.39-.382.785-.659 1.185-.831a3.542 3.542 0 0 1 1.388-.26Zm8.021 0c1.007 0 1.783.327 2.328.98.553.654.83 1.58.83 2.777 0 1.253-.286 2.233-.857 2.941-.572.708-1.362 1.062-2.369 1.062-.962 0-1.716-.286-2.26-.858-.082.482-.241.722-.477.722-.272 0-.499-.054-.681-.163.173-.382.259-.926.259-1.634v-8.972h.953v3.84c.663-.464 1.421-.695 2.274-.695Zm-.068 6.97c.726 0 1.284-.276 1.674-.83.4-.563.599-1.357.599-2.383 0-.962-.19-1.701-.571-2.219-.382-.517-.926-.776-1.634-.776-.835 0-1.593.259-2.274.776v4.425c.536.672 1.271 1.008 2.206 1.008Zm7.506.79c-1.053 0-1.847-.327-2.383-.98-.535-.654-.803-1.625-.803-2.914 0-2.577 1.062-3.866 3.186-3.866 2.124 0 3.186 1.289 3.186 3.866 0 1.29-.268 2.26-.803 2.914-.536.653-1.33.98-2.383.98Zm0-.762c.771 0 1.334-.25 1.688-.75.363-.507.545-1.302.545-2.382 0-1.07-.182-1.856-.545-2.355-.354-.5-.917-.749-1.688-.749-.771 0-1.339.25-1.702.75-.354.498-.531 1.283-.531 2.354 0 1.08.177 1.875.531 2.383.363.5.931.749 1.702.749Zm7.064.762c-.409 0-.831-.068-1.266-.204a3.39 3.39 0 0 1-1.089-.545c-.291-.227-.436-.467-.436-.721 0-.118.036-.223.109-.313a.614.614 0 0 1 .299-.205c.327.427.681.74 1.062.94.381.19.84.286 1.375.286.572 0 1.003-.132 1.294-.395.299-.263.449-.613.449-1.048 0-.29-.091-.527-.272-.708a1.612 1.612 0 0 0-.654-.409c-.254-.09-.608-.195-1.062-.313a11.722 11.722 0 0 1-1.279-.395 2.151 2.151 0 0 1-.817-.572c-.218-.263-.327-.612-.327-1.048 0-.463.122-.853.367-1.17a2.22 2.22 0 0 1 .94-.709 3.092 3.092 0 0 1 1.171-.231c.572 0 1.089.113 1.552.34.472.227.839.559 1.103.994-.218.227-.404.34-.559.34-.118 0-.231-.063-.34-.19a1.98 1.98 0 0 0-.762-.558c-.282-.127-.627-.19-1.035-.19-.463 0-.831.108-1.103.326-.272.218-.408.553-.408 1.007 0 .264.081.477.245.64.163.164.367.29.612.381.245.082.581.177 1.008.286.544.127.985.259 1.32.395a2.1 2.1 0 0 1 .872.64c.236.281.354.663.354 1.144 0 .671-.25 1.207-.749 1.606-.49.4-1.148.6-1.974.6Zm11.574 0c-1.298 0-2.305-.426-3.022-1.28-.708-.853-1.062-2.06-1.062-3.621 0-1.57.354-2.777 1.062-3.621.708-.854 1.715-1.28 3.022-1.28.527 0 1.017.09 1.471.272.453.172.844.431 1.171.776a.882.882 0 0 1-.232.395.492.492 0 0 1-.34.136.578.578 0 0 1-.354-.122c-.49-.382-1.071-.572-1.743-.572-.998 0-1.756.34-2.274 1.02-.517.681-.776 1.68-.776 2.996 0 1.307.259 2.3.776 2.982.518.68 1.276 1.02 2.274 1.02a3.44 3.44 0 0 0 1.144-.176 3.357 3.357 0 0 0 1.021-.586c.118.01.218.06.299.15a.423.423 0 0 1 .123.313c0 .209-.123.404-.368.585-.236.182-.553.332-.953.45-.39.109-.803.163-1.239.163Zm9.799-2.001c0 .417.031.749.095.994.073.236.195.449.368.64-.091.09-.2.163-.327.217a.815.815 0 0 1-.341.082c-.181 0-.335-.104-.462-.313-.118-.209-.196-.495-.232-.858a2.972 2.972 0 0 1-1.13.912 3.503 3.503 0 0 1-1.484.327c-.69 0-1.243-.177-1.661-.53-.417-.364-.626-.836-.626-1.417 0-.853.413-1.52 1.239-2.001.835-.481 2.047-.758 3.635-.83v-.436c0-.6-.154-1.044-.463-1.334-.3-.3-.758-.45-1.375-.45-.399 0-.772.087-1.116.259-.336.163-.699.44-1.09.83a.275.275 0 0 1-.204.082.55.55 0 0 1-.299-.109 1.42 1.42 0 0 1-.313-.34 4.313 4.313 0 0 1 1.388-1.103 3.807 3.807 0 0 1 1.675-.381c.844 0 1.506.227 1.987.68.491.455.736 1.076.736 1.866v3.213Zm-3.445 1.239c.49 0 .953-.136 1.389-.409.436-.272.812-.658 1.13-1.157v-1.688c-2.614.109-3.921.794-3.921 2.056 0 .798.467 1.198 1.402 1.198Zm10.941-6.862a15.447 15.447 0 0 1-.803 3.921c-.427 1.207-1.04 2.396-1.838 3.567h-.885c-.799-1.17-1.412-2.36-1.838-3.567a15.404 15.404 0 0 1-.803-3.92h.925c.127 1.315.359 2.486.695 3.512a12.921 12.921 0 0 0 1.47 2.968 12.511 12.511 0 0 0 1.457-2.968c.336-1.026.567-2.197.694-3.513h.926Zm7.302 3.213c0 .209-.009.418-.027.626h-5.419c.018.944.227 1.68.627 2.206.408.526.971.79 1.688.79.49 0 .903-.096 1.239-.286.345-.191.63-.495.857-.913a.307.307 0 0 1 .286-.177c.145 0 .345.087.599.26a2.629 2.629 0 0 1-1.102 1.401c-.536.336-1.162.504-1.879.504-.663 0-1.244-.154-1.743-.463-.49-.317-.867-.767-1.13-1.348-.263-.59-.395-1.284-.395-2.083 0-1.207.3-2.15.899-2.831.599-.69 1.42-1.035 2.464-1.035.953 0 1.697.295 2.233.885.535.59.803 1.411.803 2.464Zm-.953-.109c0-1.634-.708-2.45-2.124-2.45-.69 0-1.234.208-1.634.626-.399.417-.635 1.026-.707 1.824h4.465ZM18.532 88.711c-.8 0-1.415-.267-1.846-.8-.425-.534-.638-1.3-.638-2.298 0-.975.213-1.724.638-2.246.431-.522 1.047-.783 1.846-.783.8 0 1.413.261 1.838.783.431.522.647 1.27.647 2.246 0 .998-.216 1.764-.647 2.297-.425.534-1.038.8-1.838.8Zm0-.545c.613 0 1.075-.213 1.387-.639.312-.43.468-1.069.468-1.914 0-1.656-.618-2.484-1.855-2.484-1.236 0-1.854.828-1.854 2.484 0 .845.156 1.483.467 1.914.313.426.775.639 1.387.639Zm5.409.544c-.686 0-1.222-.215-1.608-.646-.38-.432-.57-1.033-.57-1.804 0-.488.085-.91.255-1.268.176-.363.425-.641.749-.834.323-.198.703-.298 1.14-.298.522 0 .95.134 1.285.4.34.261.539.618.595 1.072a1.357 1.357 0 0 1-.212.068.855.855 0 0 1-.213.034c-.057 0-.1-.014-.128-.042a.811.811 0 0 1-.076-.204.99.99 0 0 0-.426-.621c-.221-.154-.496-.23-.825-.23-.306 0-.579.08-.817.238a1.566 1.566 0 0 0-.544.68c-.125.29-.188.625-.188 1.005 0 .601.142 1.08.426 1.438.29.357.675.536 1.157.536.369 0 .684-.085.944-.256.261-.175.457-.43.587-.765.08 0 .145.034.196.102a.361.361 0 0 1 .085.238c0 .198-.085.389-.255.57a1.756 1.756 0 0 1-.672.425 2.426 2.426 0 0 1-.885.162Zm5.171-4.85c.488 0 .874.142 1.157.426.284.278.426.658.426 1.14v3.199h-.579v-3.14c0-.368-.09-.652-.272-.85-.182-.199-.443-.298-.783-.298-.26 0-.536.06-.825.178-.29.114-.548.267-.774.46v3.65h-.579v-6.73h.579v2.527c.25-.182.516-.32.8-.417a2.63 2.63 0 0 1 .85-.145Zm4.96.026c.198 0 .348.034.45.102a.311.311 0 0 1 .162.29c0 .09-.031.172-.093.246-.137-.074-.324-.11-.562-.11-.38 0-.686.15-.919.45-.227.301-.34.695-.34 1.183v2.578h-.579v-4.68h.579v.843a1.74 1.74 0 0 1 .553-.647 1.27 1.27 0 0 1 .748-.255Zm5.227 2.067c0 .13-.006.261-.017.392h-3.386c.01.59.141 1.05.391 1.378.255.33.607.494 1.055.494.306 0 .564-.06.774-.18.216-.118.395-.308.536-.57.04-.073.1-.11.179-.11.09 0 .215.054.374.162-.124.369-.354.66-.689.876-.334.21-.726.315-1.174.315-.414 0-.777-.096-1.09-.29a1.918 1.918 0 0 1-.705-.841c-.165-.37-.247-.803-.247-1.302 0-.755.187-1.345.562-1.77.374-.431.887-.647 1.54-.647.595 0 1.06.185 1.395.553.335.37.502.882.502 1.54Zm-.596-.068c0-1.02-.442-1.531-1.327-1.531-.431 0-.771.13-1.021.391-.25.261-.397.641-.442 1.14h2.79Zm7.176 1.574c0 .261.02.468.06.621.045.148.122.281.23.4a.642.642 0 0 1-.205.136.507.507 0 0 1-.213.052c-.113 0-.21-.066-.289-.196a1.379 1.379 0 0 1-.145-.536 1.858 1.858 0 0 1-.706.57 2.188 2.188 0 0 1-.927.204c-.431 0-.777-.11-1.038-.332a1.118 1.118 0 0 1-.392-.885c0-.533.259-.95.775-1.25.522-.3 1.279-.474 2.271-.52v-.272c0-.374-.096-.652-.289-.833-.187-.188-.473-.281-.86-.281-.249 0-.481.054-.697.162-.21.102-.437.275-.68.519a.173.173 0 0 1-.128.05.345.345 0 0 1-.187-.067.902.902 0 0 1-.196-.213c.255-.3.545-.53.868-.69a2.377 2.377 0 0 1 1.046-.238c.528 0 .942.142 1.243.426.306.283.46.672.46 1.165v2.008Zm-2.152.775c.306 0 .595-.085.867-.256a2.27 2.27 0 0 0 .706-.723V86.2c-1.633.068-2.45.496-2.45 1.285 0 .499.292.749.877.749Zm7.27-.698c0 .346.004.581.01.706.01.12.033.227.067.323a.976.976 0 0 1-.442.103c-.085 0-.142-.06-.17-.18-.029-.124-.043-.368-.043-.73V85.45c0-.397-.073-.683-.221-.859-.148-.181-.386-.272-.715-.272-.51 0-1.032.252-1.565.757v3.548h-.579v-3.088c0-.84-.034-1.34-.102-1.498.182-.085.326-.128.434-.128.165 0 .247.165.247.494v.076c.26-.215.522-.371.782-.468.267-.102.548-.153.843-.153.488 0 .85.134 1.089.4.244.261.366.661.366 1.2v2.076Zm5.083 0c0 .181.012.366.034.553.023.187.051.343.085.468a.913.913 0 0 1-.391.102c-.153 0-.25-.193-.29-.579a1.667 1.667 0 0 1-.612.485c-.221.097-.493.145-.817.145-.618 0-1.103-.213-1.455-.638-.351-.431-.527-1.021-.527-1.77 0-.771.187-1.37.561-1.795.38-.431.908-.647 1.583-.647.21 0 .431.04.664.12.238.073.434.167.587.28v-2.365h.578v5.64Zm-1.948.698c.29 0 .544-.06.766-.18.22-.118.422-.303.604-.552v-2.68a1.597 1.597 0 0 0-.562-.358 1.789 1.789 0 0 0-.69-.144c-.498 0-.881.17-1.148.51-.266.34-.4.831-.4 1.472 0 .624.122 1.103.366 1.438.244.33.599.494 1.064.494Zm7.789-4.374c.63 0 1.114.205 1.455.613.346.408.519.987.519 1.736 0 .782-.179 1.395-.536 1.837-.358.443-.851.664-1.48.664-.602 0-1.073-.179-1.413-.536-.051.3-.15.451-.298.451a.814.814 0 0 1-.425-.102c.107-.238.161-.579.161-1.021v-5.607h.596v2.4a2.42 2.42 0 0 1 1.42-.435Zm-.043 4.357c.454 0 .803-.173 1.047-.52.25-.351.374-.847.374-1.488 0-.602-.119-1.064-.357-1.387-.238-.323-.579-.485-1.021-.485-.522 0-.996.162-1.421.485v2.765c.335.42.794.63 1.378.63Zm4.691.493c-.658 0-1.154-.204-1.489-.612-.334-.409-.501-1.016-.501-1.821 0-1.611.663-2.417 1.99-2.417 1.328 0 1.991.806 1.991 2.417 0 .805-.167 1.412-.502 1.82-.334.409-.83.613-1.489.613Zm0-.476c.483 0 .834-.156 1.055-.468.227-.318.34-.814.34-1.49 0-.669-.113-1.16-.34-1.471-.22-.312-.572-.468-1.055-.468-.482 0-.836.156-1.063.468-.221.312-.332.802-.332 1.472 0 .675.11 1.171.332 1.489.227.312.581.468 1.063.468Zm6.755-.698c0 .346.002.581.008.706.012.12.034.227.068.323a.975.975 0 0 1-.442.103c-.085 0-.142-.06-.17-.18-.029-.124-.043-.368-.043-.73V85.45c0-.397-.074-.683-.221-.859-.148-.181-.386-.272-.715-.272-.51 0-1.032.252-1.565.757v3.548h-.579v-3.088c0-.84-.034-1.34-.102-1.498.182-.085.326-.128.434-.128.165 0 .247.165.247.494v.076c.26-.215.522-.371.782-.468.267-.102.548-.153.843-.153.488 0 .85.134 1.089.4.244.261.366.661.366 1.2v2.076Zm5.193-1.583c0 .13-.006.261-.017.392h-3.387c.012.59.142 1.05.392 1.378.255.33.607.494 1.055.494.306 0 .564-.06.774-.18.216-.118.394-.308.536-.57.04-.073.1-.11.179-.11.09 0 .215.054.374.162-.125.369-.354.66-.689.876-.335.21-.726.315-1.174.315-.414 0-.777-.096-1.09-.29a1.918 1.918 0 0 1-.705-.841c-.165-.37-.247-.803-.247-1.302 0-.755.187-1.345.561-1.77.375-.431.888-.647 1.54-.647.596 0 1.061.185 1.396.553.334.37.502.882.502 1.54Zm-.596-.068c0-1.02-.442-1.531-1.327-1.531-.431 0-.771.13-1.021.391-.25.261-.397.641-.443 1.14h2.791Zm7.55.068c0 .13-.005.261-.017.392h-3.386c.011.59.142 1.05.391 1.378.256.33.607.494 1.055.494.307 0 .565-.06.775-.18.215-.118.394-.308.536-.57.04-.073.099-.11.178-.11.091 0 .216.054.375.162-.125.369-.355.66-.69.876-.334.21-.725.315-1.174.315-.414 0-.777-.096-1.089-.29a1.918 1.918 0 0 1-.706-.841c-.164-.37-.247-.803-.247-1.302 0-.755.188-1.345.562-1.77.374-.431.888-.647 1.54-.647.596 0 1.06.185 1.395.553.335.37.502.882.502 1.54Zm-.595-.068c0-1.02-.443-1.531-1.328-1.531-.43 0-.771.13-1.02.391-.25.261-.398.641-.443 1.14h2.79Zm5.356 1.65c0 .347.003.582.009.707.011.12.034.227.068.323a.975.975 0 0 1-.443.103c-.085 0-.141-.06-.17-.18-.028-.124-.042-.368-.042-.73V85.45c0-.397-.074-.683-.221-.859-.148-.181-.386-.272-.715-.272-.51 0-1.033.252-1.566.757v3.548h-.578v-3.088c0-.84-.034-1.34-.102-1.498.181-.085.326-.128.434-.128.164 0 .246.165.246.494v.076c.261-.215.522-.371.783-.468.267-.102.547-.153.842-.153.488 0 .851.134 1.09.4.243.261.365.661.365 1.2v2.076ZM95.51 83.7c.102 0 .176.028.222.085.05.05.076.136.076.255 0 .034-.006.102-.017.204-.42 0-.712.057-.876.17.227.273.34.61.34 1.013 0 1.089-.627 1.633-1.88 1.633-.386 0-.67.029-.851.086-.176.05-.264.133-.264.246 0 .255.457.383 1.37.383.641 0 1.137.108 1.489.323.352.216.528.522.528.92 0 .425-.19.75-.57.978-.375.232-.914.349-1.617.349-.664 0-1.169-.102-1.515-.307-.346-.204-.519-.505-.519-.902 0-.226.077-.428.23-.604.159-.175.377-.306.655-.391v-.025a.79.79 0 0 1-.408-.247.677.677 0 0 1-.153-.443c0-.141.056-.266.17-.374a.884.884 0 0 1 .46-.23 1.527 1.527 0 0 1-.57-.536 1.491 1.491 0 0 1-.196-.757c0-1.112.64-1.668 1.922-1.668.403 0 .746.088 1.03.264.142-.13.295-.232.46-.306.17-.08.331-.12.484-.12Zm-2.084 2.884c.437 0 .749-.085.936-.255.193-.176.289-.465.289-.868 0-.397-.096-.686-.29-.868-.192-.181-.504-.272-.935-.272-.42 0-.729.093-.928.28-.192.182-.289.469-.289.86 0 .749.406 1.123 1.217 1.123Zm.068 1.719c-.482 0-.848.065-1.098.195-.244.13-.365.32-.365.57 0 .261.121.46.365.596.244.136.599.204 1.064.204.522 0 .916-.068 1.183-.204.266-.13.4-.329.4-.596a.608.608 0 0 0-.366-.587c-.239-.119-.633-.178-1.183-.178Zm5.088-4.416c.198 0 .348.034.45.102a.311.311 0 0 1 .162.29c0 .09-.031.172-.094.246-.136-.074-.323-.11-.561-.11-.38 0-.686.15-.919.45-.227.301-.34.695-.34 1.183v2.578H96.7v-4.68h.579v.843c.13-.261.315-.477.553-.647a1.27 1.27 0 0 1 .749-.255Zm4.853 3.573c0 .261.019.468.059.621.045.148.122.281.23.4a.65.65 0 0 1-.204.136.51.51 0 0 1-.213.052c-.114 0-.21-.066-.289-.196a1.38 1.38 0 0 1-.145-.536 1.859 1.859 0 0 1-.706.57 2.189 2.189 0 0 1-.928.204c-.431 0-.777-.11-1.038-.332a1.119 1.119 0 0 1-.391-.885c0-.533.258-.95.774-1.25.522-.3 1.279-.474 2.272-.52v-.272c0-.374-.096-.652-.289-.833-.187-.188-.474-.281-.86-.281-.249 0-.482.054-.697.162-.21.102-.437.275-.681.519a.174.174 0 0 1-.128.05.346.346 0 0 1-.187-.067.906.906 0 0 1-.195-.213 2.7 2.7 0 0 1 .867-.69 2.378 2.378 0 0 1 1.047-.238c.527 0 .941.142 1.242.426.306.283.46.672.46 1.165v2.008Zm-2.153.775c.306 0 .596-.085.868-.256.272-.17.507-.41.706-.723V86.2c-1.634.068-2.45.496-2.45 1.285 0 .499.292.749.876.749Zm6.837-4.289a9.614 9.614 0 0 1-.502 2.45 9.668 9.668 0 0 1-1.148 2.23h-.553a9.713 9.713 0 0 1-1.149-2.23 9.657 9.657 0 0 1-.502-2.45h.579a10.2 10.2 0 0 0 .434 2.196c.215.635.521 1.253.918 1.854.398-.6.701-1.22.911-1.854.21-.641.354-1.373.434-2.196h.578Zm1.075 0h.579v4.68h-.579v-4.68Zm.256-.859c-.256 0-.383-.127-.383-.383v-.076c0-.256.127-.383.383-.383h.068c.255 0 .383.127.383.383v.076c0 .255-.128.383-.383.383h-.068Zm5.684 4.45c0 .346.003.581.008.706.012.12.034.227.068.323a.972.972 0 0 1-.442.103c-.085 0-.142-.06-.17-.18-.028-.124-.043-.368-.043-.73V85.45c0-.397-.073-.683-.221-.859-.147-.181-.386-.272-.715-.272-.51 0-1.032.252-1.565.757v3.548h-.579v-3.088c0-.84-.034-1.34-.102-1.498.182-.085.326-.128.434-.128.165 0 .247.165.247.494v.076c.261-.215.522-.371.783-.468a2.33 2.33 0 0 1 .842-.153c.488 0 .851.134 1.089.4.244.261.366.661.366 1.2v2.076Zm5.278-3.837c.102 0 .176.028.221.085.051.05.077.136.077.255 0 .034-.006.102-.017.204-.42 0-.712.057-.877.17.227.273.341.61.341 1.013 0 1.089-.627 1.633-1.881 1.633-.385 0-.669.029-.85.086-.176.05-.264.133-.264.246 0 .255.456.383 1.37.383.641 0 1.137.108 1.489.323.351.216.527.522.527.92 0 .425-.19.75-.57.978-.374.232-.913.349-1.616.349-.664 0-1.169-.102-1.515-.307-.346-.204-.519-.505-.519-.902 0-.226.077-.428.23-.604a1.42 1.42 0 0 1 .655-.391v-.025a.789.789 0 0 1-.408-.247.673.673 0 0 1-.154-.443.5.5 0 0 1 .171-.374.88.88 0 0 1 .459-.23 1.526 1.526 0 0 1-.57-.536 1.487 1.487 0 0 1-.196-.757c0-1.112.641-1.668 1.923-1.668.403 0 .746.088 1.03.264.141-.13.295-.232.459-.306.17-.08.332-.12.485-.12Zm-2.084 2.884c.436 0 .748-.085.935-.255.193-.176.29-.465.29-.868 0-.397-.097-.686-.29-.868-.192-.181-.504-.272-.935-.272-.42 0-.729.093-.928.28-.193.182-.289.469-.289.86 0 .749.405 1.123 1.217 1.123Zm.068 1.719c-.483 0-.848.065-1.098.195-.244.13-.366.32-.366.57 0 .261.122.46.366.596.244.136.598.204 1.064.204.521 0 .916-.068 1.182-.204.267-.13.4-.329.4-.596a.608.608 0 0 0-.366-.587c-.238-.119-.632-.178-1.182-.178Zm4.568.408c-.255 0-.519-.042-.791-.127a2.135 2.135 0 0 1-.681-.34c-.181-.143-.272-.293-.272-.452 0-.073.023-.139.068-.195a.386.386 0 0 1 .187-.128c.204.266.426.462.664.587.238.12.525.179.859.179.358 0 .627-.083.809-.247a.83.83 0 0 0 .28-.655.596.596 0 0 0-.17-.443 1.007 1.007 0 0 0-.408-.255 8.202 8.202 0 0 0-.664-.196 7.359 7.359 0 0 1-.8-.246 1.349 1.349 0 0 1-.51-.358c-.136-.164-.204-.383-.204-.655 0-.29.076-.533.229-.732.153-.198.349-.346.587-.442a1.94 1.94 0 0 1 .732-.145c.357 0 .681.071.97.213.295.142.525.349.689.621-.136.142-.252.213-.349.213-.073 0-.144-.04-.212-.12a1.232 1.232 0 0 0-.477-.348 1.566 1.566 0 0 0-.646-.12c-.29 0-.519.069-.69.205-.17.136-.255.346-.255.63 0 .164.051.297.153.4.102.102.23.181.383.238.153.05.363.11.63.178.34.08.615.162.825.247.216.085.397.219.545.4.147.176.221.414.221.715 0 .42-.156.754-.468 1.004-.306.25-.718.374-1.234.374Zm3.321-.085c-.255 0-.382-.128-.382-.383v-.076c0-.256.127-.383.382-.383h.068c.256 0 .383.127.383.383v.076c0 .255-.127.383-.383.383h-.068Zm4.045-2.867h3.063v.51h-3.063v-.51Zm9.022 2.399v.468h-2.587v-.468h1.038v-4.782a2.531 2.531 0 0 1-.51.332c-.188.091-.352.136-.494.136a.344.344 0 0 1-.238-.076.285.285 0 0 1-.077-.196c0-.057.015-.108.043-.153a2.14 2.14 0 0 0 .723-.221c.255-.13.496-.307.723-.528h.383v5.488h.996Zm3.292.57c-.72 0-1.27-.258-1.65-.774-.375-.522-.562-1.257-.562-2.204 0-1.004.187-1.78.562-2.331.38-.556.93-.834 1.65-.834.721 0 1.268.278 1.642.834.38.55.57 1.327.57 2.331 0 .948-.19 1.682-.57 2.204-.374.516-.921.774-1.642.774Zm0-.527c.539 0 .945-.213 1.217-.639.278-.425.417-1.029.417-1.812 0-.85-.139-1.503-.417-1.957-.272-.454-.678-.68-1.217-.68-.544 0-.953.227-1.225.68-.272.454-.408 1.106-.408 1.957 0 .789.136 1.396.408 1.821.272.42.681.63 1.225.63Zm5.276.527c-.72 0-1.27-.258-1.65-.774-.375-.522-.562-1.257-.562-2.204 0-1.004.187-1.78.562-2.331.38-.556.93-.834 1.65-.834.721 0 1.268.278 1.642.834.38.55.571 1.327.571 2.331 0 .948-.191 1.682-.571 2.204-.374.516-.921.774-1.642.774Zm0-.527c.539 0 .945-.213 1.217-.639.278-.425.417-1.029.417-1.812 0-.85-.139-1.503-.417-1.957-.272-.454-.678-.68-1.217-.68-.544 0-.953.227-1.225.68-.272.454-.408 1.106-.408 1.957 0 .789.136 1.396.408 1.821.272.42.681.63 1.225.63Zm3.992-.417c.113 0 .204.037.272.11.068.068.102.165.102.29v.093c0 .199-.034.397-.102.596a2.417 2.417 0 0 1-.255.544c-.148.227-.273.34-.375.34a.362.362 0 0 1-.238-.085c.153-.187.272-.363.358-.527.085-.159.141-.332.17-.519h-.043a.328.328 0 0 1-.255-.102.385.385 0 0 1-.094-.272v-.094c0-.113.031-.204.094-.272a.357.357 0 0 1 .264-.102h.102Zm3.902.944c-.721 0-1.271-.258-1.651-.774-.374-.522-.561-1.257-.561-2.204 0-1.004.187-1.78.561-2.331.38-.556.93-.834 1.651-.834.72 0 1.268.278 1.642.834.38.55.57 1.327.57 2.331 0 .948-.19 1.682-.57 2.204-.374.516-.922.774-1.642.774Zm0-.527c.539 0 .944-.213 1.216-.639.278-.425.417-1.029.417-1.812 0-.85-.139-1.503-.417-1.957-.272-.454-.677-.68-1.216-.68-.545 0-.953.227-1.225.68-.273.454-.409 1.106-.409 1.957 0 .789.136 1.396.409 1.821.272.42.68.63 1.225.63Zm5.276.527c-.72 0-1.271-.258-1.651-.774-.374-.522-.561-1.257-.561-2.204 0-1.004.187-1.78.561-2.331.38-.556.931-.834 1.651-.834s1.268.278 1.642.834c.38.55.57 1.327.57 2.331 0 .948-.19 1.682-.57 2.204-.374.516-.922.774-1.642.774Zm0-.527c.539 0 .944-.213 1.217-.639.278-.425.417-1.029.417-1.812 0-.85-.139-1.503-.417-1.957-.273-.454-.678-.68-1.217-.68-.545 0-.953.227-1.225.68-.273.454-.409 1.106-.409 1.957 0 .789.136 1.396.409 1.821.272.42.68.63 1.225.63Zm5.276.527c-.72 0-1.271-.258-1.651-.774-.374-.522-.561-1.257-.561-2.204 0-1.004.187-1.78.561-2.331.38-.556.931-.834 1.651-.834s1.268.278 1.642.834c.38.55.57 1.327.57 2.331 0 .948-.19 1.682-.57 2.204-.374.516-.922.774-1.642.774Zm0-.527c.539 0 .944-.213 1.217-.639.278-.425.417-1.029.417-1.812 0-.85-.139-1.503-.417-1.957-.273-.454-.678-.68-1.217-.68-.544 0-.953.227-1.225.68-.272.454-.409 1.106-.409 1.957 0 .789.137 1.396.409 1.821.272.42.681.63 1.225.63Zm8.865-4.255-1.812 5.037c-.159.448-.36.775-.604.979-.239.21-.542.315-.911.315-.215 0-.385-.034-.51-.102-.125-.063-.187-.148-.187-.256 0-.113.048-.204.144-.272.057.04.142.074.256.102.119.028.235.043.348.043.233 0 .431-.102.596-.307.17-.204.315-.516.434-.936l-1.668-4.603h.613l1.353 3.77 1.335-3.77h.613Zm4.521 2.008c0 .13-.006.261-.017.392h-3.386c.011.59.141 1.05.391 1.378.255.33.607.494 1.055.494.306 0 .564-.06.774-.18.216-.118.395-.308.536-.57.04-.073.1-.11.179-.11.091 0 .216.054.374.162a1.64 1.64 0 0 1-.689.876c-.334.21-.726.315-1.174.315-.414 0-.777-.096-1.089-.29a1.916 1.916 0 0 1-.706-.841c-.165-.37-.247-.803-.247-1.302 0-.755.187-1.345.562-1.77.374-.431.887-.647 1.54-.647.595 0 1.06.185 1.395.553.335.37.502.882.502 1.54Zm-.596-.068c0-1.02-.442-1.531-1.327-1.531-.431 0-.771.13-1.021.391-.249.261-.397.641-.442 1.14h2.79Zm4.983 1.574c0 .261.019.468.059.621.046.148.122.281.23.4a.65.65 0 0 1-.204.136.51.51 0 0 1-.213.052c-.113 0-.21-.066-.289-.196a1.38 1.38 0 0 1-.145-.536 1.859 1.859 0 0 1-.706.57 2.189 2.189 0 0 1-.928.204c-.431 0-.777-.11-1.038-.332a1.12 1.12 0 0 1-.391-.885c0-.533.258-.95.774-1.25.522-.3 1.279-.474 2.272-.52v-.272c0-.374-.096-.652-.289-.833-.187-.188-.474-.281-.86-.281-.249 0-.482.054-.697.162-.21.102-.437.275-.681.519a.174.174 0 0 1-.128.05.346.346 0 0 1-.187-.067.892.892 0 0 1-.195-.213c.255-.3.544-.53.867-.69a2.378 2.378 0 0 1 1.047-.238c.527 0 .942.142 1.242.426.306.283.46.672.46 1.165v2.008Zm-2.153.775c.306 0 .596-.085.868-.256.272-.17.507-.41.706-.723V86.2c-1.634.068-2.45.496-2.45 1.285 0 .499.292.749.876.749Zm5.451-4.348c.198 0 .348.034.45.102a.311.311 0 0 1 .162.29c0 .09-.031.172-.093.246-.137-.074-.324-.11-.562-.11-.38 0-.686.15-.919.45-.227.301-.34.695-.34 1.183v2.578h-.579v-4.68h.579v.843c.13-.261.315-.477.553-.647a1.27 1.27 0 0 1 .749-.255Zm2.887 4.824c-.255 0-.519-.042-.791-.127a2.135 2.135 0 0 1-.681-.34c-.181-.143-.272-.293-.272-.452 0-.073.023-.139.068-.195a.382.382 0 0 1 .187-.128c.204.266.426.462.664.587.238.12.525.179.859.179.358 0 .627-.083.808-.247a.827.827 0 0 0 .281-.655.596.596 0 0 0-.17-.443 1.007 1.007 0 0 0-.408-.255 8.202 8.202 0 0 0-.664-.196 7.359 7.359 0 0 1-.8-.246 1.349 1.349 0 0 1-.51-.358c-.136-.164-.204-.383-.204-.655 0-.29.076-.533.229-.732.153-.198.349-.346.587-.442.239-.096.482-.145.732-.145.357 0 .681.071.97.213.295.142.525.349.689.621-.136.142-.252.213-.349.213-.073 0-.144-.04-.212-.12a1.232 1.232 0 0 0-.477-.348 1.566 1.566 0 0 0-.646-.12c-.29 0-.519.069-.69.205-.17.136-.255.346-.255.63 0 .164.051.297.153.4.102.102.23.181.383.238.153.05.363.11.63.178.34.08.615.162.825.247.216.085.397.219.545.4.147.176.221.414.221.715 0 .42-.156.754-.468 1.004-.306.25-.718.374-1.234.374Zm6.57 0c-.658 0-1.154-.204-1.489-.612-.335-.409-.502-1.016-.502-1.821 0-1.611.664-2.417 1.991-2.417s1.991.806 1.991 2.417c0 .805-.167 1.412-.502 1.82-.335.409-.831.613-1.489.613Zm0-.476c.482 0 .834-.156 1.055-.468.227-.318.34-.814.34-1.49 0-.669-.113-1.16-.34-1.471-.221-.312-.573-.468-1.055-.468s-.837.156-1.064.468c-.221.312-.331.802-.331 1.472 0 .675.11 1.171.331 1.489.227.312.582.468 1.064.468Zm3.181-6.339h.578v6.73h-.578v-6.73Zm5.739 5.64c0 .183.012.367.034.554.023.187.051.343.085.468a.91.91 0 0 1-.391.102c-.153 0-.25-.193-.289-.579a1.668 1.668 0 0 1-.613.485c-.221.097-.493.145-.817.145-.618 0-1.103-.213-1.455-.638-.351-.431-.527-1.021-.527-1.77 0-.771.187-1.37.561-1.795.38-.431.908-.647 1.583-.647.21 0 .431.04.664.12.238.073.434.167.587.28v-2.365h.578v5.64Zm-1.948.699c.289 0 .544-.06.766-.18.221-.118.422-.303.604-.552v-2.68a1.599 1.599 0 0 0-.562-.358 1.785 1.785 0 0 0-.689-.144c-.499 0-.882.17-1.149.51-.266.34-.4.831-.4 1.472 0 .624.122 1.103.366 1.438.244.33.599.494 1.064.494Zm3.996.391c-.255 0-.383-.128-.383-.383v-.076c0-.256.128-.383.383-.383h.068c.255 0 .383.127.383.383v.076c0 .255-.128.383-.383.383h-.068Zm-185.498 22a37.05 37.05 0 0 0-.485-5.096 20.96 20.96 0 0 0-.604 1.557c-.198.567-.516 1.548-.953 2.943h-.442a81.907 81.907 0 0 0-.91-2.765 25.394 25.394 0 0 0-.656-1.71c-.272 1.549-.434 3.239-.485 5.071h-.612c.028-1.066.096-2.116.204-3.148.113-1.032.258-1.968.434-2.808h.68c.34.732.627 1.401.86 2.008.233.607.468 1.302.706 2.085.238-.783.474-1.475.706-2.076.233-.607.517-1.279.851-2.017h.68c.177.84.318 1.776.426 2.808.114 1.032.184 2.082.213 3.148h-.613Zm3.592.085c-.658 0-1.155-.204-1.49-.613-.334-.408-.501-1.015-.501-1.82 0-1.611.663-2.417 1.99-2.417 1.328 0 1.992.806 1.992 2.417 0 .805-.168 1.412-.502 1.82-.335.409-.831.613-1.49.613Zm0-.476c.482 0 .834-.156 1.055-.468.227-.318.34-.814.34-1.489 0-.67-.113-1.16-.34-1.472-.221-.312-.573-.468-1.055-.468s-.837.156-1.064.468c-.221.312-.332.802-.332 1.472 0 .675.11 1.171.332 1.489.227.312.582.468 1.064.468Zm4.933-4.348c.199 0 .349.034.451.102a.311.311 0 0 1 .162.289.373.373 0 0 1-.094.247c-.136-.074-.323-.111-.561-.111-.38 0-.687.151-.92.451-.226.301-.34.695-.34 1.183v2.578h-.578v-4.68h.578v.843c.13-.261.315-.477.553-.647a1.27 1.27 0 0 1 .75-.255Zm5.228 2.067c0 .131-.006.261-.017.392h-3.387c.012.59.142 1.049.392 1.378.255.329.607.494 1.055.494.306 0 .564-.06.774-.179.216-.119.394-.309.536-.57.04-.074.1-.111.179-.111.09 0 .215.054.374.162a1.64 1.64 0 0 1-.69.876c-.334.21-.725.315-1.173.315-.414 0-.777-.096-1.09-.289a1.917 1.917 0 0 1-.706-.843c-.164-.368-.246-.802-.246-1.301 0-.755.187-1.345.561-1.77.375-.431.888-.647 1.54-.647.596 0 1.061.185 1.396.553.334.369.502.882.502 1.54Zm-.596-.068c0-1.021-.442-1.531-1.327-1.531-.431 0-.772.13-1.021.391-.25.261-.397.641-.443 1.14h2.791Zm7.44 1.651c0 .181.01.366.034.553.022.187.05.343.085.468a.914.914 0 0 1-.392.102c-.153 0-.25-.193-.289-.579a1.662 1.662 0 0 1-.613.485c-.22.097-.493.145-.816.145-.619 0-1.104-.213-1.455-.638-.352-.431-.528-1.021-.528-1.77 0-.771.187-1.37.562-1.795.38-.431.907-.647 1.582-.647.21 0 .431.04.664.119.238.074.434.168.587.281v-2.365h.579v5.641Zm-1.949.698c.29 0 .545-.06.766-.179.221-.119.422-.304.604-.553v-2.68a1.604 1.604 0 0 0-.562-.358 1.796 1.796 0 0 0-.689-.144c-.499 0-.882.17-1.148.51-.267.341-.4.831-.4 1.472 0 .624.122 1.103.366 1.438.244.329.598.494 1.063.494Zm3.656-4.289h.578v4.68h-.578v-4.68Zm.255-.859c-.255 0-.383-.128-.383-.383v-.076c0-.256.128-.383.383-.383h.068c.255 0 .383.127.383.383v.076c0 .255-.128.383-.383.383h-.068Zm3.344 5.624a2.62 2.62 0 0 1-.79-.128 2.119 2.119 0 0 1-.681-.34c-.182-.142-.273-.292-.273-.451 0-.074.023-.139.068-.196a.387.387 0 0 1 .188-.127c.204.266.425.462.663.587.238.119.525.179.86.179.357 0 .626-.083.808-.247a.83.83 0 0 0 .28-.655.6.6 0 0 0-.17-.443 1.01 1.01 0 0 0-.408-.255 8.23 8.23 0 0 0-.664-.196 7.457 7.457 0 0 1-.8-.246 1.351 1.351 0 0 1-.51-.358c-.136-.164-.204-.383-.204-.655 0-.289.077-.533.23-.732.153-.198.349-.346.587-.442.238-.096.482-.145.731-.145.358 0 .681.071.97.213.295.142.525.349.69.621-.137.142-.253.213-.35.213-.073 0-.144-.04-.212-.119a1.237 1.237 0 0 0-.477-.349 1.574 1.574 0 0 0-.646-.119c-.29 0-.52.068-.69.204-.17.136-.255.346-.255.63 0 .164.051.297.154.4.102.102.23.181.383.238.153.051.362.11.63.178.34.08.614.162.824.247.216.085.397.219.545.4.147.176.221.414.221.715 0 .419-.156.754-.468 1.004-.306.249-.717.374-1.233.374Zm4.955-.655c.04.028.071.071.094.128a.327.327 0 0 1 .042.161c0 .108-.045.185-.136.23-.181.091-.417.136-.706.136-.369 0-.663-.099-.885-.298-.221-.204-.332-.476-.332-.817v-3.19h-.884v-.46h.884v-1.276h.579v1.276h1.225v.46h-1.225v3.08c0 .476.204.715.613.715.26 0 .504-.049.731-.145Zm1.209-4.11h.578v4.68h-.578v-4.68Zm.255-.859c-.255 0-.383-.128-.383-.383v-.076c0-.256.128-.383.383-.383h.068c.255 0 .383.127.383.383v.076c0 .255-.128.383-.383.383h-.068Zm5.684 4.45c0 .346.003.581.009.706.011.119.034.227.068.323a.964.964 0 0 1-.443.103c-.085 0-.142-.06-.17-.179-.028-.125-.042-.369-.042-.732v-2.306c0-.397-.074-.683-.222-.859-.147-.181-.385-.272-.714-.272-.51 0-1.033.252-1.566.757v3.548h-.578v-3.089c0-.839-.034-1.338-.103-1.497.182-.085.327-.128.434-.128.165 0 .247.165.247.494v.076c.261-.215.522-.371.783-.467.267-.103.547-.154.842-.154.488 0 .851.134 1.09.4.243.261.365.661.365 1.2v2.076Zm3.287 1.174c-.686 0-1.222-.215-1.608-.647-.38-.431-.57-1.032-.57-1.803 0-.488.085-.911.255-1.268.176-.363.426-.641.75-.834.322-.198.703-.298 1.14-.298.521 0 .95.134 1.284.4.34.261.539.619.596 1.072a1.26 1.26 0 0 1-.213.068.842.842 0 0 1-.213.034c-.056 0-.099-.014-.127-.042a.81.81 0 0 1-.077-.204.987.987 0 0 0-.425-.621c-.222-.154-.497-.23-.826-.23-.306 0-.578.079-.816.238a1.568 1.568 0 0 0-.545.681 2.515 2.515 0 0 0-.187 1.004c0 .601.142 1.08.425 1.438.29.357.675.536 1.157.536.37 0 .684-.085.945-.256.26-.175.456-.431.587-.765.08 0 .145.034.196.102a.36.36 0 0 1 .085.238c0 .198-.085.389-.256.57a1.745 1.745 0 0 1-.672.425 2.421 2.421 0 0 1-.885.162Zm5.078-.655c.04.028.07.071.094.128a.327.327 0 0 1 .042.161c0 .108-.045.185-.136.23-.182.091-.417.136-.706.136-.369 0-.664-.099-.885-.298-.221-.204-.332-.476-.332-.817v-3.19h-.885v-.46h.885v-1.276h.579v1.276h1.225v.46H67.39v3.08c0 .476.204.715.612.715.261 0 .505-.049.732-.145Zm6.516-.596c0 .261.02.468.06.621.045.148.121.281.23.4a.638.638 0 0 1-.205.136.495.495 0 0 1-.213.052c-.113 0-.21-.066-.289-.196a1.382 1.382 0 0 1-.145-.536 1.863 1.863 0 0 1-.706.57 2.19 2.19 0 0 1-.927.204c-.431 0-.777-.111-1.038-.332a1.118 1.118 0 0 1-.392-.885c0-.533.258-.95.775-1.25.522-.301 1.279-.474 2.271-.519v-.273c0-.374-.096-.652-.289-.833-.187-.188-.474-.281-.86-.281-.249 0-.481.054-.697.161-.21.103-.437.276-.68.519a.17.17 0 0 1-.128.052.342.342 0 0 1-.187-.069.888.888 0 0 1-.196-.212 2.68 2.68 0 0 1 .868-.689 2.375 2.375 0 0 1 1.046-.239c.528 0 .942.142 1.242.426.307.283.46.672.46 1.165v2.008Zm-2.153.775c.307 0 .596-.085.868-.256.272-.17.508-.411.706-.723V108.2c-1.633.068-2.45.496-2.45 1.285 0 .499.292.749.876.749Zm5.45-4.348c.2 0 .35.034.452.102a.31.31 0 0 1 .161.289.374.374 0 0 1-.093.247c-.136-.074-.323-.111-.562-.111-.38 0-.686.151-.919.451-.227.301-.34.695-.34 1.183v2.578h-.579v-4.68h.58v.843c.13-.261.314-.477.552-.647a1.27 1.27 0 0 1 .749-.255Zm3.714 4.169c.04.028.07.071.093.128a.328.328 0 0 1 .043.161c0 .108-.045.185-.136.23-.182.091-.417.136-.706.136-.37 0-.664-.099-.885-.298-.222-.204-.332-.476-.332-.817v-3.19h-.885v-.46h.885v-1.276h.579v1.276h1.225v.46h-1.225v3.08c0 .476.204.715.612.715.261 0 .505-.049.732-.145Zm6.415-4.11c-.227 1.725-.658 3.285-1.293 4.68h-.528a17.632 17.632 0 0 1-.706-1.77 11.922 11.922 0 0 1-.4-1.667c-.102.59-.24 1.154-.416 1.693a15.938 15.938 0 0 1-.707 1.744h-.544c-.3-.641-.553-1.333-.757-2.076a22.546 22.546 0 0 1-.511-2.604h.596c.096.829.218 1.555.365 2.179.154.618.352 1.194.596 1.727.545-1.118.913-2.419 1.106-3.906h.562c.204 1.538.57 2.845 1.097 3.923.494-1.18.786-2.487.877-3.923h.663Zm2.653 4.765c-.658 0-1.154-.204-1.49-.613-.334-.408-.501-1.015-.501-1.82 0-1.611.663-2.417 1.99-2.417 1.328 0 1.992.806 1.992 2.417 0 .805-.168 1.412-.502 1.82-.335.409-.831.613-1.49.613Zm0-.476c.482 0 .834-.156 1.055-.468.227-.318.34-.814.34-1.489 0-.67-.113-1.16-.34-1.472-.221-.312-.573-.468-1.055-.468s-.837.156-1.064.468c-.22.312-.332.802-.332 1.472 0 .675.111 1.171.332 1.489.227.312.582.468 1.064.468Zm4.933-4.348c.199 0 .35.034.451.102a.31.31 0 0 1 .162.289.373.373 0 0 1-.094.247c-.136-.074-.323-.111-.561-.111-.38 0-.687.151-.92.451-.226.301-.34.695-.34 1.183v2.578h-.578v-4.68h.579v.843c.13-.261.314-.477.553-.647a1.27 1.27 0 0 1 .748-.255Zm5.304 4.739a3.82 3.82 0 0 0-.331.017 2.842 2.842 0 0 1-.188.017.272.272 0 0 1-.246-.136l-1.098-1.77c-.164-.266-.462-.391-.893-.374l-.392.017v2.229h-.578v-6.73h.578v3.973l.332-.008a.833.833 0 0 0 .306-.068.72.72 0 0 0 .23-.204l1.276-1.643h.715l-1.514 1.855a1.656 1.656 0 0 0-.077.094.559.559 0 0 1-.153.119c.278.074.479.21.604.408l1.429 2.204Zm2.237.085c-.255 0-.519-.042-.791-.128a2.118 2.118 0 0 1-.681-.34c-.181-.142-.272-.292-.272-.451 0-.074.022-.139.068-.196a.385.385 0 0 1 .187-.127c.204.266.425.462.664.587.238.119.524.179.859.179.357 0 .627-.083.808-.247a.83.83 0 0 0 .281-.655.602.602 0 0 0-.17-.443 1.01 1.01 0 0 0-.409-.255 8.178 8.178 0 0 0-.663-.196 7.448 7.448 0 0 1-.8-.246 1.347 1.347 0 0 1-.51-.358c-.137-.164-.205-.383-.205-.655 0-.289.077-.533.23-.732.153-.198.349-.346.587-.442.238-.096.482-.145.732-.145.357 0 .681.071.97.213.295.142.524.349.689.621-.136.142-.252.213-.349.213-.074 0-.144-.04-.213-.119a1.238 1.238 0 0 0-.476-.349 1.574 1.574 0 0 0-.647-.119c-.289 0-.519.068-.689.204-.17.136-.255.346-.255.63 0 .164.051.297.153.4.102.102.23.181.383.238.153.051.363.11.63.178.34.08.615.162.825.247.215.085.397.219.544.4.148.176.222.414.222.715 0 .419-.156.754-.468 1.004-.307.249-.718.374-1.234.374Zm3.398-.927c.113 0 .204.037.272.11.068.068.102.165.102.29v.093c0 .199-.034.397-.102.596a2.419 2.419 0 0 1-.255.544c-.148.227-.273.341-.375.341a.365.365 0 0 1-.238-.085c.153-.188.272-.364.358-.528.085-.159.141-.332.17-.519h-.043a.328.328 0 0 1-.255-.102.385.385 0 0 1-.094-.272v-.094c0-.113.031-.204.094-.272a.357.357 0 0 1 .264-.102h.102Zm8.563-.324c0 .176.005.383.017.621.011.159.017.264.017.315 0 .153-.074.23-.221.23h-.426v-.459c0-.329-.11-.644-.332-.945l-2.816-3.709v5.113h-.613v-5.956h.494c.074 0 .13.012.17.034a.4.4 0 0 1 .153.136l2.944 3.872v-4.042h.613v4.79Zm4.819 0c0 .261.02.468.06.621.045.148.122.281.229.4a.623.623 0 0 1-.204.136.494.494 0 0 1-.213.052c-.113 0-.209-.066-.289-.196a1.365 1.365 0 0 1-.144-.536 1.867 1.867 0 0 1-.707.57 2.19 2.19 0 0 1-.927.204c-.431 0-.777-.111-1.038-.332a1.117 1.117 0 0 1-.391-.885c0-.533.258-.95.774-1.25.522-.301 1.279-.474 2.272-.519v-.273c0-.374-.097-.652-.29-.833-.187-.188-.473-.281-.859-.281-.25 0-.482.054-.698.161-.21.103-.437.276-.68.519a.171.171 0 0 1-.128.052.34.34 0 0 1-.187-.069.883.883 0 0 1-.196-.212 2.68 2.68 0 0 1 .868-.689 2.375 2.375 0 0 1 1.046-.239c.528 0 .942.142 1.243.426.306.283.459.672.459 1.165v2.008Zm-2.153.775c.307 0 .596-.085.868-.256.273-.17.508-.411.707-.723V108.2c-1.634.068-2.451.496-2.451 1.285 0 .499.292.749.876.749Zm8.471-4.374c.403 0 .729.131.979.392.255.261.383.598.383 1.012v3.361h-.587v-3.335c0-.329-.074-.573-.222-.732-.147-.159-.371-.238-.672-.238-.482 0-.93.221-1.344.663.011.091.017.159.017.205v3.437h-.579v-3.42c0-.267-.082-.48-.246-.638-.159-.165-.372-.247-.638-.247-.244 0-.477.054-.698.161a2.362 2.362 0 0 0-.655.519v3.625h-.579v-3.089c0-.839-.034-1.338-.102-1.497.182-.085.326-.128.434-.128.165 0 .247.165.247.494v.034c.215-.204.437-.352.663-.443.233-.09.497-.136.792-.136.266 0 .505.063.714.188.21.119.372.283.485.493.244-.238.491-.411.741-.519.255-.108.544-.162.867-.162Zm3.073.085h.578v4.68h-.578v-4.68Zm.255-.859c-.255 0-.383-.128-.383-.383v-.076c0-.256.128-.383.383-.383h.068c.255 0 .383.127.383.383v.076c0 .255-.128.383-.383.383h-.068Zm4.136.774c.629 0 1.114.205 1.455.613.346.408.519.987.519 1.736 0 .782-.179 1.395-.536 1.837-.358.443-.851.664-1.481.664-.601 0-1.072-.179-1.412-.536-.051.301-.15.451-.298.451a.813.813 0 0 1-.425-.102c.108-.238.161-.579.161-1.021v-5.607h.596v2.399a2.423 2.423 0 0 1 1.421-.434Zm-.043 4.357c.454 0 .803-.173 1.047-.519.249-.352.374-.848.374-1.489 0-.602-.119-1.064-.357-1.387-.238-.324-.579-.485-1.021-.485-.522 0-.996.161-1.421.485v2.765c.335.42.794.63 1.378.63Zm3.296-4.272h.579v4.68h-.579v-4.68Zm.255-.859c-.255 0-.383-.128-.383-.383v-.076c0-.256.128-.383.383-.383h.068c.256 0 .383.127.383.383v.076c0 .255-.127.383-.383.383h-.068Zm5.31 4.373c0 .261.02.468.06.621.045.148.122.281.229.4a.623.623 0 0 1-.204.136.49.49 0 0 1-.212.052c-.114 0-.21-.066-.29-.196a1.383 1.383 0 0 1-.144-.536 1.867 1.867 0 0 1-.707.57 2.186 2.186 0 0 1-.927.204c-.431 0-.777-.111-1.038-.332a1.117 1.117 0 0 1-.391-.885c0-.533.258-.95.774-1.25.522-.301 1.279-.474 2.272-.519v-.273c0-.374-.097-.652-.29-.833-.187-.188-.473-.281-.859-.281-.25 0-.482.054-.698.161-.21.103-.436.276-.68.519a.171.171 0 0 1-.128.052.34.34 0 0 1-.187-.069.903.903 0 0 1-.196-.212 2.68 2.68 0 0 1 .868-.689 2.376 2.376 0 0 1 1.047-.239c.527 0 .941.142 1.242.426.306.283.459.672.459 1.165v2.008Zm-2.152.775c.306 0 .595-.085.867-.256.273-.17.508-.411.707-.723V108.2c-1.634.068-2.451.496-2.451 1.285 0 .499.292.749.877.749Zm7.271-.698c0 .346.003.581.008.706.012.119.034.227.068.323a.962.962 0 0 1-.442.103c-.085 0-.142-.06-.17-.179-.028-.125-.043-.369-.043-.732v-2.306c0-.397-.073-.683-.221-.859-.147-.181-.386-.272-.715-.272-.51 0-1.032.252-1.565.757v3.548h-.579v-3.089c0-.839-.034-1.338-.102-1.497.182-.085.326-.128.434-.128.165 0 .247.165.247.494v.076c.261-.215.522-.371.783-.467.266-.103.547-.154.842-.154.488 0 .851.134 1.089.4.244.261.366.661.366 1.2v2.076Zm5.566-3.65c.198 0 .349.034.451.102a.312.312 0 0 1 .161.289.375.375 0 0 1-.093.247c-.136-.074-.324-.111-.562-.111-.38 0-.686.151-.919.451-.227.301-.34.695-.34 1.183v2.578h-.579v-4.68h.579v.843c.13-.261.315-.477.553-.647a1.27 1.27 0 0 1 .749-.255Zm3.134 4.824c-.658 0-1.154-.204-1.489-.613-.335-.408-.502-1.015-.502-1.82 0-1.611.664-2.417 1.991-2.417s1.991.806 1.991 2.417c0 .805-.167 1.412-.502 1.82-.335.409-.831.613-1.489.613Zm0-.476c.482 0 .834-.156 1.055-.468.227-.318.34-.814.34-1.489 0-.67-.113-1.16-.34-1.472-.221-.312-.573-.468-1.055-.468s-.837.156-1.063.468c-.222.312-.332.802-.332 1.472 0 .675.11 1.171.332 1.489.226.312.581.468 1.063.468Zm4.849.476c-.687 0-1.223-.215-1.609-.647-.38-.431-.57-1.032-.57-1.803 0-.488.086-.911.256-1.268.176-.363.425-.641.748-.834.324-.198.704-.298 1.141-.298.521 0 .95.134 1.284.4.341.261.539.619.596 1.072a1.252 1.252 0 0 1-.213.068.841.841 0 0 1-.213.034c-.056 0-.099-.014-.127-.042a.821.821 0 0 1-.077-.204.986.986 0 0 0-.425-.621c-.221-.154-.496-.23-.825-.23-.307 0-.579.079-.817.238a1.57 1.57 0 0 0-.545.681 2.512 2.512 0 0 0-.187 1.004c0 .601.142 1.08.425 1.438.29.357.675.536 1.158.536.368 0 .683-.085.944-.256a1.58 1.58 0 0 0 .587-.765c.079 0 .145.034.196.102a.363.363 0 0 1 .085.238c0 .198-.085.389-.255.57a1.75 1.75 0 0 1-.673.425 2.417 2.417 0 0 1-.884.162Zm6.668-.085c-.096 0-.207.006-.332.017a2.779 2.779 0 0 1-.187.017.274.274 0 0 1-.247-.136l-1.097-1.77c-.165-.266-.462-.391-.894-.374l-.391.017v2.229h-.578v-6.73h.578v3.973l.332-.008a.832.832 0 0 0 .306-.068.72.72 0 0 0 .23-.204l1.276-1.643h.715l-1.515 1.855a2.25 2.25 0 0 0-.076.094.568.568 0 0 1-.153.119c.278.074.479.21.604.408l1.429 2.204Zm5.136-4.765c.636 0 1.121.21 1.455.63.335.414.502 1.01.502 1.787 0 .493-.088.924-.263 1.293-.171.363-.42.644-.749.842-.323.199-.703.298-1.14.298-.216 0-.434-.023-.655-.068a3.062 3.062 0 0 1-.579-.162v2.017h-.578v-4.961c0-.839-.034-1.338-.103-1.497.182-.085.327-.128.434-.128.165 0 .247.165.247.494v.034a1.88 1.88 0 0 1 .647-.425c.249-.103.51-.154.782-.154Zm-.195 4.374c.488 0 .865-.171 1.131-.511.273-.34.409-.822.409-1.446 0-1.294-.448-1.94-1.345-1.94-.26 0-.516.059-.765.179a2.177 2.177 0 0 0-.664.51v2.952c.352.171.763.256 1.234.256Zm6.54-.775c0 .261.02.468.059.621.046.148.122.281.23.4a.645.645 0 0 1-.204.136.497.497 0 0 1-.213.052c-.113 0-.21-.066-.289-.196a1.382 1.382 0 0 1-.145-.536 1.863 1.863 0 0 1-.706.57 2.19 2.19 0 0 1-.927.204c-.431 0-.777-.111-1.038-.332a1.118 1.118 0 0 1-.392-.885c0-.533.258-.95.774-1.25.522-.301 1.28-.474 2.272-.519v-.273c0-.374-.096-.652-.289-.833-.187-.188-.474-.281-.859-.281-.25 0-.483.054-.698.161-.21.103-.437.276-.681.519a.169.169 0 0 1-.127.052.344.344 0 0 1-.188-.069.88.88 0 0 1-.195-.212 2.67 2.67 0 0 1 .868-.689 2.372 2.372 0 0 1 1.046-.239c.528 0 .942.142 1.242.426.307.283.46.672.46 1.165v2.008Zm-2.153.775c.306 0 .596-.085.868-.256.272-.17.508-.411.706-.723V108.2c-1.633.068-2.45.496-2.45 1.285 0 .499.292.749.876.749Zm3.783-4.289h.579v4.68h-.579v-4.68Zm.255-.859c-.255 0-.383-.128-.383-.383v-.076c0-.256.128-.383.383-.383h.068c.256 0 .383.127.383.383v.076c0 .255-.127.383-.383.383h-.068Zm5.685 4.45c0 .346.002.581.008.706.011.119.034.227.068.323a.962.962 0 0 1-.442.103c-.085 0-.142-.06-.17-.179-.029-.125-.043-.369-.043-.732v-2.306c0-.397-.074-.683-.221-.859-.148-.181-.386-.272-.715-.272-.51 0-1.032.252-1.565.757v3.548h-.579v-3.089c0-.839-.034-1.338-.102-1.497.181-.085.326-.128.434-.128.164 0 .247.165.247.494v.076a2.72 2.72 0 0 1 .782-.467c.267-.103.548-.154.843-.154.487 0 .851.134 1.089.4.244.261.366.661.366 1.2v2.076Zm3.678.519c.04.028.071.071.094.128a.33.33 0 0 1 .042.161c0 .108-.045.185-.136.23-.181.091-.417.136-.706.136-.369 0-.664-.099-.885-.298-.221-.204-.332-.476-.332-.817v-3.19h-.885v-.46h.885v-1.276h.579v1.276h1.225v.46h-1.225v3.08c0 .476.204.715.612.715.261 0 .505-.049.732-.145Zm1.209-4.11h.578v4.68h-.578v-4.68Zm.255-.859c-.255 0-.383-.128-.383-.383v-.076c0-.256.128-.383.383-.383h.068c.255 0 .383.127.383.383v.076c0 .255-.128.383-.383.383h-.068Zm5.684 4.45c0 .346.003.581.009.706.011.119.034.227.068.323a.969.969 0 0 1-.443.103c-.085 0-.142-.06-.17-.179-.028-.125-.043-.369-.043-.732v-2.306c0-.397-.073-.683-.221-.859-.147-.181-.385-.272-.714-.272-.511 0-1.033.252-1.566.757v3.548h-.579v-3.089c0-.839-.034-1.338-.102-1.497.182-.085.327-.128.434-.128.165 0 .247.165.247.494v.076c.261-.215.522-.371.783-.467.266-.103.547-.154.842-.154.488 0 .851.134 1.089.4.244.261.366.661.366 1.2v2.076Zm5.278-3.837c.102 0 .176.028.221.085.051.051.077.136.077.255 0 .034-.006.102-.017.204-.42 0-.712.057-.876.17.226.273.34.61.34 1.013 0 1.089-.627 1.633-1.88 1.633-.386 0-.67.029-.851.086-.176.051-.264.133-.264.246 0 .256.457.383 1.37.383.641 0 1.137.108 1.489.323.351.216.527.522.527.919 0 .426-.19.752-.57.979-.374.232-.913.349-1.616.349-.664 0-1.169-.102-1.515-.307-.346-.204-.519-.504-.519-.902 0-.226.077-.428.23-.604.159-.175.377-.306.655-.391v-.025a.794.794 0 0 1-.408-.247.68.68 0 0 1-.153-.443.5.5 0 0 1 .17-.374.885.885 0 0 1 .459-.23 1.526 1.526 0 0 1-.57-.536 1.496 1.496 0 0 1-.196-.757c0-1.112.641-1.668 1.923-1.668.403 0 .746.088 1.03.264.142-.13.295-.232.459-.306.17-.08.332-.119.485-.119Zm-2.084 2.884c.436 0 .748-.085.936-.255.192-.176.289-.465.289-.868 0-.397-.097-.686-.289-.868-.193-.181-.505-.272-.936-.272-.42 0-.729.093-.928.281-.193.181-.289.468-.289.859 0 .749.406 1.123 1.217 1.123Zm.068 1.719c-.482 0-.848.065-1.098.195-.244.131-.366.321-.366.57 0 .261.122.46.366.596.244.136.599.204 1.064.204.522 0 .916-.068 1.182-.204.267-.13.4-.329.4-.596a.608.608 0 0 0-.366-.587c-.238-.119-.632-.178-1.182-.178Zm4.568.408c-.255 0-.519-.042-.791-.128a2.129 2.129 0 0 1-.681-.34c-.181-.142-.272-.292-.272-.451 0-.074.023-.139.068-.196a.39.39 0 0 1 .187-.127c.205.266.426.462.664.587.238.119.525.179.859.179.358 0 .627-.083.809-.247a.83.83 0 0 0 .28-.655.598.598 0 0 0-.17-.443 1.014 1.014 0 0 0-.408-.255 8.223 8.223 0 0 0-.664-.196 7.52 7.52 0 0 1-.8-.246 1.355 1.355 0 0 1-.51-.358c-.136-.164-.204-.383-.204-.655 0-.289.076-.533.229-.732.154-.198.349-.346.588-.442a1.94 1.94 0 0 1 .731-.145c.358 0 .681.071.97.213.295.142.525.349.689.621-.136.142-.252.213-.348.213-.074 0-.145-.04-.213-.119a1.234 1.234 0 0 0-.477-.349 1.57 1.57 0 0 0-.646-.119c-.29 0-.519.068-.689.204-.171.136-.256.346-.256.63 0 .164.051.297.153.4.103.102.23.181.383.238.153.051.363.11.63.178.34.08.615.162.825.247.216.085.397.219.545.4.147.176.221.414.221.715 0 .419-.156.754-.468 1.004-.306.249-.718.374-1.234.374ZM80.354 124.972c.261 0 .46.031.596.093.136.063.204.153.204.272a.477.477 0 0 1-.034.179c-.017.051-.04.077-.068.077a1.297 1.297 0 0 0-.587-.128c-.238 0-.42.074-.545.221-.124.148-.187.36-.187.638v.621h1.055v.443h-1.055v4.237h-.578v-4.237h-.877v-.443h.877v-.629c0-.409.108-.735.323-.979.221-.244.513-.365.876-.365Zm3.276 1.914c.198 0 .349.034.45.102a.311.311 0 0 1 .162.289.373.373 0 0 1-.093.247c-.136-.074-.324-.111-.562-.111-.38 0-.686.151-.919.451-.227.301-.34.695-.34 1.183v2.578h-.579v-4.68h.579v.843c.13-.261.315-.477.553-.647a1.27 1.27 0 0 1 .749-.255Zm3.134 4.824c-.658 0-1.154-.204-1.489-.613-.335-.408-.502-1.015-.502-1.82 0-1.611.664-2.417 1.991-2.417s1.991.806 1.991 2.417c0 .805-.167 1.412-.502 1.82-.335.409-.83.613-1.489.613Zm0-.476c.482 0 .834-.156 1.055-.468.227-.318.34-.814.34-1.489 0-.67-.113-1.16-.34-1.472-.221-.312-.573-.468-1.055-.468s-.837.156-1.063.468c-.222.312-.332.802-.332 1.472 0 .675.11 1.171.332 1.489.226.312.581.468 1.063.468Zm7.954-4.374c.403 0 .729.131.978.392.256.261.383.598.383 1.012v3.361h-.587v-3.335c0-.329-.073-.573-.22-.732-.148-.159-.372-.238-.673-.238-.482 0-.93.221-1.344.663.011.091.017.159.017.205v3.437h-.579v-3.42c0-.267-.082-.48-.247-.638-.159-.165-.371-.247-.638-.247-.244 0-.476.054-.697.161a2.37 2.37 0 0 0-.656.519v3.625h-.578v-3.089c0-.839-.034-1.338-.102-1.497.181-.085.326-.128.434-.128.164 0 .246.165.246.494v.034a2.13 2.13 0 0 1 .664-.443c.233-.09.496-.136.791-.136.267 0 .505.063.715.188.21.119.372.283.485.493.244-.238.49-.411.74-.519.256-.108.545-.162.868-.162Zm8.38.511c.017.573-.198 1.157-.647 1.753-.448.589-1.111 1.256-1.991 1.999h2.596v.502H99.49v-.306a22.536 22.536 0 0 0 1.753-1.557c.443-.448.769-.862.979-1.243.215-.385.323-.765.323-1.14 0-.397-.105-.697-.315-.902-.204-.209-.496-.314-.876-.314-.403 0-.715.107-.936.323-.221.21-.355.553-.4 1.03-.164 0-.278-.023-.34-.069-.063-.045-.094-.124-.094-.238 0-.283.068-.541.204-.774.142-.238.346-.425.613-.562.272-.136.59-.204.953-.204.527 0 .944.142 1.251.426.306.278.47.703.493 1.276Zm3.004.4c.363 0 .687.079.97.238.29.159.514.383.673.672.164.284.246.613.246.987 0 .403-.079.76-.238 1.072a1.726 1.726 0 0 1-.681.715 2.083 2.083 0 0 1-1.029.247 2.56 2.56 0 0 1-.911-.154 1.786 1.786 0 0 1-.638-.399c-.153-.165-.229-.329-.229-.494 0-.187.107-.303.323-.349.255.601.74.902 1.455.902.448 0 .791-.139 1.029-.417.244-.283.366-.646.366-1.089 0-.482-.122-.839-.366-1.072-.238-.238-.573-.357-1.004-.357a1.62 1.62 0 0 0-.731.153 1.55 1.55 0 0 0-.562.476l-.417-.059.204-3.174h2.936v.494h-2.451l-.127 1.991c.317-.256.712-.383 1.182-.383Zm3.597 3.012c.113 0 .204.037.272.11.068.068.102.165.102.29v.093c0 .199-.034.397-.102.596a2.419 2.419 0 0 1-.255.544c-.148.227-.273.341-.375.341a.363.363 0 0 1-.238-.085 3.15 3.15 0 0 0 .357-.528c.085-.159.142-.332.17-.519h-.042a.328.328 0 0 1-.255-.102.385.385 0 0 1-.094-.272v-.094c0-.113.031-.204.094-.272a.356.356 0 0 1 .263-.102h.103Zm3.902.944c-.721 0-1.271-.258-1.651-.774-.374-.522-.562-1.257-.562-2.204 0-1.004.188-1.781.562-2.331.38-.556.93-.834 1.651-.834.72 0 1.267.278 1.642.834.38.55.57 1.327.57 2.331 0 .947-.19 1.682-.57 2.204-.375.516-.922.774-1.642.774Zm0-.527c.538 0 .944-.213 1.216-.639.278-.425.417-1.029.417-1.812 0-.851-.139-1.503-.417-1.957-.272-.453-.678-.68-1.216-.68-.545 0-.953.227-1.226.68-.272.454-.408 1.106-.408 1.957 0 .789.136 1.396.408 1.821.273.42.681.63 1.226.63Zm5.276.527c-.721 0-1.271-.258-1.651-.774-.374-.522-.561-1.257-.561-2.204 0-1.004.187-1.781.561-2.331.38-.556.93-.834 1.651-.834.72 0 1.267.278 1.642.834.38.55.57 1.327.57 2.331 0 .947-.19 1.682-.57 2.204-.375.516-.922.774-1.642.774Zm0-.527c.539 0 .944-.213 1.216-.639.278-.425.417-1.029.417-1.812 0-.851-.139-1.503-.417-1.957-.272-.453-.677-.68-1.216-.68-.545 0-.953.227-1.225.68-.273.454-.409 1.106-.409 1.957 0 .789.136 1.396.409 1.821.272.42.68.63 1.225.63Zm5.276.527c-.721 0-1.271-.258-1.651-.774-.374-.522-.561-1.257-.561-2.204 0-1.004.187-1.781.561-2.331.38-.556.93-.834 1.651-.834.72 0 1.268.278 1.642.834.38.55.57 1.327.57 2.331 0 .947-.19 1.682-.57 2.204-.374.516-.922.774-1.642.774Zm0-.527c.539 0 .944-.213 1.217-.639.277-.425.416-1.029.416-1.812 0-.851-.139-1.503-.416-1.957-.273-.453-.678-.68-1.217-.68-.545 0-.953.227-1.225.68-.273.454-.409 1.106-.409 1.957 0 .789.136 1.396.409 1.821.272.42.68.63 1.225.63Zm8.635-2.646c.312.085.567.258.766.519.198.26.298.561.298.901 0 .528-.182.936-.545 1.226-.363.283-.879.425-1.548.425h-2.042v-5.956h1.957c.589 0 1.055.142 1.395.426.34.278.51.658.51 1.14 0 .3-.073.57-.221.808a1.217 1.217 0 0 1-.57.511Zm.179-1.319c0-.329-.116-.587-.349-.775-.227-.187-.542-.28-.944-.28h-1.345v2.169h1.319c.879 0 1.319-.371 1.319-1.114Zm-1.293 3.88c.555 0 .955-.088 1.199-.264.244-.182.366-.474.366-.877 0-.397-.128-.686-.383-.867-.249-.182-.649-.273-1.199-.273h-1.328v2.281h1.345Zm5.54.595c-.811 0-1.44-.267-1.888-.8-.443-.533-.664-1.287-.664-2.263 0-.981.221-1.736.664-2.263.442-.533 1.072-.8 1.888-.8.329 0 .636.057.919.17.284.108.528.27.732.485a.544.544 0 0 1-.145.247.305.305 0 0 1-.212.085.359.359 0 0 1-.221-.076 1.721 1.721 0 0 0-1.09-.358c-.623 0-1.097.213-1.42.638-.324.426-.485 1.05-.485 1.872 0 .817.161 1.438.485 1.863.323.426.797.639 1.42.639.267 0 .505-.037.715-.111.216-.074.428-.196.638-.366a.272.272 0 0 1 .187.094.265.265 0 0 1 .077.195c0 .131-.077.253-.23.366a1.812 1.812 0 0 1-.595.281 2.873 2.873 0 0 1-.775.102Zm6.371-.595c0 .204-.032.34-.094.408-.057.068-.173.102-.349.102h-3.122v-5.956h3.556v.511h-2.944v2.144h2.536v.51h-2.536v2.281h2.953Zm1.74.51c-.255 0-.383-.128-.383-.383v-.076c0-.256.128-.383.383-.383h.068c.255 0 .383.127.383.383v.076c0 .255-.128.383-.383.383h-.068ZM27.938 146.669c-.119.8-.286 1.628-.502 2.485a79.54 79.54 0 0 1-.987 3.471h-.697a177.079 177.079 0 0 1-.851-2.927 41.231 41.231 0 0 1-.434-1.761 44.238 44.238 0 0 1-.485 1.957c-.187.686-.454 1.597-.8 2.731h-.698a75.52 75.52 0 0 1-1.02-3.386 28.814 28.814 0 0 1-.554-2.57h.613c.108.709.255 1.441.442 2.195.193.749.483 1.733.868 2.953.227-.704.44-1.413.638-2.127.205-.721.471-1.728.8-3.021h.357c.494 1.793.82 2.97.979 3.531.164.562.329 1.098.493 1.608.37-1.202.644-2.181.826-2.935.187-.755.332-1.489.434-2.204h.578Zm2.463 6.041c-.658 0-1.154-.204-1.489-.613-.335-.408-.502-1.015-.502-1.82 0-1.611.664-2.417 1.99-2.417 1.328 0 1.992.806 1.992 2.417 0 .805-.168 1.412-.502 1.82-.335.409-.831.613-1.49.613Zm0-.476c.482 0 .834-.156 1.055-.468.227-.318.34-.814.34-1.489 0-.67-.113-1.16-.34-1.472-.221-.312-.573-.468-1.055-.468s-.837.156-1.064.468c-.22.312-.331.802-.331 1.472 0 .675.11 1.171.331 1.489.227.312.582.468 1.064.468Zm4.661.476c-.658 0-1.154-.204-1.489-.613-.334-.408-.502-1.015-.502-1.82 0-1.611.664-2.417 1.991-2.417 1.328 0 1.991.806 1.991 2.417 0 .805-.167 1.412-.502 1.82-.334.409-.83.613-1.489.613Zm0-.476c.482 0 .834-.156 1.055-.468.227-.318.34-.814.34-1.489 0-.67-.113-1.16-.34-1.472-.221-.312-.573-.468-1.055-.468s-.837.156-1.063.468c-.222.312-.332.802-.332 1.472 0 .675.11 1.171.332 1.489.226.312.581.468 1.063.468Zm6.644-.698c0 .181.011.366.034.553.023.187.051.343.085.468a.914.914 0 0 1-.391.102c-.153 0-.25-.193-.29-.579a1.66 1.66 0 0 1-.612.485c-.221.097-.494.145-.817.145-.618 0-1.103-.213-1.455-.638-.352-.431-.527-1.021-.527-1.77 0-.771.187-1.37.561-1.795.38-.431.908-.647 1.583-.647.21 0 .43.04.663.119.239.074.434.168.587.281v-2.365h.579v5.641Zm-1.949.698c.29 0 .545-.06.766-.179a1.84 1.84 0 0 0 .604-.553v-2.68a1.602 1.602 0 0 0-.561-.358 1.797 1.797 0 0 0-.69-.144c-.499 0-.881.17-1.148.51-.267.341-.4.831-.4 1.472 0 .624.122 1.103.366 1.438.244.329.598.494 1.063.494Zm4.073-.451c.114 0 .204.037.272.11.068.068.102.165.102.29v.093c0 .199-.034.397-.102.596a2.42 2.42 0 0 1-.255.544c-.147.227-.272.341-.374.341a.365.365 0 0 1-.239-.085c.154-.188.273-.364.358-.528a1.6 1.6 0 0 0 .17-.519h-.043a.33.33 0 0 1-.255-.102.387.387 0 0 1-.093-.272v-.094c0-.113.03-.204.093-.272a.357.357 0 0 1 .264-.102h.102Zm5.977.927c-.687 0-1.223-.215-1.609-.647-.38-.431-.57-1.032-.57-1.803 0-.488.086-.911.256-1.268.175-.363.425-.641.748-.834.324-.198.704-.298 1.14-.298.522 0 .95.134 1.285.4.34.261.54.619.596 1.072a1.26 1.26 0 0 1-.213.068.842.842 0 0 1-.213.034c-.056 0-.099-.014-.127-.042a.814.814 0 0 1-.077-.204.987.987 0 0 0-.425-.621c-.221-.154-.497-.23-.825-.23-.307 0-.58.079-.817.238a1.568 1.568 0 0 0-.545.681 2.515 2.515 0 0 0-.187 1.004c0 .601.142 1.08.425 1.438.29.357.675.536 1.157.536.37 0 .684-.085.945-.256.26-.175.457-.431.587-.765.08 0 .145.034.196.102a.36.36 0 0 1 .085.238c0 .198-.085.389-.255.57a1.745 1.745 0 0 1-.673.425 2.422 2.422 0 0 1-.885.162Zm3.018-6.815h.579v6.73h-.579v-6.73Zm3.757 6.815c-.658 0-1.154-.204-1.489-.613-.335-.408-.502-1.015-.502-1.82 0-1.611.664-2.417 1.991-2.417s1.991.806 1.991 2.417c0 .805-.167 1.412-.502 1.82-.335.409-.83.613-1.489.613Zm0-.476c.482 0 .834-.156 1.055-.468.227-.318.34-.814.34-1.489 0-.67-.113-1.16-.34-1.472-.221-.312-.573-.468-1.055-.468s-.837.156-1.063.468c-.222.312-.332.802-.332 1.472 0 .675.11 1.171.332 1.489.227.312.581.468 1.063.468Zm5.24-.179c.04.028.07.071.094.128a.328.328 0 0 1 .042.161c0 .108-.045.185-.136.23-.181.091-.417.136-.706.136-.369 0-.664-.099-.885-.298-.221-.204-.332-.476-.332-.817v-3.19h-.885v-.46h.885v-1.276h.579v1.276h1.225v.46h-1.225v3.08c0 .476.204.715.612.715.261 0 .505-.049.732-.145Zm3.276-4.195c.488 0 .873.142 1.157.426.284.278.425.658.425 1.14v3.199h-.578v-3.14c0-.368-.09-.652-.272-.85-.182-.199-.443-.298-.783-.298-.261 0-.536.059-.825.179a2.7 2.7 0 0 0-.775.459v3.65h-.578v-6.73h.578v2.527c.25-.182.516-.321.8-.417.284-.096.567-.145.85-.145Zm3.709 3.923c.113 0 .204.037.272.11.068.068.102.165.102.29v.093c0 .199-.034.397-.102.596a2.415 2.415 0 0 1-.255.544c-.148.227-.273.341-.375.341a.365.365 0 0 1-.238-.085c.153-.188.272-.364.357-.528a1.6 1.6 0 0 0 .17-.519h-.042a.33.33 0 0 1-.255-.102.387.387 0 0 1-.094-.272v-.094c0-.113.031-.204.094-.272a.357.357 0 0 1 .263-.102h.103Zm6.333-3.923c.63 0 1.115.205 1.455.613.346.408.52.987.52 1.736 0 .782-.18 1.395-.537 1.837-.357.443-.85.664-1.48.664-.602 0-1.072-.179-1.413-.536-.05.301-.15.451-.297.451a.815.815 0 0 1-.426-.102c.108-.238.162-.579.162-1.021v-5.607h.595v2.399a2.422 2.422 0 0 1 1.421-.434Zm-.042 4.357c.454 0 .802-.173 1.046-.519.25-.352.375-.848.375-1.489 0-.602-.12-1.064-.358-1.387-.238-.324-.578-.485-1.02-.485-.523 0-.996.161-1.422.485v2.765c.335.42.794.63 1.379.63Zm4.69.493c-.657 0-1.153-.204-1.488-.613-.335-.408-.502-1.015-.502-1.82 0-1.611.663-2.417 1.99-2.417 1.328 0 1.992.806 1.992 2.417 0 .805-.168 1.412-.502 1.82-.335.409-.831.613-1.49.613Zm0-.476c.483 0 .835-.156 1.056-.468.227-.318.34-.814.34-1.489 0-.67-.113-1.16-.34-1.472-.221-.312-.573-.468-1.055-.468s-.837.156-1.064.468c-.22.312-.332.802-.332 1.472 0 .675.111 1.171.332 1.489.227.312.582.468 1.064.468Zm6.755-.698c0 .346.003.581.009.706.011.119.034.227.068.323a.964.964 0 0 1-.443.103c-.085 0-.142-.06-.17-.179-.028-.125-.043-.369-.043-.732v-2.306c0-.397-.073-.683-.22-.859-.148-.181-.386-.272-.715-.272-.51 0-1.033.252-1.566.757v3.548h-.578v-3.089c0-.839-.035-1.338-.103-1.497.182-.085.327-.128.434-.128.165 0 .247.165.247.494v.076c.261-.215.522-.371.783-.467.267-.103.547-.154.842-.154.488 0 .851.134 1.09.4.243.261.365.661.365 1.2v2.076Zm5.193-1.583c0 .131-.005.261-.017.392h-3.386c.011.59.142 1.049.391 1.378.255.329.607.494 1.055.494.306 0 .565-.06.775-.179.215-.119.394-.309.535-.57.04-.074.1-.111.18-.111.09 0 .215.054.374.162a1.64 1.64 0 0 1-.69.876c-.334.21-.726.315-1.174.315-.414 0-.777-.096-1.089-.289a1.917 1.917 0 0 1-.706-.843c-.164-.368-.247-.802-.247-1.301 0-.755.187-1.345.562-1.77.374-.431.887-.647 1.54-.647.595 0 1.06.185 1.395.553.335.369.502.882.502 1.54Zm-.595-.068c0-1.021-.443-1.531-1.328-1.531-.43 0-.771.13-1.02.391-.25.261-.398.641-.443 1.14h2.79Zm5.644 2.825c-.686 0-1.222-.215-1.608-.647-.38-.431-.57-1.032-.57-1.803 0-.488.085-.911.255-1.268.176-.363.425-.641.749-.834.323-.198.703-.298 1.14-.298.522 0 .95.134 1.284.4.34.261.54.619.596 1.072a1.254 1.254 0 0 1-.213.068.842.842 0 0 1-.212.034c-.057 0-.1-.014-.128-.042a.813.813 0 0 1-.077-.204.987.987 0 0 0-.425-.621c-.221-.154-.496-.23-.825-.23-.306 0-.579.079-.817.238a1.567 1.567 0 0 0-.544.681 2.515 2.515 0 0 0-.188 1.004c0 .601.142 1.08.426 1.438.289.357.675.536 1.157.536.368 0 .683-.085.944-.256.261-.175.457-.431.587-.765.08 0 .145.034.196.102a.36.36 0 0 1 .085.238c0 .198-.085.389-.255.57a1.745 1.745 0 0 1-.672.425 2.422 2.422 0 0 1-.885.162Zm6.218-1.251c0 .261.019.468.059.621.045.148.122.281.23.4a.645.645 0 0 1-.204.136.497.497 0 0 1-.213.052c-.114 0-.21-.066-.289-.196a1.382 1.382 0 0 1-.145-.536 1.863 1.863 0 0 1-.706.57 2.19 2.19 0 0 1-.928.204c-.431 0-.777-.111-1.038-.332a1.118 1.118 0 0 1-.391-.885c0-.533.258-.95.774-1.25.522-.301 1.279-.474 2.272-.519v-.273c0-.374-.096-.652-.289-.833-.188-.188-.474-.281-.86-.281-.249 0-.482.054-.697.161-.21.103-.437.276-.681.519a.17.17 0 0 1-.128.052.342.342 0 0 1-.187-.069.888.888 0 0 1-.195-.212c.255-.301.544-.531.867-.689a2.376 2.376 0 0 1 1.047-.239c.527 0 .941.142 1.242.426.306.283.46.672.46 1.165v2.008Zm-2.153.775c.306 0 .595-.085.868-.256.272-.17.507-.411.706-.723V150.2c-1.634.068-2.45.496-2.45 1.285 0 .499.292.749.876.749Zm7.271-.698c0 .346.003.581.009.706.011.119.034.227.068.323a.966.966 0 0 1-.443.103c-.085 0-.141-.06-.17-.179-.028-.125-.042-.369-.042-.732v-2.306c0-.397-.074-.683-.222-.859-.147-.181-.385-.272-.714-.272-.511 0-1.033.252-1.566.757v3.548h-.578v-3.089c0-.839-.034-1.338-.102-1.497.181-.085.326-.128.433-.128.165 0 .247.165.247.494v.076c.261-.215.522-.371.783-.467.267-.103.547-.154.842-.154.488 0 .851.134 1.089.4.244.261.366.661.366 1.2v2.076Zm3.679.519c.04.028.071.071.093.128a.321.321 0 0 1 .043.161c0 .108-.045.185-.136.23-.182.091-.417.136-.706.136-.369 0-.664-.099-.885-.298-.221-.204-.332-.476-.332-.817v-3.19h-.885v-.46h.885v-1.276h.578v1.276h1.226v.46h-1.226v3.08c0 .476.205.715.613.715.261 0 .505-.049.732-.145Zm8.609-4.11c-.227 1.725-.658 3.285-1.293 4.68h-.528a17.675 17.675 0 0 1-.706-1.77 11.894 11.894 0 0 1-.4-1.667 12.07 12.07 0 0 1-.417 1.693 15.934 15.934 0 0 1-.706 1.744h-.545c-.3-.641-.553-1.333-.757-2.076a22.49 22.49 0 0 1-.51-2.604h.595c.097.829.219 1.555.366 2.179.153.618.352 1.194.596 1.727.544-1.118.913-2.419 1.106-3.906h.561c.204 1.538.57 2.845 1.098 3.923.493-1.18.785-2.487.876-3.923h.664Zm1.257 0h.579v4.68h-.579v-4.68Zm.255-.859c-.255 0-.383-.128-.383-.383v-.076c0-.256.128-.383.383-.383h.068c.256 0 .383.127.383.383v.076c0 .255-.127.383-.383.383h-.068Zm4.17 4.969c.04.028.071.071.094.128a.33.33 0 0 1 .042.161c0 .108-.045.185-.136.23-.181.091-.417.136-.706.136-.369 0-.664-.099-.885-.298-.221-.204-.332-.476-.332-.817v-3.19h-.885v-.46h.885v-1.276h.579v1.276h1.225v.46h-1.225v3.08c0 .476.204.715.612.715.261 0 .505-.049.732-.145Zm3.276-4.195c.488 0 .873.142 1.157.426.284.278.425.658.425 1.14v3.199h-.578v-3.14c0-.368-.091-.652-.272-.85-.182-.199-.443-.298-.783-.298a2.15 2.15 0 0 0-.825.179c-.29.113-.548.266-.775.459v3.65h-.578v-6.73h.578v2.527c.25-.182.516-.321.8-.417.284-.096.567-.145.851-.145Zm4.44 4.85c-.255 0-.519-.042-.791-.128a2.129 2.129 0 0 1-.681-.34c-.181-.142-.272-.292-.272-.451 0-.074.023-.139.068-.196a.39.39 0 0 1 .187-.127c.205.266.426.462.664.587.238.119.525.179.859.179.358 0 .627-.083.809-.247a.83.83 0 0 0 .28-.655.598.598 0 0 0-.17-.443 1.014 1.014 0 0 0-.408-.255 8.223 8.223 0 0 0-.664-.196 7.52 7.52 0 0 1-.8-.246 1.355 1.355 0 0 1-.51-.358c-.136-.164-.204-.383-.204-.655 0-.289.076-.533.229-.732.154-.198.349-.346.587-.442a1.95 1.95 0 0 1 .732-.145c.358 0 .681.071.97.213.295.142.525.349.689.621-.136.142-.252.213-.349.213-.073 0-.144-.04-.212-.119a1.234 1.234 0 0 0-.477-.349 1.572 1.572 0 0 0-.646-.119c-.29 0-.519.068-.69.204-.17.136-.255.346-.255.63 0 .164.051.297.153.4.102.102.23.181.383.238.153.051.363.11.63.178.34.08.615.162.825.247.216.085.397.219.545.4.147.176.221.414.221.715 0 .419-.156.754-.468 1.004-.306.249-.718.374-1.234.374Zm4.955-.655c.04.028.071.071.094.128a.33.33 0 0 1 .042.161c0 .108-.045.185-.136.23-.181.091-.417.136-.706.136-.369 0-.664-.099-.885-.298-.221-.204-.332-.476-.332-.817v-3.19h-.885v-.46h.885v-1.276h.579v1.276h1.225v.46h-1.225v3.08c0 .476.204.715.612.715.261 0 .505-.049.732-.145Zm4.322-.596c0 .261.02.468.06.621.045.148.122.281.23.4a.645.645 0 0 1-.204.136.497.497 0 0 1-.213.052c-.114 0-.21-.066-.289-.196a1.382 1.382 0 0 1-.145-.536 1.863 1.863 0 0 1-.706.57 2.19 2.19 0 0 1-.928.204c-.431 0-.777-.111-1.038-.332a1.117 1.117 0 0 1-.391-.885c0-.533.258-.95.774-1.25.522-.301 1.279-.474 2.272-.519v-.273c0-.374-.097-.652-.289-.833-.188-.188-.474-.281-.86-.281-.249 0-.482.054-.697.161-.21.103-.437.276-.681.519a.171.171 0 0 1-.128.052.343.343 0 0 1-.187-.069.903.903 0 0 1-.196-.212c.256-.301.545-.531.868-.689a2.376 2.376 0 0 1 1.047-.239c.527 0 .941.142 1.242.426.306.283.459.672.459 1.165v2.008Zm-2.152.775c.306 0 .595-.085.868-.256.272-.17.507-.411.706-.723V150.2c-1.634.068-2.45.496-2.45 1.285 0 .499.292.749.876.749Zm7.271-.698c0 .346.003.581.009.706.011.119.034.227.068.323a.966.966 0 0 1-.443.103c-.085 0-.141-.06-.17-.179-.028-.125-.042-.369-.042-.732v-2.306c0-.397-.074-.683-.222-.859-.147-.181-.385-.272-.714-.272-.511 0-1.033.252-1.566.757v3.548h-.578v-3.089c0-.839-.034-1.338-.102-1.497.181-.085.326-.128.433-.128.165 0 .247.165.247.494v.076c.261-.215.522-.371.783-.467.267-.103.547-.154.842-.154.488 0 .851.134 1.089.4.244.261.366.661.366 1.2v2.076Zm5.083 0a4.534 4.534 0 0 0 .119 1.021.918.918 0 0 1-.392.102c-.153 0-.249-.193-.289-.579a1.656 1.656 0 0 1-.613.485c-.221.097-.493.145-.816.145-.619 0-1.104-.213-1.455-.638-.352-.431-.528-1.021-.528-1.77 0-.771.187-1.37.562-1.795.38-.431.907-.647 1.582-.647.21 0 .431.04.664.119.238.074.434.168.587.281v-2.365h.579v5.641Zm-1.949.698c.29 0 .545-.06.766-.179.221-.119.423-.304.604-.553v-2.68a1.6 1.6 0 0 0-.561-.358 1.802 1.802 0 0 0-.69-.144c-.499 0-.882.17-1.148.51-.267.341-.4.831-.4 1.472 0 .624.122 1.103.366 1.438.244.329.598.494 1.063.494Zm9.338-2.281c0 .131-.006.261-.017.392h-3.387c.012.59.142 1.049.392 1.378.255.329.607.494 1.055.494.306 0 .564-.06.774-.179.216-.119.394-.309.536-.57a.192.192 0 0 1 .179-.111c.091 0 .215.054.374.162a1.64 1.64 0 0 1-.689.876c-.335.21-.726.315-1.174.315-.414 0-.777-.096-1.089-.289a1.915 1.915 0 0 1-.706-.843c-.165-.368-.247-.802-.247-1.301 0-.755.187-1.345.561-1.77.375-.431.888-.647 1.54-.647.596 0 1.061.185 1.396.553.334.369.502.882.502 1.54Zm-.596-.068c0-1.021-.442-1.531-1.327-1.531-.431 0-.771.13-1.021.391-.25.261-.397.641-.442 1.14h2.79Zm1.783-3.99h.579v6.73h-.579v-6.73Zm5.85 4.058c0 .131-.005.261-.017.392h-3.386c.011.59.142 1.049.391 1.378.256.329.607.494 1.056.494.306 0 .564-.06.774-.179.215-.119.394-.309.536-.57a.19.19 0 0 1 .178-.111c.091 0 .216.054.375.162a1.644 1.644 0 0 1-.689.876c-.335.21-.726.315-1.174.315-.415 0-.778-.096-1.09-.289a1.922 1.922 0 0 1-.706-.843c-.164-.368-.246-.802-.246-1.301 0-.755.187-1.345.561-1.77.374-.431.888-.647 1.54-.647.596 0 1.061.185 1.395.553.335.369.502.882.502 1.54Zm-.595-.068c0-1.021-.443-1.531-1.327-1.531-.432 0-.772.13-1.021.391-.25.261-.398.641-.443 1.14h2.791Zm6.556-2.025c.403 0 .729.131.979.392.255.261.382.598.382 1.012v3.361h-.587v-3.335c0-.329-.073-.573-.221-.732-.147-.159-.371-.238-.672-.238-.482 0-.93.221-1.344.663.011.091.017.159.017.205v3.437h-.579v-3.42c0-.267-.082-.48-.247-.638-.158-.165-.371-.247-.638-.247a1.58 1.58 0 0 0-.697.161 2.38 2.38 0 0 0-.656.519v3.625h-.578v-3.089c0-.839-.034-1.338-.102-1.497.181-.085.326-.128.434-.128.164 0 .246.165.246.494v.034c.216-.204.437-.352.664-.443a2.18 2.18 0 0 1 .791-.136c.267 0 .505.063.715.188.21.119.372.283.485.493.244-.238.491-.411.74-.519a2.21 2.21 0 0 1 .868-.162Zm6.561 2.093c0 .131-.006.261-.017.392h-3.386c.011.59.141 1.049.391 1.378.255.329.607.494 1.055.494.306 0 .564-.06.774-.179.216-.119.394-.309.536-.57.04-.074.1-.111.179-.111.091 0 .215.054.374.162a1.64 1.64 0 0 1-.689.876c-.335.21-.726.315-1.174.315-.414 0-.777-.096-1.089-.289a1.915 1.915 0 0 1-.706-.843c-.165-.368-.247-.802-.247-1.301 0-.755.187-1.345.562-1.77.374-.431.887-.647 1.54-.647.595 0 1.06.185 1.395.553.335.369.502.882.502 1.54Zm-.596-.068c0-1.021-.442-1.531-1.327-1.531-.431 0-.771.13-1.021.391-.25.261-.397.641-.442 1.14h2.79Zm5.357 1.651c0 .346.003.581.008.706.012.119.034.227.068.323a.962.962 0 0 1-.442.103c-.085 0-.142-.06-.17-.179-.029-.125-.043-.369-.043-.732v-2.306c0-.397-.073-.683-.221-.859-.147-.181-.386-.272-.715-.272-.51 0-1.032.252-1.565.757v3.548h-.579v-3.089c0-.839-.034-1.338-.102-1.497.182-.085.326-.128.434-.128.165 0 .247.165.247.494v.076c.261-.215.522-.371.783-.467.266-.103.547-.154.842-.154.488 0 .851.134 1.089.4.244.261.366.661.366 1.2v2.076Zm3.678.519c.04.028.071.071.094.128a.332.332 0 0 1 .043.161c0 .108-.046.185-.137.23-.181.091-.416.136-.706.136-.368 0-.663-.099-.885-.298-.221-.204-.331-.476-.331-.817v-3.19h-.885v-.46h.885v-1.276h.578v1.276h1.225v.46h-1.225v3.08c0 .476.204.715.613.715.261 0 .505-.049.731-.145Zm2.357.655c-.255 0-.519-.042-.791-.128a2.129 2.129 0 0 1-.681-.34c-.181-.142-.272-.292-.272-.451 0-.074.023-.139.068-.196a.39.39 0 0 1 .187-.127c.205.266.426.462.664.587.238.119.525.179.859.179.358 0 .627-.083.809-.247a.83.83 0 0 0 .28-.655.598.598 0 0 0-.17-.443 1.007 1.007 0 0 0-.408-.255 8.223 8.223 0 0 0-.664-.196 7.421 7.421 0 0 1-.799-.246 1.35 1.35 0 0 1-.511-.358c-.136-.164-.204-.383-.204-.655 0-.289.076-.533.23-.732.153-.198.348-.346.587-.442a1.94 1.94 0 0 1 .731-.145c.358 0 .681.071.97.213.295.142.525.349.689.621-.136.142-.252.213-.348.213-.074 0-.145-.04-.213-.119a1.234 1.234 0 0 0-.477-.349 1.57 1.57 0 0 0-.646-.119c-.289 0-.519.068-.689.204-.171.136-.256.346-.256.63a.54.54 0 0 0 .154.4c.102.102.229.181.382.238.154.051.363.11.63.178.34.08.615.162.825.247.216.085.397.219.545.4.147.176.221.414.221.715 0 .419-.156.754-.468 1.004-.306.249-.717.374-1.234.374Zm6.323 0c-.255 0-.519-.042-.791-.128a2.112 2.112 0 0 1-.68-.34c-.182-.142-.273-.292-.273-.451 0-.074.023-.139.068-.196a.388.388 0 0 1 .188-.127c.204.266.425.462.663.587.238.119.525.179.859.179.358 0 .627-.083.809-.247a.83.83 0 0 0 .281-.655.598.598 0 0 0-.171-.443 1.007 1.007 0 0 0-.408-.255 8.223 8.223 0 0 0-.664-.196 7.421 7.421 0 0 1-.799-.246 1.35 1.35 0 0 1-.511-.358c-.136-.164-.204-.383-.204-.655 0-.289.076-.533.23-.732.153-.198.348-.346.587-.442a1.94 1.94 0 0 1 .731-.145c.358 0 .681.071.97.213.295.142.525.349.689.621-.136.142-.252.213-.348.213-.074 0-.145-.04-.213-.119a1.234 1.234 0 0 0-.477-.349 1.57 1.57 0 0 0-.646-.119c-.289 0-.519.068-.689.204-.17.136-.256.346-.256.63a.54.54 0 0 0 .154.4c.102.102.229.181.382.238.154.051.363.11.63.178.34.08.616.162.825.247.216.085.397.219.545.4.147.176.221.414.221.715 0 .419-.156.754-.468 1.004-.306.249-.717.374-1.234.374Zm4.377 0c-.658 0-1.155-.204-1.489-.613-.335-.408-.502-1.015-.502-1.82 0-1.611.663-2.417 1.991-2.417 1.327 0 1.991.806 1.991 2.417 0 .805-.168 1.412-.502 1.82-.335.409-.831.613-1.489.613Zm0-.476c.482 0 .834-.156 1.055-.468.227-.318.34-.814.34-1.489 0-.67-.113-1.16-.34-1.472-.221-.312-.573-.468-1.055-.468s-.837.156-1.064.468c-.221.312-.332.802-.332 1.472 0 .675.111 1.171.332 1.489.227.312.582.468 1.064.468ZM24.674 169.86c.403 0 .73.131.979.392.255.261.383.598.383 1.012v3.361h-.587v-3.335c0-.329-.074-.573-.222-.732-.147-.159-.371-.238-.672-.238-.482 0-.93.221-1.344.663.011.091.017.159.017.205v3.437h-.579v-3.42c0-.267-.082-.48-.246-.638-.16-.165-.372-.247-.638-.247-.244 0-.477.054-.698.161a2.372 2.372 0 0 0-.655.519v3.625h-.579v-3.089c0-.839-.034-1.338-.102-1.497.181-.085.326-.128.434-.128.164 0 .247.165.247.494v.034c.215-.204.436-.352.663-.443a2.18 2.18 0 0 1 .792-.136c.266 0 .504.063.714.188.21.119.372.283.485.493.244-.238.49-.411.74-.519.256-.108.545-.162.868-.162Zm6.536 3.804c0 .329.042.629.127.901a.72.72 0 0 1-.366.103.286.286 0 0 1-.263-.145c-.051-.102-.08-.284-.085-.545-.16.222-.383.4-.673.536-.289.131-.6.196-.935.196-.96 0-1.438-.525-1.438-1.574v-3.191h.578v3.131c0 .415.077.715.23.902.153.182.397.273.732.273.3 0 .581-.077.842-.23a1.9 1.9 0 0 0 .663-.647v-3.429h.588v3.719Zm3.312 1.046c-.686 0-1.222-.215-1.608-.647-.38-.431-.57-1.032-.57-1.803 0-.488.085-.911.255-1.268.176-.363.426-.641.75-.834.323-.198.703-.298 1.14-.298.521 0 .95.134 1.284.4.34.261.539.619.596 1.072a1.254 1.254 0 0 1-.213.068.842.842 0 0 1-.213.034c-.056 0-.099-.014-.127-.042a.813.813 0 0 1-.077-.204.987.987 0 0 0-.425-.621c-.222-.154-.497-.23-.826-.23-.306 0-.578.079-.816.238a1.567 1.567 0 0 0-.545.681 2.515 2.515 0 0 0-.187 1.004c0 .601.142 1.08.425 1.438.29.357.675.536 1.157.536.369 0 .684-.085.945-.256.26-.175.456-.431.587-.765.08 0 .145.034.195.102a.36.36 0 0 1 .086.238c0 .198-.086.389-.256.57a1.744 1.744 0 0 1-.672.425 2.421 2.421 0 0 1-.885.162Zm5.172-4.85c.487 0 .873.142 1.157.426.283.278.425.658.425 1.14v3.199h-.579v-3.14c0-.368-.09-.652-.272-.85-.181-.199-.442-.298-.782-.298-.261 0-.537.059-.826.179-.29.113-.547.266-.774.459v3.65h-.579v-6.73h.579v2.527c.25-.182.516-.321.8-.417a2.64 2.64 0 0 1 .85-.145Zm6.88 4.85c-.658 0-1.154-.204-1.489-.613-.334-.408-.502-1.015-.502-1.82 0-1.611.664-2.417 1.991-2.417s1.991.806 1.991 2.417c0 .805-.167 1.412-.502 1.82-.335.409-.83.613-1.489.613Zm0-.476c.482 0 .834-.156 1.055-.468.227-.318.34-.814.34-1.489 0-.67-.113-1.16-.34-1.472-.221-.312-.573-.468-1.055-.468s-.837.156-1.063.468c-.222.312-.332.802-.332 1.472 0 .675.11 1.171.332 1.489.226.312.581.468 1.063.468Zm4.508-6.262c.261 0 .46.031.596.093.136.063.204.153.204.272a.477.477 0 0 1-.034.179c-.017.051-.04.077-.068.077a1.297 1.297 0 0 0-.587-.128c-.238 0-.42.074-.545.221-.125.148-.187.36-.187.638v.621h1.055v.443h-1.055v4.237h-.578v-4.237h-.877v-.443h.877v-.629c0-.409.107-.735.323-.979.221-.244.513-.365.876-.365Zm3.801 1.973h.58v4.68h-.58v-4.68Zm.256-.859c-.256 0-.383-.128-.383-.383v-.076c0-.256.127-.383.383-.383h.068c.255 0 .383.127.383.383v.076c0 .255-.128.383-.383.383h-.068Zm4.17 4.969c.04.028.07.071.093.128a.327.327 0 0 1 .043.161c0 .108-.046.185-.136.23-.182.091-.417.136-.707.136-.368 0-.663-.099-.884-.298-.222-.204-.332-.476-.332-.817v-3.19H56.5v-.46h.885v-1.276h.578v1.276h1.225v.46h-1.225v3.08c0 .476.204.715.613.715.26 0 .505-.049.732-.145Zm3.402-4.11h.578v4.68h-.578v-4.68Zm.255-.859c-.255 0-.383-.128-.383-.383v-.076c0-.256.128-.383.383-.383h.068c.255 0 .383.127.383.383v.076c0 .255-.128.383-.383.383h-.068Zm3.344 5.624a2.62 2.62 0 0 1-.791-.128 2.119 2.119 0 0 1-.68-.34c-.182-.142-.273-.292-.273-.451 0-.074.023-.139.068-.196a.387.387 0 0 1 .187-.127c.204.266.426.462.664.587.238.119.525.179.86.179.357 0 .626-.083.808-.247a.83.83 0 0 0 .28-.655.6.6 0 0 0-.17-.443 1.01 1.01 0 0 0-.408-.255 8.23 8.23 0 0 0-.664-.196 7.457 7.457 0 0 1-.8-.246 1.351 1.351 0 0 1-.51-.358c-.136-.164-.204-.383-.204-.655 0-.289.076-.533.23-.732.153-.198.348-.346.586-.442.239-.096.483-.145.732-.145.358 0 .68.071.97.213.295.142.525.349.69.621-.137.142-.253.213-.35.213-.073 0-.144-.04-.212-.119a1.237 1.237 0 0 0-.477-.349 1.574 1.574 0 0 0-.646-.119c-.29 0-.52.068-.69.204-.17.136-.255.346-.255.63 0 .164.051.297.153.4.102.102.23.181.383.238.153.051.363.11.63.178.34.08.615.162.825.247.216.085.397.219.545.4.147.176.22.414.22.715 0 .419-.155.754-.467 1.004-.306.249-.718.374-1.234.374Zm8.638-1.046c0 .329.042.629.127.901a.72.72 0 0 1-.366.103.286.286 0 0 1-.264-.145c-.05-.102-.079-.284-.085-.545-.158.222-.382.4-.672.536-.289.131-.601.196-.936.196-.958 0-1.438-.525-1.438-1.574v-3.191h.579v3.131c0 .415.077.715.23.902.153.182.397.273.731.273.301 0 .582-.077.843-.23a1.9 1.9 0 0 0 .663-.647v-3.429h.588v3.719Zm5.218-.128c0 .346.003.581.009.706.01.119.034.227.068.323a.964.964 0 0 1-.443.103c-.085 0-.142-.06-.17-.179-.028-.125-.042-.369-.042-.732v-2.306c0-.397-.074-.683-.222-.859-.147-.181-.385-.272-.714-.272-.51 0-1.033.252-1.566.757v3.548h-.579v-3.089c0-.839-.034-1.338-.102-1.497.182-.085.326-.128.434-.128.165 0 .247.165.247.494v.076c.261-.215.522-.371.783-.467.266-.103.547-.154.842-.154.488 0 .851.134 1.09.4.243.261.365.661.365 1.2v2.076Zm4.819-.077c0 .261.02.468.06.621.045.148.121.281.229.4a.638.638 0 0 1-.204.136.494.494 0 0 1-.213.052c-.113 0-.21-.066-.29-.196a1.382 1.382 0 0 1-.144-.536 1.863 1.863 0 0 1-.706.57 2.19 2.19 0 0 1-.927.204c-.431 0-.778-.111-1.038-.332a1.118 1.118 0 0 1-.392-.885c0-.533.258-.95.775-1.25.521-.301 1.278-.474 2.271-.519v-.273c0-.374-.096-.652-.29-.833-.186-.188-.473-.281-.858-.281-.25 0-.483.054-.698.161-.21.103-.437.276-.68.519a.17.17 0 0 1-.128.052.342.342 0 0 1-.188-.069.888.888 0 0 1-.195-.212 2.68 2.68 0 0 1 .868-.689 2.375 2.375 0 0 1 1.046-.239c.528 0 .942.142 1.242.426.307.283.46.672.46 1.165v2.008Zm-2.153.775c.306 0 .596-.085.868-.256.272-.17.508-.411.706-.723V172.2c-1.633.068-2.45.496-2.45 1.285 0 .499.292.749.876.749Zm6.838-4.289a9.632 9.632 0 0 1-.502 2.451 9.696 9.696 0 0 1-1.15 2.229h-.552a9.7 9.7 0 0 1-1.149-2.229 9.636 9.636 0 0 1-.502-2.451h.579c.08.823.224 1.555.434 2.196.215.635.522 1.253.919 1.854.397-.601.7-1.219.91-1.854.21-.641.355-1.373.434-2.196h.579Zm4.189 3.514c0 .261.02.468.06.621.044.148.121.281.229.4a.638.638 0 0 1-.204.136.495.495 0 0 1-.213.052c-.113 0-.21-.066-.29-.196a1.382 1.382 0 0 1-.144-.536 1.863 1.863 0 0 1-.706.57 2.19 2.19 0 0 1-.927.204c-.432 0-.778-.111-1.039-.332a1.118 1.118 0 0 1-.39-.885c0-.533.257-.95.773-1.25.522-.301 1.28-.474 2.272-.519v-.273c0-.374-.096-.652-.29-.833-.186-.188-.473-.281-.859-.281-.25 0-.482.054-.697.161-.21.103-.437.276-.68.519a.17.17 0 0 1-.129.052.342.342 0 0 1-.187-.069.888.888 0 0 1-.195-.212 2.68 2.68 0 0 1 .867-.689 2.375 2.375 0 0 1 1.047-.239c.528 0 .942.142 1.242.426.306.283.46.672.46 1.165v2.008Zm-2.153.775c.306 0 .596-.085.868-.256.272-.17.508-.411.706-.723V172.2c-1.634.068-2.45.496-2.45 1.285 0 .499.292.749.876.749Zm3.783-4.289h.578v4.68h-.578v-4.68Zm.255-.859c-.255 0-.383-.128-.383-.383v-.076c0-.256.128-.383.383-.383h.068c.255 0 .383.127.383.383v.076c0 .255-.127.383-.383.383h-.068Zm2.111-1.191h.578v6.73h-.578v-6.73Zm5.476 5.564c0 .261.02.468.059.621.046.148.122.281.23.4a.645.645 0 0 1-.204.136.497.497 0 0 1-.213.052c-.113 0-.21-.066-.289-.196a1.382 1.382 0 0 1-.145-.536 1.863 1.863 0 0 1-.706.57 2.19 2.19 0 0 1-.927.204c-.432 0-.778-.111-1.038-.332a1.117 1.117 0 0 1-.392-.885c0-.533.258-.95.774-1.25.522-.301 1.28-.474 2.272-.519v-.273c0-.374-.096-.652-.289-.833-.187-.188-.474-.281-.859-.281-.25 0-.483.054-.698.161-.21.103-.437.276-.681.519a.169.169 0 0 1-.127.052.342.342 0 0 1-.188-.069.888.888 0 0 1-.195-.212c.255-.301.544-.531.868-.689a2.372 2.372 0 0 1 1.046-.239c.528 0 .942.142 1.242.426.307.283.46.672.46 1.165v2.008Zm-2.153.775c.306 0 .596-.085.868-.256.272-.17.508-.411.706-.723V172.2c-1.633.068-2.45.496-2.45 1.285 0 .499.292.749.876.749Zm5.723-4.374c.63 0 1.115.205 1.455.613.346.408.519.987.519 1.736 0 .782-.179 1.395-.536 1.837-.358.443-.851.664-1.481.664-.601 0-1.072-.179-1.412-.536-.051.301-.15.451-.298.451a.813.813 0 0 1-.425-.102c.108-.238.161-.579.161-1.021v-5.607h.596v2.399a2.423 2.423 0 0 1 1.421-.434Zm-.043 4.357c.454 0 .803-.173 1.047-.519.249-.352.374-.848.374-1.489 0-.602-.119-1.064-.357-1.387-.238-.324-.579-.485-1.021-.485-.522 0-.996.161-1.421.485v2.765c.335.42.794.63 1.378.63Zm3.211-6.322h.579v6.73h-.579v-6.73Zm5.85 4.058c0 .131-.006.261-.017.392h-3.386c.011.59.142 1.049.391 1.378.255.329.607.494 1.055.494.306 0 .565-.06.774-.179.216-.119.395-.309.536-.57.04-.074.1-.111.179-.111.091 0 .216.054.375.162a1.641 1.641 0 0 1-.69.876c-.334.21-.726.315-1.174.315-.414 0-.777-.096-1.089-.289a1.915 1.915 0 0 1-.706-.843c-.165-.368-.247-.802-.247-1.301 0-.755.187-1.345.562-1.77.374-.431.887-.647 1.54-.647.595 0 1.06.185 1.395.553.335.369.502.882.502 1.54Zm-.595-.068c0-1.021-.443-1.531-1.328-1.531-.431 0-.771.13-1.021.391-.249.261-.397.641-.442 1.14h2.791Zm7.55.068c0 .131-.006.261-.017.392h-3.387c.012.59.142 1.049.392 1.378.255.329.607.494 1.055.494.306 0 .564-.06.774-.179.216-.119.394-.309.536-.57a.192.192 0 0 1 .179-.111c.09 0 .215.054.374.162a1.64 1.64 0 0 1-.689.876c-.335.21-.726.315-1.174.315-.414 0-.777-.096-1.089-.289a1.917 1.917 0 0 1-.707-.843c-.164-.368-.246-.802-.246-1.301 0-.755.187-1.345.561-1.77.375-.431.888-.647 1.54-.647.596 0 1.061.185 1.396.553.334.369.502.882.502 1.54Zm-.596-.068c0-1.021-.442-1.531-1.327-1.531-.431 0-.772.13-1.021.391-.25.261-.397.641-.443 1.14h2.791Zm4.923-1.94a9.658 9.658 0 0 1-.502 2.451 9.726 9.726 0 0 1-1.149 2.229h-.553a9.726 9.726 0 0 1-1.149-2.229 9.658 9.658 0 0 1-.502-2.451h.579a10.2 10.2 0 0 0 .434 2.196c.215.635.522 1.253.919 1.854.397-.601.7-1.219.91-1.854a10.2 10.2 0 0 0 .434-2.196h.579Zm4.563 2.008c0 .131-.006.261-.017.392h-3.386c.011.59.142 1.049.391 1.378.255.329.607.494 1.055.494.306 0 .565-.06.774-.179.216-.119.395-.309.536-.57.04-.074.1-.111.179-.111.091 0 .216.054.375.162a1.641 1.641 0 0 1-.69.876c-.334.21-.726.315-1.174.315-.414 0-.777-.096-1.089-.289a1.915 1.915 0 0 1-.706-.843c-.165-.368-.247-.802-.247-1.301 0-.755.187-1.345.562-1.77.374-.431.887-.647 1.54-.647.595 0 1.06.185 1.395.553.335.369.502.882.502 1.54Zm-.595-.068c0-1.021-.443-1.531-1.328-1.531-.431 0-.771.13-1.021.391-.249.261-.397.641-.442 1.14h2.791Zm5.356 1.651c0 .346.003.581.009.706.011.119.034.227.068.323a.966.966 0 0 1-.443.103c-.085 0-.142-.06-.17-.179-.028-.125-.042-.369-.042-.732v-2.306c0-.397-.074-.683-.222-.859-.147-.181-.385-.272-.714-.272-.511 0-1.033.252-1.566.757v3.548h-.578v-3.089c0-.839-.035-1.338-.103-1.497.182-.085.327-.128.434-.128.165 0 .247.165.247.494v.076c.261-.215.522-.371.783-.467.266-.103.547-.154.842-.154.488 0 .851.134 1.089.4.244.261.366.661.366 1.2v2.076Zm3.898-3.591h.579v4.68h-.579v-4.68Zm.256-.859c-.256 0-.383-.128-.383-.383v-.076c0-.256.127-.383.383-.383h.068c.255 0 .382.127.382.383v.076c0 .255-.127.383-.382.383h-.068Zm3.438-1.114c.261 0 .459.031.595.093.136.063.204.153.204.272a.471.471 0 0 1-.034.179c-.017.051-.039.077-.068.077a1.297 1.297 0 0 0-.587-.128c-.238 0-.42.074-.544.221-.125.148-.188.36-.188.638v.621h1.056v.443h-1.056v4.237h-.578v-4.237h-.876v-.443h.876v-.629c0-.409.108-.735.323-.979.221-.244.514-.365.877-.365Zm3.801 1.973h.578v4.68h-.578v-4.68Zm.255-.859c-.255 0-.383-.128-.383-.383v-.076c0-.256.128-.383.383-.383h.068c.255 0 .383.127.383.383v.076c0 .255-.128.383-.383.383h-.068Zm4.17 4.969c.04.028.071.071.093.128a.321.321 0 0 1 .043.161c0 .108-.045.185-.136.23-.182.091-.417.136-.706.136-.369 0-.664-.099-.885-.298-.221-.204-.332-.476-.332-.817v-3.19h-.885v-.46h.885v-1.276h.579v1.276h1.225v.46h-1.225v3.08c0 .476.204.715.612.715.261 0 .505-.049.732-.145Zm3.402-4.11h.578v4.68h-.578v-4.68Zm.255-.859c-.255 0-.383-.128-.383-.383v-.076c0-.256.128-.383.383-.383h.068c.255 0 .383.127.383.383v.076c0 .255-.128.383-.383.383H156Zm3.345 5.624c-.256 0-.519-.042-.792-.128a2.112 2.112 0 0 1-.68-.34c-.182-.142-.273-.292-.273-.451 0-.074.023-.139.068-.196a.388.388 0 0 1 .188-.127c.204.266.425.462.663.587.238.119.525.179.86.179.357 0 .626-.083.808-.247a.83.83 0 0 0 .281-.655.598.598 0 0 0-.171-.443 1 1 0 0 0-.408-.255 8.223 8.223 0 0 0-.664-.196 7.421 7.421 0 0 1-.799-.246 1.35 1.35 0 0 1-.511-.358c-.136-.164-.204-.383-.204-.655 0-.289.077-.533.23-.732.153-.198.349-.346.587-.442a1.94 1.94 0 0 1 .731-.145c.358 0 .681.071.97.213.295.142.525.349.69.621-.137.142-.253.213-.349.213-.074 0-.145-.04-.213-.119a1.238 1.238 0 0 0-.476-.349 1.577 1.577 0 0 0-.647-.119c-.289 0-.519.068-.689.204-.17.136-.255.346-.255.63 0 .164.051.297.153.4.102.102.229.181.383.238.153.051.363.11.629.178.34.08.616.162.825.247.216.085.398.219.545.4.147.176.221.414.221.715 0 .419-.156.754-.468 1.004-.306.249-.717.374-1.233.374Zm7.148-.655c.04.028.071.071.093.128a.321.321 0 0 1 .043.161c0 .108-.045.185-.136.23-.182.091-.417.136-.706.136-.369 0-.664-.099-.885-.298-.221-.204-.332-.476-.332-.817v-3.19h-.885v-.46h.885v-1.276h.579v1.276h1.225v.46h-1.225v3.08c0 .476.204.715.612.715.261 0 .505-.049.732-.145Zm3.276-4.195c.488 0 .873.142 1.157.426.284.278.425.658.425 1.14v3.199h-.578v-3.14c0-.368-.091-.652-.272-.85-.182-.199-.443-.298-.783-.298-.261 0-.536.059-.826.179a2.706 2.706 0 0 0-.774.459v3.65h-.578v-6.73h.578v2.527c.25-.182.516-.321.8-.417.284-.096.567-.145.851-.145Zm6.78 2.093c0 .131-.006.261-.017.392h-3.386c.011.59.141 1.049.391 1.378.255.329.607.494 1.055.494.306 0 .564-.06.774-.179.216-.119.394-.309.536-.57.04-.074.1-.111.179-.111.091 0 .215.054.374.162a1.64 1.64 0 0 1-.689.876c-.335.21-.726.315-1.174.315-.414 0-.777-.096-1.089-.289a1.915 1.915 0 0 1-.706-.843c-.165-.368-.247-.802-.247-1.301 0-.755.187-1.345.562-1.77.374-.431.887-.647 1.54-.647.595 0 1.06.185 1.395.553.335.369.502.882.502 1.54Zm-.596-.068c0-1.021-.442-1.531-1.327-1.531-.431 0-.771.13-1.021.391-.25.261-.397.641-.442 1.14h2.79Zm5.457 2.825c-.658 0-1.154-.204-1.489-.613-.334-.408-.502-1.015-.502-1.82 0-1.611.664-2.417 1.991-2.417 1.328 0 1.991.806 1.991 2.417 0 .805-.167 1.412-.502 1.82-.334.409-.831.613-1.489.613Zm0-.476c.483 0 .834-.156 1.055-.468.227-.318.341-.814.341-1.489 0-.67-.114-1.16-.341-1.472-.221-.312-.572-.468-1.055-.468-.482 0-.836.156-1.063.468-.221.312-.332.802-.332 1.472 0 .675.111 1.171.332 1.489.227.312.581.468 1.063.468Zm3.181-6.339h.579v6.73h-.579v-6.73Zm5.74 5.641a4.534 4.534 0 0 0 .119 1.021.914.914 0 0 1-.392.102c-.153 0-.249-.193-.289-.579a1.66 1.66 0 0 1-.612.485c-.222.097-.494.145-.817.145-.619 0-1.103-.213-1.455-.638-.352-.431-.528-1.021-.528-1.77 0-.771.188-1.37.562-1.795.38-.431.907-.647 1.582-.647.21 0 .432.04.664.119.238.074.434.168.587.281v-2.365h.579v5.641Zm-1.949.698c.29 0 .545-.06.766-.179.221-.119.423-.304.604-.553v-2.68a1.6 1.6 0 0 0-.561-.358 1.802 1.802 0 0 0-.69-.144c-.499 0-.882.17-1.148.51-.267.341-.4.831-.4 1.472 0 .624.122 1.103.366 1.438.244.329.598.494 1.063.494Zm7.144-2.281c0 .131-.005.261-.017.392h-3.386c.011.59.142 1.049.391 1.378.256.329.607.494 1.055.494.307 0 .565-.06.775-.179.215-.119.394-.309.536-.57a.19.19 0 0 1 .178-.111c.091 0 .216.054.375.162a1.644 1.644 0 0 1-.689.876c-.335.21-.726.315-1.175.315-.414 0-.777-.096-1.089-.289a1.922 1.922 0 0 1-.706-.843c-.164-.368-.247-.802-.247-1.301 0-.755.188-1.345.562-1.77.374-.431.888-.647 1.54-.647.596 0 1.061.185 1.395.553.335.369.502.882.502 1.54Zm-.595-.068c0-1.021-.443-1.531-1.328-1.531-.431 0-.771.13-1.021.391-.249.261-.397.641-.442 1.14h2.791Zm3.017 2.825c-.256 0-.519-.042-.792-.128a2.112 2.112 0 0 1-.68-.34c-.182-.142-.273-.292-.273-.451 0-.074.023-.139.068-.196a.388.388 0 0 1 .188-.127c.204.266.425.462.663.587.238.119.525.179.86.179.357 0 .626-.083.808-.247a.83.83 0 0 0 .281-.655.598.598 0 0 0-.171-.443 1 1 0 0 0-.408-.255 8.223 8.223 0 0 0-.664-.196 7.421 7.421 0 0 1-.799-.246 1.35 1.35 0 0 1-.511-.358c-.136-.164-.204-.383-.204-.655 0-.289.077-.533.23-.732.153-.198.349-.346.587-.442a1.94 1.94 0 0 1 .731-.145c.358 0 .681.071.97.213.295.142.525.349.69.621-.137.142-.253.213-.349.213-.074 0-.145-.04-.213-.119a1.238 1.238 0 0 0-.476-.349 1.577 1.577 0 0 0-.647-.119c-.289 0-.519.068-.689.204-.17.136-.255.346-.255.63 0 .164.051.297.153.4.102.102.229.181.383.238.153.051.363.11.629.178.34.08.616.162.825.247.216.085.397.219.545.4.147.176.221.414.221.715 0 .419-.156.754-.468 1.004-.306.249-.717.374-1.233.374Zm4.954-.655c.04.028.071.071.094.128a.33.33 0 0 1 .042.161c0 .108-.045.185-.136.23-.181.091-.417.136-.706.136-.369 0-.663-.099-.885-.298-.221-.204-.332-.476-.332-.817v-3.19h-.884v-.46h.884v-1.276h.579v1.276h1.225v.46h-1.225v3.08c0 .476.204.715.613.715.261 0 .504-.049.731-.145Zm1.549.57c-.255 0-.383-.128-.383-.383v-.076c0-.256.128-.383.383-.383h.068c.255 0 .383.127.383.383v.076c0 .255-.128.383-.383.383h-.068Z"/></svg>