<svg xmlns="http://www.w3.org/2000/svg" width="224" height="213" fill="none"><path fill="#FE5D5D" d="M.054.48h223.842v212.044H.054z"/><path fill="#fff" d="M70.417 47.047a36.593 36.593 0 0 0-.694-2.764h-4.63c-.217.717-.448 1.638-.694 2.764h-1.007c.472-1.942.985-3.667 1.538-5.174a31.478 31.478 0 0 1 1.975-4.356h1.02a31.83 31.83 0 0 1 1.961 4.343c.554 1.507 1.067 3.236 1.538 5.187h-1.007Zm-.926-3.58a28.08 28.08 0 0 0-2.083-4.956 28.08 28.08 0 0 0-2.083 4.955h4.166Zm9.219 1.837c0 .554.004.93.014 1.13.018.19.054.363.108.518a1.561 1.561 0 0 1-.708.163c-.136 0-.227-.095-.272-.286-.045-.2-.068-.59-.068-1.17v-3.69c0-.636-.118-1.094-.354-1.375-.236-.29-.617-.436-1.144-.436-.816 0-1.651.404-2.505 1.212v5.677h-.925v-4.942c0-1.343-.055-2.142-.164-2.396.29-.136.522-.205.695-.205.263 0 .394.264.394.79v.123a4.358 4.358 0 0 1 1.253-.75 3.735 3.735 0 0 1 1.348-.244c.78 0 1.361.213 1.742.64.39.417.586 1.057.586 1.92v3.321Zm5.26 1.879c-1.098 0-1.956-.345-2.573-1.035-.609-.69-.913-1.652-.913-2.886 0-.78.137-1.457.409-2.029.281-.58.68-1.025 1.198-1.334.517-.317 1.125-.476 1.824-.476.835 0 1.52.213 2.056.64.545.417.862.989.953 1.715a2.165 2.165 0 0 1-.34.109 1.37 1.37 0 0 1-.34.054c-.091 0-.16-.022-.205-.068a1.301 1.301 0 0 1-.122-.326 1.583 1.583 0 0 0-.681-.994c-.354-.245-.794-.368-1.32-.368-.49 0-.926.127-1.308.381-.372.255-.662.618-.871 1.09-.2.462-.3.998-.3 1.606 0 .962.227 1.73.681 2.3.463.573 1.08.859 1.852.859.59 0 1.094-.136 1.511-.409.418-.281.73-.69.94-1.225.126 0 .23.054.313.163.09.11.136.236.136.381 0 .318-.136.622-.409.913-.263.281-.621.508-1.075.68a3.881 3.881 0 0 1-1.416.259Zm4.966-7.624h.926v7.488h-.926v-7.488Zm.408-1.375c-.408 0-.612-.204-.612-.613v-.122c0-.409.204-.613.612-.613h.11c.408 0 .612.204.612.613v.122c0 .409-.204.613-.613.613h-.109Zm9.096 4.588c0 .209-.009.418-.027.626h-5.419c.019.944.227 1.68.627 2.206.408.526.97.79 1.688.79.49 0 .903-.096 1.239-.286.345-.191.63-.495.857-.913a.307.307 0 0 1 .286-.177c.145 0 .345.087.6.259-.2.59-.568 1.057-1.103 1.402-.536.336-1.162.504-1.88.504-.662 0-1.243-.154-1.742-.463-.49-.317-.867-.767-1.13-1.348-.263-.59-.395-1.284-.395-2.083 0-1.207.3-2.15.899-2.831.599-.69 1.42-1.035 2.464-1.035.953 0 1.697.295 2.233.885.535.59.803 1.411.803 2.464Zm-.953-.109c0-1.634-.708-2.45-2.124-2.45-.69 0-1.234.208-1.633.626-.4.417-.636 1.025-.709 1.824h4.466Zm8.571 2.641c0 .554.005.93.014 1.13.018.19.054.363.109.518a1.562 1.562 0 0 1-.708.163c-.136 0-.227-.095-.272-.286-.046-.2-.069-.59-.069-1.17v-3.69c0-.636-.117-1.094-.353-1.375-.236-.29-.618-.436-1.144-.436-.817 0-1.652.404-2.505 1.212v5.677h-.926v-4.942c0-1.343-.054-2.142-.163-2.396.29-.136.522-.205.694-.205.263 0 .395.264.395.79v.123a4.357 4.357 0 0 1 1.252-.75 3.738 3.738 0 0 1 1.348-.244c.781 0 1.362.213 1.743.64.39.417.585 1.057.585 1.92v3.321Zm5.886.83a.441.441 0 0 1 .15.205.518.518 0 0 1 .068.259c0 .172-.072.295-.218.367-.29.145-.667.218-1.13.218-.589 0-1.061-.159-1.415-.477-.354-.326-.531-.762-.531-1.306v-5.106h-1.416v-.735h1.416v-2.042h.925v2.042h1.961v.735h-1.961v4.928c0 .763.327 1.144.981 1.144a2.96 2.96 0 0 0 1.17-.231Zm12.17-4.165v4.084c-.336.345-.786.622-1.348.83a5.1 5.1 0 0 1-1.743.3c-1.407 0-2.473-.413-3.199-1.239-.726-.835-1.089-2.056-1.089-3.662 0-1.57.367-2.777 1.102-3.622.745-.853 1.806-1.28 3.186-1.28.644 0 1.243.123 1.797.368.554.236.971.554 1.253.953-.182.318-.382.477-.599.477-.146 0-.295-.064-.45-.19a3.132 3.132 0 0 0-.939-.573 3.074 3.074 0 0 0-1.076-.177c-1.071 0-1.883.345-2.437 1.035-.553.68-.83 1.684-.83 3.009 0 1.361.268 2.378.803 3.05.545.662 1.366.993 2.464.993.454 0 .876-.059 1.267-.177.39-.118.676-.277.857-.476v-2.86h-1.919c-.182 0-.313-.063-.395-.19-.073-.127-.109-.345-.109-.653h3.404Zm5.01-2.505c.317 0 .558.054.721.163.173.1.259.254.259.463 0 .145-.05.277-.15.395-.218-.118-.517-.177-.898-.177-.608 0-1.098.24-1.471.721-.363.481-.544 1.112-.544 1.893v4.125h-.926v-7.488h.926v1.348c.209-.418.504-.763.885-1.035.381-.272.78-.408 1.198-.408Zm8.364 3.308c0 .209-.009.418-.027.626h-5.418c.018.944.227 1.68.626 2.206.408.526.971.79 1.688.79.49 0 .903-.096 1.239-.286.345-.191.631-.495.858-.913a.305.305 0 0 1 .286-.177c.145 0 .344.087.599.259-.2.59-.568 1.057-1.103 1.402-.536.336-1.162.504-1.879.504-.663 0-1.243-.154-1.743-.463-.49-.317-.866-.767-1.13-1.348-.263-.59-.394-1.284-.394-2.083 0-1.207.299-2.15.898-2.831.599-.69 1.421-1.035 2.464-1.035.953 0 1.698.295 2.233.885.536.59.803 1.411.803 2.464Zm-.953-.109c0-1.634-.708-2.45-2.123-2.45-.69 0-1.235.208-1.634.626-.4.417-.636 1.025-.708 1.824h4.465Zm8.572.109c0 .209-.01.418-.028.626h-5.418c.018.944.227 1.68.626 2.206.409.526.971.79 1.688.79.49 0 .903-.096 1.239-.286.345-.191.631-.495.858-.913a.306.306 0 0 1 .286-.177c.145 0 .345.087.599.259a2.63 2.63 0 0 1-1.103 1.402c-.535.336-1.162.504-1.879.504-.662 0-1.243-.154-1.742-.463-.491-.317-.867-.767-1.13-1.348-.264-.59-.395-1.284-.395-2.083 0-1.207.299-2.15.898-2.831.599-.69 1.421-1.035 2.465-1.035.953 0 1.697.295 2.232.885.536.59.804 1.411.804 2.464Zm-.953-.109c0-1.634-.708-2.45-2.124-2.45-.69 0-1.235.208-1.634.626-.399.417-.635 1.025-.708 1.824h4.466Zm5.521 4.52c-1.098 0-1.956-.345-2.573-1.035-.608-.69-.912-1.652-.912-2.886 0-.78.136-1.457.408-2.029a3.07 3.07 0 0 1 1.198-1.334c.518-.317 1.126-.476 1.825-.476.835 0 1.52.213 2.055.64.545.417.863.989.953 1.715a2.144 2.144 0 0 1-.34.109 1.365 1.365 0 0 1-.34.054c-.091 0-.159-.022-.204-.068a1.255 1.255 0 0 1-.123-.326 1.584 1.584 0 0 0-.681-.994c-.354-.245-.794-.368-1.32-.368-.49 0-.926.127-1.307.381-.372.255-.663.618-.872 1.09-.199.462-.299.998-.299 1.606 0 .962.227 1.73.681 2.3.462.573 1.08.859 1.851.859.59 0 1.094-.136 1.511-.409.418-.281.731-.69.94-1.225.127 0 .231.054.313.163a.576.576 0 0 1 .136.381c0 .318-.136.622-.408.913-.264.281-.622.508-1.076.68a3.883 3.883 0 0 1-1.416.259Zm10.548-4.411c0 .209-.009.418-.027.626h-5.418c.018.944.226 1.68.626 2.206.408.526.971.79 1.688.79.49 0 .903-.096 1.239-.286.345-.191.631-.495.858-.913a.305.305 0 0 1 .286-.177c.145 0 .344.087.599.259-.2.59-.568 1.057-1.103 1.402-.536.336-1.162.504-1.879.504-.663 0-1.243-.154-1.743-.463-.49-.317-.866-.767-1.13-1.348-.263-.59-.394-1.284-.394-2.083 0-1.207.299-2.15.898-2.831.599-.69 1.421-1.035 2.464-1.035.953 0 1.698.295 2.233.885.536.59.803 1.411.803 2.464Zm-.953-.109c0-1.634-.708-2.45-2.124-2.45-.689 0-1.234.208-1.633.626-.4.417-.636 1.025-.708 1.824h4.465ZM39.633 90.132c-.81 0-1.44-.267-1.889-.8-.442-.533-.663-1.287-.663-2.263 0-.981.221-1.736.663-2.263.443-.533 1.073-.8 1.89-.8.328 0 .635.057.918.17.284.108.528.27.732.485a.548.548 0 0 1-.145.247.308.308 0 0 1-.212.085.362.362 0 0 1-.222-.077 1.722 1.722 0 0 0-1.089-.357c-.624 0-1.097.213-1.42.638-.324.426-.485 1.05-.485 1.872 0 .817.161 1.438.485 1.863.323.426.796.638 1.42.638.267 0 .505-.036.715-.11.216-.074.428-.196.638-.366a.272.272 0 0 1 .187.094.265.265 0 0 1 .077.195c0 .13-.077.253-.23.366a1.823 1.823 0 0 1-.595.28 2.87 2.87 0 0 1-.775.103Zm4.405 0c-.658 0-1.154-.204-1.489-.613-.334-.408-.502-1.015-.502-1.82 0-1.611.664-2.417 1.991-2.417s1.991.806 1.991 2.417c0 .805-.167 1.412-.502 1.82-.335.409-.83.613-1.489.613Zm0-.477c.482 0 .834-.156 1.055-.468.227-.317.34-.813.34-1.488 0-.67-.113-1.16-.34-1.472-.221-.312-.573-.468-1.055-.468s-.836.156-1.063.468c-.222.312-.332.802-.332 1.472 0 .675.11 1.17.332 1.489.227.311.581.468 1.063.468Zm7.954-4.373c.403 0 .729.13.979.392.255.26.382.598.382 1.012v3.36h-.587v-3.334c0-.33-.073-.573-.22-.732-.148-.159-.372-.238-.673-.238-.482 0-.93.22-1.344.663.011.091.017.16.017.204v3.438h-.579v-3.42c0-.267-.082-.48-.247-.639-.158-.164-.371-.246-.638-.246-.244 0-.476.054-.697.161-.216.108-.434.281-.655.52v3.624h-.58v-3.089c0-.84-.033-1.338-.101-1.497.181-.085.326-.128.434-.128.164 0 .247.165.247.494v.034c.215-.204.436-.352.663-.443.233-.09.496-.136.791-.136.267 0 .505.063.715.187.21.12.372.284.485.494.244-.238.49-.411.74-.52.255-.107.545-.16.868-.16Zm4.927 0c.636 0 1.12.21 1.455.63.335.414.502 1.01.502 1.787 0 .493-.088.924-.264 1.293a1.9 1.9 0 0 1-.748.842c-.324.199-.704.298-1.14.298-.216 0-.434-.023-.655-.068a3.04 3.04 0 0 1-.579-.162v2.017h-.579v-4.96c0-.84-.034-1.34-.102-1.498.182-.085.326-.128.434-.128.165 0 .247.165.247.494v.034a2.048 2.048 0 0 1 1.43-.579Zm-.195 4.374c.488 0 .865-.17 1.131-.511.273-.34.409-.822.409-1.446 0-1.294-.449-1.94-1.345-1.94-.26 0-.516.06-.765.178a2.17 2.17 0 0 0-.664.51V89.4c.352.17.763.255 1.234.255Zm6.914-2.28c0 .13-.006.26-.017.39h-3.386c.011.59.142 1.05.391 1.379.255.329.607.493 1.055.493.306 0 .564-.06.774-.178.216-.12.395-.31.536-.57.04-.074.1-.11.179-.11.09 0 .215.053.374.16-.124.37-.354.662-.689.877-.334.21-.726.315-1.174.315a2.03 2.03 0 0 1-1.089-.29 1.919 1.919 0 0 1-.706-.842c-.165-.368-.247-.802-.247-1.301 0-.755.187-1.345.562-1.77.374-.431.887-.647 1.54-.647.595 0 1.06.185 1.395.553.335.369.502.882.502 1.54Zm-.596-.069c0-1.02-.442-1.531-1.327-1.531-.431 0-.771.13-1.02.391-.25.261-.398.641-.443 1.14h2.79Zm3.843 2.17c.04.028.07.07.093.127a.329.329 0 0 1 .043.162c0 .108-.046.184-.136.23-.182.09-.417.136-.707.136-.368 0-.663-.1-.885-.298-.22-.204-.331-.476-.331-.817v-3.19h-.885v-.46h.885v-1.276h.578v1.276h1.225v.46H65.54v3.08c0 .476.204.715.613.715.26 0 .505-.049.731-.145Zm1.208-4.11h.578v4.68h-.578v-4.68Zm.255-.859c-.255 0-.383-.128-.383-.383v-.076c0-.256.128-.383.383-.383h.068c.255 0 .383.127.383.383v.076c0 .255-.128.383-.383.383h-.068Zm4.17 4.969c.04.028.07.07.094.127a.329.329 0 0 1 .042.162c0 .108-.045.184-.136.23-.182.09-.417.136-.706.136-.369 0-.664-.1-.885-.298-.221-.204-.332-.476-.332-.817v-3.19h-.885v-.46h.885v-1.276h.579v1.276h1.225v.46h-1.225v3.08c0 .476.204.715.612.715.261 0 .505-.049.732-.145Zm1.208-4.11h.579v4.68h-.579v-4.68Zm.255-.859c-.255 0-.382-.128-.382-.383v-.076c0-.256.127-.383.382-.383h.069c.255 0 .382.127.382.383v.076c0 .255-.127.383-.382.383h-.069Zm5.25.86a9.633 9.633 0 0 1-.501 2.45 9.683 9.683 0 0 1-1.149 2.229h-.553a9.687 9.687 0 0 1-1.148-2.23 9.637 9.637 0 0 1-.502-2.45h.578c.08.823.224 1.554.434 2.195.216.636.522 1.254.919 1.855.397-.601.7-1.22.91-1.855.21-.64.355-1.372.434-2.195h.579Zm4.564 2.007c0 .13-.005.261-.017.392h-3.386c.011.59.142 1.049.391 1.378.256.329.607.493 1.055.493.307 0 .565-.06.775-.178.215-.12.394-.31.536-.57.04-.074.099-.11.178-.11.091 0 .216.053.375.16-.125.37-.355.662-.69.877-.334.21-.725.315-1.174.315a2.03 2.03 0 0 1-1.089-.29 1.919 1.919 0 0 1-.706-.842c-.164-.368-.247-.802-.247-1.301 0-.755.188-1.345.562-1.77.374-.431.888-.647 1.54-.647.596 0 1.06.185 1.395.553.335.369.502.882.502 1.54Zm-.595-.068c0-1.02-.443-1.531-1.328-1.531-.43 0-.771.13-1.02.391-.25.261-.398.641-.443 1.14h2.79Zm2.285 1.898c.113 0 .204.036.272.11.068.068.102.165.102.29v.093c0 .199-.034.397-.102.596a2.41 2.41 0 0 1-.255.544c-.148.227-.272.34-.375.34a.36.36 0 0 1-.238-.085 3.1 3.1 0 0 0 .358-.527c.085-.159.141-.332.17-.52h-.043a.33.33 0 0 1-.255-.101.387.387 0 0 1-.094-.272v-.094c0-.113.031-.204.094-.272a.357.357 0 0 1 .264-.102h.102Zm7.967-4.084c.102 0 .176.028.221.085.051.05.077.136.077.255 0 .034-.006.102-.017.204-.42 0-.712.057-.876.17.227.273.34.61.34 1.013 0 1.089-.627 1.633-1.88 1.633-.386 0-.67.029-.851.085-.176.052-.264.134-.264.247 0 .255.457.383 1.37.383.64 0 1.137.108 1.489.323.351.216.527.522.527.92 0 .425-.19.75-.57.978-.374.232-.913.349-1.616.349-.664 0-1.169-.103-1.515-.307a.985.985 0 0 1-.519-.902c0-.227.077-.428.23-.604.159-.176.377-.306.655-.391v-.026a.79.79 0 0 1-.408-.246.677.677 0 0 1-.153-.443c0-.142.056-.266.17-.374a.883.883 0 0 1 .46-.23 1.527 1.527 0 0 1-.57-.536 1.491 1.491 0 0 1-.197-.757c0-1.112.641-1.668 1.923-1.668.403 0 .746.088 1.03.264a1.71 1.71 0 0 1 .46-.306c.17-.08.331-.12.484-.12Zm-2.084 2.884c.436 0 .748-.085.936-.255.192-.176.289-.466.289-.868 0-.397-.097-.687-.29-.868-.192-.182-.504-.272-.935-.272-.42 0-.73.093-.928.28-.193.182-.29.468-.29.86 0 .748.406 1.123 1.218 1.123Zm.068 1.719c-.482 0-.848.065-1.098.195-.244.13-.366.32-.366.57 0 .261.122.46.366.596.244.136.599.204 1.064.204.522 0 .916-.068 1.182-.204.267-.13.4-.33.4-.596a.608.608 0 0 0-.366-.587c-.238-.119-.632-.178-1.182-.178Zm4.815.408c-.658 0-1.154-.204-1.489-.613-.335-.408-.502-1.015-.502-1.82 0-1.611.664-2.417 1.991-2.417s1.991.806 1.991 2.417c0 .805-.167 1.412-.502 1.82-.335.409-.831.613-1.489.613Zm0-.477c.482 0 .834-.156 1.055-.468.227-.317.34-.813.34-1.488 0-.67-.113-1.16-.34-1.472-.221-.312-.573-.468-1.055-.468s-.837.156-1.064.468c-.22.312-.331.802-.331 1.472 0 .675.11 1.17.332 1.489.226.311.58.468 1.063.468Zm6.644-.697a4.532 4.532 0 0 0 .119 1.02.913.913 0 0 1-.392.103c-.153 0-.249-.193-.289-.579a1.666 1.666 0 0 1-.612.485 2.05 2.05 0 0 1-.817.145c-.618 0-1.103-.213-1.455-.638-.352-.431-.528-1.021-.528-1.77 0-.771.188-1.37.562-1.795.38-.431.907-.647 1.582-.647.21 0 .432.04.664.12.238.073.434.167.587.28v-2.365h.579v5.64Zm-1.949.698c.29 0 .545-.06.766-.18.221-.118.423-.303.604-.552v-2.68a1.596 1.596 0 0 0-.561-.358 1.795 1.795 0 0 0-.69-.144c-.499 0-.882.17-1.148.51-.267.34-.4.831-.4 1.472 0 .624.122 1.103.366 1.438.244.329.598.493 1.063.493Zm4.805.476c-.256 0-.519-.043-.792-.128a2.117 2.117 0 0 1-.68-.34c-.182-.142-.273-.292-.273-.45 0-.075.023-.14.068-.197a.39.39 0 0 1 .188-.127c.204.266.425.462.663.587.239.119.525.178.86.178.357 0 .626-.082.808-.246a.83.83 0 0 0 .281-.655.6.6 0 0 0-.17-.443 1.004 1.004 0 0 0-.409-.255 8.285 8.285 0 0 0-.664-.196 7.383 7.383 0 0 1-.799-.246 1.344 1.344 0 0 1-.511-.358c-.136-.164-.204-.383-.204-.655 0-.29.077-.533.23-.732.153-.198.349-.346.587-.442.238-.097.482-.145.732-.145.357 0 .68.071.969.213.295.142.525.349.69.621-.136.142-.253.213-.349.213-.074 0-.145-.04-.213-.12a1.236 1.236 0 0 0-.476-.348 1.57 1.57 0 0 0-.647-.12c-.289 0-.519.069-.689.205-.17.136-.255.346-.255.63 0 .164.051.297.153.4.102.102.229.18.383.238.153.05.363.11.629.178.341.08.616.162.826.247.215.085.397.218.544.4.148.176.221.414.221.715 0 .42-.156.754-.468 1.004-.306.25-.717.374-1.233.374Zm3.397-.927c.114 0 .205.036.273.11.068.068.102.165.102.29v.093c0 .199-.034.397-.102.596a2.374 2.374 0 0 1-.256.544c-.147.227-.272.34-.374.34a.36.36 0 0 1-.238-.085c.153-.187.272-.363.357-.527a1.59 1.59 0 0 0 .17-.52h-.042a.328.328 0 0 1-.255-.101.385.385 0 0 1-.094-.272v-.094c0-.113.031-.204.094-.272a.356.356 0 0 1 .263-.102h.102Zm6.249-3.923c.635 0 1.12.21 1.455.63.335.414.502 1.01.502 1.787 0 .493-.088.924-.264 1.293-.17.363-.419.644-.748.842-.324.199-.704.298-1.141.298-.215 0-.433-.023-.655-.068a3.043 3.043 0 0 1-.578-.162v2.017h-.579v-4.96c0-.84-.034-1.34-.102-1.498.182-.085.326-.128.434-.128.165 0 .247.165.247.494v.034a1.88 1.88 0 0 1 .646-.426c.25-.102.511-.153.783-.153Zm-.196 4.374c.488 0 .865-.17 1.132-.511.272-.34.408-.822.408-1.446 0-1.294-.448-1.94-1.344-1.94-.261 0-.516.06-.766.178-.244.12-.465.29-.663.51V89.4c.351.17.763.255 1.233.255Zm6.915-2.28c0 .13-.006.26-.017.39h-3.387c.012.59.142 1.05.392 1.379.255.329.607.493 1.055.493.306 0 .564-.06.774-.178.216-.12.394-.31.536-.57a.192.192 0 0 1 .179-.11c.091 0 .215.053.374.16-.125.37-.354.662-.689.877-.335.21-.726.315-1.174.315a2.03 2.03 0 0 1-1.089-.29 1.91 1.91 0 0 1-.706-.842c-.165-.368-.247-.802-.247-1.301 0-.755.187-1.345.561-1.77.375-.431.888-.647 1.54-.647.596 0 1.061.185 1.396.553.334.369.502.882.502 1.54Zm-.596-.069c0-1.02-.442-1.531-1.327-1.531-.431 0-.772.13-1.021.391-.25.261-.397.641-.443 1.14h2.791Zm3.536-2c.198 0 .349.035.451.103a.311.311 0 0 1 .162.29c0 .09-.032.172-.094.246-.136-.074-.323-.11-.562-.11-.38 0-.686.15-.918.45-.227.3-.341.695-.341 1.183v2.578h-.578v-4.68h.578v.843c.131-.261.315-.477.553-.647.238-.17.488-.255.749-.255Zm2.888 4.825c-.256 0-.519-.043-.792-.128a2.117 2.117 0 0 1-.68-.34c-.182-.142-.273-.292-.273-.45 0-.075.023-.14.068-.197a.39.39 0 0 1 .188-.127c.204.266.425.462.663.587.239.119.525.178.86.178.357 0 .626-.082.808-.246a.83.83 0 0 0 .281-.655.6.6 0 0 0-.17-.443 1.004 1.004 0 0 0-.409-.255 8.285 8.285 0 0 0-.664-.196 7.312 7.312 0 0 1-.799-.246 1.344 1.344 0 0 1-.511-.358c-.136-.164-.204-.383-.204-.655 0-.29.077-.533.23-.732.153-.198.349-.346.587-.442.238-.097.482-.145.732-.145.357 0 .68.071.969.213.295.142.525.349.69.621-.137.142-.253.213-.349.213-.074 0-.145-.04-.213-.12a1.236 1.236 0 0 0-.476-.348 1.57 1.57 0 0 0-.647-.12c-.289 0-.519.069-.689.205-.17.136-.255.346-.255.63 0 .164.051.297.153.4.102.102.229.18.383.238.153.05.363.11.629.178.341.08.616.162.826.247.215.085.397.218.544.4.148.176.221.414.221.715 0 .42-.156.754-.468 1.004-.306.25-.717.374-1.233.374Zm4.376 0c-.658 0-1.154-.204-1.489-.613-.335-.408-.502-1.015-.502-1.82 0-1.611.664-2.417 1.991-2.417s1.991.806 1.991 2.417c0 .805-.168 1.412-.502 1.82-.335.409-.831.613-1.489.613Zm0-.477c.482 0 .834-.156 1.055-.468.227-.317.34-.813.34-1.488 0-.67-.113-1.16-.34-1.472-.221-.312-.573-.468-1.055-.468s-.837.156-1.064.468c-.221.312-.332.802-.332 1.472 0 .675.111 1.17.332 1.489.227.311.582.468 1.064.468Zm6.754-.697c0 .346.003.581.009.706.011.12.034.227.068.323a.976.976 0 0 1-.443.102c-.085 0-.142-.06-.17-.178-.028-.125-.042-.369-.042-.732v-2.306c0-.397-.074-.683-.222-.859-.147-.182-.385-.272-.714-.272-.511 0-1.033.252-1.566.757v3.548h-.578v-3.089c0-.84-.034-1.338-.103-1.497.182-.085.327-.128.434-.128.165 0 .247.165.247.494v.076c.261-.215.522-.371.783-.468.267-.102.547-.153.842-.153.488 0 .851.133 1.089.4.244.261.366.66.366 1.2v2.076Zm4.819-.077c0 .261.02.468.059.621.046.148.122.281.23.4a.65.65 0 0 1-.204.136.51.51 0 0 1-.213.051c-.113 0-.21-.065-.289-.195a1.379 1.379 0 0 1-.145-.536 1.86 1.86 0 0 1-.706.57 2.188 2.188 0 0 1-.927.204c-.431 0-.777-.11-1.038-.332a1.118 1.118 0 0 1-.392-.885c0-.533.258-.95.775-1.25.521-.301 1.279-.474 2.271-.52v-.272c0-.374-.096-.652-.289-.834-.187-.187-.474-.28-.859-.28-.25 0-.482.054-.698.161-.21.102-.437.275-.681.52a.172.172 0 0 1-.127.05.35.35 0 0 1-.188-.068.888.888 0 0 1-.195-.212c.255-.301.544-.53.868-.69a2.373 2.373 0 0 1 1.046-.238c.528 0 .942.142 1.242.426.307.283.46.672.46 1.165v2.008Zm-2.153.775c.307 0 .596-.086.868-.256s.508-.411.706-.723v-1.055c-1.633.068-2.45.496-2.45 1.285 0 .499.292.749.876.749Zm3.698-6.34h.579v6.73h-.579v-6.73Zm7.669 5.565c0 .261.02.468.06.621.045.148.122.281.23.4a.644.644 0 0 1-.205.136.502.502 0 0 1-.212.051c-.114 0-.21-.065-.29-.195a1.38 1.38 0 0 1-.144-.536 1.86 1.86 0 0 1-.706.57 2.189 2.189 0 0 1-.928.204c-.431 0-.777-.11-1.038-.332a1.117 1.117 0 0 1-.391-.885c0-.533.258-.95.774-1.25.522-.301 1.279-.474 2.272-.52v-.272c0-.374-.097-.652-.29-.834-.187-.187-.473-.28-.859-.28-.249 0-.482.054-.698.161-.209.102-.436.275-.68.52a.174.174 0 0 1-.128.05.344.344 0 0 1-.187-.068.912.912 0 0 1-.196-.212c.256-.301.545-.53.868-.69a2.377 2.377 0 0 1 1.047-.238c.527 0 .941.142 1.242.426.306.283.459.672.459 1.165v2.008Zm-2.152.775c.306 0 .595-.086.868-.256.272-.17.507-.411.706-.723v-1.055c-1.634.068-2.451.496-2.451 1.285 0 .499.293.749.877.749Zm8.471-4.374c.402 0 .729.13.978.392.255.26.383.598.383 1.012v3.36h-.587v-3.334c0-.33-.074-.573-.221-.732-.148-.159-.372-.238-.672-.238-.483 0-.931.22-1.345.663.012.091.017.16.017.204v3.438h-.578v-3.42c0-.267-.082-.48-.247-.639-.159-.164-.371-.246-.638-.246-.244 0-.477.054-.698.161-.215.108-.434.281-.655.52v3.624h-.578v-3.089c0-.84-.034-1.338-.103-1.497.182-.085.327-.128.434-.128.165 0 .247.165.247.494v.034c.216-.204.437-.352.664-.443.232-.09.496-.136.791-.136.267 0 .505.063.715.187.21.12.371.284.485.494.244-.238.49-.411.74-.52a2.21 2.21 0 0 1 .868-.16Zm5.012 0c.63 0 1.115.204 1.455.613.346.408.519.987.519 1.736 0 .782-.179 1.395-.536 1.837-.357.443-.851.664-1.48.664-.602 0-1.073-.179-1.413-.536-.051.3-.15.45-.298.45a.813.813 0 0 1-.425-.101c.108-.238.162-.579.162-1.021v-5.607h.595v2.4a2.42 2.42 0 0 1 1.421-.435Zm-.042 4.356c.453 0 .802-.172 1.046-.519.25-.351.374-.847.374-1.489 0-.6-.119-1.063-.357-1.386-.238-.324-.579-.485-1.021-.485-.522 0-.995.161-1.421.485v2.765c.335.42.794.63 1.379.63Zm3.295-4.27h.579v4.679h-.579v-4.68Zm.255-.86c-.255 0-.382-.128-.382-.383v-.076c0-.256.127-.383.382-.383h.069c.255 0 .382.127.382.383v.076c0 .255-.127.383-.382.383h-.069Zm4.17 4.969a.28.28 0 0 1 .094.127.332.332 0 0 1 .042.162c0 .108-.045.184-.136.23-.181.09-.417.136-.706.136-.369 0-.664-.1-.885-.298-.221-.204-.332-.476-.332-.817v-3.19h-.884v-.46h.884v-1.276h.579v1.276h1.225v.46h-1.225v3.08c0 .476.204.715.613.715.26 0 .504-.049.731-.145Zm1.209-4.11h.578v4.68h-.578v-4.68Zm.255-.859c-.255 0-.383-.128-.383-.383v-.076c0-.256.128-.383.383-.383h.068c.255 0 .383.127.383.383v.076c0 .255-.128.383-.383.383h-.068Zm3.591 5.624c-.658 0-1.154-.204-1.489-.613-.335-.408-.502-1.015-.502-1.82 0-1.611.664-2.417 1.991-2.417s1.991.806 1.991 2.417c0 .805-.167 1.412-.502 1.82-.335.409-.831.613-1.489.613Zm0-.477c.482 0 .834-.156 1.055-.468.227-.317.34-.813.34-1.488 0-.67-.113-1.16-.34-1.472-.221-.312-.573-.468-1.055-.468s-.837.156-1.063.468c-.222.312-.332.802-.332 1.472 0 .675.11 1.17.332 1.489.226.311.581.468 1.063.468Zm6.754-.697c0 .346.003.581.009.706.011.12.034.227.068.323a.975.975 0 0 1-.442.102c-.086 0-.142-.06-.171-.178-.028-.125-.042-.369-.042-.732v-2.306c0-.397-.074-.683-.221-.859-.148-.182-.386-.272-.715-.272-.511 0-1.032.252-1.566.757v3.548h-.578v-3.089c0-.84-.034-1.338-.102-1.497.181-.085.326-.128.434-.128.164 0 .246.165.246.494v.076c.261-.215.522-.371.783-.468.267-.102.548-.153.842-.153.488 0 .851.133 1.09.4.243.261.365.66.365 1.2v2.076Zm2.122.247c.113 0 .204.036.272.11.068.068.102.165.102.29v.093c0 .199-.034.397-.102.596a2.415 2.415 0 0 1-.255.544c-.148.227-.272.34-.374.34a.362.362 0 0 1-.239-.085 3.05 3.05 0 0 0 .358-.527 1.59 1.59 0 0 0 .17-.52h-.043a.33.33 0 0 1-.255-.101.39.39 0 0 1-.094-.272v-.094c0-.113.032-.204.094-.272a.357.357 0 0 1 .264-.102h.102ZM61.284 106.282c.63 0 1.114.204 1.454.613.346.408.52.987.52 1.736 0 .782-.18 1.395-.537 1.837-.357.443-.85.664-1.48.664-.601 0-1.072-.179-1.412-.536-.051.301-.15.451-.298.451a.815.815 0 0 1-.426-.102c.108-.238.162-.579.162-1.021v-5.607h.596v2.399a2.422 2.422 0 0 1 1.42-.434Zm-.043 4.356c.454 0 .803-.173 1.047-.519.249-.351.374-.848.374-1.488 0-.602-.12-1.064-.358-1.387-.238-.324-.578-.485-1.02-.485-.522 0-.996.161-1.421.485v2.765c.334.42.794.629 1.378.629Zm6.784-2.263c0 .131-.006.261-.017.392h-3.386c.011.59.141 1.049.391 1.378.255.329.607.493 1.055.493.306 0 .564-.059.774-.178.216-.119.395-.309.536-.57.04-.074.1-.111.18-.111.09 0 .215.054.373.162a1.644 1.644 0 0 1-.689.876c-.334.21-.726.315-1.174.315-.414 0-.777-.096-1.089-.289a1.923 1.923 0 0 1-.706-.843c-.165-.368-.247-.802-.247-1.301 0-.755.187-1.345.562-1.77.374-.431.887-.647 1.54-.647.595 0 1.06.185 1.395.553.335.369.502.882.502 1.54Zm-.596-.068c0-1.021-.442-1.531-1.327-1.531-.43 0-.771.13-1.02.391-.25.261-.398.641-.443 1.14h2.79Zm4.983 1.574c0 .261.02.468.06.621.045.148.121.281.229.4a.638.638 0 0 1-.204.136.507.507 0 0 1-.213.051c-.113 0-.21-.065-.29-.195a1.382 1.382 0 0 1-.144-.536 1.862 1.862 0 0 1-.706.57 2.19 2.19 0 0 1-.928.204c-.43 0-.777-.111-1.037-.332a1.118 1.118 0 0 1-.392-.885c0-.533.258-.95.774-1.25.522-.301 1.28-.474 2.272-.519v-.273c0-.374-.096-.652-.29-.834-.186-.187-.473-.28-.859-.28-.25 0-.482.054-.697.161-.21.102-.437.275-.68.519a.173.173 0 0 1-.129.051.34.34 0 0 1-.187-.068.91.91 0 0 1-.195-.212c.255-.301.544-.531.867-.69a2.388 2.388 0 0 1 1.047-.238c.528 0 .942.142 1.242.426.306.283.46.672.46 1.165v2.008Zm-2.153.774c.306 0 .596-.085.868-.255.272-.17.508-.411.706-.723v-1.055c-1.633.068-2.45.496-2.45 1.285 0 .499.292.748.876.748Zm7.246-.57c0 .329.042.63.127.902a.73.73 0 0 1-.365.102.285.285 0 0 1-.264-.144c-.051-.102-.08-.284-.085-.545-.159.221-.383.4-.672.536-.29.131-.602.196-.936.196-.959 0-1.438-.525-1.438-1.574v-3.191h.578v3.131c0 .414.077.715.23.902.153.182.397.273.732.273.3 0 .581-.077.842-.23.267-.153.488-.369.664-.647v-3.429h.587v3.718Zm3.704.392c.04.028.07.071.093.127a.328.328 0 0 1 .043.162c0 .108-.045.184-.136.23-.182.091-.417.136-.706.136-.369 0-.664-.099-.885-.298-.221-.204-.332-.476-.332-.817v-3.19h-.885v-.46h.885v-1.276h.579v1.276h1.225v.46h-1.225v3.08c0 .476.204.714.612.714.261 0 .505-.048.732-.144Zm4.305-4.11-1.812 5.037c-.159.448-.36.774-.604.979-.238.21-.542.314-.91.314-.216 0-.386-.034-.51-.102-.126-.062-.188-.147-.188-.255 0-.113.048-.204.145-.272.056.04.141.074.255.102.119.028.235.043.349.043.232 0 .43-.103.595-.307.17-.204.315-.516.434-.936l-1.668-4.603h.613l1.353 3.769 1.336-3.769h.612Zm1.45 3.838c.113 0 .204.036.272.11a.392.392 0 0 1 .102.289v.094c0 .199-.034.397-.102.596a2.42 2.42 0 0 1-.255.544c-.148.227-.272.34-.375.34a.359.359 0 0 1-.238-.085 3.11 3.11 0 0 0 .358-.527 1.6 1.6 0 0 0 .17-.519h-.043a.33.33 0 0 1-.255-.102.387.387 0 0 1-.094-.272v-.094c0-.114.031-.204.094-.272a.357.357 0 0 1 .264-.102h.102Zm6.461-3.923c.488 0 .874.142 1.157.426.284.278.426.658.426 1.14v3.199h-.579v-3.14c0-.368-.09-.652-.272-.851-.182-.198-.442-.297-.783-.297-.26 0-.536.059-.825.178-.29.114-.548.267-.774.46v3.65h-.579v-6.73h.579v2.527c.25-.182.516-.321.8-.417.283-.097.567-.145.85-.145Zm6.406 3.599c0 .261.02.468.06.621.045.148.121.281.229.4a.64.64 0 0 1-.204.136.507.507 0 0 1-.213.051c-.113 0-.21-.065-.289-.195a1.382 1.382 0 0 1-.145-.536 1.864 1.864 0 0 1-.706.57 2.19 2.19 0 0 1-.927.204c-.431 0-.777-.111-1.038-.332a1.118 1.118 0 0 1-.392-.885c0-.533.258-.95.775-1.25.522-.301 1.279-.474 2.271-.519v-.273c0-.374-.096-.652-.289-.834-.187-.187-.474-.28-.86-.28-.249 0-.481.054-.697.161-.21.102-.437.275-.68.519a.173.173 0 0 1-.128.051.34.34 0 0 1-.187-.068.908.908 0 0 1-.196-.212c.255-.301.544-.531.868-.69a2.388 2.388 0 0 1 1.046-.238c.528 0 .942.142 1.242.426.307.283.46.672.46 1.165v2.008Zm-2.153.774c.307 0 .596-.085.868-.255.272-.17.508-.411.706-.723v-1.055c-1.633.068-2.45.496-2.45 1.285 0 .499.292.748.876.748Zm5.451-4.347c.198 0 .349.034.451.102a.31.31 0 0 1 .161.289.375.375 0 0 1-.093.247c-.136-.074-.323-.111-.562-.111-.38 0-.686.151-.919.451-.226.301-.34.695-.34 1.183v2.578h-.578v-4.68h.578v.843c.131-.261.315-.477.553-.647a1.27 1.27 0 0 1 .749-.255Zm6.427-.026c.403 0 .729.131.978.392.256.261.383.598.383 1.012v3.361h-.587v-3.335c0-.329-.074-.573-.221-.732-.148-.159-.372-.238-.672-.238-.482 0-.93.221-1.344.663.011.091.017.159.017.205v3.437h-.579v-3.42c0-.267-.082-.48-.247-.639-.159-.164-.371-.246-.638-.246-.244 0-.476.054-.698.161a2.39 2.39 0 0 0-.655.519v3.625h-.578v-3.089c0-.839-.034-1.338-.102-1.497.181-.085.326-.128.434-.128.164 0 .246.165.246.494v.034c.216-.204.437-.352.664-.443.232-.09.496-.136.791-.136.267 0 .505.063.715.187.21.12.371.284.485.494.244-.238.491-.411.74-.519a2.21 2.21 0 0 1 .868-.162Zm4.468 4.85c-.658 0-1.155-.204-1.489-.613-.335-.408-.502-1.015-.502-1.82 0-1.611.663-2.417 1.991-2.417 1.327 0 1.991.806 1.991 2.417 0 .805-.168 1.412-.502 1.82-.335.409-.831.613-1.489.613Zm0-.477c.482 0 .834-.155 1.055-.467.227-.318.34-.814.34-1.489 0-.67-.113-1.16-.34-1.472-.221-.312-.573-.468-1.055-.468s-.837.156-1.064.468c-.221.312-.332.802-.332 1.472 0 .675.111 1.171.332 1.489.227.312.582.467 1.064.467Zm6.754-.697c0 .346.003.581.009.706.011.119.034.227.068.323a.98.98 0 0 1-.443.102c-.085 0-.142-.059-.17-.178-.028-.125-.043-.369-.043-.732v-2.306c0-.397-.073-.683-.221-.859-.147-.182-.385-.272-.714-.272-.511 0-1.033.252-1.566.757v3.548h-.579v-3.089c0-.839-.034-1.338-.102-1.497.182-.085.327-.128.434-.128.165 0 .247.165.247.494v.076a2.75 2.75 0 0 1 .783-.468c.266-.102.547-.153.842-.153.488 0 .851.134 1.089.4.244.261.366.661.366 1.2v2.076Zm4.802-3.591-1.813 5.037c-.158.448-.36.774-.604.979-.238.21-.541.314-.91.314-.216 0-.386-.034-.511-.102-.124-.062-.187-.147-.187-.255 0-.113.048-.204.145-.272a.78.78 0 0 0 .255.102c.119.028.236.043.349.043.233 0 .431-.103.596-.307.17-.204.314-.516.433-.936l-1.667-4.603h.612l1.353 3.769 1.336-3.769h.613Zm1.449 3.838a.35.35 0 0 1 .272.11.392.392 0 0 1 .102.289v.094c0 .199-.034.397-.102.596a2.419 2.419 0 0 1-.255.544c-.147.227-.272.34-.374.34a.363.363 0 0 1-.239-.085c.154-.187.273-.363.358-.527.085-.159.142-.332.17-.519h-.043a.33.33 0 0 1-.255-.102.389.389 0 0 1-.093-.272v-.094c0-.114.031-.204.093-.272a.357.357 0 0 1 .264-.102h.102Zm6.368.272a.28.28 0 0 1 .094.127.332.332 0 0 1 .042.162c0 .108-.045.184-.136.23-.182.091-.417.136-.706.136-.369 0-.664-.099-.885-.298-.221-.204-.332-.476-.332-.817v-3.19h-.885v-.46h.885v-1.276h.579v1.276h1.225v.46h-1.225v3.08c0 .476.204.714.612.714.261 0 .505-.048.732-.144Zm2.876-4.169c.198 0 .349.034.451.102a.31.31 0 0 1 .162.289.376.376 0 0 1-.094.247c-.136-.074-.323-.111-.562-.111-.38 0-.686.151-.919.451-.226.301-.34.695-.34 1.183v2.578h-.578v-4.68h.578v.843c.131-.261.315-.477.553-.647a1.27 1.27 0 0 1 .749-.255Zm1.739.059h.578v4.68h-.578v-4.68Zm.255-.859c-.255 0-.383-.128-.383-.383v-.076c0-.256.128-.383.383-.383h.068c.255 0 .383.127.383.383v.076c0 .255-.128.383-.383.383h-.068Zm5.659 4.577c0 .329.042.63.128.902a.735.735 0 0 1-.366.102.286.286 0 0 1-.264-.144c-.051-.102-.079-.284-.085-.545-.159.221-.383.4-.672.536-.29.131-.602.196-.936.196-.959 0-1.438-.525-1.438-1.574v-3.191h.578v3.131c0 .414.077.715.23.902.153.182.397.273.732.273.301 0 .581-.077.842-.23a1.9 1.9 0 0 0 .664-.647v-3.429h.587v3.718Zm6.418-3.803c.403 0 .729.131.979.392.255.261.382.598.382 1.012v3.361h-.587v-3.335c0-.329-.073-.573-.221-.732-.147-.159-.371-.238-.672-.238-.482 0-.93.221-1.344.663.011.091.017.159.017.205v3.437h-.579v-3.42c0-.267-.082-.48-.247-.639-.158-.164-.371-.246-.638-.246a1.58 1.58 0 0 0-.697.161 2.362 2.362 0 0 0-.655.519v3.625h-.579v-3.089c0-.839-.034-1.338-.102-1.497.181-.085.326-.128.434-.128.164 0 .247.165.247.494v.034a2.12 2.12 0 0 1 .663-.443 2.18 2.18 0 0 1 .791-.136c.267 0 .505.063.715.187.21.12.372.284.485.494.244-.238.491-.411.74-.519.256-.108.545-.162.868-.162Zm4.927 0c.636 0 1.121.21 1.455.63.335.414.502 1.01.502 1.787 0 .493-.088.924-.263 1.293-.171.363-.42.644-.749.842-.324.199-.704.298-1.14.298-.216 0-.434-.023-.655-.068a3.062 3.062 0 0 1-.579-.162v2.017h-.579v-4.961c0-.839-.034-1.338-.102-1.497.182-.085.326-.128.434-.128.165 0 .247.165.247.494v.034a2.045 2.045 0 0 1 1.429-.579Zm-.195 4.373c.487 0 .865-.17 1.131-.51.273-.34.409-.822.409-1.446 0-1.294-.448-1.94-1.345-1.94-.261 0-.516.059-.765.178a2.18 2.18 0 0 0-.664.511v2.952c.352.17.763.255 1.234.255Zm5.493-4.373c.488 0 .874.142 1.157.426.284.278.426.658.426 1.14v3.199h-.579v-3.14c0-.368-.091-.652-.272-.851-.182-.198-.443-.297-.783-.297-.261 0-.536.059-.825.178-.29.114-.548.267-.774.46v3.65h-.579v-6.73h.579v2.527c.249-.182.516-.321.799-.417a2.62 2.62 0 0 1 .851-.145Zm3.632 4.765c-.255 0-.383-.128-.383-.383v-.077c0-.255.128-.382.383-.382h.068c.255 0 .383.127.383.382v.077c0 .255-.128.383-.383.383h-.068ZM49.783 133.132c-.812 0-1.441-.267-1.89-.8-.442-.533-.663-1.287-.663-2.263 0-.981.221-1.736.664-2.263.442-.533 1.072-.8 1.889-.8.329 0 .635.057.919.17.283.108.527.27.731.485a.55.55 0 0 1-.144.247.306.306 0 0 1-.213.085.362.362 0 0 1-.221-.077 1.723 1.723 0 0 0-1.09-.357c-.623 0-1.097.213-1.42.638-.324.426-.485 1.05-.485 1.872 0 .817.161 1.438.485 1.863.323.426.797.638 1.42.638.267 0 .505-.036.715-.11.216-.074.429-.196.639-.366a.273.273 0 0 1 .187.094.264.264 0 0 1 .076.195c0 .131-.076.253-.23.366a1.815 1.815 0 0 1-.595.281 2.87 2.87 0 0 1-.774.102Zm4.677-4.824c.198 0 .349.034.45.102a.311.311 0 0 1 .162.289.373.373 0 0 1-.093.247c-.136-.074-.324-.111-.562-.111-.38 0-.686.151-.919.451-.227.301-.34.695-.34 1.183v2.578h-.579v-4.68h.579v.843c.13-.261.315-.477.553-.647a1.27 1.27 0 0 1 .749-.255Zm5.227 2.067c0 .131-.006.261-.017.392h-3.386c.011.59.142 1.049.391 1.378.255.329.607.493 1.055.493.306 0 .565-.059.774-.178.216-.119.395-.309.537-.57.04-.074.099-.111.178-.111.09 0 .216.054.374.162a1.644 1.644 0 0 1-.689.876c-.334.21-.726.315-1.174.315-.414 0-.777-.096-1.089-.289a1.923 1.923 0 0 1-.706-.843c-.165-.368-.247-.802-.247-1.301 0-.755.187-1.345.562-1.77.374-.431.887-.647 1.54-.647.595 0 1.06.185 1.395.553.335.369.502.882.502 1.54Zm-.595-.068c0-1.021-.443-1.531-1.328-1.531-.43 0-.771.13-1.02.391-.25.261-.398.641-.443 1.14h2.79Zm3.842 2.17c.04.028.07.071.093.127a.329.329 0 0 1 .043.162c0 .108-.046.184-.136.23-.182.091-.417.136-.707.136-.368 0-.663-.099-.884-.298-.222-.204-.332-.476-.332-.817v-3.19h-.885v-.46h.885v-1.276h.578v1.276h1.226v.46h-1.226v3.08c0 .476.205.714.613.714.26 0 .505-.048.732-.144Zm4.696-2.102c0 .131-.005.261-.017.392h-3.386c.011.59.142 1.049.391 1.378.256.329.607.493 1.056.493.306 0 .564-.059.774-.178.215-.119.394-.309.536-.57.04-.074.099-.111.178-.111.091 0 .216.054.375.162a1.644 1.644 0 0 1-.69.876c-.334.21-.725.315-1.173.315-.415 0-.778-.096-1.09-.289a1.923 1.923 0 0 1-.706-.843c-.164-.368-.246-.802-.246-1.301 0-.755.187-1.345.561-1.77.374-.431.888-.647 1.54-.647.596 0 1.06.185 1.395.553.335.369.502.882.502 1.54Zm-.595-.068c0-1.021-.443-1.531-1.328-1.531-.43 0-.77.13-1.02.391s-.398.641-.443 1.14h2.79Zm3.636-.127h3.063v.51h-3.063v-.51Zm10.195.195c0 .131-.005.261-.017.392h-3.386c.011.59.142 1.049.392 1.378.255.329.606.493 1.054.493.307 0 .565-.059.775-.178.215-.119.394-.309.536-.57.04-.074.099-.111.178-.111.091 0 .216.054.375.162a1.644 1.644 0 0 1-.69.876c-.334.21-.725.315-1.174.315-.414 0-.777-.096-1.089-.289a1.923 1.923 0 0 1-.706-.843c-.164-.368-.246-.802-.246-1.301 0-.755.187-1.345.561-1.77.374-.431.888-.647 1.54-.647.596 0 1.06.185 1.395.553.335.369.502.882.502 1.54Zm-.595-.068c0-1.021-.443-1.531-1.328-1.531-.43 0-.77.13-1.02.391s-.398.641-.443 1.14h2.79Zm4.982 1.574c0 .261.02.468.06.621.045.148.121.281.23.4a.638.638 0 0 1-.205.136.508.508 0 0 1-.213.051c-.113 0-.21-.065-.289-.195a1.38 1.38 0 0 1-.144-.536 1.864 1.864 0 0 1-.707.57 2.19 2.19 0 0 1-.927.204c-.431 0-.777-.111-1.038-.332a1.118 1.118 0 0 1-.391-.885c0-.533.258-.95.774-1.25.522-.301 1.279-.474 2.271-.519v-.273c0-.374-.096-.652-.289-.834-.187-.187-.474-.28-.86-.28-.249 0-.481.054-.697.161-.21.102-.437.275-.68.519a.173.173 0 0 1-.128.051.34.34 0 0 1-.187-.068.908.908 0 0 1-.196-.212c.255-.301.544-.531.868-.69a2.388 2.388 0 0 1 1.046-.238c.528 0 .942.142 1.243.426.306.283.459.672.459 1.165v2.008Zm-2.153.774c.307 0 .596-.085.868-.255.272-.17.508-.411.706-.723v-1.055c-1.633.068-2.45.496-2.45 1.285 0 .499.292.748.876.748Zm5.451-4.347c.198 0 .349.034.45.102a.31.31 0 0 1 .162.289.373.373 0 0 1-.093.247c-.136-.074-.323-.111-.562-.111-.38 0-.686.151-.918.451-.227.301-.34.695-.34 1.183v2.578h-.58v-4.68h.58v.843c.13-.261.314-.477.552-.647a1.27 1.27 0 0 1 .749-.255Zm1.654-1.991h.578v6.73h-.578v-6.73Zm2.362 2.05h.578v4.68h-.578v-4.68Zm.255-.859c-.255 0-.383-.128-.383-.383v-.076c0-.256.128-.383.383-.383h.068c.255 0 .383.127.383.383v.076c0 .255-.128.383-.383.383h-.068Zm5.684 2.867c0 .131-.006.261-.017.392h-3.386c.011.59.142 1.049.391 1.378.255.329.607.493 1.055.493.306 0 .565-.059.774-.178.216-.119.395-.309.537-.57.04-.074.099-.111.178-.111.09 0 .216.054.374.162a1.644 1.644 0 0 1-.689.876c-.334.21-.726.315-1.174.315-.414 0-.777-.096-1.089-.289a1.922 1.922 0 0 1-.706-.843c-.165-.368-.247-.802-.247-1.301 0-.755.187-1.345.562-1.77.374-.431.888-.647 1.54-.647.595 0 1.06.185 1.395.553.335.369.502.882.502 1.54Zm-.596-.068c0-1.021-.442-1.531-1.327-1.531-.43 0-.771.13-1.02.391-.25.261-.398.641-.443 1.14h2.79Zm3.017 2.825a2.65 2.65 0 0 1-.791-.128 2.119 2.119 0 0 1-.68-.34c-.182-.142-.273-.292-.273-.451 0-.074.023-.139.068-.196a.38.38 0 0 1 .187-.127c.205.266.426.462.664.587.238.119.525.178.859.178.358 0 .627-.082.809-.246a.83.83 0 0 0 .28-.655.598.598 0 0 0-.17-.443 1.014 1.014 0 0 0-.408-.255 8.223 8.223 0 0 0-.664-.196 7.52 7.52 0 0 1-.8-.246 1.353 1.353 0 0 1-.51-.358c-.136-.164-.204-.383-.204-.655 0-.289.076-.533.23-.732a1.38 1.38 0 0 1 .587-.442c.238-.097.482-.145.731-.145.358 0 .681.071.97.213.295.142.525.349.689.621-.136.142-.252.213-.348.213-.074 0-.145-.04-.213-.119a1.234 1.234 0 0 0-.477-.349 1.556 1.556 0 0 0-.646-.119c-.29 0-.519.068-.689.204-.17.136-.256.346-.256.629 0 .165.051.298.153.4.103.102.23.182.383.239.153.051.363.11.63.178.34.08.615.162.825.247.216.085.397.218.545.4.147.176.221.414.221.715 0 .419-.156.754-.468 1.004-.306.249-.718.374-1.234.374Zm4.955-.655a.28.28 0 0 1 .094.127.332.332 0 0 1 .042.162c0 .108-.045.184-.136.23-.181.091-.417.136-.706.136-.369 0-.664-.099-.885-.298-.221-.204-.332-.476-.332-.817v-3.19h-.885v-.46h.885v-1.276h.579v1.276h1.225v.46h-1.225v3.08c0 .476.204.714.612.714.261 0 .505-.048.732-.144Zm6.516-.596c0 .261.02.468.06.621.045.148.122.281.229.4a.623.623 0 0 1-.204.136.506.506 0 0 1-.213.051c-.113 0-.209-.065-.289-.195a1.365 1.365 0 0 1-.144-.536 1.867 1.867 0 0 1-.707.57 2.19 2.19 0 0 1-.927.204c-.431 0-.777-.111-1.038-.332a1.117 1.117 0 0 1-.391-.885c0-.533.258-.95.774-1.25.522-.301 1.279-.474 2.272-.519v-.273c0-.374-.097-.652-.29-.834-.187-.187-.473-.28-.859-.28-.25 0-.482.054-.698.161-.21.102-.437.275-.68.519a.174.174 0 0 1-.128.051.339.339 0 0 1-.187-.068.902.902 0 0 1-.196-.212c.255-.301.545-.531.868-.69a2.388 2.388 0 0 1 1.046-.238c.528 0 .942.142 1.243.426.306.283.459.672.459 1.165v2.008Zm-2.153.774c.307 0 .596-.085.868-.255.273-.17.508-.411.707-.723v-1.055c-1.634.068-2.451.496-2.451 1.285 0 .499.292.748.876.748Zm5.451-4.347c.199 0 .349.034.451.102a.31.31 0 0 1 .162.289.376.376 0 0 1-.094.247c-.136-.074-.323-.111-.562-.111-.38 0-.686.151-.918.451-.227.301-.341.695-.341 1.183v2.578h-.578v-4.68h.578v.843c.131-.261.315-.477.553-.647.239-.17.488-.255.749-.255Zm3.713 4.169a.28.28 0 0 1 .094.127.332.332 0 0 1 .042.162c0 .108-.045.184-.136.23-.182.091-.417.136-.706.136-.369 0-.664-.099-.885-.298-.221-.204-.332-.476-.332-.817v-3.19h-.885v-.46h.885v-1.276h.579v1.276h1.225v.46h-1.225v3.08c0 .476.204.714.612.714.261 0 .505-.048.732-.144Zm3.402-4.11h.578v4.68h-.578v-4.68Zm.255-.859c-.255 0-.383-.128-.383-.383v-.076c0-.256.128-.383.383-.383h.068c.255 0 .383.127.383.383v.076c0 .255-.128.383-.383.383h-.068Zm5.684 4.45c0 .346.003.581.009.706.011.119.034.227.068.323a.977.977 0 0 1-.442.102c-.086 0-.142-.059-.171-.178-.028-.125-.042-.369-.042-.732v-2.306c0-.397-.074-.683-.221-.859-.148-.182-.386-.272-.715-.272-.511 0-1.032.252-1.566.757v3.548h-.578v-3.089c0-.839-.034-1.338-.102-1.497.181-.085.326-.128.434-.128.164 0 .246.165.246.494v.076a2.75 2.75 0 0 1 .783-.468 2.34 2.34 0 0 1 .842-.153c.488 0 .851.134 1.09.4.243.261.365.661.365 1.2v2.076Zm7.013-.077c0 .261.019.468.059.621.046.148.122.281.23.4a.645.645 0 0 1-.204.136.51.51 0 0 1-.213.051c-.113 0-.21-.065-.289-.195a1.382 1.382 0 0 1-.145-.536 1.863 1.863 0 0 1-.706.57 2.19 2.19 0 0 1-.928.204c-.431 0-.777-.111-1.038-.332a1.12 1.12 0 0 1-.391-.885c0-.533.258-.95.774-1.25.522-.301 1.279-.474 2.272-.519v-.273c0-.374-.096-.652-.289-.834-.187-.187-.474-.28-.86-.28-.249 0-.482.054-.697.161-.21.102-.437.275-.681.519a.174.174 0 0 1-.128.051.341.341 0 0 1-.187-.068.9.9 0 0 1-.195-.212c.255-.301.544-.531.867-.69a2.389 2.389 0 0 1 1.047-.238c.527 0 .942.142 1.242.426.306.283.46.672.46 1.165v2.008Zm-2.153.774c.306 0 .596-.085.868-.255.272-.17.508-.411.706-.723v-1.055c-1.634.068-2.45.496-2.45 1.285 0 .499.292.748.876.748Zm5.451-4.347c.198 0 .348.034.45.102a.31.31 0 0 1 .162.289.375.375 0 0 1-.093.247c-.137-.074-.324-.111-.562-.111-.38 0-.686.151-.919.451-.227.301-.34.695-.34 1.183v2.578h-.579v-4.68h.579v.843c.13-.261.315-.477.553-.647a1.27 1.27 0 0 1 .749-.255Zm5.227 2.067c0 .131-.006.261-.017.392h-3.386c.011.59.141 1.049.391 1.378.255.329.607.493 1.055.493.306 0 .564-.059.774-.178.216-.119.395-.309.536-.57.04-.074.1-.111.179-.111.091 0 .216.054.374.162a1.639 1.639 0 0 1-.689.876c-.334.21-.726.315-1.174.315-.414 0-.777-.096-1.089-.289a1.921 1.921 0 0 1-.706-.843c-.165-.368-.247-.802-.247-1.301 0-.755.187-1.345.562-1.77.374-.431.887-.647 1.54-.647.595 0 1.06.185 1.395.553.335.369.502.882.502 1.54Zm-.596-.068c0-1.021-.442-1.531-1.327-1.531-.431 0-.771.13-1.021.391-.249.261-.397.641-.442 1.14h2.79Zm4.983 1.574c0 .261.019.468.059.621.046.148.122.281.23.4a.645.645 0 0 1-.204.136.51.51 0 0 1-.213.051c-.113 0-.21-.065-.289-.195a1.382 1.382 0 0 1-.145-.536 1.863 1.863 0 0 1-.706.57 2.19 2.19 0 0 1-.928.204c-.431 0-.777-.111-1.038-.332a1.12 1.12 0 0 1-.391-.885c0-.533.258-.95.774-1.25.522-.301 1.279-.474 2.272-.519v-.273c0-.374-.096-.652-.289-.834-.187-.187-.474-.28-.86-.28-.249 0-.482.054-.697.161-.21.102-.437.275-.681.519a.174.174 0 0 1-.128.051.341.341 0 0 1-.187-.068.9.9 0 0 1-.195-.212c.255-.301.544-.531.867-.69a2.389 2.389 0 0 1 1.047-.238c.527 0 .942.142 1.242.426.306.283.46.672.46 1.165v2.008Zm-2.153.774c.306 0 .596-.085.868-.255.272-.17.507-.411.706-.723v-1.055c-1.634.068-2.45.496-2.45 1.285 0 .499.292.748.876.748Zm7.219-6.262c.261 0 .459.032.595.094.136.062.204.153.204.272a.471.471 0 0 1-.034.179c-.017.051-.039.077-.068.077a1.284 1.284 0 0 0-.587-.128c-.238 0-.419.074-.544.221-.125.148-.187.36-.187.638v.621h1.055v.443h-1.055v4.237h-.579v-4.237h-.876v-.443h.876v-.629c0-.409.108-.735.323-.979.222-.244.514-.366.877-.366Zm3.003 6.739c-.658 0-1.155-.204-1.489-.613-.335-.408-.502-1.015-.502-1.82 0-1.611.663-2.417 1.991-2.417 1.327 0 1.991.806 1.991 2.417 0 .805-.168 1.412-.502 1.82-.335.409-.831.613-1.489.613Zm0-.477c.482 0 .834-.155 1.055-.467.227-.318.34-.814.34-1.489 0-.67-.113-1.16-.34-1.472-.221-.312-.573-.468-1.055-.468s-.837.156-1.064.468c-.221.312-.332.802-.332 1.472 0 .675.111 1.171.332 1.489.227.312.582.467 1.064.467Zm6.729-.57c0 .329.042.63.127.902a.73.73 0 0 1-.366.102.283.283 0 0 1-.263-.144c-.052-.102-.08-.284-.086-.545a1.68 1.68 0 0 1-.672.536 2.24 2.24 0 0 1-.936.196c-.958 0-1.438-.525-1.438-1.574v-3.191h.579v3.131c0 .414.077.715.23.902.153.182.397.273.731.273.301 0 .582-.077.843-.23.266-.153.488-.369.663-.647v-3.429h.588v3.718Zm5.218-.127c0 .346.003.581.009.706.011.119.034.227.068.323a.978.978 0 0 1-.443.102c-.085 0-.142-.059-.17-.178-.028-.125-.042-.369-.042-.732v-2.306c0-.397-.074-.683-.222-.859-.147-.182-.385-.272-.714-.272-.511 0-1.033.252-1.566.757v3.548h-.578v-3.089c0-.839-.035-1.338-.103-1.497.182-.085.327-.128.434-.128.165 0 .247.165.247.494v.076a2.75 2.75 0 0 1 .783-.468c.266-.102.547-.153.842-.153.488 0 .851.134 1.089.4.244.261.366.661.366 1.2v2.076Zm5.083 0a4.534 4.534 0 0 0 .119 1.021.918.918 0 0 1-.392.102c-.153 0-.249-.193-.289-.579a1.656 1.656 0 0 1-.613.485c-.221.097-.493.145-.816.145-.619 0-1.104-.213-1.455-.638-.352-.431-.528-1.021-.528-1.77 0-.771.187-1.37.562-1.795.38-.431.907-.647 1.582-.647.21 0 .431.04.664.119.238.074.434.168.587.281v-2.365h.579v5.641Zm-1.949.697c.289 0 .545-.059.766-.178.221-.119.422-.304.604-.553v-2.68a1.596 1.596 0 0 0-.562-.358 1.793 1.793 0 0 0-.689-.144c-.499 0-.882.17-1.148.51-.267.341-.4.831-.4 1.472 0 .624.122 1.103.366 1.438.243.329.598.493 1.063.493Zm3.996.392c-.255 0-.383-.128-.383-.383v-.077c0-.255.128-.382.383-.382h.068c.255 0 .383.127.383.382v.077c0 .255-.128.383-.383.383h-.068ZM19.126 148.602v2.101h2.527v.511h-2.527v2.833h-.613v-5.956h3.506v.511h-2.893Zm7.217 4.279c0 .261.02.468.06.621.045.148.122.281.23.4a.638.638 0 0 1-.205.136.507.507 0 0 1-.213.051c-.113 0-.21-.065-.289-.195a1.382 1.382 0 0 1-.144-.536 1.862 1.862 0 0 1-.707.57 2.19 2.19 0 0 1-.927.204c-.431 0-.777-.111-1.038-.332a1.118 1.118 0 0 1-.391-.885c0-.533.258-.95.774-1.25.522-.301 1.279-.474 2.272-.519v-.273c0-.374-.097-.652-.29-.834-.187-.187-.473-.28-.859-.28-.25 0-.482.054-.698.161-.21.102-.436.275-.68.519a.173.173 0 0 1-.128.051.34.34 0 0 1-.187-.068.91.91 0 0 1-.196-.212c.255-.301.545-.531.868-.69a2.388 2.388 0 0 1 1.047-.238c.527 0 .941.142 1.242.426.306.283.46.672.46 1.165v2.008Zm-2.152.774c.306 0 .595-.085.867-.255.273-.17.508-.411.707-.723v-1.055c-1.634.068-2.45.496-2.45 1.285 0 .499.291.748.876.748Zm8.47-4.373c.403 0 .73.131.979.392.255.261.383.598.383 1.012v3.361h-.587v-3.335c0-.329-.074-.573-.221-.732-.148-.159-.372-.238-.673-.238-.482 0-.93.221-1.344.663.011.091.017.159.017.205v3.437h-.578v-3.42c0-.267-.083-.48-.247-.639-.159-.164-.372-.246-.638-.246-.244 0-.477.054-.698.161a2.372 2.372 0 0 0-.655.519v3.625h-.579v-3.089c0-.839-.034-1.338-.102-1.497.182-.085.326-.128.434-.128.165 0 .247.165.247.494v.034a2.13 2.13 0 0 1 .663-.443 2.18 2.18 0 0 1 .792-.136c.266 0 .505.063.715.187.21.12.371.284.485.494.243-.238.49-.411.74-.519.255-.108.544-.162.867-.162Zm4.468 4.85c-.658 0-1.154-.204-1.489-.613-.334-.408-.502-1.015-.502-1.82 0-1.611.664-2.417 1.991-2.417 1.328 0 1.991.806 1.991 2.417 0 .805-.167 1.412-.502 1.82-.334.409-.83.613-1.489.613Zm0-.477c.483 0 .834-.155 1.055-.467.227-.318.34-.814.34-1.489 0-.67-.113-1.16-.34-1.472-.22-.312-.572-.468-1.055-.468-.482 0-.836.156-1.063.468-.221.312-.332.802-.332 1.472 0 .675.11 1.171.332 1.489.227.312.581.467 1.063.467Zm6.73-.57c0 .329.042.63.127.902a.73.73 0 0 1-.366.102.285.285 0 0 1-.264-.144c-.05-.102-.08-.284-.085-.545-.159.221-.383.4-.672.536-.29.131-.601.196-.936.196-.959 0-1.438-.525-1.438-1.574v-3.191h.579v3.131c0 .414.076.715.23.902.153.182.396.273.731.273.3 0 .581-.077.842-.23a1.9 1.9 0 0 0 .664-.647v-3.429h.587v3.718Zm2.878 1.047c-.255 0-.52-.043-.791-.128a2.119 2.119 0 0 1-.681-.34c-.181-.142-.272-.292-.272-.451 0-.074.022-.139.068-.196a.38.38 0 0 1 .187-.127c.204.266.425.462.664.587.238.119.524.178.859.178.357 0 .627-.082.808-.246a.83.83 0 0 0 .281-.655.6.6 0 0 0-.17-.443 1.01 1.01 0 0 0-.409-.255 8.23 8.23 0 0 0-.663-.196 7.457 7.457 0 0 1-.8-.246 1.351 1.351 0 0 1-.51-.358c-.137-.164-.205-.383-.205-.655 0-.289.077-.533.23-.732.153-.198.349-.346.587-.442.238-.097.482-.145.732-.145.357 0 .68.071.97.213.295.142.524.349.689.621-.136.142-.252.213-.349.213-.074 0-.145-.04-.213-.119a1.237 1.237 0 0 0-.476-.349 1.558 1.558 0 0 0-.647-.119c-.289 0-.519.068-.689.204-.17.136-.255.346-.255.629a.54.54 0 0 0 .153.4c.102.102.23.182.383.239.153.051.363.11.63.178.34.08.615.162.825.247.215.085.397.218.544.4.148.176.222.414.222.715 0 .419-.156.754-.468 1.004-.307.249-.718.374-1.234.374Zm6.289.732a6.715 6.715 0 0 1-1.021-1.957 6.856 6.856 0 0 1-.349-2.093c0-.664.116-1.353.349-2.068a6.823 6.823 0 0 1 1.02-1.965h.63a6.455 6.455 0 0 0-1.063 1.965 6.711 6.711 0 0 0-.332 2.068c0 .697.11 1.392.332 2.084a6.234 6.234 0 0 0 1.064 1.966h-.63Zm6.404-3.991v2.553c-.21.215-.491.388-.843.519a3.18 3.18 0 0 1-1.089.187c-.879 0-1.545-.258-2-.774-.453-.522-.68-1.285-.68-2.289 0-.981.23-1.736.69-2.263.464-.533 1.128-.8 1.99-.8.403 0 .777.077 1.123.23.346.147.607.346.783.595-.113.199-.238.298-.374.298a.45.45 0 0 1-.281-.119 1.942 1.942 0 0 0-.587-.357 1.914 1.914 0 0 0-.672-.111c-.67 0-1.177.216-1.523.647-.346.425-.52 1.052-.52 1.88 0 .851.168 1.486.503 1.906.34.414.853.621 1.54.621.283 0 .547-.037.791-.111.244-.073.423-.173.536-.297v-1.787h-1.2c-.113 0-.195-.04-.246-.119-.046-.08-.068-.216-.068-.409h2.127Zm3.13-1.565c.2 0 .35.034.452.102a.311.311 0 0 1 .161.289.373.373 0 0 1-.093.247c-.136-.074-.323-.111-.562-.111-.38 0-.686.151-.919.451-.226.301-.34.695-.34 1.183v2.578h-.578v-4.68h.578v.843c.13-.261.315-.477.553-.647a1.27 1.27 0 0 1 .749-.255Zm5.228 2.067c0 .131-.005.261-.017.392h-3.386c.011.59.142 1.049.391 1.378.256.329.607.493 1.055.493.307 0 .565-.059.775-.178.215-.119.394-.309.536-.57.04-.074.099-.111.178-.111.091 0 .216.054.375.162a1.644 1.644 0 0 1-.69.876c-.334.21-.726.315-1.174.315-.414 0-.777-.096-1.089-.289a1.923 1.923 0 0 1-.706-.843c-.164-.368-.247-.802-.247-1.301 0-.755.188-1.345.562-1.77.374-.431.888-.647 1.54-.647.596 0 1.06.185 1.395.553.335.369.502.882.502 1.54Zm-.595-.068c0-1.021-.443-1.531-1.328-1.531-.43 0-.771.13-1.02.391-.25.261-.398.641-.443 1.14h2.79Zm5.356.068c0 .131-.006.261-.017.392h-3.386c.011.59.142 1.049.391 1.378.255.329.607.493 1.055.493.307 0 .565-.059.775-.178.215-.119.394-.309.536-.57.04-.074.099-.111.178-.111.091 0 .216.054.375.162a1.644 1.644 0 0 1-.69.876c-.334.21-.726.315-1.174.315-.414 0-.777-.096-1.089-.289a1.923 1.923 0 0 1-.706-.843c-.164-.368-.247-.802-.247-1.301 0-.755.188-1.345.562-1.77.374-.431.888-.647 1.54-.647.595 0 1.06.185 1.395.553.335.369.502.882.502 1.54Zm-.595-.068c0-1.021-.443-1.531-1.328-1.531-.43 0-.771.13-1.02.391-.25.261-.398.641-.443 1.14h2.79Zm5.433 2.74c-.097 0-.207.006-.332.017a2.803 2.803 0 0 1-.187.017.273.273 0 0 1-.247-.136l-1.097-1.77c-.165-.267-.463-.391-.894-.374l-.391.017v2.229h-.579v-6.73h.579v3.973l.331-.008a.833.833 0 0 0 .307-.068.71.71 0 0 0 .23-.205l1.276-1.642h.715l-1.515 1.855a1.37 1.37 0 0 0-.077.094.557.557 0 0 1-.153.119c.278.074.48.21.604.408l1.43 2.204Zm.79.817a6.234 6.234 0 0 0 1.063-1.966 6.557 6.557 0 0 0-.008-4.152 6.307 6.307 0 0 0-1.055-1.965h.63c.442.59.78 1.245 1.012 1.965a6.53 6.53 0 0 1 .357 2.068c0 .669-.119 1.367-.357 2.093a6.562 6.562 0 0 1-1.012 1.957h-.63Zm9.924-6.773v5.956h-.612v-2.808h-3.097v2.808h-.613v-5.956h.613v2.638h3.097v-2.638h.612Zm5.154 3.284c0 .131-.006.261-.017.392h-3.386c.01.59.141 1.049.391 1.378.255.329.607.493 1.055.493.306 0 .564-.059.774-.178.216-.119.394-.309.536-.57.04-.074.1-.111.179-.111.09 0 .215.054.374.162a1.644 1.644 0 0 1-.689.876c-.334.21-.726.315-1.174.315-.414 0-.777-.096-1.09-.289a1.922 1.922 0 0 1-.705-.843c-.165-.368-.247-.802-.247-1.301 0-.755.187-1.345.562-1.77.374-.431.887-.647 1.54-.647.595 0 1.06.185 1.395.553.335.369.502.882.502 1.54Zm-.596-.068c0-1.021-.442-1.531-1.327-1.531-.431 0-.771.13-1.021.391-.25.261-.397.641-.442 1.14h2.79Zm1.783-3.99h.579v6.73h-.579v-6.73Zm2.277 0h.579v6.73h-.579v-6.73Zm5.85 4.058c0 .131-.006.261-.017.392h-3.386c.011.59.142 1.049.391 1.378.255.329.607.493 1.055.493.307 0 .565-.059.774-.178.216-.119.395-.309.537-.57a.19.19 0 0 1 .178-.111c.091 0 .216.054.375.162a1.645 1.645 0 0 1-.69.876c-.334.21-.726.315-1.174.315-.414 0-.777-.096-1.089-.289a1.923 1.923 0 0 1-.706-.843c-.164-.368-.247-.802-.247-1.301 0-.755.187-1.345.562-1.77.374-.431.887-.647 1.54-.647.595 0 1.06.185 1.395.553.335.369.502.882.502 1.54Zm-.595-.068c0-1.021-.443-1.531-1.328-1.531-.431 0-.771.13-1.02.391-.25.261-.398.641-.443 1.14h2.791Zm5.356 1.651c0 .346.003.581.009.706.011.119.034.227.068.323a.978.978 0 0 1-.443.102c-.085 0-.142-.059-.17-.178-.028-.125-.042-.369-.042-.732v-2.306c0-.397-.074-.683-.222-.859-.147-.182-.385-.272-.714-.272-.511 0-1.033.252-1.566.757v3.548h-.578v-3.089c0-.839-.034-1.338-.103-1.497.182-.085.327-.128.434-.128.165 0 .247.165.247.494v.076a2.75 2.75 0 0 1 .783-.468c.266-.102.547-.153.842-.153.488 0 .851.134 1.089.4.244.261.366.661.366 1.2v2.076Zm1.705-3.591h.578v4.68h-.578v-4.68Zm.255-.859c-.255 0-.383-.128-.383-.383v-.076c0-.256.128-.383.383-.383h.068c.255 0 .383.127.383.383v.076c0 .255-.128.383-.383.383h-.068Zm3.778 5.624c-.686 0-1.222-.216-1.608-.647-.38-.431-.57-1.032-.57-1.803 0-.488.085-.911.256-1.268.175-.363.425-.641.748-.834a2.143 2.143 0 0 1 1.14-.298c.522 0 .95.134 1.285.4.34.261.539.618.596 1.072a1.252 1.252 0 0 1-.213.068.841.841 0 0 1-.213.034c-.056 0-.099-.014-.127-.042a.782.782 0 0 1-.077-.204.99.99 0 0 0-.425-.622c-.222-.153-.497-.229-.826-.229-.306 0-.578.079-.816.238a1.57 1.57 0 0 0-.545.681 2.512 2.512 0 0 0-.187 1.004c0 .601.142 1.08.425 1.437.29.358.675.536 1.157.536.369 0 .684-.085.945-.255a1.59 1.59 0 0 0 .587-.765c.079 0 .145.034.196.102a.363.363 0 0 1 .085.238c0 .198-.085.388-.256.57a1.738 1.738 0 0 1-.672.425 2.422 2.422 0 0 1-.885.162Zm9.501-3.259v2.553c-.21.215-.491.388-.843.519a3.18 3.18 0 0 1-1.089.187c-.879 0-1.545-.258-1.999-.774-.454-.522-.681-1.285-.681-2.289 0-.981.23-1.736.689-2.263.466-.533 1.129-.8 1.991-.8.403 0 .777.077 1.123.23.346.147.607.346.783.595-.113.199-.238.298-.374.298a.449.449 0 0 1-.281-.119 1.937 1.937 0 0 0-.587-.357 1.917 1.917 0 0 0-.672-.111c-.669 0-1.177.216-1.523.647-.346.425-.519 1.052-.519 1.88 0 .851.167 1.486.502 1.906.34.414.853.621 1.54.621.283 0 .547-.037.791-.111.244-.073.423-.173.536-.297v-1.787h-1.2c-.113 0-.195-.04-.246-.119-.046-.08-.068-.216-.068-.409h2.127Zm3.131-1.565c.198 0 .349.034.451.102a.31.31 0 0 1 .161.289.375.375 0 0 1-.093.247c-.136-.074-.323-.111-.562-.111-.38 0-.686.151-.919.451-.226.301-.34.695-.34 1.183v2.578h-.578v-4.68h.578v.843c.131-.261.315-.477.553-.647a1.27 1.27 0 0 1 .749-.255Zm5.227 2.067c0 .131-.005.261-.017.392h-3.386c.011.59.142 1.049.391 1.378.256.329.607.493 1.055.493.307 0 .565-.059.775-.178.215-.119.394-.309.536-.57a.19.19 0 0 1 .178-.111c.091 0 .216.054.375.162a1.648 1.648 0 0 1-.689.876c-.335.21-.726.315-1.175.315-.414 0-.777-.096-1.089-.289a1.928 1.928 0 0 1-.706-.843c-.164-.368-.247-.802-.247-1.301 0-.755.188-1.345.562-1.77.374-.431.888-.647 1.54-.647.596 0 1.061.185 1.395.553.335.369.502.882.502 1.54Zm-.595-.068c0-1.021-.443-1.531-1.328-1.531-.431 0-.771.13-1.021.391-.249.261-.397.641-.442 1.14h2.791Zm5.356.068c0 .131-.005.261-.017.392h-3.386c.011.59.142 1.049.391 1.378.256.329.607.493 1.055.493.307 0 .565-.059.775-.178.215-.119.394-.309.536-.57a.19.19 0 0 1 .178-.111c.091 0 .216.054.375.162a1.648 1.648 0 0 1-.689.876c-.335.21-.727.315-1.175.315-.414 0-.777-.096-1.089-.289a1.928 1.928 0 0 1-.706-.843c-.164-.368-.247-.802-.247-1.301 0-.755.188-1.345.562-1.77.374-.431.888-.647 1.54-.647.596 0 1.061.185 1.395.553.335.369.502.882.502 1.54Zm-.595-.068c0-1.021-.443-1.531-1.328-1.531-.431 0-.771.13-1.021.391-.249.261-.397.641-.442 1.14h2.791Zm3.45 2.825c-.686 0-1.222-.216-1.608-.647-.38-.431-.57-1.032-.57-1.803 0-.488.085-.911.256-1.268.175-.363.425-.641.748-.834a2.143 2.143 0 0 1 1.14-.298c.522 0 .95.134 1.285.4.34.261.539.618.596 1.072a1.252 1.252 0 0 1-.213.068.841.841 0 0 1-.213.034c-.056 0-.099-.014-.127-.042a.782.782 0 0 1-.077-.204.99.99 0 0 0-.425-.622c-.222-.153-.497-.229-.826-.229-.306 0-.578.079-.816.238a1.57 1.57 0 0 0-.545.681 2.512 2.512 0 0 0-.187 1.004c0 .601.142 1.08.425 1.437.29.358.675.536 1.157.536.369 0 .684-.085.945-.255a1.59 1.59 0 0 0 .587-.765c.079 0 .145.034.196.102a.363.363 0 0 1 .085.238c0 .198-.085.388-.256.57a1.738 1.738 0 0 1-.672.425 2.422 2.422 0 0 1-.885.162Zm6.592-2.757c0 .131-.005.261-.017.392h-3.386c.011.59.142 1.049.392 1.378.255.329.606.493 1.055.493.306 0 .564-.059.774-.178.215-.119.394-.309.536-.57a.192.192 0 0 1 .179-.111c.09 0 .215.054.374.162a1.648 1.648 0 0 1-.689.876c-.335.21-.726.315-1.174.315-.415 0-.778-.096-1.09-.289a1.928 1.928 0 0 1-.706-.843c-.164-.368-.246-.802-.246-1.301 0-.755.187-1.345.561-1.77.374-.431.888-.647 1.54-.647.596 0 1.061.185 1.395.553.335.369.502.882.502 1.54Zm-.595-.068c0-1.021-.443-1.531-1.327-1.531-.432 0-.772.13-1.021.391-.25.261-.397.641-.443 1.14h2.791Zm2.285 1.898c.113 0 .204.036.272.11a.392.392 0 0 1 .102.289v.094c0 .199-.034.397-.102.596a2.419 2.419 0 0 1-.255.544c-.148.227-.272.34-.374.34a.36.36 0 0 1-.239-.085c.154-.187.273-.363.358-.527.085-.159.142-.332.17-.519h-.043a.33.33 0 0 1-.255-.102.389.389 0 0 1-.093-.272v-.094c0-.114.031-.204.093-.272a.357.357 0 0 1 .264-.102h.102Zm7.857-.12c0 .329.042.63.127.902a.728.728 0 0 1-.365.102.284.284 0 0 1-.264-.144c-.051-.102-.08-.284-.085-.545-.159.221-.383.4-.672.536-.29.131-.602.196-.936.196-.959 0-1.438-.525-1.438-1.574v-3.191h.578v3.131c0 .414.077.715.23.902.153.182.397.273.732.273.3 0 .581-.077.842-.23a1.9 1.9 0 0 0 .664-.647v-3.429h.587v3.718Zm2.879 1.047c-.256 0-.519-.043-.792-.128a2.112 2.112 0 0 1-.68-.34c-.182-.142-.273-.292-.273-.451 0-.074.023-.139.068-.196a.381.381 0 0 1 .188-.127c.204.266.425.462.663.587.238.119.525.178.86.178.357 0 .626-.082.808-.246a.83.83 0 0 0 .281-.655.598.598 0 0 0-.171-.443 1 1 0 0 0-.408-.255 8.223 8.223 0 0 0-.664-.196 7.421 7.421 0 0 1-.799-.246 1.35 1.35 0 0 1-.511-.358c-.136-.164-.204-.383-.204-.655 0-.289.077-.533.23-.732.153-.198.349-.346.587-.442.238-.097.482-.145.731-.145.358 0 .681.071.97.213.295.142.525.349.69.621-.137.142-.253.213-.349.213-.074 0-.145-.04-.213-.119a1.238 1.238 0 0 0-.476-.349 1.561 1.561 0 0 0-.647-.119c-.289 0-.519.068-.689.204-.17.136-.255.346-.255.629a.54.54 0 0 0 .153.4c.102.102.229.182.383.239.153.051.363.11.629.178.34.08.616.162.825.247.216.085.398.218.545.4.147.176.221.414.221.715 0 .419-.156.754-.468 1.004-.306.249-.717.374-1.233.374Zm6.469-2.757c0 .131-.006.261-.017.392h-3.386c.011.59.141 1.049.391 1.378.255.329.607.493 1.055.493.306 0 .564-.059.774-.178.216-.119.394-.309.536-.57a.192.192 0 0 1 .179-.111c.091 0 .215.054.374.162a1.643 1.643 0 0 1-.689.876c-.335.21-.726.315-1.174.315-.414 0-.777-.096-1.089-.289a1.921 1.921 0 0 1-.706-.843c-.165-.368-.247-.802-.247-1.301 0-.755.187-1.345.561-1.77.375-.431.888-.647 1.54-.647.596 0 1.061.185 1.396.553.334.369.502.882.502 1.54Zm-.596-.068c0-1.021-.442-1.531-1.327-1.531-.431 0-.771.13-1.021.391-.25.261-.397.641-.442 1.14h2.79Zm5.246 1.651c0 .181.012.366.034.553.023.187.051.343.085.468a.914.914 0 0 1-.391.102c-.153 0-.25-.193-.289-.579a1.672 1.672 0 0 1-.613.485c-.221.097-.493.145-.817.145-.618 0-1.103-.213-1.455-.638-.351-.431-.527-1.021-.527-1.77 0-.771.187-1.37.561-1.795.38-.431.908-.647 1.583-.647.21 0 .431.04.664.119.238.074.433.168.587.281v-2.365h.578v5.641Zm-1.948.697c.289 0 .544-.059.766-.178.221-.119.422-.304.604-.553v-2.68a1.615 1.615 0 0 0-.562-.358 1.793 1.793 0 0 0-.689-.144c-.499 0-.882.17-1.149.51-.266.341-.4.831-.4 1.472 0 .624.122 1.103.366 1.438.244.329.599.493 1.064.493Zm9.21-.119c0 .205-.031.341-.094.409-.057.068-.173.102-.349.102h-3.122v-5.956h3.556v.511h-2.944v2.144h2.536v.51h-2.536v2.28h2.953Zm4.973-4.415c.103 0 .176.028.222.085.051.051.076.136.076.255 0 .034-.005.102-.017.204-.42 0-.712.057-.876.17.227.273.34.61.34 1.013 0 1.089-.627 1.633-1.88 1.633-.386 0-.669.029-.851.085-.176.051-.264.134-.264.247 0 .255.457.383 1.37.383.641 0 1.137.108 1.489.323.352.216.528.522.528.919 0 .426-.19.752-.57.979-.375.232-.914.349-1.617.349-.664 0-1.169-.103-1.515-.307a.986.986 0 0 1-.519-.902c0-.227.077-.428.23-.604.159-.176.377-.306.655-.391v-.026a.786.786 0 0 1-.408-.246.68.68 0 0 1-.153-.443.5.5 0 0 1 .17-.374.882.882 0 0 1 .459-.23 1.526 1.526 0 0 1-.57-.536 1.495 1.495 0 0 1-.195-.757c0-1.112.641-1.668 1.923-1.668.402 0 .745.088 1.029.264.142-.13.295-.233.459-.306.171-.08.332-.119.485-.119Zm-2.084 2.884c.437 0 .749-.085.936-.255.193-.176.289-.465.289-.868 0-.397-.096-.687-.289-.868-.193-.182-.505-.272-.936-.272-.42 0-.729.093-.928.28-.192.182-.289.468-.289.86 0 .749.406 1.123 1.217 1.123Zm.068 1.719c-.482 0-.848.065-1.098.195-.244.131-.365.321-.365.57 0 .261.121.46.365.596.244.136.599.204 1.064.204.522 0 .916-.068 1.183-.204.266-.131.399-.329.399-.596a.607.607 0 0 0-.365-.587c-.239-.119-.633-.178-1.183-.178Zm6.517-4.357-1.812 5.037c-.159.448-.36.774-.604.979-.239.21-.542.314-.911.314-.215 0-.385-.034-.51-.102-.125-.062-.187-.147-.187-.255 0-.113.048-.204.144-.272a.78.78 0 0 0 .255.102c.12.028.236.043.349.043.233 0 .431-.103.596-.307.17-.204.315-.516.434-.936l-1.668-4.603h.613l1.353 3.769 1.335-3.769h.613Zm2.887-.085c.636 0 1.121.21 1.455.63.335.414.502 1.01.502 1.787 0 .493-.088.924-.264 1.293-.17.363-.419.644-.748.842-.324.199-.704.298-1.14.298-.216 0-.434-.023-.656-.068a3.073 3.073 0 0 1-.578-.162v2.017h-.579v-4.961c0-.839-.034-1.338-.102-1.497.182-.085.326-.128.434-.128.165 0 .247.165.247.494v.034a2.045 2.045 0 0 1 1.429-.579Zm-.195 4.373c.487 0 .865-.17 1.131-.51.272-.34.409-.822.409-1.446 0-1.294-.449-1.94-1.345-1.94-.261 0-.516.059-.765.178-.244.119-.466.29-.664.511v2.952c.352.17.763.255 1.234.255Zm5.399-.178a.28.28 0 0 1 .094.127.333.333 0 0 1 .043.162.238.238 0 0 1-.137.23c-.181.091-.416.136-.706.136-.368 0-.663-.099-.885-.298-.221-.204-.331-.476-.331-.817v-3.19h-.885v-.46h.885v-1.276h.578v1.276h1.225v.46h-1.225v3.08c0 .476.204.714.613.714.261 0 .505-.048.731-.144Zm1.209-4.11h.578v4.68h-.578v-4.68Zm.255-.859c-.255 0-.383-.128-.383-.383v-.076c0-.256.128-.383.383-.383h.068c.255 0 .383.127.383.383v.076c0 .255-.128.383-.383.383h-.068Zm5.31 4.373c0 .261.02.468.059.621.046.148.122.281.23.4a.645.645 0 0 1-.204.136.51.51 0 0 1-.213.051c-.113 0-.21-.065-.289-.195a1.382 1.382 0 0 1-.145-.536 1.856 1.856 0 0 1-.706.57 2.19 2.19 0 0 1-.927.204c-.431 0-.777-.111-1.038-.332a1.118 1.118 0 0 1-.392-.885c0-.533.258-.95.775-1.25.521-.301 1.279-.474 2.271-.519v-.273c0-.374-.096-.652-.289-.834-.187-.187-.474-.28-.859-.28-.25 0-.482.054-.698.161-.21.102-.437.275-.681.519a.172.172 0 0 1-.127.051.339.339 0 0 1-.187-.068.902.902 0 0 1-.196-.212c.255-.301.544-.531.868-.69a2.388 2.388 0 0 1 1.046-.238c.528 0 .942.142 1.242.426.307.283.46.672.46 1.165v2.008Zm-2.153.774c.307 0 .596-.085.868-.255.272-.17.508-.411.706-.723v-1.055c-1.633.068-2.45.496-2.45 1.285 0 .499.292.748.876.748Zm7.272-.697c0 .346.002.581.008.706.012.119.034.227.068.323a.973.973 0 0 1-.442.102c-.085 0-.142-.059-.17-.178-.029-.125-.043-.369-.043-.732v-2.306c0-.397-.074-.683-.221-.859-.148-.182-.386-.272-.715-.272-.51 0-1.032.252-1.565.757v3.548h-.579v-3.089c0-.839-.034-1.338-.102-1.497.182-.085.326-.128.434-.128.164 0 .247.165.247.494v.076a2.76 2.76 0 0 1 .782-.468c.267-.102.548-.153.843-.153.488 0 .851.134 1.089.4.244.261.366.661.366 1.2v2.076ZM71.231 170.367c-.227 1.725-.658 3.285-1.293 4.68h-.528a17.68 17.68 0 0 1-.706-1.77 11.95 11.95 0 0 1-.4-1.667 12.119 12.119 0 0 1-.417 1.693 15.916 15.916 0 0 1-.706 1.744h-.544c-.301-.641-.553-1.333-.758-2.076a22.546 22.546 0 0 1-.51-2.604h.595c.097.828.219 1.555.366 2.178.153.619.352 1.194.596 1.728.544-1.118.913-2.42 1.106-3.906h.561c.205 1.537.57 2.845 1.098 3.923.493-1.18.786-2.488.876-3.923h.664Zm2.653 4.765c-.658 0-1.155-.204-1.49-.613-.334-.408-.501-1.015-.501-1.82 0-1.611.663-2.417 1.99-2.417 1.328 0 1.992.806 1.992 2.417 0 .805-.168 1.412-.502 1.82-.335.409-.831.613-1.49.613Zm0-.477c.482 0 .833-.155 1.055-.467.227-.318.34-.814.34-1.489 0-.67-.114-1.16-.34-1.472-.222-.312-.573-.468-1.055-.468-.483 0-.837.156-1.064.468-.221.312-.332.802-.332 1.472 0 .675.11 1.171.332 1.489.227.312.582.467 1.064.467Zm4.933-4.347c.199 0 .349.034.451.102a.311.311 0 0 1 .162.289.373.373 0 0 1-.094.247c-.136-.074-.323-.111-.561-.111-.38 0-.687.151-.92.451-.226.301-.34.695-.34 1.183v2.578h-.578v-4.68h.578v.843c.13-.261.315-.477.553-.647a1.27 1.27 0 0 1 .75-.255Zm5.304 4.739c-.096 0-.207.006-.332.017a2.803 2.803 0 0 1-.187.017.273.273 0 0 1-.247-.136l-1.097-1.77c-.165-.267-.462-.391-.894-.374l-.391.017v2.229h-.579v-6.73h.579v3.973l.332-.008a.833.833 0 0 0 .306-.068.712.712 0 0 0 .23-.205l1.276-1.642h.715l-1.515 1.855a1.381 1.381 0 0 0-.076.094.558.558 0 0 1-.153.119c.278.074.479.21.604.408l1.43 2.204Zm6.396-1.166c0 .261.02.468.06.621.045.148.121.281.229.4a.64.64 0 0 1-.204.136.508.508 0 0 1-.213.051c-.113 0-.21-.065-.29-.195a1.38 1.38 0 0 1-.144-.536 1.862 1.862 0 0 1-.706.57 2.19 2.19 0 0 1-.927.204c-.432 0-.778-.111-1.038-.332a1.118 1.118 0 0 1-.392-.885c0-.533.258-.95.774-1.25.522-.301 1.28-.474 2.272-.519v-.273c0-.374-.096-.652-.29-.834-.186-.187-.473-.28-.858-.28-.25 0-.483.054-.698.161-.21.102-.437.275-.68.519a.173.173 0 0 1-.129.051.34.34 0 0 1-.187-.068.907.907 0 0 1-.195-.212c.255-.301.544-.531.868-.69a2.388 2.388 0 0 1 1.046-.238c.528 0 .942.142 1.242.426.306.283.46.672.46 1.165v2.008Zm-2.153.774c.306 0 .596-.085.868-.255.272-.17.508-.411.706-.723v-1.055c-1.633.068-2.45.496-2.45 1.285 0 .499.292.748.876.748Zm4.932.477c-.256 0-.52-.043-.792-.128a2.119 2.119 0 0 1-.68-.34c-.182-.142-.273-.292-.273-.451 0-.074.023-.139.069-.196a.38.38 0 0 1 .187-.127c.204.266.425.462.663.587.239.119.525.178.86.178.357 0 .626-.082.808-.246a.83.83 0 0 0 .28-.655.6.6 0 0 0-.17-.443 1.01 1.01 0 0 0-.408-.255 8.23 8.23 0 0 0-.663-.196 7.457 7.457 0 0 1-.8-.246 1.351 1.351 0 0 1-.51-.358c-.137-.164-.205-.383-.205-.655 0-.289.077-.533.23-.732.153-.198.349-.346.587-.442.238-.097.482-.145.731-.145.358 0 .681.071.97.213.295.142.525.349.69.621-.136.142-.253.213-.35.213-.073 0-.144-.04-.212-.119a1.236 1.236 0 0 0-.476-.349 1.558 1.558 0 0 0-.647-.119c-.29 0-.519.068-.69.204-.17.136-.254.346-.254.629a.54.54 0 0 0 .153.4c.102.102.23.182.383.239.153.051.363.11.63.178.34.08.615.162.825.247.215.085.397.218.544.4.148.176.221.414.221.715 0 .419-.156.754-.468 1.004-.306.249-.717.374-1.233.374Zm7.148-.655a.28.28 0 0 1 .094.127.332.332 0 0 1 .042.162c0 .108-.045.184-.136.23-.182.091-.417.136-.706.136-.369 0-.664-.099-.885-.298-.221-.204-.332-.476-.332-.817v-3.19h-.885v-.46h.885v-1.276h.579v1.276h1.225v.46H99.1v3.08c0 .476.204.714.612.714.261 0 .505-.048.732-.144Zm3.276-4.195c.488 0 .873.142 1.157.426.284.278.425.658.425 1.14v3.199h-.578v-3.14c0-.368-.091-.652-.272-.851-.182-.198-.443-.297-.783-.297-.261 0-.536.059-.825.178-.29.114-.548.267-.775.46v3.65h-.578v-6.73h.578v2.527c.25-.182.516-.321.8-.417.284-.097.567-.145.851-.145Zm6.78 2.093c0 .131-.006.261-.017.392h-3.386c.011.59.141 1.049.391 1.378.255.329.607.493 1.055.493.306 0 .564-.059.774-.178.216-.119.395-.309.536-.57.04-.074.1-.111.179-.111.091 0 .216.054.374.162a1.639 1.639 0 0 1-.689.876c-.334.21-.726.315-1.174.315-.414 0-.777-.096-1.089-.289a1.921 1.921 0 0 1-.706-.843c-.165-.368-.247-.802-.247-1.301 0-.755.187-1.345.562-1.77.374-.431.887-.647 1.54-.647.595 0 1.06.185 1.395.553.335.369.502.882.502 1.54Zm-.596-.068c0-1.021-.442-1.531-1.327-1.531-.431 0-.771.13-1.021.391-.249.261-.397.641-.442 1.14h2.79Zm5.304-3.914c.261 0 .46.032.596.094.136.062.204.153.204.272a.471.471 0 0 1-.034.179c-.017.051-.04.077-.068.077a1.284 1.284 0 0 0-.587-.128c-.238 0-.42.074-.545.221-.124.148-.187.36-.187.638v.621h1.055v.443h-1.055v4.237h-.578v-4.237h-.877v-.443h.877v-.629c0-.409.107-.735.323-.979.221-.244.513-.366.876-.366Zm3.003 6.739c-.658 0-1.154-.204-1.489-.613-.334-.408-.502-1.015-.502-1.82 0-1.611.664-2.417 1.991-2.417 1.328 0 1.991.806 1.991 2.417 0 .805-.167 1.412-.502 1.82-.334.409-.831.613-1.489.613Zm0-.477c.483 0 .834-.155 1.055-.467.227-.318.341-.814.341-1.489 0-.67-.114-1.16-.341-1.472-.221-.312-.572-.468-1.055-.468-.482 0-.836.156-1.063.468-.221.312-.332.802-.332 1.472 0 .675.111 1.171.332 1.489.227.312.581.467 1.063.467Zm6.729-.57c0 .329.043.63.128.902a.73.73 0 0 1-.366.102.286.286 0 0 1-.264-.144c-.051-.102-.079-.284-.085-.545-.159.221-.383.4-.672.536a2.24 2.24 0 0 1-.936.196c-.959 0-1.438-.525-1.438-1.574v-3.191h.579v3.131c0 .414.076.715.229.902.154.182.397.273.732.273.301 0 .582-.077.842-.23a1.9 1.9 0 0 0 .664-.647v-3.429h.587v3.718Zm5.219-.127c0 .346.003.581.008.706.012.119.034.227.068.323a.973.973 0 0 1-.442.102c-.085 0-.142-.059-.17-.178-.029-.125-.043-.369-.043-.732v-2.306c0-.397-.074-.683-.221-.859-.148-.182-.386-.272-.715-.272-.51 0-1.032.252-1.565.757v3.548h-.579v-3.089c0-.839-.034-1.338-.102-1.497.182-.085.326-.128.434-.128.164 0 .247.165.247.494v.076a2.76 2.76 0 0 1 .782-.468c.267-.102.548-.153.843-.153.488 0 .851.134 1.089.4.244.261.366.661.366 1.2v2.076Zm5.082 0c0 .181.012.366.034.553.023.187.051.343.085.468a.914.914 0 0 1-.391.102c-.153 0-.25-.193-.289-.579a1.672 1.672 0 0 1-.613.485c-.221.097-.493.145-.817.145-.618 0-1.103-.213-1.455-.638-.351-.431-.527-1.021-.527-1.77 0-.771.187-1.37.561-1.795.38-.431.908-.647 1.583-.647.21 0 .431.04.664.119.238.074.433.168.587.281v-2.365h.578v5.641Zm-1.948.697c.289 0 .544-.059.766-.178.221-.119.422-.304.604-.553v-2.68a1.615 1.615 0 0 0-.562-.358 1.797 1.797 0 0 0-.689-.144c-.499 0-.882.17-1.149.51-.266.341-.4.831-.4 1.472 0 .624.122 1.103.366 1.438.244.329.599.493 1.064.493Zm6.769-.774c0 .261.02.468.06.621.045.148.122.281.23.4a.645.645 0 0 1-.204.136.51.51 0 0 1-.213.051c-.114 0-.21-.065-.289-.195a1.382 1.382 0 0 1-.145-.536 1.863 1.863 0 0 1-.706.57 2.19 2.19 0 0 1-.928.204c-.431 0-.777-.111-1.038-.332a1.117 1.117 0 0 1-.391-.885c0-.533.258-.95.774-1.25.522-.301 1.279-.474 2.272-.519v-.273c0-.374-.097-.652-.289-.834-.188-.187-.474-.28-.86-.28-.249 0-.482.054-.697.161-.21.102-.437.275-.681.519a.174.174 0 0 1-.128.051.341.341 0 0 1-.187-.068.923.923 0 0 1-.196-.212c.256-.301.545-.531.868-.69a2.389 2.389 0 0 1 1.047-.238c.527 0 .941.142 1.242.426.306.283.459.672.459 1.165v2.008Zm-2.152.774c.306 0 .595-.085.868-.255.272-.17.507-.411.706-.723v-1.055c-1.634.068-2.451.496-2.451 1.285 0 .499.293.748.877.748Zm5.757-.178a.278.278 0 0 1 .093.127.322.322 0 0 1 .043.162.239.239 0 0 1-.136.23c-.182.091-.417.136-.706.136-.369 0-.664-.099-.885-.298-.222-.204-.332-.476-.332-.817v-3.19h-.885v-.46h.885v-1.276h.578v1.276h1.226v.46h-1.226v3.08c0 .476.205.714.613.714.261 0 .505-.048.732-.144Zm1.208-4.11h.579v4.68h-.579v-4.68Zm.255-.859c-.255 0-.383-.128-.383-.383v-.076c0-.256.128-.383.383-.383h.068c.256 0 .383.127.383.383v.076c0 .255-.127.383-.383.383h-.068Zm3.592 5.624c-.658 0-1.155-.204-1.489-.613-.335-.408-.502-1.015-.502-1.82 0-1.611.663-2.417 1.991-2.417 1.327 0 1.99.806 1.99 2.417 0 .805-.167 1.412-.502 1.82-.334.409-.83.613-1.488.613Zm0-.477c.482 0 .833-.155 1.055-.467.226-.318.34-.814.34-1.489 0-.67-.114-1.16-.34-1.472-.222-.312-.573-.468-1.055-.468-.483 0-.837.156-1.064.468-.221.312-.332.802-.332 1.472 0 .675.111 1.171.332 1.489.227.312.581.467 1.064.467Zm6.754-.697c0 .346.003.581.008.706.012.119.034.227.068.323a.973.973 0 0 1-.442.102c-.085 0-.142-.059-.17-.178-.029-.125-.043-.369-.043-.732v-2.306c0-.397-.073-.683-.221-.859-.147-.182-.386-.272-.715-.272-.51 0-1.032.252-1.565.757v3.548h-.579v-3.089c0-.839-.034-1.338-.102-1.497.182-.085.326-.128.434-.128.165 0 .247.165.247.494v.076a2.75 2.75 0 0 1 .783-.468c.266-.102.547-.153.842-.153.488 0 .851.134 1.089.4.244.261.366.661.366 1.2v2.076Zm2.045 1.089c-.255 0-.383-.128-.383-.383v-.077c0-.255.128-.382.383-.382h.068c.255 0 .383.127.383.382v.077c0 .255-.128.383-.383.383h-.068ZM56.675 196.132c-.811 0-1.44-.267-1.889-.8-.442-.533-.664-1.287-.664-2.263 0-.981.222-1.736.664-2.263.442-.533 1.072-.8 1.889-.8.329 0 .635.057.919.17.283.108.527.27.731.485a.55.55 0 0 1-.144.247.306.306 0 0 1-.213.085.362.362 0 0 1-.221-.077 1.723 1.723 0 0 0-1.09-.357c-.623 0-1.097.213-1.42.638-.323.426-.485 1.05-.485 1.872 0 .817.162 1.438.485 1.863.323.426.797.638 1.42.638.267 0 .506-.036.716-.11.215-.074.428-.196.638-.366a.273.273 0 0 1 .187.094.264.264 0 0 1 .076.195c0 .131-.076.253-.23.366a1.815 1.815 0 0 1-.595.281 2.87 2.87 0 0 1-.774.102Zm4.405 0c-.658 0-1.155-.204-1.49-.613-.334-.408-.501-1.015-.501-1.82 0-1.611.663-2.417 1.99-2.417 1.328 0 1.992.806 1.992 2.417 0 .805-.168 1.412-.502 1.82-.335.409-.831.613-1.49.613Zm0-.477c.482 0 .833-.155 1.055-.467.227-.318.34-.814.34-1.489 0-.67-.114-1.16-.34-1.472-.222-.312-.573-.468-1.055-.468-.483 0-.837.156-1.064.468-.221.312-.332.802-.332 1.472 0 .675.11 1.171.332 1.489.227.312.581.467 1.064.467Zm6.754-.697c0 .346.003.581.008.706.012.119.034.227.069.323a.976.976 0 0 1-.443.102c-.085 0-.142-.059-.17-.178-.028-.125-.043-.369-.043-.732v-2.306c0-.397-.073-.683-.22-.859-.148-.182-.387-.272-.715-.272-.511 0-1.033.252-1.566.757v3.548h-.579v-3.089c0-.839-.034-1.338-.102-1.497.182-.085.326-.128.434-.128.165 0 .247.165.247.494v.076c.26-.215.522-.371.783-.468.266-.102.547-.153.842-.153.488 0 .85.134 1.09.4.243.261.365.661.365 1.2v2.076Zm3.678.519c.04.028.071.071.094.127a.328.328 0 0 1 .043.162c0 .108-.046.184-.136.23-.182.091-.417.136-.707.136-.368 0-.663-.099-.885-.298-.22-.204-.331-.476-.331-.817v-3.19h-.885v-.46h.885v-1.276h.578v1.276h1.225v.46h-1.225v3.08c0 .476.204.714.613.714.26 0 .505-.048.731-.144Zm2.876-4.169c.199 0 .35.034.451.102a.311.311 0 0 1 .162.289.373.373 0 0 1-.094.247c-.136-.074-.323-.111-.561-.111-.38 0-.686.151-.919.451-.227.301-.34.695-.34 1.183v2.578h-.579v-4.68h.579v.843c.13-.261.314-.477.553-.647a1.27 1.27 0 0 1 .748-.255Zm4.853 3.573c0 .261.02.468.06.621.046.148.122.281.23.4a.638.638 0 0 1-.204.136.507.507 0 0 1-.213.051c-.114 0-.21-.065-.29-.195a1.382 1.382 0 0 1-.144-.536 1.862 1.862 0 0 1-.706.57 2.19 2.19 0 0 1-.928.204c-.43 0-.777-.111-1.038-.332a1.118 1.118 0 0 1-.391-.885c0-.533.258-.95.774-1.25.522-.301 1.28-.474 2.272-.519v-.273c0-.374-.096-.652-.29-.834-.187-.187-.473-.28-.859-.28-.25 0-.482.054-.697.161-.21.102-.437.275-.681.519a.173.173 0 0 1-.128.051.34.34 0 0 1-.187-.068.908.908 0 0 1-.195-.212c.255-.301.544-.531.867-.69a2.388 2.388 0 0 1 1.047-.238c.527 0 .941.142 1.242.426.306.283.46.672.46 1.165v2.008Zm-2.152.774c.306 0 .596-.085.868-.255.272-.17.507-.411.706-.723v-1.055c-1.634.068-2.45.496-2.45 1.285 0 .499.292.748.876.748Zm5.638-4.373c.635 0 1.12.21 1.455.63.334.414.502 1.01.502 1.787 0 .493-.088.924-.264 1.293-.17.363-.42.644-.749.842-.323.199-.703.298-1.14.298-.216 0-.434-.023-.655-.068a3.07 3.07 0 0 1-.579-.162v2.017h-.578v-4.961c0-.839-.034-1.338-.102-1.497.181-.085.326-.128.433-.128.165 0 .247.165.247.494v.034a1.9 1.9 0 0 1 .647-.426c.25-.102.51-.153.783-.153Zm-.196 4.373c.488 0 .865-.17 1.132-.51.272-.34.408-.822.408-1.446 0-1.294-.448-1.94-1.344-1.94-.261 0-.517.059-.766.178-.244.119-.465.29-.664.511v2.952c.352.17.763.255 1.234.255Zm4.821.477c-.658 0-1.154-.204-1.489-.613-.334-.408-.502-1.015-.502-1.82 0-1.611.664-2.417 1.991-2.417 1.328 0 1.991.806 1.991 2.417 0 .805-.167 1.412-.502 1.82-.334.409-.83.613-1.489.613Zm0-.477c.482 0 .834-.155 1.055-.467.227-.318.34-.814.34-1.489 0-.67-.113-1.16-.34-1.472-.22-.312-.573-.468-1.055-.468s-.836.156-1.063.468c-.222.312-.332.802-.332 1.472 0 .675.11 1.171.332 1.489.227.312.581.467 1.063.467Zm4.415.477c-.255 0-.52-.043-.791-.128a2.119 2.119 0 0 1-.681-.34c-.182-.142-.272-.292-.272-.451 0-.074.022-.139.068-.196a.38.38 0 0 1 .187-.127c.204.266.425.462.663.587.239.119.525.178.86.178.357 0 .627-.082.808-.246a.83.83 0 0 0 .28-.655.6.6 0 0 0-.17-.443 1.01 1.01 0 0 0-.408-.255 8.23 8.23 0 0 0-.663-.196 7.457 7.457 0 0 1-.8-.246 1.351 1.351 0 0 1-.51-.358c-.137-.164-.205-.383-.205-.655 0-.289.077-.533.23-.732.153-.198.349-.346.587-.442.238-.097.482-.145.732-.145.357 0 .68.071.97.213.295.142.524.349.689.621-.136.142-.253.213-.349.213-.074 0-.145-.04-.213-.119a1.237 1.237 0 0 0-.476-.349 1.558 1.558 0 0 0-.647-.119c-.29 0-.519.068-.689.204-.17.136-.255.346-.255.629a.54.54 0 0 0 .153.4c.102.102.23.182.383.239.153.051.363.11.63.178.34.08.615.162.825.247.215.085.397.218.544.4.148.176.221.414.221.715 0 .419-.156.754-.468 1.004-.306.249-.717.374-1.233.374Zm4.955-.655c.04.028.07.071.093.127a.328.328 0 0 1 .043.162c0 .108-.046.184-.136.23-.182.091-.417.136-.707.136-.368 0-.663-.099-.884-.298-.222-.204-.332-.476-.332-.817v-3.19h-.885v-.46h.885v-1.276h.578v1.276h1.226v.46h-1.226v3.08c0 .476.205.714.613.714.26 0 .505-.048.732-.144Zm2.603.655c-.658 0-1.154-.204-1.489-.613-.334-.408-.502-1.015-.502-1.82 0-1.611.664-2.417 1.991-2.417 1.328 0 1.991.806 1.991 2.417 0 .805-.167 1.412-.502 1.82-.334.409-.83.613-1.489.613Zm0-.477c.483 0 .834-.155 1.055-.467.227-.318.341-.814.341-1.489 0-.67-.114-1.16-.341-1.472-.221-.312-.572-.468-1.055-.468-.482 0-.836.156-1.063.468-.221.312-.332.802-.332 1.472 0 .675.11 1.171.332 1.489.227.312.581.467 1.063.467Zm8.574-.774c0 .261.02.468.059.621.046.148.122.281.23.4a.645.645 0 0 1-.204.136.51.51 0 0 1-.213.051c-.113 0-.21-.065-.289-.195a1.382 1.382 0 0 1-.145-.536 1.863 1.863 0 0 1-.706.57 2.19 2.19 0 0 1-.927.204c-.431 0-.777-.111-1.038-.332a1.118 1.118 0 0 1-.392-.885c0-.533.258-.95.775-1.25.521-.301 1.279-.474 2.271-.519v-.273c0-.374-.096-.652-.289-.834-.187-.187-.474-.28-.859-.28-.25 0-.482.054-.698.161-.21.102-.437.275-.681.519a.172.172 0 0 1-.127.051.344.344 0 0 1-.188-.068.9.9 0 0 1-.195-.212c.255-.301.544-.531.868-.69a2.385 2.385 0 0 1 1.046-.238c.528 0 .942.142 1.242.426.307.283.46.672.46 1.165v2.008Zm-2.153.774c.307 0 .596-.085.868-.255.272-.17.508-.411.706-.723v-1.055c-1.633.068-2.45.496-2.45 1.285 0 .499.292.748.876.748Zm7.272-.697c0 .346.002.581.008.706.011.119.034.227.068.323a.973.973 0 0 1-.442.102c-.085 0-.142-.059-.17-.178-.029-.125-.043-.369-.043-.732v-2.306c0-.397-.074-.683-.221-.859-.148-.182-.386-.272-.715-.272-.51 0-1.032.252-1.565.757v3.548h-.579v-3.089c0-.839-.034-1.338-.102-1.497.181-.085.326-.128.434-.128.164 0 .247.165.247.494v.076c.26-.215.521-.371.782-.468.267-.102.548-.153.843-.153.487 0 .85.134 1.089.4.244.261.366.661.366 1.2v2.076Zm5.082 0a4.534 4.534 0 0 0 .119 1.021.914.914 0 0 1-.391.102c-.153 0-.25-.193-.29-.579a1.66 1.66 0 0 1-.612.485c-.221.097-.494.145-.817.145-.618 0-1.103-.213-1.455-.638-.352-.431-.527-1.021-.527-1.77 0-.771.187-1.37.561-1.795.38-.431.908-.647 1.583-.647.21 0 .431.04.663.119.239.074.434.168.587.281v-2.365h.579v5.641Zm-1.948.697c.289 0 .544-.059.765-.178.222-.119.423-.304.604-.553v-2.68a1.6 1.6 0 0 0-.561-.358 1.797 1.797 0 0 0-.689-.144c-.499 0-.882.17-1.149.51-.267.341-.4.831-.4 1.472 0 .624.122 1.103.366 1.438.244.329.598.493 1.064.493Zm7.414-5.564c.777 0 1.364.162 1.761.485.403.318.605.788.605 1.412 0 .636-.202 1.115-.605 1.438-.397.324-.984.485-1.761.485h-1.157v2.136h-.612v-5.956h1.769Zm0 3.293c.607 0 1.05-.111 1.328-.332.283-.227.425-.581.425-1.064 0-.476-.142-.822-.425-1.038-.278-.221-.721-.331-1.328-.331h-1.157v2.765h1.157Zm7.158-.009c0 .131-.006.261-.017.392h-3.387c.012.59.142 1.049.392 1.378.255.329.607.493 1.055.493.306 0 .564-.059.774-.178.216-.119.394-.309.536-.57a.192.192 0 0 1 .179-.111c.091 0 .215.054.374.162a1.643 1.643 0 0 1-.689.876c-.335.21-.726.315-1.174.315-.414 0-.777-.096-1.089-.289a1.915 1.915 0 0 1-.706-.843c-.165-.368-.247-.802-.247-1.301 0-.755.187-1.345.561-1.77.375-.431.888-.647 1.54-.647.596 0 1.061.185 1.396.553.334.369.502.882.502 1.54Zm-.596-.068c0-1.021-.442-1.531-1.327-1.531-.431 0-.772.13-1.021.391-.25.261-.397.641-.443 1.14h2.791Zm3.536-1.999c.198 0 .349.034.451.102a.31.31 0 0 1 .162.289.376.376 0 0 1-.094.247c-.136-.074-.323-.111-.562-.111-.38 0-.686.151-.918.451-.227.301-.341.695-.341 1.183v2.578h-.578v-4.68h.578v.843c.131-.261.315-.477.553-.647a1.27 1.27 0 0 1 .749-.255Zm2.888 4.824c-.256 0-.519-.043-.792-.128a2.112 2.112 0 0 1-.68-.34c-.182-.142-.273-.292-.273-.451 0-.074.023-.139.068-.196a.381.381 0 0 1 .188-.127c.204.266.425.462.663.587.238.119.525.178.86.178.357 0 .626-.082.808-.246a.83.83 0 0 0 .281-.655.598.598 0 0 0-.171-.443 1 1 0 0 0-.408-.255 8.223 8.223 0 0 0-.664-.196 7.421 7.421 0 0 1-.799-.246 1.35 1.35 0 0 1-.511-.358c-.136-.164-.204-.383-.204-.655 0-.289.077-.533.23-.732.153-.198.349-.346.587-.442.238-.097.482-.145.731-.145.358 0 .681.071.97.213.295.142.525.349.69.621-.137.142-.253.213-.349.213-.074 0-.145-.04-.213-.119a1.238 1.238 0 0 0-.476-.349 1.561 1.561 0 0 0-.647-.119c-.289 0-.519.068-.689.204-.17.136-.255.346-.255.629a.54.54 0 0 0 .153.4c.102.102.229.182.383.239.153.051.363.11.629.178.341.08.616.162.825.247.216.085.398.218.545.4.147.176.221.414.221.715 0 .419-.156.754-.468 1.004-.306.249-.717.374-1.233.374Zm4.835-4.85c.636 0 1.121.21 1.455.63.335.414.502 1.01.502 1.787 0 .493-.088.924-.264 1.293-.17.363-.419.644-.748.842-.324.199-.704.298-1.14.298-.216 0-.434-.023-.656-.068a3.073 3.073 0 0 1-.578-.162v2.017h-.579v-4.961c0-.839-.034-1.338-.102-1.497.182-.085.326-.128.434-.128.165 0 .247.165.247.494v.034a2.045 2.045 0 0 1 1.429-.579Zm-.195 4.373c.487 0 .865-.17 1.131-.51.272-.34.409-.822.409-1.446 0-1.294-.449-1.94-1.345-1.94-.261 0-.516.059-.765.178-.244.119-.466.29-.664.511v2.952c.352.17.763.255 1.234.255Zm6.914-2.28c0 .131-.006.261-.017.392h-3.386c.011.59.141 1.049.391 1.378.255.329.607.493 1.055.493.306 0 .564-.059.774-.178.216-.119.394-.309.536-.57.04-.074.1-.111.179-.111.091 0 .215.054.374.162a1.639 1.639 0 0 1-.689.876c-.335.21-.726.315-1.174.315-.414 0-.777-.096-1.089-.289a1.921 1.921 0 0 1-.706-.843c-.165-.368-.247-.802-.247-1.301 0-.755.187-1.345.562-1.77.374-.431.887-.647 1.54-.647.595 0 1.06.185 1.395.553.335.369.502.882.502 1.54Zm-.596-.068c0-1.021-.442-1.531-1.327-1.531-.431 0-.771.13-1.021.391-.25.261-.397.641-.442 1.14h2.79Zm3.451 2.825c-.686 0-1.222-.216-1.608-.647-.38-.431-.57-1.032-.57-1.803 0-.488.085-.911.255-1.268a1.92 1.92 0 0 1 .749-.834c.323-.198.703-.298 1.14-.298.522 0 .95.134 1.285.4.34.261.539.618.595 1.072a1.267 1.267 0 0 1-.212.068.841.841 0 0 1-.213.034c-.057 0-.099-.014-.128-.042a.83.83 0 0 1-.076-.204.996.996 0 0 0-.426-.622c-.221-.153-.496-.229-.825-.229-.306 0-.579.079-.817.238a1.568 1.568 0 0 0-.544.681 2.511 2.511 0 0 0-.188 1.004c0 .601.142 1.08.426 1.437.289.358.675.536 1.157.536.369 0 .683-.085.944-.255.261-.176.457-.431.587-.765.08 0 .145.034.196.102a.358.358 0 0 1 .085.238c0 .198-.085.388-.255.57a1.745 1.745 0 0 1-.672.425 2.422 2.422 0 0 1-.885.162Zm5.078-.655c.039.028.07.071.093.127a.322.322 0 0 1 .043.162.239.239 0 0 1-.136.23c-.182.091-.417.136-.707.136-.368 0-.663-.099-.884-.298-.222-.204-.332-.476-.332-.817v-3.19h-.885v-.46h.885v-1.276h.578v1.276h1.225v.46h-1.225v3.08c0 .476.204.714.613.714.261 0 .505-.048.732-.144Zm1.208-4.11h.579v4.68h-.579v-4.68Zm.255-.859c-.255 0-.383-.128-.383-.383v-.076c0-.256.128-.383.383-.383h.068c.256 0 .383.127.383.383v.076c0 .255-.127.383-.383.383h-.068Zm5.251.859a9.701 9.701 0 0 1-.502 2.451 9.726 9.726 0 0 1-1.149 2.229h-.553a9.726 9.726 0 0 1-1.149-2.229 9.658 9.658 0 0 1-.502-2.451h.579c.079.823.224 1.555.434 2.195.215.636.522 1.254.919 1.855.397-.601.7-1.219.91-1.855.21-.64.355-1.372.434-2.195h.579Zm4.563 2.008c0 .131-.006.261-.017.392h-3.386c.011.59.141 1.049.391 1.378.255.329.607.493 1.055.493.306 0 .564-.059.774-.178.216-.119.395-.309.536-.57.04-.074.1-.111.179-.111.091 0 .216.054.374.162a1.639 1.639 0 0 1-.689.876c-.334.21-.726.315-1.174.315-.414 0-.777-.096-1.089-.289a1.921 1.921 0 0 1-.706-.843c-.165-.368-.247-.802-.247-1.301 0-.755.187-1.345.562-1.77.374-.431.887-.647 1.54-.647.595 0 1.06.185 1.395.553.335.369.502.882.502 1.54Zm-.596-.068c0-1.021-.442-1.531-1.327-1.531-.431 0-.771.13-1.021.391-.249.261-.397.641-.442 1.14h2.79Zm2.209 2.74c-.255 0-.383-.128-.383-.383v-.077c0-.255.128-.382.383-.382h.068c.255 0 .383.127.383.382v.077c0 .255-.128.383-.383.383h-.068Z"/></svg>