<svg xmlns="http://www.w3.org/2000/svg" width="224" height="214" fill="none"><path fill="#FE5D5D" d="M.054.98h223.842v212.044H.054z"/><path fill="#fff" d="M54.166 55.38c0 .282.009.614.027.995.018.254.027.422.027.504 0 .245-.118.367-.354.367h-.68v-.735c0-.527-.178-1.03-.532-1.511l-4.506-5.936v8.182h-.98v-9.53h.79c.117 0 .208.018.272.054.072.028.154.1.245.218l4.71 6.195v-6.467h.98v7.665Zm4.961 2.002c-1.053 0-1.847-.326-2.382-.98-.536-.654-.804-1.625-.804-2.913 0-2.578 1.062-3.867 3.186-3.867 2.124 0 3.186 1.289 3.186 3.867 0 1.288-.268 2.26-.803 2.913-.536.654-1.33.98-2.383.98Zm0-.762c.772 0 1.334-.25 1.688-.749.363-.508.545-1.302.545-2.383 0-1.07-.182-1.856-.545-2.355-.354-.499-.916-.749-1.688-.749-.771 0-1.339.25-1.702.75-.354.498-.53 1.283-.53 2.355 0 1.08.176 1.874.53 2.382.363.5.93.749 1.702.749Zm8.385-.286a.446.446 0 0 1 .15.204.525.525 0 0 1 .067.259c0 .172-.072.295-.217.367-.29.146-.668.218-1.13.218-.59 0-1.062-.159-1.416-.476-.354-.327-.531-.763-.531-1.307v-5.106h-1.416v-.735h1.416v-2.042h.925v2.042h1.961v.735h-1.96v4.929c0 .762.326 1.143.98 1.143.417 0 .808-.077 1.17-.231Zm6.916-.953c0 .417.032.749.095.994.073.236.195.449.368.64-.09.09-.2.163-.327.218a.812.812 0 0 1-.34.081c-.182 0-.336-.104-.463-.313-.118-.209-.195-.495-.231-.858a2.976 2.976 0 0 1-1.13.913 3.502 3.502 0 0 1-1.485.326c-.69 0-1.243-.177-1.66-.53-.418-.364-.627-.836-.627-1.417 0-.853.413-1.52 1.24-2 .834-.482 2.046-.759 3.634-.831v-.436c0-.6-.154-1.044-.463-1.334-.3-.3-.758-.45-1.375-.45-.4 0-.771.087-1.116.26-.336.163-.699.44-1.09.83a.277.277 0 0 1-.204.081.552.552 0 0 1-.299-.109 1.438 1.438 0 0 1-.313-.34 4.315 4.315 0 0 1 1.389-1.103 3.803 3.803 0 0 1 1.674-.381c.844 0 1.507.227 1.988.68.49.455.735 1.076.735 1.866v3.213Zm-3.444 1.239c.49 0 .953-.136 1.388-.409.436-.272.813-.658 1.13-1.157v-1.688c-2.614.109-3.92.794-3.92 2.056 0 .799.467 1.198 1.402 1.198Zm9.157-6.998c1.007 0 1.783.327 2.328.98.554.654.83 1.58.83 2.778 0 1.252-.286 2.232-.857 2.94-.572.708-1.362 1.062-2.37 1.062-.961 0-1.715-.286-2.26-.857-.08.48-.24.721-.476.721-.272 0-.499-.054-.68-.163.172-.381.258-.926.258-1.634v-8.972h.953v3.84c.663-.464 1.42-.695 2.274-.695Zm-.068 6.97c.726 0 1.284-.276 1.674-.83.4-.563.6-1.357.6-2.382 0-.963-.191-1.702-.572-2.22-.382-.517-.926-.776-1.634-.776-.835 0-1.593.26-2.274.776v4.425c.536.672 1.27 1.008 2.206 1.008Zm5.137-10.115h.926v10.77h-.926v-10.77Zm9.361 6.494c0 .209-.009.418-.027.626h-5.419c.019.944.227 1.68.627 2.206.408.526.97.79 1.688.79.49 0 .903-.096 1.239-.286.345-.19.63-.495.857-.913a.307.307 0 0 1 .286-.176c.146 0 .345.086.6.258-.2.59-.568 1.058-1.103 1.403-.536.335-1.162.503-1.88.503-.662 0-1.243-.154-1.742-.463-.49-.317-.867-.767-1.13-1.347-.263-.59-.395-1.285-.395-2.084 0-1.207.3-2.15.899-2.831.599-.69 1.42-1.035 2.464-1.035.953 0 1.697.295 2.233.885.535.59.803 1.411.803 2.464Zm-.953-.109c0-1.634-.708-2.45-2.124-2.45-.69 0-1.234.208-1.633.626-.4.417-.636 1.026-.708 1.824h4.465Zm13.225-.694v4.084c-.336.345-.785.622-1.348.83-.554.2-1.134.3-1.743.3-1.406 0-2.473-.413-3.199-1.239-.726-.835-1.09-2.055-1.09-3.662 0-1.57.369-2.777 1.104-3.621.744-.853 1.806-1.28 3.185-1.28.645 0 1.244.122 1.798.367.553.236.971.554 1.252.953-.181.318-.381.477-.599.477-.145 0-.295-.064-.449-.19a3.152 3.152 0 0 0-.94-.572 3.068 3.068 0 0 0-1.075-.177c-1.071 0-1.884.344-2.437 1.034-.554.681-.831 1.684-.831 3.01 0 1.36.268 2.377.804 3.049.544.662 1.366.994 2.464.994.454 0 .876-.06 1.266-.178.39-.117.676-.276.858-.476v-2.859h-1.92c-.181 0-.313-.063-.395-.19-.072-.128-.109-.346-.109-.654h3.404Zm5.01-2.505c.318 0 .558.054.722.163.172.1.258.254.258.463a.595.595 0 0 1-.149.395c-.218-.118-.518-.177-.899-.177-.608 0-1.098.24-1.47.721-.363.482-.545 1.112-.545 1.893v4.125h-.926v-7.488h.926v1.348c.209-.418.504-.762.885-1.035.381-.272.781-.408 1.198-.408Zm8.365 3.308c0 .209-.009.418-.027.626h-5.419c.018.944.227 1.68.626 2.206.409.526.971.79 1.688.79.491 0 .904-.096 1.239-.286.345-.19.631-.495.858-.913a.307.307 0 0 1 .286-.176c.145 0 .345.086.599.258a2.63 2.63 0 0 1-1.103 1.403c-.535.335-1.162.503-1.879.503-.662 0-1.243-.154-1.742-.463-.49-.317-.867-.767-1.13-1.347-.263-.59-.395-1.285-.395-2.084 0-1.207.3-2.15.899-2.831.599-.69 1.42-1.035 2.464-1.035.953 0 1.697.295 2.233.885.535.59.803 1.411.803 2.464Zm-.953-.109c0-1.634-.708-2.45-2.124-2.45-.69 0-1.234.208-1.634.626-.399.417-.635 1.026-.708 1.824h4.466Zm8.571.11c0 .208-.009.417-.027.625h-5.419c.018.944.227 1.68.626 2.206.409.526.972.79 1.689.79.49 0 .903-.096 1.239-.286.344-.19.63-.495.857-.913a.307.307 0 0 1 .286-.176c.145 0 .345.086.599.258a2.626 2.626 0 0 1-1.103 1.403c-.535.335-1.161.503-1.878.503-.663 0-1.244-.154-1.743-.463-.49-.317-.867-.767-1.13-1.347-.263-.59-.395-1.285-.395-2.084 0-1.207.3-2.15.899-2.831.599-.69 1.42-1.035 2.464-1.035.953 0 1.697.295 2.233.885.535.59.803 1.411.803 2.464Zm-.953-.11c0-1.634-.708-2.45-2.124-2.45-.69 0-1.234.208-1.634.626-.399.417-.635 1.026-.708 1.824h4.466Zm8.694 4.384c-.155 0-.332.01-.531.027a4.108 4.108 0 0 1-.3.028.44.44 0 0 1-.395-.218l-1.756-2.832c-.263-.427-.74-.626-1.429-.6l-.627.028v3.567h-.925V46.477h.925v6.358l.531-.014c.191-.009.354-.045.49-.108a1.12 1.12 0 0 0 .368-.327l2.042-2.628h1.144l-2.424 2.968a2.173 2.173 0 0 0-.122.15.888.888 0 0 1-.245.19c.445.118.767.336.966.654l2.288 3.526Zm15.203-9.53a41.244 41.244 0 0 1-.804 3.975c-.344 1.37-.871 3.222-1.579 5.555h-1.116a293.46 293.46 0 0 1-1.362-4.683 67.125 67.125 0 0 1-.694-2.818 70.7 70.7 0 0 1-.776 3.13 157.68 157.68 0 0 1-1.28 4.371h-1.116c-.708-2.196-1.253-4.003-1.634-5.418a46.19 46.19 0 0 1-.885-4.112h.98c.173 1.135.409 2.305.708 3.512.309 1.199.772 2.773 1.389 4.725.363-1.126.703-2.26 1.021-3.404.327-1.153.753-2.764 1.28-4.833h.572c.789 2.868 1.311 4.751 1.565 5.65.264.898.527 1.756.79 2.573.59-1.924 1.03-3.49 1.321-4.697.299-1.207.531-2.382.694-3.526h.926Zm3.94 9.666c-1.052 0-1.847-.326-2.382-.98-.536-.654-.803-1.625-.803-2.913 0-2.578 1.062-3.867 3.185-3.867 2.124 0 3.186 1.289 3.186 3.867 0 1.288-.268 2.26-.803 2.913-.536.654-1.33.98-2.383.98Zm0-.762c.772 0 1.335-.25 1.689-.749.363-.508.544-1.302.544-2.383 0-1.07-.181-1.856-.544-2.355-.354-.499-.917-.749-1.689-.749-.771 0-1.338.25-1.701.75-.354.498-.531 1.283-.531 2.355 0 1.08.177 1.874.531 2.382.363.5.93.749 1.701.749Zm7.895-6.957c.317 0 .558.054.721.163.173.1.259.254.259.463 0 .145-.05.277-.15.395-.218-.118-.517-.177-.898-.177a1.77 1.77 0 0 0-1.471.721c-.363.482-.544 1.112-.544 1.893v4.125h-.926v-7.488h.926v1.348a2.77 2.77 0 0 1 .885-1.035c.381-.272.78-.408 1.198-.408Zm8.487 7.583c-.155 0-.332.01-.531.027a4.108 4.108 0 0 1-.3.028.44.44 0 0 1-.395-.218l-1.756-2.832c-.263-.427-.74-.626-1.429-.6l-.627.028v3.567h-.925V46.477h.925v6.358l.531-.014c.191-.009.354-.045.491-.108.136-.073.258-.182.367-.327l2.042-2.628h1.144l-2.423 2.968a2.066 2.066 0 0 0-.123.15.888.888 0 0 1-.245.19c.445.118.767.336.967.654l2.287 3.526Zm3.579.136c-.409 0-.831-.068-1.267-.204a3.409 3.409 0 0 1-1.089-.545c-.29-.227-.435-.467-.435-.721 0-.118.036-.222.109-.313a.61.61 0 0 1 .299-.204c.327.426.681.74 1.062.939.381.19.84.286 1.375.286.572 0 1.003-.132 1.293-.395.3-.263.45-.613.45-1.048 0-.29-.091-.527-.273-.708a1.601 1.601 0 0 0-.653-.409c-.254-.09-.608-.195-1.062-.313a11.842 11.842 0 0 1-1.28-.395 2.159 2.159 0 0 1-.817-.571c-.217-.264-.326-.613-.326-1.049 0-.463.122-.853.367-1.17.245-.318.558-.554.94-.709a3.09 3.09 0 0 1 1.17-.231c.572 0 1.09.114 1.553.34a2.55 2.55 0 0 1 1.102.994c-.218.227-.404.34-.558.34-.118 0-.231-.063-.34-.19a1.976 1.976 0 0 0-.763-.558c-.281-.127-.626-.19-1.034-.19-.463 0-.831.108-1.103.326-.272.218-.409.554-.409 1.007 0 .264.082.477.246.64.163.164.367.29.612.381.245.082.581.177 1.008.286.544.128.984.26 1.32.395a2.1 2.1 0 0 1 .872.64c.236.282.354.663.354 1.144 0 .671-.25 1.207-.749 1.606-.49.4-1.148.6-1.974.6ZM13.894 115.29a17.968 17.968 0 0 1-.8 3.038c-.346.97-.791 1.942-1.336 2.918h-.638a20.128 20.128 0 0 1-1.353-2.935 17.53 17.53 0 0 1-.791-3.021h.647c.289 1.838.893 3.599 1.812 5.284a16.242 16.242 0 0 0 1.812-5.284h.647Zm4.677 3.284c0 .131-.006.261-.017.392h-3.387c.012.59.142 1.049.392 1.378.255.329.607.494 1.055.494.306 0 .564-.06.774-.179.216-.119.394-.309.536-.57.04-.074.1-.111.179-.111.09 0 .215.054.374.162a1.64 1.64 0 0 1-.69.876c-.334.21-.725.315-1.173.315-.414 0-.777-.096-1.09-.289a1.92 1.92 0 0 1-.705-.842c-.165-.369-.247-.803-.247-1.302 0-.755.187-1.344.561-1.77.375-.431.888-.647 1.54-.647.596 0 1.061.185 1.396.553.334.369.502.883.502 1.54Zm-.596-.068c0-1.021-.442-1.531-1.327-1.531-.431 0-.772.13-1.021.391-.25.261-.397.641-.443 1.14h2.791Zm5.357 1.651c0 .346.002.581.008.706.012.119.034.227.068.324a.976.976 0 0 1-.442.102c-.085 0-.142-.06-.17-.179-.029-.125-.043-.369-.043-.732v-2.305c0-.398-.074-.684-.221-.86-.148-.181-.386-.272-.715-.272-.51 0-1.032.252-1.565.757v3.548h-.579v-3.088c0-.84-.034-1.339-.102-1.498.181-.085.326-.127.434-.127.164 0 .247.164.247.493v.077c.26-.216.521-.372.782-.468.267-.102.548-.154.843-.154.488 0 .85.134 1.089.4.244.261.366.661.366 1.2v2.076Zm5.167.128c0 .329.043.629.128.902a.73.73 0 0 1-.366.102.286.286 0 0 1-.264-.145c-.05-.102-.08-.284-.085-.545-.159.222-.383.4-.672.536-.29.131-.601.196-.936.196-.959 0-1.438-.525-1.438-1.574v-3.19h.579v3.131c0 .414.076.714.23.901.153.182.396.273.731.273.3 0 .582-.077.843-.23.266-.153.487-.369.663-.647v-3.428h.587v3.718Zm2.879 1.046c-.255 0-.519-.042-.791-.127a2.14 2.14 0 0 1-.681-.341c-.181-.142-.272-.292-.272-.451 0-.073.023-.139.068-.195a.383.383 0 0 1 .187-.128c.204.267.425.462.664.587.238.119.524.179.859.179.357 0 .627-.083.808-.247a.83.83 0 0 0 .281-.655.6.6 0 0 0-.17-.443 1.01 1.01 0 0 0-.409-.255 8.222 8.222 0 0 0-.663-.196 7.462 7.462 0 0 1-.8-.246 1.35 1.35 0 0 1-.51-.358c-.137-.164-.205-.382-.205-.655 0-.289.077-.533.23-.731.153-.199.349-.346.587-.443.238-.096.482-.145.732-.145.357 0 .68.071.97.213.295.142.525.349.689.621-.136.142-.252.213-.349.213-.074 0-.145-.04-.213-.119a1.236 1.236 0 0 0-.476-.349 1.574 1.574 0 0 0-.647-.119c-.289 0-.519.068-.689.204-.17.136-.255.346-.255.63 0 .164.051.298.153.4.102.102.23.181.383.238.153.051.363.11.63.179.34.079.615.161.825.246.215.085.397.219.544.4.148.176.222.414.222.715 0 .42-.156.754-.468 1.004-.307.249-.718.374-1.234.374Zm8.552-1.174c0 .182.011.366.034.553.023.187.051.343.085.468a.914.914 0 0 1-.391.102c-.153 0-.25-.193-.29-.578a1.683 1.683 0 0 1-.612.485c-.221.096-.493.144-.817.144-.618 0-1.103-.213-1.455-.638-.351-.431-.527-1.021-.527-1.77 0-.771.187-1.369.561-1.795.38-.431.908-.647 1.583-.647.21 0 .431.04.663.12.239.073.434.167.588.28v-2.365h.578v5.641Zm-1.948.698c.29 0 .544-.06.766-.179a1.83 1.83 0 0 0 .604-.553v-2.68a1.587 1.587 0 0 0-.562-.357 1.78 1.78 0 0 0-.69-.145c-.498 0-.881.17-1.148.51-.266.341-.4.831-.4 1.472 0 .624.122 1.104.366 1.438.244.329.599.494 1.064.494Zm7.144-2.281c0 .131-.006.261-.017.392h-3.387c.012.59.142 1.049.392 1.378.255.329.607.494 1.055.494.306 0 .564-.06.774-.179.216-.119.394-.309.536-.57.04-.074.1-.111.179-.111.09 0 .215.054.374.162a1.64 1.64 0 0 1-.689.876c-.335.21-.726.315-1.174.315-.414 0-.777-.096-1.09-.289a1.92 1.92 0 0 1-.705-.842c-.165-.369-.247-.803-.247-1.302 0-.755.187-1.344.561-1.77.375-.431.888-.647 1.54-.647.596 0 1.061.185 1.396.553.334.369.502.883.502 1.54Zm-.596-.068c0-1.021-.442-1.531-1.327-1.531-.431 0-.772.13-1.021.391-.25.261-.397.641-.443 1.14h2.791Zm8.92 2.74a37.065 37.065 0 0 0-.485-5.096c-.204.465-.405.984-.604 1.557-.198.567-.516 1.548-.953 2.944h-.442a82.176 82.176 0 0 0-.91-2.766 25.446 25.446 0 0 0-.656-1.71c-.272 1.549-.434 3.239-.485 5.071h-.612c.028-1.066.096-2.116.204-3.148.113-1.032.258-1.968.434-2.808h.68c.34.732.627 1.401.86 2.008.232.607.468 1.302.706 2.085.238-.783.474-1.475.706-2.076.233-.607.516-1.279.851-2.017h.68c.176.84.318 1.776.426 2.808a38.07 38.07 0 0 1 .213 3.148h-.613Zm2.196-4.679h.579v4.679h-.579v-4.679Zm.255-.86c-.255 0-.383-.127-.383-.383v-.076c0-.255.128-.383.383-.383h.068c.256 0 .383.128.383.383v.076c0 .256-.127.383-.383.383h-.068Zm2.111-1.191h.579v6.73h-.579v-6.73Zm3.757 6.815c-.658 0-1.154-.204-1.489-.612-.334-.409-.502-1.016-.502-1.821 0-1.611.664-2.417 1.991-2.417 1.328 0 1.991.806 1.991 2.417 0 .805-.167 1.412-.502 1.821-.334.408-.83.612-1.489.612Zm0-.476c.482 0 .834-.156 1.055-.468.227-.318.34-.814.34-1.489 0-.67-.113-1.16-.34-1.472-.22-.312-.573-.468-1.055-.468s-.836.156-1.063.468c-.222.312-.332.802-.332 1.472 0 .675.11 1.171.332 1.489.227.312.581.468 1.063.468Zm5.034-2.476h3.063v.51h-3.063v-.51Zm10.29 2.867a22.903 22.903 0 0 0-.435-1.727h-2.892c-.137.448-.281 1.024-.434 1.727h-.63c.295-1.214.615-2.291.961-3.233.346-.947.758-1.855 1.234-2.723h.638a19.9 19.9 0 0 1 1.225 2.714c.346.942.667 2.023.962 3.242h-.63Zm-.58-2.238c-.345-1.1-.78-2.132-1.301-3.097a17.579 17.579 0 0 0-1.302 3.097h2.604Zm2.188-4.492h.579v6.73H78.7v-6.73Zm5.85 4.058c0 .131-.005.261-.017.392h-3.386c.011.59.142 1.049.391 1.378.256.329.607.494 1.055.494.307 0 .565-.06.775-.179.215-.119.394-.309.536-.57.04-.074.099-.111.178-.111.091 0 .216.054.375.162a1.64 1.64 0 0 1-.69.876c-.334.21-.725.315-1.174.315-.414 0-.777-.096-1.089-.289a1.92 1.92 0 0 1-.706-.842c-.164-.369-.247-.803-.247-1.302 0-.755.188-1.344.562-1.77.374-.431.888-.647 1.54-.647.596 0 1.06.185 1.395.553.335.369.502.883.502 1.54Zm-.595-.068c0-1.021-.443-1.531-1.328-1.531-.43 0-.77.13-1.02.391s-.398.641-.443 1.14h2.79Zm3.374.315c.312.307.567.573.766.8.198.227.368.479.51.757.148.273.236.562.264.868h-.63a2.056 2.056 0 0 0-.383-1.012 7.227 7.227 0 0 0-.91-1.038c-.391.38-.698.726-.919 1.038a2.1 2.1 0 0 0-.374 1.012h-.63a2.33 2.33 0 0 1 .255-.868c.148-.278.32-.53.52-.757.198-.227.453-.493.765-.8-.437-.42-.777-.8-1.02-1.14a2.31 2.31 0 0 1-.418-1.114h.63c.034.323.153.635.357.935.204.295.482.613.834.953.352-.34.63-.658.834-.953.204-.3.323-.612.357-.935h.63c-.04.402-.182.774-.426 1.114-.238.34-.575.72-1.012 1.14Zm5.73 1.259c0 .261.019.468.059.622.045.147.122.28.23.399a.642.642 0 0 1-.205.137.508.508 0 0 1-.212.051c-.114 0-.21-.066-.29-.196a1.38 1.38 0 0 1-.144-.536 1.863 1.863 0 0 1-.707.57 2.19 2.19 0 0 1-.927.204c-.431 0-.777-.11-1.038-.332a1.116 1.116 0 0 1-.391-.885c0-.533.258-.95.774-1.25.522-.301 1.279-.474 2.272-.519v-.272c0-.375-.097-.653-.29-.834-.187-.187-.473-.281-.859-.281-.25 0-.482.054-.698.162-.21.102-.436.275-.68.519a.173.173 0 0 1-.128.051.348.348 0 0 1-.187-.068.894.894 0 0 1-.196-.213c.255-.301.545-.53.868-.689a2.375 2.375 0 0 1 1.046-.239c.528 0 .942.142 1.243.426.306.283.46.672.46 1.166v2.007Zm-2.153.775c.306 0 .595-.085.867-.256.273-.17.508-.411.707-.723v-1.055c-1.634.068-2.45.497-2.45 1.285 0 .499.291.749.876.749Zm7.27-.698c0 .346.004.581.01.706.01.119.034.227.067.324a.976.976 0 0 1-.442.102c-.085 0-.142-.06-.17-.179-.028-.125-.043-.369-.043-.732v-2.305c0-.398-.073-.684-.22-.86-.148-.181-.387-.272-.716-.272-.51 0-1.032.252-1.565.757v3.548h-.579v-3.088c0-.84-.034-1.339-.102-1.498.182-.085.326-.127.434-.127.165 0 .247.164.247.493v.077c.26-.216.522-.372.783-.468.266-.102.547-.154.842-.154.488 0 .85.134 1.09.4.243.261.365.661.365 1.2v2.076Zm5.083 0c0 .182.012.366.034.553.023.187.051.343.085.468a.91.91 0 0 1-.391.102c-.153 0-.249-.193-.289-.578a1.684 1.684 0 0 1-.613.485c-.221.096-.493.144-.817.144-.618 0-1.103-.213-1.455-.638-.351-.431-.527-1.021-.527-1.77 0-.771.187-1.369.561-1.795.381-.431.908-.647 1.583-.647.21 0 .431.04.664.12.238.073.434.167.587.28v-2.365h.578v5.641Zm-1.948.698c.289 0 .544-.06.766-.179.221-.119.422-.303.604-.553v-2.68a1.59 1.59 0 0 0-.562-.357 1.776 1.776 0 0 0-.689-.145c-.499 0-.882.17-1.149.51-.266.341-.4.831-.4 1.472 0 .624.123 1.104.366 1.438.244.329.599.494 1.064.494Zm5.323-4.348c.199 0 .349.034.451.102a.31.31 0 0 1 .162.289.37.37 0 0 1-.094.247c-.136-.074-.323-.111-.561-.111-.38 0-.687.151-.919.451-.227.301-.341.695-.341 1.183v2.578h-.578v-4.679h.578v.842c.131-.261.315-.477.553-.647.239-.17.488-.255.749-.255Zm3.135 4.824c-.658 0-1.155-.204-1.489-.612-.335-.409-.502-1.016-.502-1.821 0-1.611.663-2.417 1.991-2.417 1.327 0 1.991.806 1.991 2.417 0 .805-.168 1.412-.502 1.821-.335.408-.831.612-1.489.612Zm0-.476c.482 0 .833-.156 1.055-.468.226-.318.34-.814.34-1.489 0-.67-.114-1.16-.34-1.472-.222-.312-.573-.468-1.055-.468-.483 0-.837.156-1.064.468-.221.312-.332.802-.332 1.472 0 .675.111 1.171.332 1.489.227.312.581.468 1.064.468Zm4.414.476c-.255 0-.519-.042-.791-.127a2.15 2.15 0 0 1-.681-.341c-.181-.142-.272-.292-.272-.451 0-.073.023-.139.068-.195a.38.38 0 0 1 .187-.128c.204.267.426.462.664.587.238.119.524.179.859.179.357 0 .627-.083.808-.247a.828.828 0 0 0 .281-.655.602.602 0 0 0-.17-.443 1.014 1.014 0 0 0-.408-.255 8.223 8.223 0 0 0-.664-.196 7.448 7.448 0 0 1-.8-.246 1.355 1.355 0 0 1-.51-.358c-.136-.164-.204-.382-.204-.655 0-.289.076-.533.229-.731.153-.199.349-.346.587-.443.239-.096.482-.145.732-.145.357 0 .681.071.97.213.295.142.525.349.689.621-.136.142-.252.213-.349.213-.073 0-.144-.04-.212-.119a1.241 1.241 0 0 0-.477-.349 1.574 1.574 0 0 0-.647-.119c-.289 0-.519.068-.689.204-.17.136-.255.346-.255.63 0 .164.051.298.153.4.102.102.23.181.383.238.153.051.363.11.63.179.34.079.615.161.825.246.216.085.397.219.545.4.147.176.221.414.221.715 0 .42-.156.754-.468 1.004-.306.249-.718.374-1.234.374Zm6.57 0c-.658 0-1.154-.204-1.489-.612-.335-.409-.502-1.016-.502-1.821 0-1.611.664-2.417 1.991-2.417s1.991.806 1.991 2.417c0 .805-.168 1.412-.502 1.821-.335.408-.831.612-1.489.612Zm0-.476c.482 0 .834-.156 1.055-.468.227-.318.34-.814.34-1.489 0-.67-.113-1.16-.34-1.472-.221-.312-.573-.468-1.055-.468s-.837.156-1.064.468c-.221.312-.331.802-.331 1.472 0 .675.11 1.171.331 1.489.227.312.582.468 1.064.468Zm4.508-6.262c.261 0 .459.031.596.093.136.063.204.153.204.272a.491.491 0 0 1-.034.179c-.017.051-.04.077-.068.077a1.297 1.297 0 0 0-.587-.128c-.239 0-.42.074-.545.221-.125.148-.187.36-.187.638v.622h1.055v.442h-1.055v4.237h-.579v-4.237h-.876v-.442h.876v-.63c0-.408.108-.735.324-.979.221-.243.513-.365.876-.365Zm7.383 6.653a22.896 22.896 0 0 0-.434-1.727h-2.892a22.421 22.421 0 0 0-.434 1.727h-.63c.295-1.214.615-2.291.961-3.233.346-.947.758-1.855 1.234-2.723h.638c.471.862.879 1.767 1.225 2.714.346.942.667 2.023.962 3.242h-.63Zm-.578-2.238c-.346-1.1-.78-2.132-1.302-3.097a17.572 17.572 0 0 0-1.302 3.097h2.604Zm5.761 1.149c0 .346.003.581.008.706.012.119.034.227.068.324a.973.973 0 0 1-.442.102c-.085 0-.142-.06-.17-.179-.029-.125-.043-.369-.043-.732v-2.305c0-.398-.073-.684-.221-.86-.147-.181-.386-.272-.715-.272-.51 0-1.032.252-1.565.757v3.548h-.579v-3.088c0-.84-.034-1.339-.102-1.498.182-.085.326-.127.434-.127.165 0 .247.164.247.493v.077c.261-.216.522-.372.783-.468.266-.102.547-.154.842-.154.488 0 .851.134 1.089.4.244.261.366.661.366 1.2v2.076Zm3.678.519c.04.028.071.071.094.128a.332.332 0 0 1 .043.161c0 .108-.046.185-.137.23-.181.091-.417.136-.706.136-.368 0-.663-.099-.885-.298-.221-.204-.331-.476-.331-.816v-3.191h-.885v-.459h.885v-1.277h.578v1.277h1.225v.459h-1.225v3.08c0 .476.204.715.613.715.261 0 .505-.049.731-.145Zm1.209-4.109h.578v4.679h-.578v-4.679Zm.255-.86c-.255 0-.383-.127-.383-.383v-.076c0-.255.128-.383.383-.383h.068c.255 0 .383.128.383.383v.076c0 .256-.128.383-.383.383h-.068Zm3.591 5.624c-.658 0-1.154-.204-1.489-.612-.334-.409-.502-1.016-.502-1.821 0-1.611.664-2.417 1.991-2.417 1.328 0 1.991.806 1.991 2.417 0 .805-.167 1.412-.502 1.821-.334.408-.831.612-1.489.612Zm0-.476c.482 0 .834-.156 1.055-.468.227-.318.341-.814.341-1.489 0-.67-.114-1.16-.341-1.472-.221-.312-.573-.468-1.055-.468s-.836.156-1.063.468c-.222.312-.332.802-.332 1.472 0 .675.11 1.171.332 1.489.227.312.581.468 1.063.468Zm4.849.476c-.687 0-1.223-.215-1.608-.646-.38-.432-.57-1.033-.57-1.804 0-.488.085-.911.255-1.268.176-.363.425-.641.749-.834.323-.198.703-.298 1.14-.298.521 0 .95.134 1.284.4.341.261.539.619.596 1.072a1.252 1.252 0 0 1-.213.068.84.84 0 0 1-.212.034c-.057 0-.1-.014-.128-.042a.821.821 0 0 1-.077-.204.986.986 0 0 0-.425-.621c-.221-.154-.496-.23-.825-.23-.307 0-.579.079-.817.238a1.57 1.57 0 0 0-.545.681 2.53 2.53 0 0 0-.187 1.004c0 .601.142 1.08.426 1.438.289.357.675.536 1.157.536.368 0 .683-.085.944-.256a1.58 1.58 0 0 0 .587-.765c.08 0 .145.034.196.102a.358.358 0 0 1 .085.238c0 .199-.085.389-.255.57a1.766 1.766 0 0 1-.672.426 2.443 2.443 0 0 1-.885.161Zm5.171-4.85c.488 0 .873.142 1.157.426.284.278.425.658.425 1.14v3.199h-.578v-3.139c0-.369-.091-.653-.272-.851-.182-.199-.443-.298-.783-.298-.261 0-.536.059-.826.179a2.706 2.706 0 0 0-.774.459v3.65h-.578v-6.73h.578v2.527c.25-.182.516-.32.8-.417.284-.096.567-.145.851-.145Zm6.6 5.582a6.684 6.684 0 0 1-1.021-1.957 6.842 6.842 0 0 1-.349-2.093c0-.664.116-1.353.349-2.068a6.804 6.804 0 0 1 1.021-1.965h.629a6.458 6.458 0 0 0-1.063 1.965 6.717 6.717 0 0 0-.332 2.068c0 .698.111 1.392.332 2.084a6.213 6.213 0 0 0 1.063 1.966h-.629Zm4.515-1.285v.468h-2.587v-.468h1.038v-4.782a2.534 2.534 0 0 1-.51.332 1.161 1.161 0 0 1-.494.136.344.344 0 0 1-.238-.076.285.285 0 0 1-.077-.196c0-.057.014-.108.043-.153.227-.023.468-.096.723-.221.255-.131.496-.306.723-.528h.383v5.488h.996Zm3.794-2.612c.278.08.511.233.698.46.193.221.289.527.289.918 0 .556-.181.993-.544 1.311-.363.312-.848.468-1.455.468-.38 0-.712-.049-.996-.145-.283-.096-.502-.218-.655-.366-.147-.147-.221-.298-.221-.451 0-.108.031-.193.093-.255a.337.337 0 0 1 .247-.102c.17.261.366.465.587.612.227.142.55.213.97.213.454 0 .803-.113 1.047-.34.249-.227.374-.539.374-.936 0-.38-.113-.664-.34-.851-.227-.187-.528-.281-.902-.281l-.272.009a3.617 3.617 0 0 1-.298.017c-.08 0-.153-.048-.221-.145a.471.471 0 0 1-.103-.264c0-.051.02-.076.06-.076h.757c.375 0 .664-.099.868-.298.204-.198.306-.493.306-.885 0-.323-.11-.57-.331-.74-.216-.17-.531-.255-.945-.255-.34 0-.621.076-.842.23-.216.147-.409.377-.579.689a.375.375 0 0 1-.246-.085c-.063-.057-.094-.139-.094-.247 0-.153.077-.315.23-.485.159-.17.374-.312.646-.426.273-.113.573-.17.902-.17.539 0 .976.134 1.31.4.335.261.502.63.502 1.106 0 .358-.079.653-.238.885-.159.227-.36.389-.604.485Zm4.176 3.182c-.72 0-1.27-.258-1.651-.774-.374-.522-.561-1.256-.561-2.204 0-1.004.187-1.781.561-2.331.381-.556.931-.834 1.651-.834s1.268.278 1.642.834c.38.55.57 1.327.57 2.331 0 .948-.19 1.682-.57 2.204-.374.516-.922.774-1.642.774Zm0-.527c.539 0 .944-.213 1.217-.638.278-.426.417-1.03.417-1.813 0-.851-.139-1.503-.417-1.957-.273-.453-.678-.68-1.217-.68-.544 0-.953.227-1.225.68-.272.454-.409 1.106-.409 1.957 0 .789.137 1.396.409 1.821.272.42.681.63 1.225.63Zm3.149-2.442h3.063v.51h-3.063v-.51Zm6.828 2.399v.468h-2.587v-.468h1.038v-4.782a2.506 2.506 0 0 1-.51.332 1.158 1.158 0 0 1-.494.136.344.344 0 0 1-.238-.076.285.285 0 0 1-.077-.196c0-.057.015-.108.043-.153.227-.023.468-.096.723-.221.255-.131.497-.306.723-.528h.383v5.488h.996Zm3.292.57c-.72 0-1.27-.258-1.65-.774-.375-.522-.562-1.256-.562-2.204 0-1.004.187-1.781.562-2.331.38-.556.93-.834 1.65-.834.721 0 1.268.278 1.642.834.38.55.57 1.327.57 2.331 0 .948-.19 1.682-.57 2.204-.374.516-.921.774-1.642.774Zm0-.527c.539 0 .945-.213 1.217-.638.278-.426.417-1.03.417-1.813 0-.851-.139-1.503-.417-1.957-.272-.453-.678-.68-1.217-.68-.544 0-.953.227-1.225.68-.272.454-.408 1.106-.408 1.957 0 .789.136 1.396.408 1.821.272.42.681.63 1.225.63Zm5.276.527c-.72 0-1.27-.258-1.65-.774-.375-.522-.562-1.256-.562-2.204 0-1.004.187-1.781.562-2.331.38-.556.93-.834 1.65-.834.721 0 1.268.278 1.643.834.38.55.57 1.327.57 2.331 0 .948-.19 1.682-.57 2.204-.375.516-.922.774-1.643.774Zm0-.527c.539 0 .945-.213 1.217-.638.278-.426.417-1.03.417-1.813 0-.851-.139-1.503-.417-1.957-.272-.453-.678-.68-1.217-.68-.544 0-.952.227-1.225.68-.272.454-.408 1.106-.408 1.957 0 .789.136 1.396.408 1.821.273.42.681.63 1.225.63Zm6.442-2.646c.312.085.567.258.766.519.198.261.298.561.298.901 0 .528-.182.936-.545 1.226-.363.283-.879.425-1.548.425h-2.042v-5.956h1.957c.59 0 1.055.142 1.395.426.34.278.51.658.51 1.14 0 .3-.073.57-.221.808a1.212 1.212 0 0 1-.57.511Zm.179-1.319c0-.329-.116-.587-.349-.774-.227-.188-.542-.281-.944-.281h-1.345v2.169h1.319c.879 0 1.319-.371 1.319-1.114Zm-1.293 3.88c.555 0 .955-.088 1.199-.264.244-.182.366-.474.366-.877 0-.397-.127-.686-.383-.867-.249-.182-.649-.273-1.199-.273h-1.328v2.281h1.345Zm5.541.595c-.812 0-1.441-.266-1.889-.8-.443-.533-.664-1.287-.664-2.263 0-.981.221-1.735.664-2.263.442-.533 1.072-.8 1.889-.8.328 0 .635.057.918.17.284.108.528.27.732.485a.544.544 0 0 1-.145.247.305.305 0 0 1-.212.085.359.359 0 0 1-.221-.076 1.721 1.721 0 0 0-1.09-.358c-.623 0-1.097.213-1.42.638-.324.426-.485 1.05-.485 1.872 0 .817.161 1.438.485 1.864.323.425.797.638 1.42.638.267 0 .505-.037.715-.111.216-.074.428-.196.638-.366a.272.272 0 0 1 .187.094.26.26 0 0 1 .077.195c0 .131-.077.253-.23.366a1.812 1.812 0 0 1-.595.281 2.87 2.87 0 0 1-.774.102Zm6.37-.595c0 .204-.032.34-.094.408-.057.068-.173.102-.349.102h-3.122v-5.956h3.556v.511h-2.944v2.144h2.536v.51h-2.536v2.281h2.953Zm1.102 1.327a6.237 6.237 0 0 0 1.064-1.966 6.811 6.811 0 0 0 .331-2.084c0-.692-.113-1.381-.34-2.068a6.305 6.305 0 0 0-1.055-1.965h.63a6.66 6.66 0 0 1 1.012 1.965c.238.715.358 1.404.358 2.068 0 .669-.12 1.367-.358 2.093a6.544 6.544 0 0 1-1.012 1.957h-.63ZM25.494 143.246a22.896 22.896 0 0 0-.434-1.727h-2.893c-.136.448-.28 1.024-.434 1.727h-.63a29.91 29.91 0 0 1 .962-3.233c.346-.947.758-1.855 1.234-2.723h.638a19.9 19.9 0 0 1 1.225 2.714c.346.942.667 2.023.962 3.242h-.63Zm-.578-2.238c-.346-1.1-.78-2.132-1.302-3.097a17.586 17.586 0 0 0-1.302 3.097h2.604Zm4.127-2.527c.635 0 1.12.21 1.455.63.335.414.502 1.01.502 1.787 0 .493-.088.924-.264 1.293-.17.363-.42.644-.748.842-.324.199-.704.298-1.14.298-.216 0-.434-.023-.656-.068a2.998 2.998 0 0 1-.578-.162v2.017h-.579v-4.96c0-.84-.034-1.339-.102-1.498.182-.085.326-.127.434-.127.165 0 .247.164.247.493v.034c.187-.187.402-.329.646-.425.25-.102.51-.154.783-.154Zm-.196 4.374c.488 0 .865-.17 1.132-.511.272-.34.408-.822.408-1.446 0-1.293-.448-1.94-1.344-1.94-.26 0-.516.059-.766.179a2.17 2.17 0 0 0-.663.51v2.952c.351.171.763.256 1.233.256Zm4.822.476c-.658 0-1.155-.204-1.49-.612-.334-.409-.501-1.016-.501-1.821 0-1.611.663-2.417 1.99-2.417 1.328 0 1.992.806 1.992 2.417 0 .805-.168 1.412-.502 1.821-.335.408-.831.612-1.49.612Zm0-.476c.482 0 .834-.156 1.055-.468.227-.318.34-.814.34-1.489 0-.67-.113-1.16-.34-1.472-.221-.312-.573-.468-1.055-.468s-.837.156-1.064.468c-.221.312-.332.802-.332 1.472 0 .675.11 1.171.332 1.489.227.312.582.468 1.064.468Zm3.18-6.339h.58v6.73h-.58v-6.73Zm2.277 0h.579v6.73h-.579v-6.73Zm3.757 6.815c-.658 0-1.154-.204-1.489-.612-.334-.409-.502-1.016-.502-1.821 0-1.611.664-2.417 1.991-2.417 1.328 0 1.991.806 1.991 2.417 0 .805-.167 1.412-.502 1.821-.334.408-.83.612-1.489.612Zm0-.476c.482 0 .834-.156 1.055-.468.227-.318.34-.814.34-1.489 0-.67-.113-1.16-.34-1.472-.221-.312-.573-.468-1.055-.468s-.836.156-1.063.468c-.221.312-.332.802-.332 1.472 0 .675.11 1.171.332 1.489.227.312.581.468 1.063.468Zm8.327-2.68c.312.085.567.258.766.519.198.261.297.561.297.901 0 .528-.181.936-.544 1.226-.363.283-.88.425-1.548.425h-2.042v-5.956h1.956c.59 0 1.055.142 1.396.426.34.278.51.658.51 1.14 0 .3-.073.57-.221.808a1.21 1.21 0 0 1-.57.511Zm.179-1.319c0-.329-.117-.587-.35-.774-.226-.188-.54-.281-.944-.281h-1.344v2.169h1.319c.879 0 1.319-.371 1.319-1.114Zm-1.294 3.88c.556 0 .956-.088 1.2-.264.244-.182.366-.474.366-.877 0-.397-.128-.686-.383-.867-.25-.182-.65-.273-1.2-.273h-1.327v2.281h1.344Zm6.97-2.162c0 .131-.005.261-.016.392h-3.387c.012.59.142 1.049.392 1.378.255.329.607.494 1.055.494.306 0 .564-.06.774-.179.215-.119.394-.309.536-.57.04-.074.1-.111.179-.111.09 0 .215.054.374.162a1.64 1.64 0 0 1-.69.876c-.334.21-.725.315-1.173.315-.414 0-.777-.096-1.09-.289a1.92 1.92 0 0 1-.706-.842c-.164-.369-.246-.803-.246-1.302 0-.755.187-1.344.561-1.77.375-.431.888-.647 1.54-.647.596 0 1.061.185 1.396.553.334.369.502.883.502 1.54Zm-.595-.068c0-1.021-.442-1.531-1.327-1.531-.431 0-.772.13-1.021.391-.25.261-.397.641-.443 1.14h2.791Zm1.783-3.99h.579v6.73h-.579v-6.73Zm5.416 2.051a9.633 9.633 0 0 1-.502 2.45 9.696 9.696 0 0 1-1.148 2.229h-.553a9.7 9.7 0 0 1-1.149-2.229 9.633 9.633 0 0 1-.502-2.45h.579c.08.822.224 1.554.434 2.195.215.635.521 1.253.918 1.854.398-.601.701-1.219.91-1.854.21-.641.355-1.373.435-2.195h.578Zm4.564 2.007c0 .131-.006.261-.017.392h-3.387c.012.59.142 1.049.392 1.378.255.329.607.494 1.055.494.306 0 .564-.06.774-.179.216-.119.394-.309.536-.57.04-.074.1-.111.179-.111.09 0 .215.054.374.162a1.64 1.64 0 0 1-.689.876c-.335.21-.726.315-1.174.315-.414 0-.777-.096-1.09-.289a1.92 1.92 0 0 1-.705-.842c-.165-.369-.247-.803-.247-1.302 0-.755.187-1.344.561-1.77.375-.431.888-.647 1.54-.647.596 0 1.061.185 1.396.553.334.369.502.883.502 1.54Zm-.596-.068c0-1.021-.442-1.531-1.327-1.531-.431 0-.772.13-1.021.391-.25.261-.397.641-.442 1.14h2.79Zm5.246 1.651c0 .182.011.366.034.553.023.187.051.343.085.468a.914.914 0 0 1-.391.102c-.153 0-.25-.193-.29-.578a1.683 1.683 0 0 1-.612.485c-.221.096-.493.144-.817.144-.618 0-1.103-.213-1.455-.638-.351-.431-.527-1.021-.527-1.77 0-.771.187-1.369.561-1.795.38-.431.908-.647 1.583-.647.21 0 .43.04.663.12.239.073.434.167.588.28v-2.365h.578v5.641Zm-1.948.698c.289 0 .544-.06.766-.179a1.83 1.83 0 0 0 .604-.553v-2.68a1.587 1.587 0 0 0-.562-.357 1.78 1.78 0 0 0-.69-.145c-.498 0-.881.17-1.148.51-.266.341-.4.831-.4 1.472 0 .624.122 1.104.366 1.438.244.329.599.494 1.064.494Zm7.144-2.281c0 .131-.006.261-.017.392h-3.386c.01.59.141 1.049.39 1.378.256.329.608.494 1.056.494.306 0 .564-.06.774-.179.216-.119.394-.309.536-.57.04-.074.1-.111.179-.111.09 0 .215.054.374.162a1.64 1.64 0 0 1-.689.876c-.335.21-.726.315-1.174.315-.414 0-.777-.096-1.09-.289a1.92 1.92 0 0 1-.705-.842c-.165-.369-.247-.803-.247-1.302 0-.755.187-1.344.561-1.77.375-.431.888-.647 1.54-.647.596 0 1.061.185 1.396.553.334.369.502.883.502 1.54Zm-.596-.068c0-1.021-.442-1.531-1.327-1.531-.431 0-.772.13-1.021.391-.25.261-.397.641-.443 1.14h2.791Zm3.536-1.999c.198 0 .349.034.45.102a.311.311 0 0 1 .163.289.373.373 0 0 1-.094.247c-.136-.074-.323-.111-.562-.111-.38 0-.686.151-.918.451-.227.301-.34.695-.34 1.183v2.578h-.58v-4.679h.58v.842a1.74 1.74 0 0 1 .552-.647 1.27 1.27 0 0 1 .749-.255Zm5.227 2.067c0 .131-.005.261-.017.392h-3.386c.011.59.142 1.049.391 1.378.256.329.607.494 1.056.494.306 0 .564-.06.774-.179.215-.119.394-.309.536-.57.04-.074.099-.111.178-.111.091 0 .216.054.375.162a1.64 1.64 0 0 1-.69.876c-.334.21-.725.315-1.173.315-.415 0-.778-.096-1.09-.289a1.92 1.92 0 0 1-.706-.842c-.164-.369-.246-.803-.246-1.302 0-.755.187-1.344.561-1.77.374-.431.888-.647 1.54-.647.596 0 1.06.185 1.395.553.335.369.502.883.502 1.54Zm-.595-.068c0-1.021-.443-1.531-1.328-1.531-.43 0-.77.13-1.02.391s-.397.641-.443 1.14h2.79Zm3.636-.127h3.063v.51h-3.063v-.51Zm10.008 2.357v.51H95.79v-5.956h.612v5.446h2.893Zm4.55-2.162c0 .131-.006.261-.017.392h-3.387c.012.59.142 1.049.392 1.378.255.329.607.494 1.055.494.306 0 .564-.06.774-.179.215-.119.394-.309.536-.57a.192.192 0 0 1 .179-.111c.09 0 .215.054.374.162a1.644 1.644 0 0 1-.689.876c-.335.21-.726.315-1.174.315-.414 0-.777-.096-1.089-.289a1.92 1.92 0 0 1-.707-.842c-.164-.369-.246-.803-.246-1.302 0-.755.187-1.344.561-1.77.375-.431.888-.647 1.54-.647.596 0 1.061.185 1.396.553.334.369.502.883.502 1.54Zm-.596-.068c0-1.021-.442-1.531-1.327-1.531-.431 0-.772.13-1.021.391-.25.261-.397.641-.443 1.14h2.791Zm3.263 2.825c-.657 0-1.154-.204-1.488-.612-.335-.409-.502-1.016-.502-1.821 0-1.611.663-2.417 1.99-2.417 1.328 0 1.991.806 1.991 2.417 0 .805-.167 1.412-.502 1.821-.334.408-.831.612-1.489.612Zm0-.476c.483 0 .834-.156 1.056-.468.226-.318.34-.814.34-1.489 0-.67-.114-1.16-.34-1.472-.222-.312-.573-.468-1.056-.468-.482 0-.836.156-1.063.468-.221.312-.332.802-.332 1.472 0 .675.111 1.171.332 1.489.227.312.581.468 1.063.468Zm4.849.476c-.686 0-1.222-.215-1.608-.646-.38-.432-.57-1.033-.57-1.804 0-.488.085-.911.255-1.268.176-.363.425-.641.749-.834.323-.198.703-.298 1.14-.298.522 0 .95.134 1.285.4.34.261.539.619.595 1.072a1.267 1.267 0 0 1-.212.068.848.848 0 0 1-.213.034c-.057 0-.099-.014-.128-.042a.83.83 0 0 1-.076-.204.991.991 0 0 0-.426-.621c-.221-.154-.496-.23-.825-.23-.306 0-.579.079-.817.238a1.568 1.568 0 0 0-.544.681 2.511 2.511 0 0 0-.188 1.004c0 .601.142 1.08.426 1.438.289.357.675.536 1.157.536.369 0 .683-.085.944-.256a1.58 1.58 0 0 0 .587-.765c.08 0 .145.034.196.102a.358.358 0 0 1 .085.238c0 .199-.085.389-.255.57a1.766 1.766 0 0 1-.672.426 2.443 2.443 0 0 1-.885.161Zm5.171-4.85c.488 0 .874.142 1.157.426.284.278.426.658.426 1.14v3.199h-.579v-3.139c0-.369-.091-.653-.272-.851-.182-.199-.443-.298-.783-.298a2.15 2.15 0 0 0-.825.179 2.68 2.68 0 0 0-.774.459v3.65h-.579v-6.73h.579v2.527a2.99 2.99 0 0 1 .799-.417c.284-.096.568-.145.851-.145Zm6.406 3.599c0 .261.02.468.059.622.046.147.122.28.23.399a.648.648 0 0 1-.204.137.51.51 0 0 1-.213.051c-.113 0-.21-.066-.289-.196a1.382 1.382 0 0 1-.145-.536 1.863 1.863 0 0 1-.706.57 2.19 2.19 0 0 1-.927.204c-.431 0-.777-.11-1.038-.332a1.117 1.117 0 0 1-.392-.885c0-.533.258-.95.775-1.25.521-.301 1.279-.474 2.271-.519v-.272c0-.375-.096-.653-.289-.834-.187-.187-.474-.281-.859-.281-.25 0-.482.054-.698.162-.21.102-.437.275-.681.519a.172.172 0 0 1-.127.051.347.347 0 0 1-.187-.068.869.869 0 0 1-.196-.213c.255-.301.544-.53.868-.689a2.375 2.375 0 0 1 1.046-.239c.528 0 .942.142 1.242.426.307.283.46.672.46 1.166v2.007Zm-2.153.775c.307 0 .596-.085.868-.256.272-.17.508-.411.706-.723v-1.055c-1.633.068-2.45.497-2.45 1.285 0 .499.292.749.876.749Zm5.451-4.348c.198 0 .349.034.451.102a.31.31 0 0 1 .161.289.375.375 0 0 1-.093.247c-.136-.074-.323-.111-.562-.111-.38 0-.686.151-.919.451-.227.301-.34.695-.34 1.183v2.578h-.579v-4.679h.579v.842c.131-.261.315-.477.553-.647a1.27 1.27 0 0 1 .749-.255Zm5.227 2.067c0 .131-.005.261-.017.392h-3.386c.011.59.142 1.049.391 1.378.256.329.607.494 1.055.494.307 0 .565-.06.775-.179.215-.119.394-.309.536-.57a.19.19 0 0 1 .178-.111c.091 0 .216.054.375.162a1.641 1.641 0 0 1-.69.876c-.334.21-.726.315-1.174.315-.414 0-.777-.096-1.089-.289a1.925 1.925 0 0 1-.706-.842c-.164-.369-.247-.803-.247-1.302 0-.755.188-1.344.562-1.77.374-.431.888-.647 1.54-.647.595 0 1.061.185 1.395.553.335.369.502.883.502 1.54Zm-.595-.068c0-1.021-.443-1.531-1.328-1.531-.431 0-.771.13-1.021.391-.249.261-.397.641-.442 1.14h2.791Zm3.016 2.825c-.255 0-.519-.042-.791-.127a2.15 2.15 0 0 1-.681-.341c-.181-.142-.272-.292-.272-.451 0-.073.023-.139.068-.195a.385.385 0 0 1 .187-.128c.205.267.426.462.664.587.238.119.525.179.859.179.358 0 .627-.083.809-.247a.83.83 0 0 0 .281-.655.598.598 0 0 0-.171-.443 1.007 1.007 0 0 0-.408-.255 8.223 8.223 0 0 0-.664-.196 7.421 7.421 0 0 1-.799-.246 1.35 1.35 0 0 1-.511-.358c-.136-.164-.204-.382-.204-.655 0-.289.076-.533.23-.731.153-.199.348-.346.587-.443a1.94 1.94 0 0 1 .731-.145c.358 0 .681.071.97.213.295.142.525.349.689.621-.136.142-.252.213-.348.213-.074 0-.145-.04-.213-.119a1.234 1.234 0 0 0-.477-.349 1.57 1.57 0 0 0-.646-.119c-.289 0-.519.068-.689.204-.171.136-.256.346-.256.63 0 .164.051.298.154.4.102.102.229.181.382.238.154.051.363.11.63.179.34.079.615.161.825.246.216.085.397.219.545.4.147.176.221.414.221.715 0 .42-.156.754-.468 1.004-.306.249-.717.374-1.234.374Zm6.289.732a6.87 6.87 0 0 1-1.369-4.05c0-.664.116-1.353.348-2.068a6.853 6.853 0 0 1 1.021-1.965h.63a6.436 6.436 0 0 0-1.063 1.965 6.688 6.688 0 0 0-.332 2.068c0 .698.11 1.392.332 2.084a6.213 6.213 0 0 0 1.063 1.966h-.63Zm3.784-.732c-.687 0-1.223-.215-1.608-.646-.38-.432-.57-1.033-.57-1.804 0-.488.085-.911.255-1.268.176-.363.425-.641.748-.834.324-.198.704-.298 1.141-.298.521 0 .95.134 1.284.4.341.261.539.619.596 1.072a1.252 1.252 0 0 1-.213.068.84.84 0 0 1-.212.034c-.057 0-.1-.014-.128-.042a.821.821 0 0 1-.077-.204.986.986 0 0 0-.425-.621c-.221-.154-.496-.23-.825-.23-.307 0-.579.079-.817.238a1.57 1.57 0 0 0-.545.681 2.512 2.512 0 0 0-.187 1.004c0 .601.142 1.08.426 1.438.289.357.675.536 1.157.536.368 0 .683-.085.944-.256a1.58 1.58 0 0 0 .587-.765c.08 0 .145.034.196.102a.358.358 0 0 1 .085.238c0 .199-.085.389-.255.57a1.763 1.763 0 0 1-.673.426 2.433 2.433 0 0 1-.884.161Zm3.444-.085c-.256 0-.383-.128-.383-.383v-.076c0-.256.127-.383.383-.383h.068c.255 0 .383.127.383.383v.076c0 .255-.128.383-.383.383h-.068Zm6.784-.468v.468h-2.586v-.468h1.038v-4.782a2.542 2.542 0 0 1-.511.332 1.154 1.154 0 0 1-.493.136.342.342 0 0 1-.238-.076.285.285 0 0 1-.077-.196c0-.057.014-.108.043-.153.227-.023.468-.096.723-.221.255-.131.496-.306.723-.528h.383v5.488h.995Zm4.705-3.786c.017.573-.198 1.157-.646 1.753-.448.59-1.112 1.256-1.991 1.999h2.595v.502h-3.565v-.306a22.463 22.463 0 0 0 1.753-1.557c.442-.448.768-.862.978-1.242.216-.386.323-.766.323-1.141 0-.397-.105-.697-.315-.901-.204-.21-.496-.315-.876-.315-.403 0-.715.108-.936.323-.221.21-.354.553-.4 1.03-.164 0-.278-.023-.34-.068-.062-.046-.094-.125-.094-.239 0-.283.068-.541.205-.774.141-.238.346-.425.612-.562.272-.136.59-.204.953-.204.528 0 .945.142 1.251.426.306.278.471.703.493 1.276Zm3.158 4.356c-.721 0-1.271-.258-1.651-.774-.374-.522-.561-1.256-.561-2.204 0-1.004.187-1.781.561-2.331.38-.556.93-.834 1.651-.834.72 0 1.268.278 1.642.834.38.55.57 1.327.57 2.331 0 .948-.19 1.682-.57 2.204-.374.516-.922.774-1.642.774Zm0-.527c.539 0 .944-.213 1.217-.638.277-.426.416-1.03.416-1.813 0-.851-.139-1.503-.416-1.957-.273-.453-.678-.68-1.217-.68-.545 0-.953.227-1.225.68-.273.454-.409 1.106-.409 1.957 0 .789.136 1.396.409 1.821.272.42.68.63 1.225.63Zm3.149-2.442h3.063v.51h-3.063v-.51Zm6.828 2.399v.468h-2.587v-.468h1.038v-4.782a2.534 2.534 0 0 1-.51.332 1.161 1.161 0 0 1-.494.136.344.344 0 0 1-.238-.076.285.285 0 0 1-.077-.196c0-.057.014-.108.043-.153.227-.023.468-.096.723-.221.255-.131.496-.306.723-.528h.383v5.488h.996Zm3.471-1.004h-2.646v-.306c.539-.76.936-1.452 1.191-2.076.255-.63.411-1.33.468-2.102a.803.803 0 0 1 .195-.025c.239 0 .358.15.358.451 0 .488-.148 1.063-.443 1.727a10.006 10.006 0 0 1-1.029 1.829h1.906V139.4h.544v1.872h.86v.502h-.86v1.472h-.544v-1.472Zm4.266 1.574c-.72 0-1.27-.258-1.65-.774-.375-.522-.562-1.256-.562-2.204 0-1.004.187-1.781.562-2.331.38-.556.93-.834 1.65-.834.721 0 1.268.278 1.642.834.38.55.57 1.327.57 2.331 0 .948-.19 1.682-.57 2.204-.374.516-.921.774-1.642.774Zm0-.527c.539 0 .945-.213 1.217-.638.278-.426.417-1.03.417-1.813 0-.851-.139-1.503-.417-1.957-.272-.453-.678-.68-1.217-.68-.544 0-.953.227-1.225.68-.272.454-.408 1.106-.408 1.957 0 .789.136 1.396.408 1.821.272.42.681.63 1.225.63Zm8.636-2.646c.312.085.567.258.765.519.199.261.298.561.298.901 0 .528-.181.936-.544 1.226-.363.283-.88.425-1.549.425h-2.042v-5.956h1.957c.59 0 1.055.142 1.395.426.341.278.511.658.511 1.14 0 .3-.074.57-.221.808a1.212 1.212 0 0 1-.57.511Zm.178-1.319c0-.329-.116-.587-.349-.774-.226-.188-.541-.281-.944-.281h-1.344v2.169h1.319c.879 0 1.318-.371 1.318-1.114Zm-1.293 3.88c.556 0 .956-.088 1.2-.264.244-.182.366-.474.366-.877 0-.397-.128-.686-.383-.867-.25-.182-.65-.273-1.2-.273h-1.327v2.281h1.344Zm5.541.595c-.811 0-1.441-.266-1.889-.8-.442-.533-.664-1.287-.664-2.263 0-.981.222-1.735.664-2.263.443-.533 1.072-.8 1.889-.8.329 0 .635.057.919.17.283.108.527.27.732.485a.563.563 0 0 1-.145.247.307.307 0 0 1-.213.085.361.361 0 0 1-.221-.076 1.716 1.716 0 0 0-1.089-.358c-.624 0-1.098.213-1.421.638-.323.426-.485 1.05-.485 1.872 0 .817.162 1.438.485 1.864.323.425.797.638 1.421.638.267 0 .505-.037.715-.111.215-.074.428-.196.638-.366a.274.274 0 0 1 .187.094.264.264 0 0 1 .076.195c0 .131-.076.253-.229.366a1.818 1.818 0 0 1-.596.281 2.87 2.87 0 0 1-.774.102Zm6.37-.595c0 .204-.031.34-.093.408-.057.068-.173.102-.349.102h-3.123v-5.956h3.557v.511h-2.944v2.144h2.535v.51h-2.535v2.281h2.952Zm1.103 1.327a6.233 6.233 0 0 0 1.063-1.966 6.813 6.813 0 0 0 .332-2.084c0-.692-.114-1.381-.34-2.068a6.326 6.326 0 0 0-1.055-1.965h.629c.443.59.78 1.245 1.013 1.965.238.715.357 1.404.357 2.068 0 .669-.119 1.367-.357 2.093a6.547 6.547 0 0 1-1.013 1.957h-.629ZM61.303 163.736v.51h-3.505v-5.956h.612v5.446h2.893Zm4.175-.656c0 .261.02.468.06.622.045.147.121.28.23.399a.64.64 0 0 1-.205.137.508.508 0 0 1-.213.051c-.113 0-.21-.066-.289-.196a1.38 1.38 0 0 1-.145-.536 1.864 1.864 0 0 1-.706.57 2.19 2.19 0 0 1-.927.204c-.431 0-.777-.11-1.038-.332a1.116 1.116 0 0 1-.392-.885c0-.533.258-.95.775-1.25.522-.301 1.279-.474 2.271-.519v-.272c0-.375-.096-.653-.289-.834-.187-.187-.474-.281-.86-.281-.249 0-.481.054-.697.162-.21.102-.437.275-.68.519a.173.173 0 0 1-.128.051.348.348 0 0 1-.187-.068.894.894 0 0 1-.196-.213c.255-.301.544-.53.868-.689a2.375 2.375 0 0 1 1.046-.239c.528 0 .942.142 1.242.426.307.283.46.672.46 1.166v2.007Zm-2.153.775c.307 0 .596-.085.868-.256.272-.17.508-.411.706-.723v-1.055c-1.633.068-2.45.497-2.45 1.285 0 .499.292.749.876.749Zm5.179.476c-.658 0-1.155-.204-1.49-.612-.334-.409-.501-1.016-.501-1.821 0-1.611.663-2.417 1.99-2.417 1.328 0 1.992.806 1.992 2.417 0 .805-.168 1.412-.502 1.821-.335.408-.831.612-1.49.612Zm0-.476c.482 0 .833-.156 1.055-.468.227-.318.34-.814.34-1.489 0-.67-.114-1.16-.34-1.472-.222-.312-.573-.468-1.055-.468-.483 0-.837.156-1.064.468-.221.312-.332.802-.332 1.472 0 .675.11 1.171.332 1.489.227.312.582.468 1.064.468Zm4.848.476c-.686 0-1.222-.215-1.608-.646-.38-.432-.57-1.033-.57-1.804 0-.488.085-.911.255-1.268.176-.363.426-.641.749-.834.323-.198.703-.298 1.14-.298.522 0 .95.134 1.285.4.34.261.539.619.595 1.072a1.254 1.254 0 0 1-.212.068.84.84 0 0 1-.213.034c-.057 0-.1-.014-.128-.042a.813.813 0 0 1-.076-.204.987.987 0 0 0-.426-.621c-.22-.154-.496-.23-.825-.23-.306 0-.578.079-.817.238a1.568 1.568 0 0 0-.544.681 2.515 2.515 0 0 0-.188 1.004c0 .601.142 1.08.426 1.438.29.357.675.536 1.157.536.369 0 .683-.085.944-.256.261-.175.457-.431.587-.765.08 0 .145.034.196.102a.36.36 0 0 1 .085.238c0 .199-.085.389-.255.57a1.758 1.758 0 0 1-.672.426 2.442 2.442 0 0 1-.885.161Zm4.5 0c-.659 0-1.155-.204-1.49-.612-.334-.409-.502-1.016-.502-1.821 0-1.611.664-2.417 1.991-2.417s1.991.806 1.991 2.417c0 .805-.167 1.412-.502 1.821-.335.408-.831.612-1.489.612Zm0-.476c.481 0 .833-.156 1.054-.468.227-.318.34-.814.34-1.489 0-.67-.113-1.16-.34-1.472-.221-.312-.573-.468-1.055-.468s-.837.156-1.064.468c-.22.312-.331.802-.331 1.472 0 .675.11 1.171.331 1.489.227.312.582.468 1.064.468Zm4.66.476c-.658 0-1.154-.204-1.489-.612-.334-.409-.502-1.016-.502-1.821 0-1.611.664-2.417 1.991-2.417 1.328 0 1.991.806 1.991 2.417 0 .805-.167 1.412-.502 1.821-.334.408-.83.612-1.489.612Zm0-.476c.483 0 .834-.156 1.055-.468.227-.318.34-.814.34-1.489 0-.67-.113-1.16-.34-1.472-.22-.312-.572-.468-1.055-.468-.482 0-.836.156-1.063.468-.221.312-.332.802-.332 1.472 0 .675.11 1.171.332 1.489.227.312.581.468 1.063.468Zm6.755-.698c0 .346.002.581.008.706.011.119.034.227.068.324a.976.976 0 0 1-.442.102c-.085 0-.142-.06-.17-.179-.029-.125-.043-.369-.043-.732v-2.305c0-.398-.074-.684-.221-.86-.148-.181-.386-.272-.715-.272-.51 0-1.032.252-1.565.757v3.548h-.579v-3.088c0-.84-.034-1.339-.102-1.498.181-.085.326-.127.434-.127.164 0 .247.164.247.493v.077c.26-.216.522-.372.782-.468.267-.102.548-.154.843-.154.487 0 .85.134 1.089.4.244.261.366.661.366 1.2v2.076Zm7.012-.077c0 .261.02.468.06.622.045.147.121.28.23.399a.64.64 0 0 1-.205.137.508.508 0 0 1-.213.051c-.113 0-.21-.066-.289-.196a1.38 1.38 0 0 1-.145-.536 1.862 1.862 0 0 1-.706.57 2.19 2.19 0 0 1-.927.204c-.431 0-.777-.11-1.038-.332a1.117 1.117 0 0 1-.392-.885c0-.533.258-.95.775-1.25.521-.301 1.279-.474 2.271-.519v-.272c0-.375-.096-.653-.289-.834-.187-.187-.474-.281-.86-.281-.249 0-.481.054-.697.162-.21.102-.437.275-.68.519a.173.173 0 0 1-.128.051.348.348 0 0 1-.188-.068.896.896 0 0 1-.195-.213c.255-.301.544-.53.868-.689a2.375 2.375 0 0 1 1.046-.239c.528 0 .942.142 1.242.426.307.283.46.672.46 1.166v2.007Zm-2.153.775c.307 0 .596-.085.868-.256.272-.17.508-.411.706-.723v-1.055c-1.633.068-2.45.497-2.45 1.285 0 .499.292.749.876.749Zm7.272-.698c0 .346.002.581.008.706.011.119.034.227.068.324a.973.973 0 0 1-.442.102c-.085 0-.142-.06-.17-.179-.029-.125-.043-.369-.043-.732v-2.305c0-.398-.074-.684-.221-.86-.148-.181-.386-.272-.715-.272-.51 0-1.032.252-1.565.757v3.548h-.579v-3.088c0-.84-.034-1.339-.102-1.498.181-.085.326-.127.434-.127.164 0 .247.164.247.493v.077c.26-.216.521-.372.782-.468.267-.102.548-.154.843-.154.487 0 .851.134 1.089.4.244.261.366.661.366 1.2v2.076Zm5.082 0a4.521 4.521 0 0 0 .119 1.021.914.914 0 0 1-.391.102c-.153 0-.25-.193-.29-.578a1.682 1.682 0 0 1-.612.485c-.221.096-.494.144-.817.144-.618 0-1.103-.213-1.455-.638-.352-.431-.527-1.021-.527-1.77 0-.771.187-1.369.561-1.795.38-.431.908-.647 1.583-.647.21 0 .431.04.663.12.239.073.434.167.587.28v-2.365h.579v5.641Zm-1.948.698c.289 0 .544-.06.765-.179.222-.119.423-.303.604-.553v-2.68a1.585 1.585 0 0 0-.561-.357 1.78 1.78 0 0 0-.689-.145c-.499 0-.882.17-1.149.51-.266.341-.4.831-.4 1.472 0 .624.122 1.104.366 1.438.244.329.599.494 1.064.494Zm7.653.476c-.392 0-.752-.059-1.081-.178a2.022 2.022 0 0 1-.783-.502 1 1 0 0 1-.289-.69c0-.113.04-.204.119-.272a.524.524 0 0 1 .332-.119c.091.403.284.709.578.919.295.21.675.315 1.141.315.476 0 .859-.111 1.148-.332.295-.221.443-.511.443-.868a.881.881 0 0 0-.162-.536c-.102-.148-.272-.278-.511-.391-.238-.12-.567-.233-.986-.341-.488-.13-.871-.266-1.149-.408-.278-.148-.479-.312-.604-.494a1.26 1.26 0 0 1-.179-.689c0-.476.176-.851.528-1.123.351-.278.836-.417 1.455-.417.538 0 .987.128 1.344.383.363.25.607.604.732 1.064-.074.073-.188.11-.341.11-.159 0-.275-.076-.349-.229a1.392 1.392 0 0 0-.57-.596 1.567 1.567 0 0 0-.816-.221c-.449 0-.789.088-1.021.263-.233.176-.349.432-.349.766 0 .17.042.315.127.434.085.114.227.219.426.315.198.096.479.196.842.298.607.17 1.064.332 1.37.485.312.153.53.326.655.519s.187.445.187.757c0 .357-.091.672-.272.944a1.76 1.76 0 0 1-.783.621c-.334.142-.729.213-1.182.213Zm5.05 0c-.658 0-1.154-.204-1.489-.612-.335-.409-.502-1.016-.502-1.821 0-1.611.664-2.417 1.991-2.417s1.991.806 1.991 2.417c0 .805-.167 1.412-.502 1.821-.335.408-.831.612-1.489.612Zm0-.476c.482 0 .834-.156 1.055-.468.227-.318.34-.814.34-1.489 0-.67-.113-1.16-.34-1.472-.221-.312-.573-.468-1.055-.468s-.837.156-1.063.468c-.222.312-.332.802-.332 1.472 0 .675.11 1.171.332 1.489.226.312.581.468 1.063.468Zm6.754-.698c0 .346.003.581.009.706.011.119.034.227.068.324a.977.977 0 0 1-.442.102c-.086 0-.142-.06-.171-.179-.028-.125-.042-.369-.042-.732v-2.305c0-.398-.074-.684-.221-.86-.148-.181-.386-.272-.715-.272-.511 0-1.032.252-1.566.757v3.548h-.578v-3.088c0-.84-.034-1.339-.102-1.498.181-.085.326-.127.434-.127.164 0 .246.164.246.493v.077c.261-.216.522-.372.783-.468.267-.102.548-.154.842-.154.488 0 .851.134 1.09.4.243.261.365.661.365 1.2v2.076Zm2.854 1.174c-.256 0-.519-.042-.792-.127a2.134 2.134 0 0 1-.68-.341c-.182-.142-.273-.292-.273-.451a.3.3 0 0 1 .069-.195.38.38 0 0 1 .187-.128c.204.267.425.462.663.587.239.119.525.179.86.179.357 0 .626-.083.808-.247a.83.83 0 0 0 .281-.655.602.602 0 0 0-.17-.443 1.01 1.01 0 0 0-.409-.255 8.303 8.303 0 0 0-.663-.196 7.448 7.448 0 0 1-.8-.246 1.35 1.35 0 0 1-.511-.358c-.136-.164-.204-.382-.204-.655 0-.289.077-.533.23-.731.153-.199.349-.346.587-.443.238-.096.482-.145.732-.145.357 0 .68.071.97.213.294.142.524.349.689.621-.136.142-.253.213-.349.213-.074 0-.145-.04-.213-.119a1.238 1.238 0 0 0-.476-.349 1.577 1.577 0 0 0-.647-.119c-.289 0-.519.068-.689.204-.17.136-.255.346-.255.63 0 .164.051.298.153.4.102.102.23.181.383.238.153.051.363.11.629.179.341.079.616.161.826.246.215.085.397.219.544.4.148.176.221.414.221.715 0 .42-.156.754-.468 1.004-.306.249-.717.374-1.233.374Zm4.749-2.952h3.063v.51h-3.063v-.51Zm9.021 2.399v.468h-2.587v-.468h1.038v-4.782a2.506 2.506 0 0 1-.51.332 1.158 1.158 0 0 1-.494.136.344.344 0 0 1-.238-.076.284.284 0 0 1-.076-.196c0-.057.014-.108.042-.153.227-.023.468-.096.723-.221.256-.131.497-.306.723-.528h.383v5.488h.996Zm3.292.57c-.72 0-1.27-.258-1.65-.774-.375-.522-.562-1.256-.562-2.204 0-1.004.187-1.781.562-2.331.38-.556.93-.834 1.65-.834.721 0 1.268.278 1.643.834.38.55.57 1.327.57 2.331 0 .948-.19 1.682-.57 2.204-.375.516-.922.774-1.643.774Zm0-.527c.539 0 .945-.213 1.217-.638.278-.426.417-1.03.417-1.813 0-.851-.139-1.503-.417-1.957-.272-.453-.678-.68-1.217-.68-.544 0-.953.227-1.225.68-.272.454-.408 1.106-.408 1.957 0 .789.136 1.396.408 1.821.272.42.681.63 1.225.63Zm5.277.527c-.721 0-1.271-.258-1.651-.774-.374-.522-.562-1.256-.562-2.204 0-1.004.188-1.781.562-2.331.38-.556.93-.834 1.651-.834.72 0 1.267.278 1.642.834.38.55.57 1.327.57 2.331 0 .948-.19 1.682-.57 2.204-.375.516-.922.774-1.642.774Zm0-.527c.538 0 .944-.213 1.216-.638.278-.426.417-1.03.417-1.813 0-.851-.139-1.503-.417-1.957-.272-.453-.678-.68-1.216-.68-.545 0-.953.227-1.226.68-.272.454-.408 1.106-.408 1.957 0 .789.136 1.396.408 1.821.273.42.681.63 1.226.63Zm8.635-2.646c.312.085.567.258.766.519.198.261.297.561.297.901 0 .528-.181.936-.544 1.226-.363.283-.879.425-1.549.425h-2.042v-5.956h1.957c.59 0 1.055.142 1.396.426.34.278.51.658.51 1.14 0 .3-.074.57-.221.808a1.212 1.212 0 0 1-.57.511Zm.179-1.319c0-.329-.117-.587-.349-.774-.227-.188-.542-.281-.945-.281h-1.344v2.169h1.319c.879 0 1.319-.371 1.319-1.114Zm-1.294 3.88c.556 0 .956-.088 1.2-.264.244-.182.366-.474.366-.877 0-.397-.128-.686-.383-.867-.25-.182-.65-.273-1.2-.273h-1.327v2.281h1.344Zm5.541.595c-.811 0-1.441-.266-1.889-.8-.442-.533-.663-1.287-.663-2.263 0-.981.221-1.735.663-2.263.443-.533 1.072-.8 1.889-.8.329 0 .635.057.919.17.284.108.528.27.732.485a.544.544 0 0 1-.145.247.305.305 0 0 1-.213.085.361.361 0 0 1-.221-.076 1.716 1.716 0 0 0-1.089-.358c-.624 0-1.097.213-1.421.638-.323.426-.485 1.05-.485 1.872 0 .817.162 1.438.485 1.864.324.425.797.638 1.421.638.267 0 .505-.037.715-.111.215-.074.428-.196.638-.366a.272.272 0 0 1 .187.094.265.265 0 0 1 .077.195c0 .131-.077.253-.23.366a1.818 1.818 0 0 1-.596.281 2.87 2.87 0 0 1-.774.102Zm6.37-.595c0 .204-.031.34-.093.408-.057.068-.173.102-.349.102h-3.123v-5.956h3.557v.511h-2.944v2.144h2.535v.51h-2.535v2.281h2.952Z"/></svg>