<svg xmlns="http://www.w3.org/2000/svg" width="224" height="213" fill="none"><path fill="#FE5D5D" d="M.054.477h223.842V212.52H.054z"/><path fill="#fff" d="M101.911 46.069c-.182.1-.377.15-.585.15a.801.801 0 0 1-.409-.096.85.85 0 0 1-.272-.313l-1.552-2.669c-.218-.38-.486-.648-.803-.803-.31-.163-.731-.245-1.267-.245h-.925v4.016h-.98v-9.53h3.09c1.098 0 1.96.245 2.587.736.626.48.939 1.152.939 2.014 0 .681-.227 1.271-.681 1.77-.454.49-1.044.795-1.77.912.264.218.5.495.708.83l1.92 3.227Zm-3.771-4.82c.817 0 1.447-.168 1.892-.504.454-.335.681-.807.681-1.416 0-.626-.213-1.098-.64-1.416-.417-.326-1.04-.49-1.865-.49h-2.11v3.826h2.042Zm8.099 4.996c-1.053 0-1.847-.326-2.382-.98-.536-.653-.804-1.624-.804-2.913 0-2.578 1.062-3.867 3.186-3.867 2.124 0 3.186 1.29 3.186 3.867 0 1.289-.268 2.26-.803 2.913-.536.654-1.33.98-2.383.98Zm0-.762c.772 0 1.334-.25 1.688-.749.363-.508.545-1.302.545-2.382 0-1.071-.182-1.856-.545-2.355-.354-.5-.916-.75-1.688-.75-.771 0-1.339.25-1.702.75-.354.499-.531 1.284-.531 2.355 0 1.08.177 1.874.531 2.382.363.5.931.75 1.702.75Zm12.727-6.998c.645 0 1.167.21 1.566.627.409.417.613.957.613 1.62v5.377h-.94v-5.337c0-.526-.118-.916-.354-1.17-.236-.254-.594-.381-1.075-.381-.772 0-1.489.354-2.151 1.061.018.146.027.255.027.327v5.5h-.926v-5.473c0-.426-.131-.767-.395-1.02-.254-.264-.594-.395-1.021-.395-.39 0-.762.086-1.116.258-.345.173-.694.45-1.048.83v5.8h-.926v-4.942c0-1.343-.055-2.142-.163-2.396.29-.136.521-.204.694-.204.263 0 .395.263.395.79v.054a3.396 3.396 0 0 1 1.062-.708 3.46 3.46 0 0 1 1.266-.218c.426 0 .808.1 1.143.3.336.19.595.454.776.79.391-.382.785-.659 1.185-.831a3.536 3.536 0 0 1 1.388-.259Zm10.499 3.35c0 .208-.009.417-.028.626h-5.418c.018.944.227 1.679.626 2.205.409.527.971.79 1.688.79.49 0 .903-.095 1.239-.286.345-.19.631-.495.858-.912a.306.306 0 0 1 .286-.177c.145 0 .345.086.599.258a2.63 2.63 0 0 1-1.103 1.403c-.535.336-1.162.504-1.879.504-.662 0-1.243-.155-1.742-.463-.49-.318-.867-.767-1.13-1.348-.264-.59-.395-1.285-.395-2.083 0-1.207.299-2.151.898-2.832.599-.69 1.421-1.035 2.465-1.035.953 0 1.697.295 2.232.885.536.59.804 1.412.804 2.465Zm-.953-.11c0-1.633-.708-2.45-2.124-2.45-.69 0-1.235.209-1.634.626-.399.418-.635 1.026-.708 1.824h4.466ZM71.54 88.6v.51h-3.506v-5.955h.613v5.445h2.892Zm2.456.596c-.658 0-1.154-.205-1.49-.613-.334-.408-.501-1.015-.501-1.82 0-1.612.663-2.417 1.99-2.417 1.328 0 1.992.805 1.992 2.416 0 .806-.168 1.413-.502 1.82-.335.41-.831.614-1.49.614Zm0-.477c.482 0 .834-.156 1.055-.468.227-.318.34-.814.34-1.489 0-.67-.113-1.16-.34-1.472-.221-.312-.573-.468-1.055-.468s-.837.156-1.064.468c-.221.312-.332.803-.332 1.472 0 .675.111 1.171.332 1.489.227.312.582.468 1.064.468Zm6.32-4.288a9.637 9.637 0 0 1-.502 2.45 9.687 9.687 0 0 1-1.148 2.23h-.553a9.687 9.687 0 0 1-1.15-2.23 9.637 9.637 0 0 1-.501-2.45h.578c.08.822.224 1.554.434 2.195.216.635.522 1.254.92 1.855.396-.602.7-1.22.91-1.855.21-.641.354-1.373.434-2.195h.578Zm4.564 2.008c0 .13-.006.26-.017.391h-3.387c.012.59.142 1.05.392 1.379.255.329.607.493 1.055.493.306 0 .564-.06.774-.179.215-.119.394-.309.536-.57.04-.073.1-.11.179-.11.09 0 .215.053.374.161-.125.369-.355.661-.69.877-.334.21-.725.315-1.173.315a2.03 2.03 0 0 1-1.09-.29 1.919 1.919 0 0 1-.706-.842c-.164-.369-.246-.803-.246-1.302 0-.754.187-1.344.561-1.77.375-.43.888-.646 1.54-.646.596 0 1.06.184 1.396.553.334.368.502.882.502 1.54Zm-.596-.068c0-1.021-.442-1.532-1.327-1.532-.431 0-.772.13-1.021.392-.25.26-.397.64-.443 1.14h2.791Zm5.246 1.65c0 .182.011.366.034.553.023.188.051.344.085.468a.913.913 0 0 1-.391.102c-.153 0-.25-.192-.29-.578a1.668 1.668 0 0 1-.612.485c-.221.096-.494.145-.817.145-.618 0-1.103-.213-1.455-.639-.352-.43-.527-1.02-.527-1.77 0-.77.187-1.37.561-1.795.38-.43.908-.646 1.583-.646.21 0 .43.04.663.119.239.074.434.167.587.28V82.38h.579v5.641Zm-1.948.698c.289 0 .544-.06.765-.179.222-.119.423-.303.604-.553v-2.68a1.598 1.598 0 0 0-.561-.357 1.79 1.79 0 0 0-.69-.145c-.499 0-.881.17-1.148.51-.267.341-.4.832-.4 1.473 0 .624.122 1.103.366 1.438.244.329.598.493 1.064.493Zm8.963-.774c0 .26.02.468.06.62.045.148.121.282.229.4a.644.644 0 0 1-.204.137.507.507 0 0 1-.213.05c-.113 0-.21-.064-.29-.195a1.38 1.38 0 0 1-.144-.536 1.859 1.859 0 0 1-.706.57 2.188 2.188 0 0 1-.927.205c-.431 0-.777-.111-1.038-.332a1.117 1.117 0 0 1-.392-.885c0-.533.258-.95.775-1.25.521-.302 1.279-.475 2.271-.52v-.272c0-.375-.096-.653-.29-.834-.186-.187-.473-.28-.858-.28-.25 0-.483.053-.698.16-.21.103-.437.276-.68.52a.173.173 0 0 1-.128.05.345.345 0 0 1-.188-.067.898.898 0 0 1-.195-.213c.255-.3.544-.53.868-.689a2.376 2.376 0 0 1 1.046-.238c.528 0 .942.142 1.242.425.307.284.46.672.46 1.166v2.008Zm-2.153.774c.306 0 .596-.085.868-.255.272-.17.508-.411.706-.723v-1.055c-1.633.068-2.45.496-2.45 1.284 0 .5.292.749.876.749Zm3.698-6.339h.579v6.73h-.579v-6.73Zm2.277 0h.578v6.73h-.578v-6.73Zm6.529 6.16c.04.029.071.071.093.128a.322.322 0 0 1 .043.162c0 .107-.045.184-.136.23-.182.09-.417.136-.706.136-.369 0-.664-.1-.885-.298-.221-.205-.332-.477-.332-.817v-3.19h-.885v-.46h.885v-1.276h.578v1.276h1.226v.46h-1.226v3.08c0 .476.205.714.613.714.261 0 .505-.048.732-.145Zm3.276-4.194c.487 0 .873.142 1.157.425.283.278.425.658.425 1.14v3.2h-.578v-3.14c0-.369-.091-.653-.273-.851-.181-.198-.442-.298-.782-.298-.261 0-.536.06-.826.179a2.72 2.72 0 0 0-.774.46v3.65h-.578v-6.73h.578v2.526c.25-.181.516-.32.8-.417.283-.096.567-.144.851-.144Zm3.291.085h.579v4.68h-.579v-4.68Zm.256-.86c-.256 0-.383-.127-.383-.382v-.077c0-.255.127-.383.383-.383h.068c.255 0 .383.128.383.383v.077c0 .255-.128.382-.383.382h-.068Zm5.684 4.45c0 .346.003.582.008.707.012.119.034.226.068.323a.972.972 0 0 1-.442.102c-.085 0-.142-.06-.17-.179-.028-.124-.043-.368-.043-.731v-2.306c0-.397-.073-.684-.221-.86-.147-.181-.386-.272-.715-.272-.51 0-1.032.253-1.565.757v3.548h-.579v-3.088c0-.84-.034-1.339-.102-1.498.182-.085.326-.127.434-.127.165 0 .247.164.247.493v.077c.261-.216.522-.372.783-.468a2.33 2.33 0 0 1 .842-.153c.488 0 .851.133 1.089.4.244.26.366.66.366 1.2v2.075Zm5.278-3.837c.102 0 .176.028.221.085.051.051.077.136.077.255 0 .034-.006.103-.017.205-.42 0-.712.056-.877.17.227.272.341.61.341 1.012 0 1.09-.627 1.634-1.881 1.634-.385 0-.669.028-.85.085-.176.051-.264.133-.264.247 0 .255.456.382 1.37.382.641 0 1.137.108 1.489.324.351.215.527.522.527.919 0 .425-.19.751-.57.978-.374.233-.913.349-1.616.349-.664 0-1.169-.102-1.515-.306a.985.985 0 0 1-.519-.902c0-.227.077-.428.23-.604.159-.176.377-.306.655-.392V88.6a.788.788 0 0 1-.408-.247.673.673 0 0 1-.154-.442c0-.142.057-.267.171-.375a.88.88 0 0 1 .459-.23 1.526 1.526 0 0 1-.57-.535 1.487 1.487 0 0 1-.196-.758c0-1.111.641-1.667 1.923-1.667.403 0 .746.088 1.03.264.141-.131.295-.233.459-.307.17-.08.332-.119.485-.119Zm-2.085 2.884c.437 0 .749-.085.936-.255.193-.176.29-.465.29-.868 0-.397-.097-.686-.29-.868-.192-.181-.504-.272-.936-.272-.419 0-.728.094-.927.281-.193.181-.289.468-.289.86 0 .748.405 1.122 1.216 1.122Zm.069 1.72c-.483 0-.848.064-1.098.195-.244.13-.366.32-.366.57 0 .26.122.46.366.595.244.136.598.205 1.064.205.521 0 .916-.069 1.182-.205.267-.13.4-.329.4-.595a.608.608 0 0 0-.366-.587c-.238-.12-.632-.179-1.182-.179Zm4.568.407c-.255 0-.519-.042-.791-.127a2.133 2.133 0 0 1-.681-.34c-.181-.142-.272-.293-.272-.451 0-.074.023-.14.068-.196a.382.382 0 0 1 .187-.128c.204.267.426.463.664.587.238.12.525.179.859.179.358 0 .627-.082.808-.247a.827.827 0 0 0 .281-.655.596.596 0 0 0-.17-.442 1.007 1.007 0 0 0-.408-.256 8.285 8.285 0 0 0-.664-.195 7.339 7.339 0 0 1-.8-.247 1.349 1.349 0 0 1-.51-.357c-.136-.165-.204-.383-.204-.656 0-.289.076-.533.229-.731.153-.199.349-.346.587-.443a1.94 1.94 0 0 1 .732-.144c.357 0 .681.07.97.212.295.142.525.35.689.622-.136.141-.252.212-.349.212-.073 0-.144-.04-.212-.119a1.232 1.232 0 0 0-.477-.349 1.566 1.566 0 0 0-.646-.119c-.29 0-.519.068-.69.204-.17.136-.255.346-.255.63 0 .164.051.298.153.4.102.102.23.181.383.238.153.051.363.11.63.179.34.08.615.161.825.246.216.086.397.219.545.4.147.176.221.415.221.715 0 .42-.156.754-.468 1.004-.306.25-.718.375-1.234.375Zm8.748-5.01c.102 0 .176.027.221.084.051.051.077.136.077.255 0 .034-.006.103-.017.205-.42 0-.712.056-.876.17.226.272.34.61.34 1.012 0 1.09-.627 1.634-1.88 1.634-.386 0-.67.028-.851.085-.176.051-.264.133-.264.247 0 .255.457.382 1.37.382.641 0 1.137.108 1.489.324.351.215.527.522.527.919 0 .425-.19.751-.57.978-.374.233-.913.349-1.616.349-.664 0-1.169-.102-1.515-.306a.985.985 0 0 1-.519-.902c0-.227.077-.428.23-.604.159-.176.377-.306.655-.392V88.6a.788.788 0 0 1-.408-.247.673.673 0 0 1-.154-.442c0-.142.057-.267.171-.375a.88.88 0 0 1 .459-.23 1.526 1.526 0 0 1-.57-.535 1.497 1.497 0 0 1-.196-.758c0-1.111.641-1.667 1.923-1.667.403 0 .746.088 1.03.264.141-.131.295-.233.459-.307.17-.08.332-.119.485-.119Zm-2.084 2.883c.436 0 .748-.085.935-.255.193-.176.29-.465.29-.868 0-.397-.097-.686-.29-.868-.192-.181-.504-.272-.935-.272-.42 0-.729.094-.928.281-.193.181-.289.468-.289.86 0 .748.405 1.122 1.217 1.122Zm.068 1.72c-.483 0-.848.064-1.098.195-.244.13-.366.32-.366.57 0 .26.122.46.366.595.244.136.598.205 1.064.205.521 0 .916-.069 1.182-.205.267-.13.4-.329.4-.595a.608.608 0 0 0-.366-.587c-.238-.12-.632-.179-1.182-.179Zm5.087-4.417c.199 0 .349.034.451.102a.311.311 0 0 1 .162.29.37.37 0 0 1-.094.246c-.136-.073-.323-.11-.561-.11-.38 0-.687.15-.919.45-.227.301-.341.696-.341 1.183v2.578h-.578v-4.68h.578v.843a1.74 1.74 0 0 1 .554-.647c.238-.17.487-.255.748-.255Zm5.228 2.068c0 .13-.006.26-.017.391h-3.387c.012.59.142 1.05.392 1.379.255.329.607.493 1.055.493.306 0 .564-.06.774-.179.216-.119.394-.309.536-.57a.192.192 0 0 1 .179-.11c.09 0 .215.053.374.161-.125.369-.354.661-.689.877-.335.21-.726.315-1.174.315a2.03 2.03 0 0 1-1.089-.29 1.91 1.91 0 0 1-.706-.842c-.165-.369-.247-.803-.247-1.302 0-.754.187-1.344.561-1.77.375-.43.888-.646 1.54-.646.596 0 1.061.184 1.396.553.334.368.502.882.502 1.54Zm-.596-.068c0-1.021-.442-1.532-1.327-1.532-.431 0-.772.13-1.021.392-.25.26-.397.64-.443 1.14h2.791Zm5.357.068c0 .13-.006.26-.017.391h-3.387c.012.59.142 1.05.392 1.379.255.329.607.493 1.055.493.306 0 .564-.06.774-.179.216-.119.394-.309.536-.57a.192.192 0 0 1 .179-.11c.09 0 .215.053.374.161-.125.369-.354.661-.689.877-.335.21-.726.315-1.174.315a2.03 2.03 0 0 1-1.089-.29 1.919 1.919 0 0 1-.707-.842c-.164-.369-.246-.803-.246-1.302 0-.754.187-1.344.561-1.77.375-.43.888-.646 1.54-.646.596 0 1.061.184 1.396.553.334.368.502.882.502 1.54Zm-.596-.068c0-1.021-.442-1.532-1.327-1.532-.431 0-.772.13-1.021.392-.25.26-.397.64-.443 1.14h2.791Zm5.433 2.74c-.096 0-.207.005-.332.016a2.576 2.576 0 0 1-.187.017.274.274 0 0 1-.247-.136l-1.097-1.77c-.165-.266-.462-.39-.894-.374l-.391.017v2.23h-.578v-6.73h.578v3.973l.332-.009a.812.812 0 0 0 .306-.068.704.704 0 0 0 .23-.204l1.276-1.642h.715l-1.515 1.855a1.796 1.796 0 0 0-.076.093.56.56 0 0 1-.153.12c.278.073.479.21.604.408l1.429 2.203Zm1.429 0c-.256 0-.383-.128-.383-.383v-.077c0-.255.127-.383.383-.383h.068c.255 0 .382.128.382.383v.076c0 .256-.127.383-.382.383h-.068ZM45.132 110.193c-.391 0-.752-.059-1.08-.178a2.009 2.009 0 0 1-.783-.502c-.193-.21-.29-.44-.29-.689 0-.114.04-.205.12-.273a.53.53 0 0 1 .331-.119c.091.403.284.709.579.919.295.21.675.315 1.14.315.477 0 .86-.111 1.149-.332.295-.221.442-.51.442-.868a.884.884 0 0 0-.162-.536c-.102-.147-.272-.278-.51-.391a5.093 5.093 0 0 0-.987-.34c-.488-.131-.87-.267-1.149-.409-.278-.147-.479-.312-.604-.493a1.262 1.262 0 0 1-.178-.69c0-.476.175-.85.527-1.123.352-.278.837-.417 1.455-.417.539 0 .987.128 1.344.383.363.25.607.604.732 1.064-.074.074-.187.111-.34.111-.16 0-.275-.077-.35-.23a1.406 1.406 0 0 0-.57-.596 1.581 1.581 0 0 0-.816-.221c-.448 0-.788.088-1.021.264-.232.176-.349.431-.349.765 0 .171.043.315.128.434.085.114.227.219.425.315.199.097.48.196.843.298.606.17 1.063.332 1.37.485.311.153.53.326.654.519.125.193.188.445.188.757 0 .358-.091.672-.273.945a1.774 1.774 0 0 1-.782.621c-.335.142-.73.212-1.183.212Zm5.63-.655c.039.029.07.071.093.128a.328.328 0 0 1 .042.162c0 .107-.045.184-.136.229-.181.091-.417.136-.706.136-.369 0-.664-.099-.885-.297-.221-.205-.332-.477-.332-.817v-3.191h-.885v-.459h.885v-1.276h.579v1.276h1.225v.459h-1.225v3.08c0 .477.204.715.612.715.261 0 .505-.048.732-.145Zm4.322-.595c0 .261.02.468.06.621.044.147.121.281.229.4a.655.655 0 0 1-.204.136.507.507 0 0 1-.213.051c-.114 0-.21-.065-.29-.196a1.377 1.377 0 0 1-.144-.536 1.864 1.864 0 0 1-.706.57 2.19 2.19 0 0 1-.928.204c-.43 0-.777-.11-1.038-.331a1.118 1.118 0 0 1-.391-.885c0-.533.258-.95.774-1.251.522-.301 1.28-.474 2.272-.519v-.272c0-.375-.097-.653-.29-.834-.187-.187-.473-.281-.859-.281-.25 0-.482.054-.697.162-.21.102-.437.275-.681.519a.173.173 0 0 1-.128.051.348.348 0 0 1-.187-.068.894.894 0 0 1-.195-.213c.255-.3.544-.53.867-.689a2.374 2.374 0 0 1 1.047-.238c.527 0 .941.142 1.242.425.306.284.46.672.46 1.166v2.008Zm-2.153.774c.306 0 .596-.085.868-.255.272-.17.507-.411.706-.723v-1.055c-1.634.068-2.45.496-2.45 1.284 0 .499.292.749.876.749Zm5.757-.179c.04.029.07.071.093.128a.329.329 0 0 1 .043.162c0 .107-.045.184-.136.229-.182.091-.417.136-.706.136-.37 0-.664-.099-.885-.297-.221-.205-.332-.477-.332-.817v-3.191h-.885v-.459h.885v-1.276h.578v1.276h1.226v.459h-1.226v3.08c0 .477.205.715.613.715.261 0 .505-.048.732-.145Zm4.671-.391c0 .329.043.63.128.902a.73.73 0 0 1-.366.102.284.284 0 0 1-.264-.145c-.051-.102-.08-.283-.085-.544-.159.221-.383.4-.672.536-.29.13-.602.195-.936.195-.959 0-1.438-.524-1.438-1.574v-3.19h.578v3.131c0 .414.077.715.23.902.153.181.397.272.732.272.3 0 .581-.077.842-.23.267-.153.488-.368.664-.646v-3.429h.587v3.718Zm5.219-1.71c0 .13-.006.261-.017.391h-3.387c.012.59.142 1.05.392 1.378.255.329.607.494 1.055.494.306 0 .564-.06.774-.179.216-.119.394-.309.536-.57.04-.073.1-.11.179-.11.09 0 .215.054.374.161a1.646 1.646 0 0 1-.69.877c-.334.21-.725.314-1.173.314-.414 0-.777-.096-1.09-.289a1.914 1.914 0 0 1-.706-.842c-.164-.369-.246-.803-.246-1.302 0-.754.187-1.344.561-1.77.375-.431.888-.646 1.54-.646.596 0 1.06.184 1.396.553.334.368.502.882.502 1.54Zm-.596-.068c0-1.021-.442-1.532-1.327-1.532-.431 0-.772.131-1.021.392-.25.261-.397.641-.443 1.14h2.791Zm3.017 2.824c-.255 0-.52-.042-.791-.127a2.14 2.14 0 0 1-.681-.34c-.182-.142-.272-.293-.272-.451 0-.074.022-.139.068-.196a.382.382 0 0 1 .187-.128c.204.267.425.463.663.587.239.119.525.179.86.179.357 0 .627-.082.808-.247a.829.829 0 0 0 .28-.655.597.597 0 0 0-.17-.442 1.002 1.002 0 0 0-.408-.256 8.298 8.298 0 0 0-.663-.195 7.43 7.43 0 0 1-.8-.247 1.349 1.349 0 0 1-.51-.357c-.137-.165-.205-.383-.205-.655 0-.29.077-.534.23-.732.153-.199.349-.346.587-.443.238-.096.482-.144.732-.144.357 0 .68.071.97.212.295.142.524.349.689.622-.136.141-.253.212-.349.212-.074 0-.145-.039-.213-.119a1.237 1.237 0 0 0-.476-.349 1.574 1.574 0 0 0-.647-.119c-.29 0-.519.068-.689.204-.17.137-.255.346-.255.63 0 .164.05.298.153.4.102.102.23.181.383.238.153.051.363.111.63.179.34.079.615.161.825.247.215.085.397.218.544.399.148.176.221.414.221.715 0 .42-.156.755-.468 1.004-.306.25-.717.374-1.233.374Zm6.129-4.798c.08 0 .144.008.195.025a.725.725 0 0 1 .196.102c-.04.108-.077.318-.11.63a7.943 7.943 0 0 0-.052.876v4.952h-.578v-2.144c-.25.142-.47.236-.664.281a2.866 2.866 0 0 1-.731.076c-.624 0-1.115-.215-1.472-.646-.352-.437-.528-1.038-.528-1.804 0-.743.179-1.327.536-1.753.358-.431.848-.646 1.472-.646.306 0 .567.039.783.119.221.074.437.204.646.391.052-.306.154-.459.307-.459Zm-1.6 4.356c.255 0 .482-.031.68-.094.2-.068.39-.173.57-.314v-2.893c-.35-.437-.799-.655-1.343-.655-.466 0-.823.167-1.073.502-.249.334-.374.816-.374 1.446 0 .675.128 1.18.383 1.515.255.329.641.493 1.157.493Zm7.091-.604c0 .329.043.63.128.902a.73.73 0 0 1-.366.102.284.284 0 0 1-.264-.145c-.051-.102-.08-.283-.085-.544-.159.221-.383.4-.672.536-.29.13-.602.195-.936.195-.959 0-1.438-.524-1.438-1.574v-3.19h.578v3.131c0 .414.077.715.23.902.153.181.397.272.732.272.3 0 .581-.077.842-.23.267-.153.488-.368.664-.646v-3.429h.587v3.718Zm5.219-1.71c0 .13-.006.261-.017.391h-3.387c.012.59.142 1.05.392 1.378.255.329.607.494 1.055.494.306 0 .564-.06.774-.179.215-.119.394-.309.536-.57.04-.073.1-.11.179-.11.09 0 .215.054.374.161a1.647 1.647 0 0 1-.69.877c-.334.21-.725.314-1.173.314-.414 0-.778-.096-1.09-.289a1.914 1.914 0 0 1-.706-.842c-.164-.369-.246-.803-.246-1.302 0-.754.187-1.344.561-1.77.374-.431.888-.646 1.54-.646.596 0 1.06.184 1.395.553.335.368.503.882.503 1.54Zm-.596-.068c0-1.021-.443-1.532-1.327-1.532-.431 0-.772.131-1.021.392-.25.261-.397.641-.443 1.14h2.79Zm6.001-2.025c.63 0 1.115.204 1.456.612.346.409.519.987.519 1.736 0 .783-.18 1.395-.537 1.838-.357.442-.85.663-1.48.663-.601 0-1.072-.178-1.412-.536-.051.301-.15.451-.298.451a.816.816 0 0 1-.426-.102c.108-.238.162-.578.162-1.021v-5.607h.596v2.4c.414-.29.887-.434 1.42-.434Zm-.042 4.356c.454 0 .803-.173 1.047-.519.25-.352.374-.848.374-1.489 0-.601-.12-1.064-.358-1.387-.238-.323-.578-.485-1.02-.485-.522 0-.996.162-1.421.485v2.765c.334.42.794.63 1.378.63Zm6.759-.553c0 .329.042.63.127.902a.728.728 0 0 1-.366.102.284.284 0 0 1-.263-.145c-.052-.102-.08-.283-.085-.544-.16.221-.383.4-.673.536-.289.13-.6.195-.936.195-.958 0-1.438-.524-1.438-1.574v-3.19h.58v3.131c0 .414.076.715.229.902.153.181.397.272.731.272.301 0 .582-.077.843-.23.266-.153.488-.368.663-.646v-3.429h.588v3.718Zm2.878 1.046c-.255 0-.519-.042-.791-.127a2.15 2.15 0 0 1-.681-.34c-.181-.142-.272-.293-.272-.451 0-.074.023-.139.068-.196a.385.385 0 0 1 .187-.128c.205.267.426.463.664.587.238.119.525.179.859.179.358 0 .627-.082.809-.247a.829.829 0 0 0 .28-.655.595.595 0 0 0-.17-.442.998.998 0 0 0-.408-.256 8.291 8.291 0 0 0-.664-.195 7.493 7.493 0 0 1-.8-.247 1.352 1.352 0 0 1-.51-.357c-.136-.165-.204-.383-.204-.655 0-.29.076-.534.229-.732.154-.199.349-.346.588-.443.238-.096.482-.144.731-.144.358 0 .681.071.97.212.295.142.525.349.689.622-.136.141-.252.212-.348.212-.074 0-.145-.039-.213-.119a1.234 1.234 0 0 0-.477-.349 1.57 1.57 0 0 0-.646-.119c-.29 0-.519.068-.689.204-.171.137-.256.346-.256.63 0 .164.051.298.153.4.103.102.23.181.383.238.154.051.363.111.63.179.34.079.615.161.825.247.216.085.397.218.545.399.147.176.221.414.221.715 0 .42-.156.755-.468 1.004-.306.25-.717.374-1.234.374Zm4.955-.655c.04.029.071.071.094.128a.332.332 0 0 1 .042.162c0 .107-.045.184-.136.229-.181.091-.417.136-.706.136-.369 0-.664-.099-.885-.297-.221-.205-.332-.477-.332-.817v-3.191h-.885v-.459h.885v-1.276h.579v1.276h1.225v.459h-1.225v3.08c0 .477.204.715.612.715.261 0 .505-.048.732-.145Zm2.357.655c-.255 0-.519-.042-.791-.127a2.15 2.15 0 0 1-.681-.34c-.181-.142-.272-.293-.272-.451 0-.074.023-.139.068-.196a.38.38 0 0 1 .187-.128c.204.267.426.463.664.587.238.119.525.179.859.179.358 0 .627-.082.808-.247a.826.826 0 0 0 .281-.655.595.595 0 0 0-.17-.442 1.005 1.005 0 0 0-.408-.256 8.291 8.291 0 0 0-.664-.195 7.42 7.42 0 0 1-.8-.247 1.352 1.352 0 0 1-.51-.357c-.136-.165-.204-.383-.204-.655 0-.29.076-.534.229-.732.153-.199.349-.346.587-.443.239-.096.482-.144.732-.144.357 0 .681.071.97.212.295.142.525.349.689.622-.136.141-.252.212-.349.212-.073 0-.144-.039-.212-.119a1.234 1.234 0 0 0-.477-.349 1.572 1.572 0 0 0-.646-.119c-.29 0-.519.068-.69.204-.17.137-.255.346-.255.63 0 .164.051.298.153.4.102.102.23.181.383.238.153.051.363.111.63.179.34.079.615.161.825.247.216.085.397.218.545.399.147.176.221.414.221.715 0 .42-.156.755-.468 1.004-.306.25-.718.374-1.234.374Zm7.114-4.849c.63 0 1.115.204 1.455.612.346.409.519.987.519 1.736 0 .783-.178 1.395-.536 1.838-.357.442-.85.663-1.48.663-.601 0-1.072-.178-1.412-.536-.051.301-.151.451-.298.451a.82.82 0 0 1-.426-.102c.108-.238.162-.578.162-1.021v-5.607h.596v2.4c.414-.29.887-.434 1.42-.434Zm-.042 4.356c.454 0 .803-.173 1.046-.519.25-.352.375-.848.375-1.489 0-.601-.119-1.064-.358-1.387-.238-.323-.578-.485-1.021-.485-.521 0-.995.162-1.42.485v2.765c.334.42.794.63 1.378.63Zm6.784-2.263c0 .13-.006.261-.017.391h-3.386c.011.59.142 1.05.391 1.378.255.329.607.494 1.055.494.306 0 .565-.06.774-.179.216-.119.395-.309.536-.57.04-.073.1-.11.179-.11.091 0 .216.054.374.161a1.64 1.64 0 0 1-.689.877c-.334.21-.726.314-1.174.314-.414 0-.777-.096-1.089-.289a1.913 1.913 0 0 1-.706-.842c-.165-.369-.247-.803-.247-1.302 0-.754.187-1.344.562-1.77.374-.431.887-.646 1.54-.646.595 0 1.06.184 1.395.553.335.368.502.882.502 1.54Zm-.596-.068c0-1.021-.442-1.532-1.327-1.532-.431 0-.771.131-1.021.392-.249.261-.397.641-.442 1.14h2.79Zm3.451 2.824c-.686 0-1.222-.215-1.608-.646-.38-.431-.57-1.033-.57-1.804 0-.488.085-.91.255-1.268.176-.363.426-.641.749-.833.323-.199.703-.298 1.14-.298.522 0 .95.133 1.285.4.34.261.539.618.595 1.072a1.486 1.486 0 0 1-.425.102c-.057 0-.099-.014-.128-.043a.83.83 0 0 1-.076-.204.987.987 0 0 0-.426-.621c-.221-.153-.496-.23-.825-.23-.306 0-.578.08-.817.238a1.568 1.568 0 0 0-.544.681 2.512 2.512 0 0 0-.187 1.004c0 .601.141 1.081.425 1.438.289.357.675.536 1.157.536.369 0 .684-.085.945-.255.26-.176.456-.431.587-.766.079 0 .144.034.195.102a.36.36 0 0 1 .085.238c0 .199-.085.389-.255.57a1.75 1.75 0 0 1-.672.426 2.422 2.422 0 0 1-.885.161Zm6.218-1.25c0 .261.02.468.059.621.046.147.122.281.23.4a.662.662 0 0 1-.204.136.51.51 0 0 1-.213.051c-.113 0-.21-.065-.289-.196a1.376 1.376 0 0 1-.145-.536 1.863 1.863 0 0 1-.706.57 2.19 2.19 0 0 1-.927.204c-.431 0-.777-.11-1.038-.331a1.118 1.118 0 0 1-.392-.885c0-.533.258-.95.775-1.251.521-.301 1.279-.474 2.271-.519v-.272c0-.375-.096-.653-.289-.834-.187-.187-.474-.281-.859-.281-.25 0-.482.054-.698.162-.21.102-.437.275-.681.519a.172.172 0 0 1-.127.051.347.347 0 0 1-.187-.068.869.869 0 0 1-.196-.213c.255-.3.544-.53.868-.689a2.37 2.37 0 0 1 1.046-.238c.528 0 .942.142 1.242.425.307.284.46.672.46 1.166v2.008Zm-2.153.774c.307 0 .596-.085.868-.255.272-.17.508-.411.706-.723v-1.055c-1.633.068-2.45.496-2.45 1.284 0 .499.292.749.876.749Zm8.471-4.373c.403 0 .729.13.979.391.255.261.383.599.383 1.013v3.36h-.588v-3.335c0-.329-.073-.573-.221-.732-.147-.158-.371-.238-.672-.238-.482 0-.93.221-1.344.664a1.9 1.9 0 0 1 .017.204v3.437h-.579v-3.42c0-.267-.082-.479-.246-.638-.159-.165-.372-.247-.639-.247-.244 0-.476.054-.697.162a2.362 2.362 0 0 0-.655.519v3.624h-.579v-3.088c0-.84-.034-1.339-.102-1.498.181-.085.326-.127.434-.127.164 0 .247.164.247.493v.034c.215-.204.436-.351.663-.442.233-.091.497-.136.791-.136.267 0 .505.062.715.187.21.119.372.284.485.493.244-.238.491-.411.74-.519.256-.107.545-.161.868-.161Zm6.561 2.093c0 .13-.006.261-.017.391h-3.386c.011.59.142 1.05.391 1.378.255.329.607.494 1.055.494.306 0 .565-.06.774-.179.216-.119.395-.309.536-.57.04-.073.1-.11.179-.11.091 0 .216.054.374.161a1.64 1.64 0 0 1-.689.877c-.334.21-.726.314-1.174.314-.414 0-.777-.096-1.089-.289a1.913 1.913 0 0 1-.706-.842c-.165-.369-.247-.803-.247-1.302 0-.754.187-1.344.562-1.77.374-.431.887-.646 1.54-.646.595 0 1.06.184 1.395.553.335.368.502.882.502 1.54Zm-.596-.068c0-1.021-.442-1.532-1.327-1.532-.431 0-.771.131-1.021.392-.249.261-.397.641-.442 1.14h2.79Zm5.917-2.025c.635 0 1.12.21 1.455.629.335.414.502 1.01.502 1.787 0 .494-.088.925-.264 1.293-.17.363-.42.644-.749.843-.323.198-.703.297-1.14.297a3.21 3.21 0 0 1-.655-.068 3 3 0 0 1-.578-.161v2.016h-.579v-4.96c0-.84-.034-1.339-.102-1.498.181-.085.326-.127.434-.127.164 0 .247.164.247.493v.034c.187-.187.402-.329.646-.425.25-.102.511-.153.783-.153Zm-.196 4.373c.488 0 .865-.17 1.132-.511.272-.34.408-.822.408-1.446 0-1.293-.448-1.94-1.344-1.94-.261 0-.516.06-.766.179a2.161 2.161 0 0 0-.663.51v2.953c.351.17.762.255 1.233.255Zm4.822.476c-.658 0-1.155-.204-1.489-.612-.335-.409-.502-1.015-.502-1.821 0-1.611.663-2.416 1.991-2.416 1.327 0 1.99.805 1.99 2.416 0 .806-.167 1.412-.502 1.821-.334.408-.83.612-1.488.612Zm0-.476c.482 0 .833-.156 1.055-.468.226-.318.34-.814.34-1.489 0-.669-.114-1.16-.34-1.472-.222-.312-.573-.468-1.055-.468-.483 0-.837.156-1.064.468-.221.312-.332.803-.332 1.472 0 .675.111 1.171.332 1.489.227.312.581.468 1.064.468Zm5.12-4.373c.636 0 1.121.21 1.455.629.335.414.502 1.01.502 1.787 0 .494-.088.925-.264 1.293-.17.363-.419.644-.748.843-.324.198-.704.297-1.14.297a3.22 3.22 0 0 1-.656-.068 3 3 0 0 1-.578-.161v2.016h-.579v-4.96c0-.84-.034-1.339-.102-1.498.182-.085.326-.127.434-.127.165 0 .247.164.247.493v.034a1.88 1.88 0 0 1 .647-.425c.249-.102.51-.153.782-.153Zm-.195 4.373c.487 0 .865-.17 1.131-.511.272-.34.409-.822.409-1.446 0-1.293-.449-1.94-1.345-1.94-.261 0-.516.06-.765.179a2.165 2.165 0 0 0-.664.51v2.953c.352.17.763.255 1.234.255Zm6.888-.57c0 .329.043.63.128.902a.73.73 0 0 1-.366.102.285.285 0 0 1-.264-.145c-.051-.102-.079-.283-.085-.544-.159.221-.383.4-.672.536-.289.13-.601.195-.936.195-.958 0-1.438-.524-1.438-1.574v-3.19h.579v3.131c0 .414.076.715.23.902.153.181.397.272.731.272.301 0 .582-.077.843-.23.266-.153.487-.368.663-.646v-3.429h.587v3.718Zm1.645-5.769h.579v6.73h-.579v-6.73Zm5.476 5.565c0 .261.02.468.06.621.045.147.122.281.229.4a.64.64 0 0 1-.204.136.502.502 0 0 1-.212.051c-.114 0-.21-.065-.29-.196a1.378 1.378 0 0 1-.144-.536 1.867 1.867 0 0 1-.707.57 2.19 2.19 0 0 1-.927.204c-.431 0-.777-.11-1.038-.331a1.117 1.117 0 0 1-.391-.885c0-.533.258-.95.774-1.251.522-.301 1.279-.474 2.272-.519v-.272c0-.375-.097-.653-.29-.834-.187-.187-.473-.281-.859-.281-.25 0-.482.054-.698.162-.21.102-.436.275-.68.519a.174.174 0 0 1-.128.051.347.347 0 0 1-.187-.068.91.91 0 0 1-.196-.213c.255-.3.545-.53.868-.689a2.375 2.375 0 0 1 1.047-.238c.527 0 .941.142 1.242.425.306.284.459.672.459 1.166v2.008Zm-2.152.774c.306 0 .595-.085.867-.255.273-.17.508-.411.707-.723v-1.055c-1.634.068-2.451.496-2.451 1.284 0 .499.292.749.877.749Zm5.45-4.348c.199 0 .349.034.451.102a.312.312 0 0 1 .162.29c0 .09-.031.173-.094.246-.136-.073-.323-.11-.561-.11-.38 0-.687.15-.919.451-.227.3-.341.695-.341 1.182v2.578h-.578v-4.679h.578v.842c.131-.261.315-.476.553-.646.239-.171.488-.256.749-.256Zm2.079 4.739c-.255 0-.382-.127-.382-.382v-.077c0-.255.127-.383.382-.383h.069c.255 0 .382.128.382.383v.077c0 .255-.127.382-.382.382h-.069ZM25.4 126.154c.023.102.034.17.034.204a.332.332 0 0 1-.076.23c-.051.051-.128.076-.23.076h-1.565v5.445h-.613v-5.445h-1.838v-.51H25.4Zm4.554 3.284c0 .13-.006.261-.017.391H26.55c.012.59.142 1.05.392 1.378.255.329.607.494 1.055.494.306 0 .564-.06.774-.179.216-.119.394-.309.536-.57.04-.073.1-.11.179-.11.09 0 .215.054.374.161a1.647 1.647 0 0 1-.689.877c-.335.21-.726.314-1.174.314-.414 0-.777-.096-1.09-.289a1.914 1.914 0 0 1-.705-.842c-.165-.369-.247-.803-.247-1.302 0-.754.187-1.344.562-1.77.374-.431.887-.646 1.54-.646.595 0 1.06.184 1.395.553.334.368.502.882.502 1.54Zm-.596-.068c0-1.021-.442-1.532-1.327-1.532-.431 0-.771.131-1.021.392-.25.261-.397.641-.443 1.14h2.791Zm3.45 2.824c-.685 0-1.221-.215-1.607-.646-.38-.431-.57-1.033-.57-1.804 0-.488.085-.91.255-1.268.176-.363.425-.641.749-.833.323-.199.703-.298 1.14-.298.522 0 .95.133 1.285.4.34.261.538.618.595 1.072a1.466 1.466 0 0 1-.425.102c-.057 0-.1-.014-.128-.043a.813.813 0 0 1-.076-.204.987.987 0 0 0-.426-.621c-.221-.153-.496-.23-.825-.23-.306 0-.579.08-.817.238a1.568 1.568 0 0 0-.544.681 2.515 2.515 0 0 0-.188 1.004c0 .601.142 1.081.426 1.438.29.357.675.536 1.157.536.369 0 .683-.085.944-.255.261-.176.457-.431.587-.766.08 0 .145.034.196.102a.362.362 0 0 1 .085.238c0 .199-.085.389-.255.57a1.758 1.758 0 0 1-.672.426 2.42 2.42 0 0 1-.885.161Zm5.172-4.849c.488 0 .874.142 1.157.425.284.278.426.658.426 1.14v3.199h-.579v-3.139c0-.369-.09-.652-.272-.851-.182-.199-.443-.298-.783-.298-.26 0-.536.06-.825.179-.29.113-.548.266-.774.459v3.65h-.58v-6.73h.58v2.527c.25-.181.516-.32.8-.417a2.64 2.64 0 0 1 .85-.144Zm6.78 3.675c0 .346.003.582.009.707.011.119.034.226.068.323a.976.976 0 0 1-.443.102c-.085 0-.141-.06-.17-.179-.028-.125-.042-.368-.042-.731v-2.306c0-.397-.074-.684-.222-.86-.147-.181-.385-.272-.714-.272-.51 0-1.033.253-1.566.757v3.548h-.578v-3.088c0-.84-.034-1.339-.102-1.498.181-.085.326-.127.434-.127.164 0 .246.164.246.493v.077c.261-.216.522-.372.783-.468.267-.102.547-.153.842-.153.488 0 .851.133 1.09.4.243.261.365.66.365 1.199v2.076Zm1.705-3.59h.578v4.679h-.578v-4.679Zm.255-.86c-.255 0-.383-.127-.383-.382v-.077c0-.255.128-.383.383-.383h.068c.255 0 .383.128.383.383v.077c0 .255-.128.382-.383.382h-.068Zm3.779 5.624c-.687 0-1.223-.215-1.608-.646-.38-.431-.57-1.033-.57-1.804 0-.488.085-.91.255-1.268.175-.363.425-.641.748-.833.324-.199.704-.298 1.14-.298.522 0 .95.133 1.285.4.34.261.54.618.596 1.072a1.466 1.466 0 0 1-.426.102c-.056 0-.099-.014-.127-.043a.813.813 0 0 1-.077-.204.987.987 0 0 0-.425-.621c-.221-.153-.496-.23-.825-.23-.307 0-.58.08-.817.238a1.567 1.567 0 0 0-.545.681 2.515 2.515 0 0 0-.187 1.004c0 .601.142 1.081.425 1.438.29.357.675.536 1.157.536.37 0 .684-.085.945-.255.26-.176.457-.431.587-.766.08 0 .145.034.196.102a.362.362 0 0 1 .085.238c0 .199-.085.389-.255.57a1.758 1.758 0 0 1-.673.426 2.421 2.421 0 0 1-.885.161Zm6.217-1.25c0 .261.02.468.06.621.045.147.122.281.23.4a.655.655 0 0 1-.205.136.507.507 0 0 1-.212.051c-.114 0-.21-.065-.29-.196a1.377 1.377 0 0 1-.144-.536 1.864 1.864 0 0 1-.706.57 2.19 2.19 0 0 1-.928.204c-.431 0-.777-.11-1.038-.331a1.118 1.118 0 0 1-.391-.885c0-.533.258-.95.774-1.251.522-.301 1.279-.474 2.272-.519v-.272c0-.375-.097-.653-.29-.834-.187-.187-.473-.281-.859-.281-.25 0-.482.054-.698.162-.21.102-.436.275-.68.519a.173.173 0 0 1-.128.051.348.348 0 0 1-.187-.068.894.894 0 0 1-.196-.213c.255-.3.545-.53.868-.689a2.374 2.374 0 0 1 1.047-.238c.527 0 .941.142 1.242.425.306.284.46.672.46 1.166v2.008Zm-2.152.774c.306 0 .595-.085.867-.255.273-.17.508-.411.707-.723v-1.055c-1.634.068-2.45.496-2.45 1.284 0 .499.291.749.876.749Zm3.697-6.339h.579v6.73h-.579v-6.73Zm9.244 1.966c.403 0 .729.13.978.391.255.261.383.599.383 1.013v3.36h-.587v-3.335c0-.329-.074-.573-.221-.732-.148-.158-.372-.238-.672-.238-.483 0-.93.221-1.345.664.012.091.017.159.017.204v3.437h-.578v-3.42c0-.267-.082-.479-.247-.638-.159-.165-.371-.247-.638-.247a1.57 1.57 0 0 0-.698.162 2.37 2.37 0 0 0-.655.519v3.624h-.578v-3.088c0-.84-.035-1.339-.102-1.498.181-.085.326-.127.433-.127.165 0 .247.164.247.493v.034c.216-.204.437-.351.664-.442.232-.091.496-.136.791-.136.267 0 .505.062.715.187.21.119.371.284.485.493.244-.238.49-.411.74-.519.255-.107.544-.161.868-.161Zm6.56 2.093c0 .13-.005.261-.016.391h-3.387c.012.59.142 1.05.392 1.378.255.329.607.494 1.055.494.306 0 .564-.06.774-.179.216-.119.394-.309.536-.57.04-.073.1-.11.179-.11.09 0 .215.054.374.161a1.646 1.646 0 0 1-.69.877c-.334.21-.725.314-1.173.314-.414 0-.777-.096-1.09-.289a1.914 1.914 0 0 1-.706-.842c-.164-.369-.246-.803-.246-1.302 0-.754.187-1.344.561-1.77.375-.431.888-.646 1.54-.646.596 0 1.06.184 1.396.553.334.368.502.882.502 1.54Zm-.595-.068c0-1.021-.442-1.532-1.327-1.532-.431 0-.772.131-1.021.392-.25.261-.397.641-.443 1.14h2.791Zm3.842 2.169c.04.029.071.071.094.128a.329.329 0 0 1 .042.162c0 .107-.045.184-.136.229-.181.091-.417.136-.706.136-.369 0-.664-.099-.885-.297-.221-.205-.332-.477-.332-.817v-3.191h-.885v-.459h.885v-1.276h.579v1.276h1.225v.459h-1.225v3.08c0 .477.204.715.612.715.261 0 .505-.048.732-.145Zm3.276-4.194c.488 0 .874.142 1.157.425.284.278.425.658.425 1.14v3.199h-.578v-3.139c0-.369-.09-.652-.272-.851-.182-.199-.443-.298-.783-.298-.261 0-.536.06-.825.179-.29.113-.548.266-.775.459v3.65h-.578v-6.73h.578v2.527c.25-.181.517-.32.8-.417a2.64 2.64 0 0 1 .851-.144Zm4.687 4.849c-.658 0-1.154-.204-1.489-.612-.335-.409-.502-1.015-.502-1.821 0-1.611.664-2.416 1.991-2.416s1.991.805 1.991 2.416c0 .806-.167 1.412-.502 1.821-.335.408-.831.612-1.489.612Zm0-.476c.482 0 .834-.156 1.055-.468.227-.318.34-.814.34-1.489 0-.669-.113-1.16-.34-1.472-.221-.312-.573-.468-1.055-.468s-.837.156-1.064.468c-.22.312-.331.803-.331 1.472 0 .675.11 1.171.332 1.489.226.312.58.468 1.063.468Zm6.644-.698c0 .182.011.366.034.553.022.188.05.344.085.468a.914.914 0 0 1-.391.102c-.154 0-.25-.192-.29-.578a1.673 1.673 0 0 1-.612.485c-.222.096-.494.144-.817.144-.618 0-1.103-.212-1.455-.638-.352-.431-.528-1.021-.528-1.769 0-.772.188-1.37.562-1.796.38-.431.907-.646 1.582-.646.21 0 .432.039.664.119.238.074.434.167.587.281v-2.366h.579v5.641Zm-1.949.698c.29 0 .545-.06.766-.179a1.83 1.83 0 0 0 .604-.553v-2.68a1.586 1.586 0 0 0-.561-.357 1.78 1.78 0 0 0-.69-.145c-.499 0-.882.17-1.148.511-.267.34-.4.831-.4 1.472 0 .624.122 1.103.366 1.438.244.329.598.493 1.063.493Zm4.805.476a2.65 2.65 0 0 1-.792-.127 2.14 2.14 0 0 1-.68-.34c-.182-.142-.273-.293-.273-.451 0-.074.023-.139.069-.196a.382.382 0 0 1 .187-.128c.204.267.425.463.663.587.239.119.525.179.86.179.357 0 .626-.082.808-.247a.829.829 0 0 0 .28-.655.597.597 0 0 0-.17-.442 1.001 1.001 0 0 0-.408-.256 8.298 8.298 0 0 0-.663-.195 7.43 7.43 0 0 1-.8-.247 1.349 1.349 0 0 1-.51-.357c-.137-.165-.205-.383-.205-.655 0-.29.077-.534.23-.732.153-.199.349-.346.587-.443.238-.096.482-.144.731-.144.358 0 .681.071.97.212.295.142.525.349.69.622-.136.141-.253.212-.35.212-.073 0-.144-.039-.212-.119a1.236 1.236 0 0 0-.476-.349 1.574 1.574 0 0 0-.647-.119c-.29 0-.519.068-.69.204-.17.137-.254.346-.254.63 0 .164.05.298.153.4.102.102.23.181.383.238.153.051.363.111.63.179.34.079.615.161.825.247.215.085.397.218.544.399.148.176.221.414.221.715 0 .42-.156.755-.468 1.004-.306.25-.717.374-1.233.374Zm6.416-6.738c.261 0 .46.031.596.093.136.063.204.154.204.273a.466.466 0 0 1-.034.178c-.017.051-.04.077-.068.077a1.297 1.297 0 0 0-.587-.128c-.238 0-.42.074-.545.222-.124.147-.187.36-.187.638v.621h1.055v.442h-1.055v4.237h-.578v-4.237h-.877v-.442h.877v-.63c0-.408.107-.734.323-.978.221-.244.513-.366.876-.366Zm3.003 6.738c-.658 0-1.154-.204-1.489-.612-.334-.409-.502-1.015-.502-1.821 0-1.611.664-2.416 1.991-2.416 1.328 0 1.991.805 1.991 2.416 0 .806-.167 1.412-.502 1.821-.334.408-.831.612-1.489.612Zm0-.476c.482 0 .834-.156 1.055-.468.227-.318.341-.814.341-1.489 0-.669-.114-1.16-.341-1.472-.221-.312-.573-.468-1.055-.468s-.836.156-1.063.468c-.221.312-.332.803-.332 1.472 0 .675.111 1.171.332 1.489.227.312.581.468 1.063.468Zm4.934-4.348c.198 0 .349.034.451.102a.312.312 0 0 1 .161.29c0 .09-.031.173-.093.246-.136-.073-.323-.11-.562-.11-.38 0-.686.15-.919.451-.226.3-.34.695-.34 1.182v2.578h-.578v-4.679h.578v.842c.131-.261.315-.476.553-.646.238-.171.488-.256.749-.256Zm5.081 4.824c-.255 0-.519-.042-.791-.127a2.139 2.139 0 0 1-.681-.34c-.181-.142-.272-.293-.272-.451 0-.074.023-.139.068-.196a.38.38 0 0 1 .187-.128c.204.267.425.463.664.587.238.119.524.179.859.179.357 0 .627-.082.808-.247a.826.826 0 0 0 .281-.655.6.6 0 0 0-.17-.442 1.005 1.005 0 0 0-.408-.256 8.291 8.291 0 0 0-.664-.195 7.42 7.42 0 0 1-.8-.247 1.344 1.344 0 0 1-.51-.357c-.136-.165-.205-.383-.205-.655 0-.29.077-.534.23-.732.153-.199.349-.346.587-.443a1.94 1.94 0 0 1 .732-.144c.357 0 .681.071.97.212.295.142.525.349.689.622-.136.141-.252.212-.349.212-.074 0-.144-.039-.212-.119a1.241 1.241 0 0 0-.477-.349 1.574 1.574 0 0 0-.647-.119c-.289 0-.519.068-.689.204-.17.137-.255.346-.255.63 0 .164.051.298.153.4.102.102.23.181.383.238.153.051.363.111.63.179.34.079.615.161.825.247.215.085.397.218.544.399.148.176.222.414.222.715 0 .42-.156.755-.468 1.004-.307.25-.718.374-1.234.374Zm5.048-4.849c.488 0 .874.142 1.158.425.283.278.425.658.425 1.14v3.199h-.579v-3.139c0-.369-.09-.652-.272-.851-.181-.199-.442-.298-.783-.298-.261 0-.536.06-.825.179a2.706 2.706 0 0 0-.774.459v3.65h-.579v-6.73h.579v2.527a3.01 3.01 0 0 1 .8-.417c.283-.096.567-.144.85-.144Zm4.688 4.849c-.658 0-1.155-.204-1.489-.612-.335-.409-.502-1.015-.502-1.821 0-1.611.663-2.416 1.991-2.416 1.327 0 1.99.805 1.99 2.416 0 .806-.167 1.412-.502 1.821-.334.408-.831.612-1.488.612Zm0-.476c.482 0 .833-.156 1.055-.468.226-.318.34-.814.34-1.489 0-.669-.114-1.16-.34-1.472-.222-.312-.573-.468-1.055-.468-.483 0-.837.156-1.064.468-.221.312-.332.803-.332 1.472 0 .675.111 1.171.332 1.489.227.312.581.468 1.064.468Zm8.472-4.288c-.226 1.724-.657 3.284-1.293 4.679h-.527a17.336 17.336 0 0 1-.706-1.769 11.77 11.77 0 0 1-.4-1.668 12.07 12.07 0 0 1-.417 1.693 16.054 16.054 0 0 1-.706 1.744h-.545a12.928 12.928 0 0 1-.757-2.076 22.497 22.497 0 0 1-.511-2.603h.596c.096.828.218 1.554.366 2.178.153.618.351 1.194.595 1.727.545-1.117.914-2.419 1.106-3.905h.562c.204 1.537.57 2.844 1.097 3.922.494-1.18.786-2.487.877-3.922h.663Zm1.258 0h.578v4.679h-.578v-4.679Zm.255-.86c-.255 0-.383-.127-.383-.382v-.077c0-.255.128-.383.383-.383h.068c.255 0 .383.128.383.383v.077c0 .255-.128.382-.383.382h-.068Zm5.684 4.45c0 .346.003.582.009.707.011.119.034.226.068.323a.978.978 0 0 1-.443.102c-.085 0-.141-.06-.17-.179-.028-.125-.042-.368-.042-.731v-2.306c0-.397-.074-.684-.222-.86-.147-.181-.385-.272-.714-.272-.511 0-1.033.253-1.566.757v3.548h-.578v-3.088c0-.84-.034-1.339-.102-1.498.181-.085.326-.127.433-.127.165 0 .247.164.247.493v.077c.261-.216.522-.372.783-.468.267-.102.547-.153.842-.153.488 0 .851.133 1.089.4.244.261.366.66.366 1.199v2.076Zm5.278-3.837c.102 0 .176.028.222.085.051.051.076.136.076.255 0 .034-.006.103-.017.205-.42 0-.712.056-.876.17.227.272.34.61.34 1.012 0 1.089-.627 1.634-1.88 1.634-.386 0-.67.028-.851.085-.176.051-.264.133-.264.247 0 .255.457.383 1.37.383.641 0 1.137.107 1.489.323.352.215.527.522.527.919 0 .425-.19.751-.57.978-.374.233-.913.349-1.616.349-.664 0-1.169-.102-1.515-.306a.986.986 0 0 1-.519-.902c0-.227.077-.428.23-.604.159-.176.377-.307.655-.392v-.025a.787.787 0 0 1-.408-.247.677.677 0 0 1-.153-.442c0-.142.056-.267.17-.375a.877.877 0 0 1 .459-.229 1.534 1.534 0 0 1-.57-.536 1.499 1.499 0 0 1-.195-.758c0-1.111.641-1.667 1.922-1.667.403 0 .746.088 1.03.263.142-.13.295-.232.459-.306.171-.079.332-.119.485-.119Zm-2.084 2.884c.437 0 .749-.085.936-.255.193-.176.289-.465.289-.868 0-.397-.096-.686-.289-.868-.193-.181-.505-.272-.936-.272-.42 0-.729.094-.928.281-.192.181-.289.468-.289.859 0 .749.406 1.123 1.217 1.123Zm.068 1.719c-.482 0-.848.065-1.098.196-.244.13-.366.32-.366.57 0 .261.122.459.366.595.244.137.599.205 1.064.205.522 0 .916-.068 1.183-.205.266-.13.399-.329.399-.595a.608.608 0 0 0-.365-.587c-.239-.119-.633-.179-1.183-.179Zm8.991-.766c0 .182.012.366.034.553.023.188.051.344.085.468a.91.91 0 0 1-.391.102c-.153 0-.25-.192-.289-.578a1.682 1.682 0 0 1-.613.485c-.221.096-.493.144-.817.144-.618 0-1.103-.212-1.455-.638-.351-.431-.527-1.021-.527-1.769 0-.772.187-1.37.561-1.796.38-.431.908-.646 1.583-.646.21 0 .431.039.664.119.238.074.433.167.587.281v-2.366h.578v5.641Zm-1.948.698c.289 0 .544-.06.766-.179.221-.119.422-.303.604-.553v-2.68a1.59 1.59 0 0 0-.562-.357 1.776 1.776 0 0 0-.689-.145c-.499 0-.882.17-1.149.511-.266.34-.4.831-.4 1.472 0 .624.122 1.103.366 1.438.244.329.599.493 1.064.493Zm7.144-2.28c0 .13-.006.261-.017.391h-3.386c.011.59.141 1.05.391 1.378.255.329.607.494 1.055.494.306 0 .564-.06.774-.179.216-.119.394-.309.536-.57a.193.193 0 0 1 .179-.11c.091 0 .215.054.374.161a1.645 1.645 0 0 1-.689.877c-.335.21-.726.314-1.174.314-.414 0-.777-.096-1.089-.289a1.913 1.913 0 0 1-.706-.842c-.165-.369-.247-.803-.247-1.302 0-.754.187-1.344.561-1.77.375-.431.888-.646 1.54-.646.596 0 1.061.184 1.396.553.334.368.502.882.502 1.54Zm-.596-.068c0-1.021-.442-1.532-1.327-1.532-.431 0-.771.131-1.021.392-.25.261-.397.641-.442 1.14h2.79Zm3.723-2.025c.636 0 1.12.21 1.455.629.335.414.502 1.01.502 1.787 0 .494-.088.925-.264 1.293-.17.363-.419.644-.748.843-.324.198-.704.297-1.14.297a3.22 3.22 0 0 1-.656-.068 3 3 0 0 1-.578-.161v2.016h-.579v-4.96c0-.84-.034-1.339-.102-1.498.182-.085.326-.127.434-.127.165 0 .247.164.247.493v.034c.187-.187.403-.329.646-.425.25-.102.511-.153.783-.153Zm-.195 4.373c.487 0 .865-.17 1.131-.511.272-.34.409-.822.409-1.446 0-1.293-.449-1.94-1.345-1.94-.261 0-.516.06-.766.179a2.173 2.173 0 0 0-.663.51v2.953c.352.17.763.255 1.234.255Zm5.399-.179c.04.029.071.071.094.128a.332.332 0 0 1 .042.162c0 .107-.045.184-.136.229-.181.091-.417.136-.706.136-.369 0-.663-.099-.885-.297-.221-.205-.332-.477-.332-.817v-3.191h-.884v-.459h.884v-1.276h.579v1.276h1.225v.459h-1.225v3.08c0 .477.204.715.613.715.261 0 .504-.048.731-.145Zm3.276-4.194c.488 0 .874.142 1.157.425.284.278.426.658.426 1.14v3.199h-.579v-3.139c0-.369-.091-.652-.272-.851-.182-.199-.442-.298-.783-.298-.261 0-.536.06-.825.179a2.706 2.706 0 0 0-.774.459v3.65h-.579v-6.73h.579v2.527c.249-.181.516-.32.799-.417.284-.096.568-.144.851-.144Zm6.881 4.849c-.658 0-1.154-.204-1.489-.612-.335-.409-.502-1.015-.502-1.821 0-1.611.664-2.416 1.991-2.416s1.991.805 1.991 2.416c0 .806-.168 1.412-.502 1.821-.335.408-.831.612-1.489.612Zm0-.476c.482 0 .834-.156 1.055-.468.227-.318.34-.814.34-1.489 0-.669-.113-1.16-.34-1.472-.221-.312-.573-.468-1.055-.468s-.837.156-1.064.468c-.221.312-.331.803-.331 1.472 0 .675.11 1.171.331 1.489.227.312.582.468 1.064.468Zm4.508-6.262c.261 0 .459.031.596.093.136.063.204.154.204.273a.486.486 0 0 1-.034.178c-.017.051-.04.077-.068.077a1.3 1.3 0 0 0-.587-.128c-.239 0-.42.074-.545.222-.125.147-.187.36-.187.638v.621h1.055v.442h-1.055v4.237h-.579v-4.237h-.876v-.442h.876v-.63c0-.408.108-.734.324-.978.221-.244.513-.366.876-.366Zm5.043 0c.261 0 .46.031.596.093.136.063.204.154.204.273a.466.466 0 0 1-.034.178c-.017.051-.039.077-.068.077a1.297 1.297 0 0 0-.587-.128c-.238 0-.42.074-.544.222-.125.147-.188.36-.188.638v.621h1.055v.442h-1.055v4.237h-.578v-4.237h-.877v-.442h.877v-.63c0-.408.108-.734.323-.978.221-.244.513-.366.876-.366Zm1.609 1.974h.578v4.679h-.578v-4.679Zm.255-.86c-.255 0-.383-.127-.383-.382v-.077c0-.255.128-.383.383-.383h.068c.255 0 .383.128.383.383v.077c0 .255-.128.382-.383.382h-.068Zm5.684 2.868c0 .13-.006.261-.017.391h-3.387c.012.59.142 1.05.392 1.378.255.329.607.494 1.055.494.306 0 .564-.06.774-.179.216-.119.394-.309.536-.57a.193.193 0 0 1 .179-.11c.091 0 .215.054.374.161a1.645 1.645 0 0 1-.689.877c-.335.21-.726.314-1.174.314-.414 0-.777-.096-1.089-.289a1.906 1.906 0 0 1-.706-.842c-.165-.369-.247-.803-.247-1.302 0-.754.187-1.344.561-1.77.375-.431.888-.646 1.54-.646.596 0 1.061.184 1.396.553.334.368.502.882.502 1.54Zm-.596-.068c0-1.021-.442-1.532-1.327-1.532-.431 0-.772.131-1.021.392-.25.261-.397.641-.443 1.14h2.791Zm1.783-3.991h.579v6.73h-.579v-6.73Zm5.74 5.641a4.521 4.521 0 0 0 .119 1.021.914.914 0 0 1-.392.102c-.153 0-.249-.192-.289-.578a1.671 1.671 0 0 1-.612.485 2.057 2.057 0 0 1-.817.144c-.619 0-1.103-.212-1.455-.638-.352-.431-.528-1.021-.528-1.769 0-.772.188-1.37.562-1.796.38-.431.907-.646 1.582-.646.21 0 .432.039.664.119.238.074.434.167.587.281v-2.366h.579v5.641Zm-1.949.698c.29 0 .545-.06.766-.179.221-.119.423-.303.604-.553v-2.68a1.585 1.585 0 0 0-.561-.357 1.785 1.785 0 0 0-.69-.145c-.499 0-.882.17-1.148.511-.267.34-.4.831-.4 1.472 0 .624.122 1.103.366 1.438.244.329.598.493 1.063.493Zm3.996.391c-.255 0-.383-.127-.383-.382v-.077c0-.255.128-.383.383-.383h.068c.256 0 .383.128.383.383v.077c0 .255-.127.382-.383.382h-.068ZM10.75 153.194c-.391 0-.752-.059-1.08-.178a2.009 2.009 0 0 1-.783-.502c-.193-.21-.29-.44-.29-.689 0-.114.04-.205.12-.273a.53.53 0 0 1 .331-.119c.091.403.284.709.579.919.295.21.675.315 1.14.315.476 0 .86-.111 1.149-.332.294-.221.442-.51.442-.868a.884.884 0 0 0-.162-.536c-.102-.147-.272-.278-.51-.391a5.093 5.093 0 0 0-.987-.34c-.488-.131-.87-.267-1.149-.409-.278-.147-.479-.312-.604-.493a1.261 1.261 0 0 1-.178-.69c0-.476.175-.85.527-1.123.352-.278.837-.417 1.455-.417.539 0 .987.128 1.344.383.363.25.607.604.732 1.064-.074.074-.187.111-.34.111-.16 0-.276-.077-.35-.23a1.406 1.406 0 0 0-.57-.596 1.58 1.58 0 0 0-.816-.221c-.448 0-.789.088-1.021.264-.233.176-.349.431-.349.765 0 .171.043.315.128.434.085.114.227.219.425.315.199.097.48.196.842.298.607.17 1.064.332 1.37.485.312.153.53.326.655.519s.188.445.188.757c0 .358-.091.672-.273.945a1.774 1.774 0 0 1-.782.621c-.335.142-.73.212-1.183.212Zm5.629-.655c.04.029.07.071.094.128a.328.328 0 0 1 .042.162c0 .107-.045.184-.136.229-.181.091-.417.136-.706.136-.369 0-.664-.099-.885-.297-.221-.205-.332-.477-.332-.817v-3.191h-.885v-.459h.885v-1.276h.579v1.276h1.225v.459h-1.225v3.08c0 .477.204.715.612.715.261 0 .505-.048.732-.145Zm4.697-2.101c0 .13-.006.261-.017.391h-3.387c.012.59.142 1.05.392 1.378.255.329.607.494 1.055.494.306 0 .564-.06.774-.179.216-.119.394-.309.536-.57.04-.073.1-.11.179-.11.09 0 .215.054.374.161a1.646 1.646 0 0 1-.689.877c-.335.21-.726.314-1.174.314-.414 0-.777-.096-1.09-.289a1.914 1.914 0 0 1-.705-.842c-.165-.369-.247-.803-.247-1.302 0-.754.187-1.344.561-1.77.375-.431.888-.646 1.54-.646.596 0 1.061.184 1.396.553.334.368.502.882.502 1.54Zm-.596-.068c0-1.021-.442-1.532-1.327-1.532-.431 0-.771.131-1.021.392-.25.261-.397.641-.443 1.14h2.791Zm3.536-2c.199 0 .349.034.45.102a.313.313 0 0 1 .163.29.37.37 0 0 1-.094.246c-.136-.073-.323-.11-.561-.11-.38 0-.687.15-.92.451-.226.3-.34.695-.34 1.182v2.578h-.578v-4.679h.578v.842c.13-.261.315-.476.553-.646.239-.171.488-.256.749-.256Zm5.227 3.65c0 .346.003.582.009.707.011.119.034.226.068.323a.976.976 0 0 1-.442.102c-.085 0-.142-.06-.17-.179-.029-.125-.043-.368-.043-.731v-2.306c0-.397-.074-.684-.221-.86-.148-.181-.386-.272-.715-.272-.51 0-1.032.253-1.566.757v3.548h-.578v-3.088c0-.84-.034-1.339-.102-1.498.181-.085.326-.127.434-.127.164 0 .246.164.246.493v.077c.261-.216.522-.372.783-.468.267-.102.547-.153.842-.153.488 0 .851.133 1.09.4.244.261.365.66.365 1.199v2.076Zm9.106-3.59c-.227 1.724-.658 3.284-1.294 4.679h-.527a17.528 17.528 0 0 1-.706-1.769 11.936 11.936 0 0 1-.4-1.668c-.102.59-.241 1.154-.417 1.693a15.819 15.819 0 0 1-.706 1.744h-.545c-.3-.641-.553-1.333-.757-2.076a22.547 22.547 0 0 1-.51-2.603h.595c.096.828.218 1.554.366 2.178.153.618.352 1.194.596 1.727.544-1.117.913-2.419 1.106-3.905h.561c.204 1.537.57 2.844 1.098 3.922.493-1.18.785-2.487.876-3.922h.664Zm2.925-.06c.198 0 .348.034.45.102a.313.313 0 0 1 .162.29.37.37 0 0 1-.094.246c-.136-.073-.323-.11-.561-.11-.38 0-.686.15-.919.451-.227.3-.34.695-.34 1.182v2.578h-.579v-4.679h.579v.842c.13-.261.315-.476.553-.646.238-.171.488-.256.748-.256Zm1.739.06h.578v4.679h-.578v-4.679Zm.255-.86c-.255 0-.383-.127-.383-.382v-.077c0-.255.128-.383.383-.383h.068c.255 0 .383.128.383.383v.077c0 .255-.128.382-.383.382h-.068Zm5.684 4.45c0 .346.003.582.009.707.01.119.034.226.068.323a.976.976 0 0 1-.443.102c-.085 0-.142-.06-.17-.179-.028-.125-.042-.368-.042-.731v-2.306c0-.397-.074-.684-.222-.86-.147-.181-.385-.272-.714-.272-.51 0-1.033.253-1.566.757v3.548h-.578v-3.088c0-.84-.035-1.339-.103-1.498.182-.085.326-.127.434-.127.165 0 .247.164.247.493v.077c.261-.216.522-.372.783-.468.266-.102.547-.153.842-.153.488 0 .85.133 1.09.4.243.261.365.66.365 1.199v2.076Zm5.27 1.089c-.097 0-.207.006-.332.017a2.218 2.218 0 0 1-.187.017.273.273 0 0 1-.247-.136l-1.098-1.769c-.164-.267-.462-.392-.893-.375l-.391.017v2.229h-.579v-6.73h.579v3.974l.331-.009a.795.795 0 0 0 .307-.068.695.695 0 0 0 .23-.204l1.276-1.642h.714l-1.514 1.855a1.252 1.252 0 0 0-.077.093.539.539 0 0 1-.153.119c.278.074.48.21.604.409l1.43 2.203Zm1.003-6.73h.578v6.73h-.578v-6.73Zm5.85 4.059c0 .13-.006.261-.017.391H57.67c.012.59.142 1.05.392 1.378.255.329.607.494 1.055.494.306 0 .564-.06.774-.179.216-.119.394-.309.536-.57.04-.073.1-.11.179-.11.09 0 .215.054.374.161a1.646 1.646 0 0 1-.69.877c-.334.21-.725.314-1.173.314-.414 0-.777-.096-1.09-.289a1.914 1.914 0 0 1-.706-.842c-.164-.369-.246-.803-.246-1.302 0-.754.187-1.344.561-1.77.375-.431.888-.646 1.54-.646.596 0 1.061.184 1.396.553.334.368.502.882.502 1.54Zm-.596-.068c0-1.021-.442-1.532-1.327-1.532-.431 0-.772.131-1.021.392-.25.261-.397.641-.443 1.14h2.791Zm5.246 1.65c0 .182.011.366.034.553.023.188.051.344.085.468a.914.914 0 0 1-.391.102c-.153 0-.25-.192-.29-.578a1.673 1.673 0 0 1-.612.485c-.221.096-.494.144-.817.144-.618 0-1.103-.212-1.455-.638-.352-.431-.527-1.021-.527-1.769 0-.772.187-1.37.561-1.796.38-.431.908-.646 1.583-.646.21 0 .43.039.663.119.239.074.434.167.588.281v-2.366h.578v5.641Zm-1.948.698c.289 0 .544-.06.765-.179a1.83 1.83 0 0 0 .605-.553v-2.68a1.587 1.587 0 0 0-.562-.357 1.78 1.78 0 0 0-.69-.145c-.498 0-.881.17-1.148.511-.266.34-.4.831-.4 1.472 0 .624.122 1.103.366 1.438.244.329.599.493 1.064.493Zm4.072-.451c.114 0 .204.037.272.111.069.068.103.164.103.289v.094c0 .198-.035.397-.103.595a2.427 2.427 0 0 1-.255.545c-.147.227-.272.34-.374.34a.36.36 0 0 1-.238-.085 3.07 3.07 0 0 0 .357-.528c.085-.158.142-.331.17-.519h-.042a.33.33 0 0 1-.256-.102.387.387 0 0 1-.093-.272v-.094c0-.113.03-.204.093-.272a.357.357 0 0 1 .264-.102h.102Zm6.062-3.897c.198 0 .349.034.45.102a.313.313 0 0 1 .162.29.37.37 0 0 1-.093.246c-.136-.073-.324-.11-.562-.11-.38 0-.686.15-.919.451-.227.3-.34.695-.34 1.182v2.578h-.579v-4.679h.579v.842c.13-.261.315-.476.553-.646.238-.171.488-.256.749-.256Zm5.202 3.778c0 .329.042.63.127.902a.73.73 0 0 1-.366.102.284.284 0 0 1-.263-.145c-.051-.102-.08-.283-.086-.544-.158.221-.382.4-.672.536-.289.13-.6.195-.935.195-.96 0-1.438-.524-1.438-1.574v-3.19h.578v3.131c0 .414.077.715.23.902.153.181.397.272.732.272.3 0 .581-.077.842-.23.267-.153.488-.368.663-.646v-3.429h.588v3.718Zm1.645-5.769h.578v6.73h-.578v-6.73Zm5.85 4.059c0 .13-.006.261-.017.391h-3.386c.01.59.141 1.05.39 1.378.256.329.608.494 1.056.494.306 0 .564-.06.774-.179.216-.119.394-.309.536-.57.04-.073.1-.11.179-.11.09 0 .215.054.374.161a1.647 1.647 0 0 1-.689.877c-.335.21-.726.314-1.174.314-.414 0-.777-.096-1.09-.289a1.914 1.914 0 0 1-.705-.842c-.165-.369-.247-.803-.247-1.302 0-.754.187-1.344.562-1.77.374-.431.887-.646 1.54-.646.595 0 1.06.184 1.395.553.335.368.502.882.502 1.54Zm-.596-.068c0-1.021-.442-1.532-1.327-1.532-.431 0-.772.131-1.021.392-.25.261-.397.641-.442 1.14h2.79Zm3.536-2c.198 0 .349.034.451.102a.313.313 0 0 1 .162.29.37.37 0 0 1-.094.246c-.136-.073-.323-.11-.561-.11-.38 0-.687.15-.92.451-.226.3-.34.695-.34 1.182v2.578h-.578v-4.679h.578v.842c.13-.261.315-.476.553-.646.238-.171.488-.256.749-.256Zm2.888 4.824c-.256 0-.52-.042-.792-.127a2.139 2.139 0 0 1-.68-.34c-.182-.142-.272-.293-.272-.451 0-.074.022-.139.068-.196a.383.383 0 0 1 .187-.128c.204.267.425.463.663.587.239.119.525.179.86.179.357 0 .627-.082.808-.247a.829.829 0 0 0 .28-.655.598.598 0 0 0-.17-.442 1.002 1.002 0 0 0-.408-.256 8.303 8.303 0 0 0-.663-.195 7.427 7.427 0 0 1-.8-.247 1.348 1.348 0 0 1-.51-.357c-.137-.165-.205-.383-.205-.655 0-.29.077-.534.23-.732.153-.199.349-.346.587-.443.238-.096.482-.144.732-.144.357 0 .68.071.97.212.294.142.524.349.689.622-.136.141-.253.212-.35.212-.073 0-.144-.039-.212-.119a1.236 1.236 0 0 0-.476-.349 1.575 1.575 0 0 0-.647-.119c-.29 0-.519.068-.69.204-.17.137-.254.346-.254.63 0 .164.05.298.153.4.102.102.23.181.383.238.153.051.363.111.63.179.34.079.615.161.825.247.215.085.397.218.544.399.148.176.221.414.221.715 0 .42-.156.755-.468 1.004-.306.25-.717.374-1.233.374Zm3.397-.927c.114 0 .205.037.273.111.068.068.102.164.102.289v.094c0 .198-.034.397-.102.595a2.427 2.427 0 0 1-.255.545c-.148.227-.273.34-.375.34a.359.359 0 0 1-.238-.085c.153-.187.272-.363.357-.528.085-.158.142-.331.17-.519h-.042a.33.33 0 0 1-.255-.102.387.387 0 0 1-.094-.272v-.094c0-.113.031-.204.094-.272a.357.357 0 0 1 .263-.102h.102Zm5.637-5.811c.26 0 .459.031.595.093.136.063.204.154.204.273a.466.466 0 0 1-.034.178c-.017.051-.039.077-.068.077a1.297 1.297 0 0 0-.587-.128c-.238 0-.42.074-.544.222-.125.147-.188.36-.188.638v.621h1.055v.442h-1.055v4.237h-.578v-4.237h-.876v-.442h.876v-.63c0-.408.108-.734.323-.978.221-.244.514-.366.877-.366Zm5.096 3.982c0 .13-.006.261-.017.391h-3.387c.012.59.142 1.05.392 1.378.255.329.607.494 1.055.494.306 0 .564-.06.774-.179.216-.119.394-.309.536-.57a.193.193 0 0 1 .179-.11c.091 0 .215.054.374.161a1.645 1.645 0 0 1-.689.877c-.335.21-.726.314-1.174.314-.414 0-.777-.096-1.089-.289a1.906 1.906 0 0 1-.706-.842c-.165-.369-.247-.803-.247-1.302 0-.754.187-1.344.561-1.77.375-.431.888-.646 1.54-.646.596 0 1.061.184 1.396.553.334.368.502.882.502 1.54Zm-.596-.068c0-1.021-.442-1.532-1.327-1.532-.431 0-.772.131-1.021.392-.25.261-.397.641-.443 1.14h2.791Zm4.982 1.574c0 .261.02.468.06.621.045.147.122.281.23.4a.655.655 0 0 1-.205.136.502.502 0 0 1-.212.051c-.114 0-.21-.065-.29-.196a1.378 1.378 0 0 1-.144-.536 1.863 1.863 0 0 1-.706.57 2.19 2.19 0 0 1-.928.204c-.431 0-.777-.11-1.038-.331a1.117 1.117 0 0 1-.391-.885c0-.533.258-.95.774-1.251.522-.301 1.279-.474 2.272-.519v-.272c0-.375-.097-.653-.29-.834-.187-.187-.473-.281-.859-.281a1.54 1.54 0 0 0-.698.162c-.209.102-.436.275-.68.519a.174.174 0 0 1-.128.051.347.347 0 0 1-.187-.068.91.91 0 0 1-.196-.213c.256-.3.545-.53.868-.689a2.375 2.375 0 0 1 1.047-.238c.527 0 .941.142 1.242.425.306.284.459.672.459 1.166v2.008Zm-2.152.774c.306 0 .595-.085.868-.255.272-.17.507-.411.706-.723v-1.055c-1.634.068-2.451.496-2.451 1.284 0 .499.292.749.877.749Zm5.45-4.348c.199 0 .349.034.451.102a.312.312 0 0 1 .162.29c0 .09-.031.173-.094.246-.136-.073-.323-.11-.561-.11-.38 0-.687.15-.919.451-.227.3-.34.695-.34 1.182v2.578h-.579v-4.679h.579v.842c.13-.261.314-.476.553-.646.238-.171.487-.256.748-.256Zm7.047 3.574c0 .261.02.468.059.621.046.147.122.281.23.4a.662.662 0 0 1-.204.136.51.51 0 0 1-.213.051c-.113 0-.21-.065-.289-.196a1.376 1.376 0 0 1-.145-.536 1.863 1.863 0 0 1-.706.57 2.19 2.19 0 0 1-.927.204c-.431 0-.777-.11-1.038-.331a1.118 1.118 0 0 1-.392-.885c0-.533.258-.95.775-1.251.521-.301 1.279-.474 2.271-.519v-.272c0-.375-.096-.653-.289-.834-.187-.187-.474-.281-.859-.281-.25 0-.482.054-.698.162-.21.102-.437.275-.681.519a.172.172 0 0 1-.127.051.347.347 0 0 1-.187-.068.869.869 0 0 1-.196-.213c.255-.3.544-.53.868-.689a2.374 2.374 0 0 1 1.046-.238c.528 0 .942.142 1.242.425.307.284.46.672.46 1.166v2.008Zm-2.153.774c.307 0 .596-.085.868-.255.272-.17.508-.411.706-.723v-1.055c-1.633.068-2.45.496-2.45 1.284 0 .499.292.749.876.749Zm7.272-.698c0 .346.002.582.008.707.011.119.034.226.068.323a.973.973 0 0 1-.442.102c-.085 0-.142-.06-.17-.179-.029-.125-.043-.368-.043-.731v-2.306c0-.397-.074-.684-.221-.86-.148-.181-.386-.272-.715-.272-.51 0-1.032.253-1.565.757v3.548h-.579v-3.088c0-.84-.034-1.339-.102-1.498.181-.085.326-.127.434-.127.164 0 .247.164.247.493v.077c.261-.216.521-.372.782-.468.267-.102.548-.153.843-.153.487 0 .85.133 1.089.4.244.261.366.66.366 1.199v2.076Zm5.082 0a4.521 4.521 0 0 0 .119 1.021.914.914 0 0 1-.391.102c-.153 0-.25-.192-.29-.578a1.671 1.671 0 0 1-.612.485c-.221.096-.494.144-.817.144-.618 0-1.103-.212-1.455-.638-.352-.431-.527-1.021-.527-1.769 0-.772.187-1.37.561-1.796.38-.431.908-.646 1.583-.646.21 0 .431.039.663.119.239.074.434.167.587.281v-2.366h.579v5.641Zm-1.948.698c.289 0 .544-.06.765-.179.222-.119.423-.303.604-.553v-2.68a1.585 1.585 0 0 0-.561-.357 1.78 1.78 0 0 0-.689-.145c-.499 0-.882.17-1.149.511-.266.34-.4.831-.4 1.472 0 .624.122 1.103.366 1.438.244.329.599.493 1.064.493Zm6.997.476c-.255 0-.519-.042-.791-.127a2.15 2.15 0 0 1-.681-.34c-.181-.142-.272-.293-.272-.451 0-.074.023-.139.068-.196a.385.385 0 0 1 .187-.128c.205.267.426.463.664.587.238.119.525.179.859.179.358 0 .627-.082.809-.247a.83.83 0 0 0 .281-.655.596.596 0 0 0-.171-.442.998.998 0 0 0-.408-.256 8.291 8.291 0 0 0-.664-.195 7.393 7.393 0 0 1-.799-.247 1.348 1.348 0 0 1-.511-.357c-.136-.165-.204-.383-.204-.655 0-.29.076-.534.23-.732.153-.199.348-.346.587-.443.238-.096.482-.144.731-.144.358 0 .681.071.97.212.295.142.525.349.689.622-.136.141-.252.212-.348.212-.074 0-.145-.039-.213-.119a1.234 1.234 0 0 0-.477-.349 1.57 1.57 0 0 0-.646-.119c-.289 0-.519.068-.689.204-.171.137-.256.346-.256.63 0 .164.051.298.154.4.102.102.229.181.382.238.154.051.363.111.63.179.34.079.615.161.825.247.216.085.397.218.545.399.147.176.221.414.221.715 0 .42-.156.755-.468 1.004-.306.25-.717.374-1.234.374Zm4.955-.655c.04.029.071.071.094.128a.332.332 0 0 1 .042.162c0 .107-.045.184-.136.229-.181.091-.417.136-.706.136-.369 0-.664-.099-.885-.297-.221-.205-.332-.477-.332-.817v-3.191h-.885v-.459h.885v-1.276h.579v1.276h1.225v.459h-1.225v3.08c0 .477.204.715.613.715.26 0 .504-.048.731-.145Zm2.876-4.169c.199 0 .349.034.451.102a.312.312 0 0 1 .162.29c0 .09-.031.173-.094.246-.136-.073-.323-.11-.561-.11-.38 0-.687.15-.919.451-.227.3-.341.695-.341 1.182v2.578h-.578v-4.679h.578v.842c.131-.261.315-.476.553-.646.239-.171.488-.256.749-.256Zm5.228 2.068c0 .13-.006.261-.017.391h-3.387c.012.59.142 1.05.392 1.378.255.329.607.494 1.055.494.306 0 .564-.06.774-.179.216-.119.394-.309.536-.57a.193.193 0 0 1 .179-.11c.09 0 .215.054.374.161a1.645 1.645 0 0 1-.689.877c-.335.21-.726.314-1.174.314-.414 0-.777-.096-1.089-.289a1.915 1.915 0 0 1-.707-.842c-.164-.369-.246-.803-.246-1.302 0-.754.187-1.344.561-1.77.375-.431.888-.646 1.54-.646.596 0 1.061.184 1.396.553.334.368.502.882.502 1.54Zm-.596-.068c0-1.021-.442-1.532-1.327-1.532-.431 0-.772.131-1.021.392-.25.261-.397.641-.443 1.14h2.791Zm5.357 1.65c0 .346.002.582.008.707.011.119.034.226.068.323a.973.973 0 0 1-.442.102c-.085 0-.142-.06-.17-.179-.029-.125-.043-.368-.043-.731v-2.306c0-.397-.074-.684-.221-.86-.148-.181-.386-.272-.715-.272-.51 0-1.032.253-1.565.757v3.548h-.579v-3.088c0-.84-.034-1.339-.102-1.498.181-.085.326-.127.434-.127.164 0 .247.164.247.493v.077c.261-.216.521-.372.782-.468.267-.102.548-.153.843-.153.488 0 .851.133 1.089.4.244.261.366.66.366 1.199v2.076Zm5.278-3.837c.102 0 .176.028.221.085.051.051.077.136.077.255 0 .034-.006.103-.017.205-.42 0-.712.056-.877.17.227.272.34.61.34 1.012 0 1.089-.626 1.634-1.88 1.634-.386 0-.669.028-.851.085-.176.051-.263.133-.263.247 0 .255.456.383 1.369.383.641 0 1.138.107 1.489.323.352.215.528.522.528.919 0 .425-.19.751-.57.978-.375.233-.913.349-1.617.349-.663 0-1.168-.102-1.514-.306a.986.986 0 0 1-.519-.902c0-.227.076-.428.229-.604.159-.176.378-.307.656-.392v-.025a.786.786 0 0 1-.409-.247.677.677 0 0 1-.153-.442c0-.142.057-.267.17-.375a.884.884 0 0 1 .46-.229 1.534 1.534 0 0 1-.57-.536 1.49 1.49 0 0 1-.196-.758c0-1.111.641-1.667 1.923-1.667.403 0 .746.088 1.029.263.142-.13.295-.232.46-.306.17-.079.332-.119.485-.119Zm-2.085 2.884c.437 0 .749-.085.936-.255.193-.176.289-.465.289-.868 0-.397-.096-.686-.289-.868-.193-.181-.505-.272-.936-.272-.42 0-.729.094-.927.281-.193.181-.289.468-.289.859 0 .749.405 1.123 1.216 1.123Zm.068 1.719c-.482 0-.848.065-1.097.196-.244.13-.366.32-.366.57 0 .261.122.459.366.595.244.137.598.205 1.063.205.522 0 .916-.068 1.183-.205.266-.13.4-.329.4-.595a.608.608 0 0 0-.366-.587c-.238-.119-.633-.179-1.183-.179Zm5.394-.247c.04.029.071.071.094.128a.332.332 0 0 1 .042.162c0 .107-.045.184-.136.229-.181.091-.417.136-.706.136-.369 0-.664-.099-.885-.297-.221-.205-.332-.477-.332-.817v-3.191h-.885v-.459h.885v-1.276h.579v1.276h1.225v.459h-1.225v3.08c0 .477.204.715.612.715.261 0 .505-.048.732-.145Zm3.276-4.194c.488 0 .874.142 1.157.425.284.278.426.658.426 1.14v3.199h-.579v-3.139c0-.369-.091-.652-.272-.851-.182-.199-.443-.298-.783-.298-.261 0-.536.06-.825.179-.29.113-.548.266-.775.459v3.65h-.578v-6.73h.578v2.527c.25-.181.517-.32.8-.417a2.64 2.64 0 0 1 .851-.144Zm6.881 4.849c-.658 0-1.155-.204-1.489-.612-.335-.409-.502-1.015-.502-1.821 0-1.611.663-2.416 1.991-2.416 1.327 0 1.991.805 1.991 2.416 0 .806-.168 1.412-.502 1.821-.335.408-.831.612-1.489.612Zm0-.476c.482 0 .833-.156 1.055-.468.227-.318.34-.814.34-1.489 0-.669-.113-1.16-.34-1.472-.222-.312-.573-.468-1.055-.468s-.837.156-1.064.468c-.221.312-.332.803-.332 1.472 0 .675.111 1.171.332 1.489.227.312.582.468 1.064.468Zm4.508-6.262c.261 0 .459.031.595.093.137.063.205.154.205.273a.486.486 0 0 1-.034.178c-.017.051-.04.077-.069.077a1.294 1.294 0 0 0-.587-.128c-.238 0-.419.074-.544.222-.125.147-.187.36-.187.638v.621h1.055v.442h-1.055v4.237h-.579v-4.237h-.876v-.442h.876v-.63c0-.408.108-.734.323-.978.222-.244.514-.366.877-.366Zm3.801 1.974h.579v4.679h-.579v-4.679Zm.255-.86c-.255 0-.383-.127-.383-.382v-.077c0-.255.128-.383.383-.383h.068c.256 0 .383.128.383.383v.077c0 .255-.127.382-.383.382h-.068Zm5.685 4.45c0 .346.002.582.008.707.011.119.034.226.068.323a.973.973 0 0 1-.442.102c-.085 0-.142-.06-.17-.179-.029-.125-.043-.368-.043-.731v-2.306c0-.397-.074-.684-.221-.86-.148-.181-.386-.272-.715-.272-.51 0-1.032.253-1.565.757v3.548h-.579v-3.088c0-.84-.034-1.339-.102-1.498.181-.085.326-.127.434-.127.164 0 .247.164.247.493v.077c.261-.216.521-.372.782-.468.267-.102.548-.153.843-.153.487 0 .85.133 1.089.4.244.261.366.66.366 1.199v2.076Zm3.678.519c.04.029.071.071.094.128a.332.332 0 0 1 .042.162c0 .107-.045.184-.136.229-.181.091-.417.136-.706.136-.369 0-.664-.099-.885-.297-.221-.205-.332-.477-.332-.817v-3.191h-.885v-.459h.885v-1.276h.579v1.276h1.225v.459h-1.225v3.08c0 .477.204.715.612.715.261 0 .505-.048.732-.145Zm4.697-2.101c0 .13-.006.261-.017.391H192.4c.011.59.141 1.05.391 1.378.255.329.607.494 1.055.494.306 0 .564-.06.774-.179.216-.119.394-.309.536-.57.04-.073.1-.11.179-.11.091 0 .216.054.374.161a1.64 1.64 0 0 1-.689.877c-.334.21-.726.314-1.174.314-.414 0-.777-.096-1.089-.289a1.913 1.913 0 0 1-.706-.842c-.165-.369-.247-.803-.247-1.302 0-.754.187-1.344.562-1.77.374-.431.887-.646 1.54-.646.595 0 1.06.184 1.395.553.335.368.502.882.502 1.54Zm-.596-.068c0-1.021-.442-1.532-1.327-1.532-.431 0-.771.131-1.021.392-.25.261-.397.641-.442 1.14h2.79Zm1.783-3.991h.579v6.73h-.579v-6.73Zm2.277 0h.579v6.73h-.579v-6.73Zm5.85 4.059c0 .13-.006.261-.017.391h-3.386c.011.59.142 1.05.391 1.378.255.329.607.494 1.055.494.307 0 .565-.06.775-.179.215-.119.394-.309.536-.57a.191.191 0 0 1 .178-.11c.091 0 .216.054.375.161a1.647 1.647 0 0 1-.69.877c-.334.21-.726.314-1.174.314-.414 0-.777-.096-1.089-.289a1.92 1.92 0 0 1-.706-.842c-.164-.369-.247-.803-.247-1.302 0-.754.187-1.344.562-1.77.374-.431.888-.646 1.54-.646.595 0 1.061.184 1.395.553.335.368.502.882.502 1.54Zm-.595-.068c0-1.021-.443-1.532-1.328-1.532-.431 0-.771.131-1.021.392-.249.261-.397.641-.442 1.14h2.791Zm3.45 2.824c-.686 0-1.222-.215-1.608-.646-.38-.431-.57-1.033-.57-1.804 0-.488.085-.91.255-1.268.176-.363.426-.641.749-.833.323-.199.703-.298 1.14-.298.522 0 .95.133 1.285.4.34.261.539.618.596 1.072a1.464 1.464 0 0 1-.426.102c-.057 0-.099-.014-.127-.043a.782.782 0 0 1-.077-.204.986.986 0 0 0-.425-.621c-.222-.153-.497-.23-.826-.23-.306 0-.578.08-.817.238a1.568 1.568 0 0 0-.544.681 2.512 2.512 0 0 0-.187 1.004c0 .601.142 1.081.425 1.438.289.357.675.536 1.157.536.369 0 .684-.085.945-.255.261-.176.456-.431.587-.766.079 0 .144.034.195.102a.36.36 0 0 1 .086.238c0 .199-.086.389-.256.57a1.75 1.75 0 0 1-.672.426 2.422 2.422 0 0 1-.885.161Zm5.078-.655c.04.029.071.071.093.128a.322.322 0 0 1 .043.162c0 .107-.045.184-.136.229-.182.091-.417.136-.706.136-.369 0-.664-.099-.885-.297-.221-.205-.332-.477-.332-.817v-3.191h-.885v-.459h.885v-1.276h.579v1.276h1.225v.459h-1.225v3.08c0 .477.204.715.612.715.261 0 .505-.048.732-.145Zm1.549.57c-.256 0-.383-.127-.383-.382v-.077c0-.255.127-.383.383-.383h.068c.255 0 .383.128.383.383v.077c0 .255-.128.382-.383.382h-.068Zm-164.514 21a37.065 37.065 0 0 0-.485-5.096c-.204.465-.406.984-.604 1.557-.199.567-.516 1.548-.953 2.944h-.442a82.14 82.14 0 0 0-.91-2.765 25.693 25.693 0 0 0-.656-1.711c-.272 1.549-.434 3.239-.485 5.071h-.612a40.73 40.73 0 0 1 .204-3.148 29.42 29.42 0 0 1 .434-2.807h.68c.34.731.627 1.401.86 2.008.232.606.468 1.301.706 2.084.238-.783.473-1.475.706-2.076.233-.607.516-1.279.85-2.016h.681c.176.839.318 1.775.426 2.807.113 1.033.184 2.082.213 3.148h-.613Zm5.31-1.165c0 .261.02.468.06.621.045.147.122.281.23.4a.655.655 0 0 1-.205.136.508.508 0 0 1-.212.051c-.114 0-.21-.065-.29-.196a1.375 1.375 0 0 1-.144-.536 1.864 1.864 0 0 1-.707.57 2.19 2.19 0 0 1-.927.204c-.431 0-.777-.11-1.038-.331a1.118 1.118 0 0 1-.391-.885c0-.533.258-.95.774-1.251.522-.301 1.279-.474 2.271-.519v-.272c0-.375-.096-.653-.289-.834-.187-.187-.473-.281-.86-.281-.249 0-.481.054-.697.162-.21.102-.437.275-.68.519a.173.173 0 0 1-.128.051.348.348 0 0 1-.187-.068.894.894 0 0 1-.196-.213c.255-.3.545-.53.868-.689a2.374 2.374 0 0 1 1.046-.238c.528 0 .942.142 1.243.425.306.284.46.672.46 1.166v2.008Zm-2.153.774c.307 0 .596-.085.868-.255.273-.17.508-.411.706-.723v-1.055c-1.633.068-2.45.496-2.45 1.284 0 .499.292.749.877.749Zm5.451-4.348c.199 0 .349.034.451.102a.312.312 0 0 1 .162.29.37.37 0 0 1-.094.246c-.136-.073-.323-.11-.562-.11-.38 0-.686.15-.918.451-.227.3-.34.695-.34 1.182v2.578h-.58v-4.679h.58v.842c.13-.261.314-.476.552-.646.239-.171.488-.256.75-.256Zm3.322 4.824c-.687 0-1.223-.215-1.608-.646-.38-.431-.57-1.033-.57-1.804 0-.488.085-.91.255-1.268.176-.363.425-.641.748-.833.324-.199.704-.298 1.14-.298.522 0 .95.133 1.285.4.34.261.54.618.596 1.072a1.47 1.47 0 0 1-.425.102c-.057 0-.1-.014-.128-.043a.809.809 0 0 1-.077-.204.987.987 0 0 0-.425-.621c-.221-.153-.496-.23-.825-.23-.307 0-.579.08-.817.238a1.568 1.568 0 0 0-.545.681 2.517 2.517 0 0 0-.187 1.004c0 .601.142 1.081.425 1.438.29.357.675.536 1.158.536.368 0 .683-.085.944-.255.26-.176.457-.431.587-.766.08 0 .145.034.196.102a.362.362 0 0 1 .085.238c0 .199-.085.389-.255.57a1.758 1.758 0 0 1-.672.426 2.421 2.421 0 0 1-.885.161Zm6.566-1.046c0 .329.043.63.128.902a.73.73 0 0 1-.366.102.284.284 0 0 1-.264-.145c-.05-.102-.08-.283-.085-.544-.159.221-.383.4-.672.536-.29.13-.601.195-.936.195-.959 0-1.438-.524-1.438-1.574v-3.19h.579v3.131c0 .414.076.715.23.902.152.181.396.272.731.272.3 0 .582-.077.842-.23.267-.153.488-.368.664-.646v-3.429h.587v3.718Zm2.879 1.046c-.255 0-.52-.042-.791-.127a2.139 2.139 0 0 1-.681-.34c-.181-.142-.272-.293-.272-.451 0-.074.022-.139.068-.196a.382.382 0 0 1 .187-.128c.204.267.425.463.664.587.238.119.524.179.859.179.357 0 .627-.082.808-.247a.829.829 0 0 0 .281-.655.598.598 0 0 0-.17-.442 1.002 1.002 0 0 0-.409-.256 8.315 8.315 0 0 0-.663-.195 7.43 7.43 0 0 1-.8-.247 1.349 1.349 0 0 1-.51-.357c-.137-.165-.205-.383-.205-.655 0-.29.077-.534.23-.732.153-.199.349-.346.587-.443.238-.096.482-.144.732-.144.357 0 .68.071.97.212.295.142.525.349.689.622-.136.141-.253.212-.349.212-.074 0-.145-.039-.213-.119a1.236 1.236 0 0 0-.476-.349 1.574 1.574 0 0 0-.647-.119c-.289 0-.519.068-.689.204-.17.137-.255.346-.255.63 0 .164.05.298.153.4.102.102.23.181.383.238.153.051.363.111.63.179.34.079.615.161.825.247.215.085.397.218.544.399.148.176.222.414.222.715 0 .42-.156.755-.468 1.004-.307.25-.718.374-1.234.374Zm8.756-.085a22.903 22.903 0 0 0-.434-1.727H76.89c-.136.448-.281 1.024-.434 1.727h-.63c.295-1.213.616-2.291.962-3.233.346-.947.757-1.855 1.233-2.722h.638c.471.862.88 1.766 1.225 2.714.347.941.667 2.022.962 3.241h-.63Zm-.578-2.237a17.523 17.523 0 0 0-1.302-3.097 17.523 17.523 0 0 0-1.302 3.097h2.604Zm5.735 1.276c0 .329.043.63.128.902a.73.73 0 0 1-.366.102.284.284 0 0 1-.264-.145c-.05-.102-.079-.283-.085-.544-.159.221-.383.4-.672.536-.29.13-.601.195-.936.195-.958 0-1.438-.524-1.438-1.574v-3.19h.579v3.131c0 .414.076.715.23.902.153.181.397.272.731.272.3 0 .582-.077.843-.23.266-.153.487-.368.663-.646v-3.429h.587v3.718Zm3.398-3.778c.199 0 .349.034.451.102a.312.312 0 0 1 .162.29c0 .09-.031.173-.094.246-.136-.073-.323-.11-.561-.11-.38 0-.687.15-.92.451-.226.3-.34.695-.34 1.182v2.578h-.578v-4.679h.578v.842c.13-.261.315-.476.553-.646.239-.171.488-.256.75-.256ZM94 171.438c0 .13-.006.261-.017.391h-3.387c.012.59.142 1.05.392 1.378.255.329.607.494 1.055.494.306 0 .564-.06.774-.179.215-.119.394-.309.536-.57.04-.073.1-.11.179-.11.09 0 .215.054.374.161a1.646 1.646 0 0 1-.69.877c-.334.21-.725.314-1.173.314-.414 0-.777-.096-1.09-.289a1.914 1.914 0 0 1-.706-.842c-.164-.369-.246-.803-.246-1.302 0-.754.187-1.344.561-1.77.375-.431.888-.646 1.54-.646.596 0 1.06.184 1.396.553.334.368.502.882.502 1.54Zm-.596-.068c0-1.021-.443-1.532-1.327-1.532-.431 0-.772.131-1.021.392-.25.261-.397.641-.443 1.14h2.791Zm1.783-3.991h.579v6.73h-.579v-6.73Zm2.362 2.051h.578v4.679h-.578v-4.679Zm.255-.86c-.255 0-.383-.127-.383-.382v-.077c0-.255.128-.383.383-.383h.068c.255 0 .383.128.383.383v.077c0 .255-.128.382-.383.382h-.068Zm5.659 4.578c0 .329.042.63.127.902a.728.728 0 0 1-.365.102.283.283 0 0 1-.264-.145c-.051-.102-.08-.283-.085-.544-.159.221-.383.4-.672.536-.29.13-.602.195-.936.195-.959 0-1.438-.524-1.438-1.574v-3.19h.578v3.131c0 .414.077.715.23.902.153.181.397.272.732.272.3 0 .581-.077.842-.23.267-.153.488-.368.664-.646v-3.429h.587v3.718Zm2.879 1.046c-.256 0-.519-.042-.792-.127a2.133 2.133 0 0 1-.68-.34c-.182-.142-.273-.293-.273-.451 0-.074.023-.139.068-.196a.383.383 0 0 1 .188-.128c.204.267.425.463.663.587.238.119.525.179.86.179.357 0 .626-.082.808-.247a.83.83 0 0 0 .281-.655.596.596 0 0 0-.171-.442.992.992 0 0 0-.408-.256 8.291 8.291 0 0 0-.664-.195 7.393 7.393 0 0 1-.799-.247 1.348 1.348 0 0 1-.511-.357c-.136-.165-.204-.383-.204-.655 0-.29.077-.534.23-.732.153-.199.349-.346.587-.443.238-.096.482-.144.731-.144.358 0 .681.071.97.212.295.142.525.349.69.622-.137.141-.253.212-.349.212-.074 0-.145-.039-.213-.119a1.238 1.238 0 0 0-.476-.349 1.577 1.577 0 0 0-.647-.119c-.289 0-.519.068-.689.204-.17.137-.255.346-.255.63 0 .164.051.298.153.4.102.102.229.181.383.238.153.051.363.111.629.179.34.079.616.161.825.247.216.085.398.218.545.399.147.176.221.414.221.715 0 .42-.156.755-.468 1.004-.306.25-.717.374-1.233.374Zm7.114-4.849c.629 0 1.114.204 1.455.612.346.409.519.987.519 1.736 0 .783-.179 1.395-.536 1.838-.358.442-.851.663-1.481.663-.601 0-1.072-.178-1.412-.536-.051.301-.15.451-.298.451a.813.813 0 0 1-.425-.102c.108-.238.161-.578.161-1.021v-5.607h.596v2.4c.414-.29.888-.434 1.421-.434Zm-.043 4.356c.454 0 .803-.173 1.047-.519.249-.352.374-.848.374-1.489 0-.601-.119-1.064-.357-1.387-.238-.323-.579-.485-1.021-.485-.522 0-.996.162-1.421.485v2.765c.335.42.794.63 1.378.63Zm6.759-.553c0 .329.042.63.128.902a.735.735 0 0 1-.366.102.285.285 0 0 1-.264-.145c-.051-.102-.08-.283-.085-.544-.159.221-.383.4-.672.536-.29.13-.602.195-.936.195-.959 0-1.438-.524-1.438-1.574v-3.19h.578v3.131c0 .414.077.715.23.902.153.181.397.272.732.272.3 0 .581-.077.842-.23.267-.153.488-.368.664-.646v-3.429h.587v3.718Zm2.879 1.046c-.256 0-.519-.042-.792-.127a2.133 2.133 0 0 1-.68-.34c-.182-.142-.273-.293-.273-.451 0-.074.023-.139.069-.196a.38.38 0 0 1 .187-.128c.204.267.425.463.663.587.239.119.525.179.86.179.357 0 .626-.082.808-.247a.83.83 0 0 0 .281-.655.6.6 0 0 0-.17-.442 1.002 1.002 0 0 0-.409-.256 8.373 8.373 0 0 0-.663-.195 7.42 7.42 0 0 1-.8-.247 1.348 1.348 0 0 1-.511-.357c-.136-.165-.204-.383-.204-.655 0-.29.077-.534.23-.732.153-.199.349-.346.587-.443a1.94 1.94 0 0 1 .732-.144c.357 0 .68.071.97.212.294.142.524.349.689.622-.136.141-.253.212-.349.212-.074 0-.145-.039-.213-.119a1.238 1.238 0 0 0-.476-.349 1.577 1.577 0 0 0-.647-.119c-.289 0-.519.068-.689.204-.17.137-.255.346-.255.63 0 .164.051.298.153.4.102.102.23.181.383.238.153.051.363.111.629.179.341.079.616.161.826.247.215.085.397.218.544.399.148.176.221.414.221.715 0 .42-.156.755-.468 1.004-.306.25-.717.374-1.233.374Zm4.954-.655c.04.029.071.071.094.128a.333.333 0 0 1 .043.162.236.236 0 0 1-.137.229c-.181.091-.416.136-.706.136-.368 0-.663-.099-.885-.297-.221-.205-.331-.477-.331-.817v-3.191h-.885v-.459h.885v-1.276h.578v1.276h1.225v.459h-1.225v3.08c0 .477.204.715.613.715.261 0 .505-.048.731-.145Zm4.517 1.387a6.695 6.695 0 0 1-1.021-1.957 6.837 6.837 0 0 1-.349-2.093c0-.663.116-1.353.349-2.067a6.821 6.821 0 0 1 1.021-1.966h.63a6.456 6.456 0 0 0-1.064 1.966 6.706 6.706 0 0 0-.332 2.067c0 .698.111 1.393.332 2.085a6.212 6.212 0 0 0 1.064 1.965h-.63Zm4.515-1.285v.468h-2.587v-.468h1.038v-4.781a2.549 2.549 0 0 1-.51.332c-.187.09-.352.136-.494.136a.344.344 0 0 1-.238-.077.284.284 0 0 1-.076-.196c0-.056.014-.107.042-.153a2.12 2.12 0 0 0 .723-.221c.256-.13.497-.306.724-.527h.382v5.487h.996Zm3.139-3.352c.375 0 .704.082.987.247.284.159.502.388.655.689.159.301.239.65.239 1.047 0 .357-.077.68-.23.97a1.66 1.66 0 0 1-.664.68 2.007 2.007 0 0 1-1.012.247c-.437 0-.809-.108-1.115-.323a2.038 2.038 0 0 1-.689-.877 3.164 3.164 0 0 1-.23-1.225c0-.652.128-1.256.383-1.812.261-.562.604-1.004 1.03-1.327.431-.329.885-.494 1.361-.494.284 0 .425.159.425.477-.652 0-1.202.204-1.65.612-.443.403-.74.939-.894 1.608.171-.142.383-.264.639-.366.255-.102.51-.153.765-.153Zm-.008 3.378c.425 0 .754-.131.987-.391.232-.261.349-.596.349-1.004 0-.5-.12-.871-.358-1.115-.232-.244-.556-.366-.97-.366-.3 0-.581.071-.842.213a2.073 2.073 0 0 0-.655.527 1.935 1.935 0 0 0-.009.213c0 .55.125 1.01.375 1.378.249.363.624.545 1.123.545Zm5.685-.026v.468h-2.587v-.468h1.038v-4.781a2.578 2.578 0 0 1-.51.332c-.188.09-.352.136-.494.136a.344.344 0 0 1-.238-.077.285.285 0 0 1-.077-.196.28.28 0 0 1 .043-.153 2.12 2.12 0 0 0 .723-.221c.255-.13.496-.306.723-.527h.383v5.487h.996Zm1.165-2.399h3.063v.511h-3.063v-.511Zm6.828 2.399v.468h-2.587v-.468h1.038v-4.781a2.549 2.549 0 0 1-.51.332c-.187.09-.352.136-.494.136a.344.344 0 0 1-.238-.077.29.29 0 0 1-.034-.349 2.12 2.12 0 0 0 .723-.221c.255-.13.496-.306.723-.527h.383v5.487h.996Zm3.139-3.352c.375 0 .703.082.987.247.284.159.502.388.655.689.159.301.238.65.238 1.047 0 .357-.076.68-.229.97a1.665 1.665 0 0 1-.664.68 2.007 2.007 0 0 1-1.012.247c-.437 0-.809-.108-1.115-.323a2.038 2.038 0 0 1-.689-.877 3.164 3.164 0 0 1-.23-1.225c0-.652.128-1.256.383-1.812.261-.562.604-1.004 1.03-1.327.431-.329.884-.494 1.361-.494.283 0 .425.159.425.477-.652 0-1.202.204-1.65.612-.443.403-.741.939-.894 1.608a2.35 2.35 0 0 1 .638-.366c.256-.102.511-.153.766-.153Zm-.008 3.378c.425 0 .754-.131.987-.391.232-.261.348-.596.348-1.004 0-.5-.119-.871-.357-1.115-.232-.244-.556-.366-.97-.366-.3 0-.581.071-.842.213a2.073 2.073 0 0 0-.655.527 1.935 1.935 0 0 0-.009.213c0 .55.125 1.01.375 1.378.249.363.623.545 1.123.545Zm4.766-5.513c.72 0 1.239.229 1.557.689.317.459.476 1.052.476 1.778 0 .652-.13 1.251-.391 1.795-.256.539-.599.967-1.03 1.285-.425.312-.876.468-1.353.468-.283 0-.425-.159-.425-.477.652 0 1.2-.192 1.642-.578.448-.391.749-.913.902-1.566a2.09 2.09 0 0 1-.604.332 2.104 2.104 0 0 1-.74.136c-.392 0-.735-.076-1.03-.229a1.684 1.684 0 0 1-.672-.664 2.05 2.05 0 0 1-.238-1.004c0-.369.082-.703.246-1.004a1.872 1.872 0 0 1 1.66-.961Zm.034 3.36a1.8 1.8 0 0 0 .816-.178c.244-.125.451-.292.621-.502.006-.046.009-.117.009-.213 0-.579-.113-1.049-.34-1.412-.227-.369-.613-.553-1.158-.553-.425 0-.754.141-.986.425-.233.278-.349.624-.349 1.038 0 .471.119.822.357 1.055.238.227.581.34 1.03.34Zm7.733 2.68c-.811 0-1.44-.266-1.889-.799-.442-.534-.663-1.288-.663-2.264 0-.981.221-1.735.663-2.263.443-.533 1.072-.8 1.889-.8.329 0 .636.057.919.171.284.107.528.269.732.485a.54.54 0 0 1-.145.246.305.305 0 0 1-.212.085.362.362 0 0 1-.222-.076 1.721 1.721 0 0 0-1.089-.357c-.624 0-1.097.212-1.421.638-.323.425-.485 1.049-.485 1.871 0 .817.162 1.438.485 1.864.324.425.797.638 1.421.638.267 0 .505-.037.715-.111.215-.073.428-.195.638-.366a.272.272 0 0 1 .187.094.265.265 0 0 1 .077.196c0 .13-.077.252-.23.366a1.812 1.812 0 0 1-.595.28 2.873 2.873 0 0 1-.775.102Zm6.37-.595c0 .204-.031.34-.093.408-.057.068-.173.102-.349.102h-3.123v-5.955h3.557v.51h-2.944v2.144h2.536v.511h-2.536v2.28h2.952Zm1.103 1.327a6.209 6.209 0 0 0 1.063-1.965 6.789 6.789 0 0 0 .332-2.085c0-.692-.113-1.381-.34-2.067a6.32 6.32 0 0 0-1.055-1.966h.629c.443.59.78 1.245 1.013 1.966a6.53 6.53 0 0 1 .357 2.067c0 .67-.119 1.367-.357 2.093a6.535 6.535 0 0 1-1.013 1.957h-.629Z"/></svg>