<svg xmlns="http://www.w3.org/2000/svg" width="225" height="214" fill="none"><path fill="#FE5D5D" d="M.5.98h223.842v212.044H.5z"/><path fill="#fff" d="M41.005 46.745c-1.298 0-2.306-.426-3.023-1.28-.707-.852-1.062-2.06-1.062-3.62 0-1.57.355-2.778 1.062-3.622.708-.853 1.716-1.28 3.023-1.28.526 0 1.016.09 1.47.272.454.173.844.432 1.171.776a.878.878 0 0 1-.231.395.493.493 0 0 1-.34.136.578.578 0 0 1-.355-.122c-.49-.381-1.07-.572-1.742-.572-.999 0-1.757.34-2.274 1.021-.517.68-.776 1.68-.776 2.995 0 1.307.259 2.301.776 2.982.517.68 1.275 1.021 2.274 1.021.426 0 .807-.059 1.143-.177a3.356 3.356 0 0 0 1.021-.585.435.435 0 0 1 .3.15.424.424 0 0 1 .122.313c0 .208-.122.403-.367.585-.236.181-.554.331-.953.45-.39.108-.803.163-1.24.163Zm8.124-7.76c.78 0 1.397.227 1.851.681.454.445.68 1.053.68 1.824v5.12h-.925v-5.024c0-.59-.145-1.044-.436-1.362-.29-.317-.707-.476-1.252-.476a3.47 3.47 0 0 0-1.32.286 4.348 4.348 0 0 0-1.24.735v5.84h-.925V35.84h.925v4.044c.4-.29.826-.513 1.28-.667a4.208 4.208 0 0 1 1.362-.232Zm7.935.041c.318 0 .558.055.722.163.172.1.258.255.258.463 0 .146-.05.277-.15.395-.217-.118-.517-.177-.898-.177a1.77 1.77 0 0 0-1.47.722c-.363.48-.545 1.112-.545 1.892v4.125h-.926v-7.488h.926v1.348c.209-.417.504-.762.885-1.034.381-.273.78-.409 1.198-.409Zm2.783.095h.926v7.488h-.926v-7.488Zm.408-1.375c-.408 0-.612-.204-.612-.612v-.123c0-.408.204-.612.612-.612h.11c.408 0 .612.204.612.612v.123c0 .408-.204.612-.613.612h-.109Zm5.352 9c-.409 0-.83-.069-1.266-.205a3.399 3.399 0 0 1-1.09-.544c-.29-.227-.435-.468-.435-.722 0-.118.036-.222.109-.313a.615.615 0 0 1 .3-.204c.326.426.68.74 1.061.94.382.19.84.285 1.375.285.572 0 1.003-.131 1.294-.395.3-.263.449-.612.449-1.048 0-.29-.09-.526-.272-.708a1.606 1.606 0 0 0-.654-.408c-.254-.091-.608-.196-1.062-.313a11.817 11.817 0 0 1-1.28-.395 2.153 2.153 0 0 1-.816-.572c-.218-.263-.327-.613-.327-1.048 0-.463.122-.854.367-1.171.246-.318.559-.554.94-.708a3.094 3.094 0 0 1 1.17-.232c.573 0 1.09.114 1.553.34.472.228.84.559 1.103.994-.218.227-.404.34-.559.34-.118 0-.231-.063-.34-.19a1.977 1.977 0 0 0-.762-.558c-.282-.127-.627-.19-1.035-.19-.463 0-.83.108-1.103.326-.272.218-.408.554-.408 1.008 0 .263.081.476.245.64.163.163.367.29.612.38.246.082.581.178 1.008.287.544.127.985.258 1.32.395.345.136.636.349.872.64.236.28.354.662.354 1.143 0 .672-.25 1.207-.749 1.607-.49.399-1.148.599-1.974.599Zm7.928-1.049a.446.446 0 0 1 .15.204.525.525 0 0 1 .068.26c0 .172-.073.294-.218.367-.29.145-.667.218-1.13.218-.59 0-1.062-.16-1.416-.477-.354-.327-.53-.762-.53-1.307v-5.105h-1.416v-.736h1.415V37.08h.926v2.042h1.96v.736h-1.96v4.928c0 .763.327 1.144.98 1.144.418 0 .808-.078 1.171-.232Zm1.934-6.576h.926v7.488h-.926v-7.488Zm.408-1.375c-.408 0-.612-.204-.612-.612v-.123c0-.408.204-.612.612-.612h.11c.408 0 .612.204.612.612v.123c0 .408-.204.612-.613.612h-.109Zm8.497 6.998c0 .418.032.749.095.994.073.236.195.45.368.64-.091.09-.2.163-.327.218a.812.812 0 0 1-.34.081c-.182 0-.336-.104-.463-.313-.118-.208-.195-.494-.232-.857a2.974 2.974 0 0 1-1.13.912 3.5 3.5 0 0 1-1.484.327c-.69 0-1.243-.178-1.66-.531-.418-.364-.627-.836-.627-1.416 0-.853.413-1.52 1.239-2.002.835-.48 2.047-.758 3.635-.83v-.436c0-.599-.154-1.044-.463-1.334-.3-.3-.758-.45-1.375-.45-.4 0-.771.087-1.116.26-.336.163-.7.44-1.09.83a.277.277 0 0 1-.204.082.552.552 0 0 1-.3-.11 1.436 1.436 0 0 1-.312-.34 4.315 4.315 0 0 1 1.388-1.102 3.804 3.804 0 0 1 1.675-.382c.844 0 1.507.227 1.988.681.49.454.735 1.076.735 1.865v3.213Zm-3.445 1.24c.49 0 .953-.137 1.389-.41.436-.272.812-.657 1.13-1.157V42.73c-2.614.11-3.92.794-3.92 2.056 0 .799.466 1.198 1.401 1.198Zm11.635-1.117c0 .553.005.93.014 1.13.018.19.054.363.109.517a1.561 1.561 0 0 1-.708.163c-.136 0-.227-.095-.272-.285-.046-.2-.068-.59-.068-1.171v-3.69c0-.635-.118-1.093-.354-1.375-.236-.29-.617-.435-1.144-.435-.817 0-1.652.403-2.505 1.211v5.677h-.926v-4.942c0-1.343-.054-2.142-.163-2.396.29-.136.522-.204.694-.204.263 0 .395.263.395.79v.122a4.358 4.358 0 0 1 1.253-.749 3.735 3.735 0 0 1 1.347-.245c.78 0 1.362.214 1.743.64.39.418.585 1.058.585 1.92v3.322Zm11.221-.123c0 .418.032.749.095.994.073.236.195.45.368.64-.091.09-.2.163-.327.218a.81.81 0 0 1-.34.081c-.182 0-.336-.104-.463-.313-.118-.208-.195-.494-.232-.857a2.972 2.972 0 0 1-1.13.912 3.5 3.5 0 0 1-1.484.327c-.69 0-1.243-.178-1.66-.531-.418-.364-.627-.836-.627-1.416 0-.853.413-1.52 1.24-2.002.834-.48 2.046-.758 3.634-.83v-.436c0-.599-.154-1.044-.463-1.334-.299-.3-.758-.45-1.375-.45-.399 0-.771.087-1.116.26-.336.163-.699.44-1.09.83a.277.277 0 0 1-.203.082.552.552 0 0 1-.3-.11 1.436 1.436 0 0 1-.313-.34 4.314 4.314 0 0 1 1.389-1.102 3.803 3.803 0 0 1 1.674-.382c.844 0 1.507.227 1.988.681.49.454.735 1.076.735 1.865v3.213Zm-3.445 1.24c.491 0 .953-.137 1.389-.41.436-.272.812-.657 1.13-1.157V42.73c-2.614.11-3.92.794-3.92 2.056 0 .799.467 1.198 1.401 1.198Zm11.636-1.117c0 .553.004.93.013 1.13.018.19.055.363.109.517a1.562 1.562 0 0 1-.708.163c-.136 0-.227-.095-.272-.285-.046-.2-.068-.59-.068-1.171v-3.69c0-.635-.118-1.093-.354-1.375-.236-.29-.617-.435-1.144-.435-.817 0-1.652.403-2.505 1.211v5.677h-.926v-4.942c0-1.343-.054-2.142-.163-2.396.29-.136.522-.204.694-.204.264 0 .395.263.395.79v.122a4.36 4.36 0 0 1 1.253-.749 3.734 3.734 0 0 1 1.348-.245c.78 0 1.361.214 1.742.64.39.418.586 1.058.586 1.92v3.322Zm8.132 0c0 .29.018.585.055.885.036.3.081.549.136.748a1.464 1.464 0 0 1-.627.164c-.245 0-.399-.309-.462-.926-.3.363-.627.622-.981.776-.354.154-.789.231-1.307.231-.989 0-1.765-.34-2.328-1.02-.562-.69-.844-1.634-.844-2.832 0-1.235.3-2.192.899-2.873.608-.69 1.452-1.035 2.532-1.035.336 0 .69.064 1.062.19.381.119.694.269.939.45V35.84h.926v9.027Zm-3.118 1.116c.463 0 .872-.095 1.226-.286.354-.19.676-.485.966-.885v-4.288c-.217-.227-.517-.418-.898-.572a2.864 2.864 0 0 0-1.103-.231c-.799 0-1.411.272-1.838.816-.426.545-.64 1.33-.64 2.356 0 .998.195 1.765.586 2.3.39.527.957.79 1.701.79Zm11.851-8.904c1.407 0 2.487.413 3.241 1.24.762.816 1.143 1.991 1.143 3.525 0 .98-.177 1.83-.531 2.546a3.696 3.696 0 0 1-1.511 1.648c-.653.38-1.434.571-2.342.571h-2.818v-9.53h2.818Zm0 8.713c1.108 0 1.947-.33 2.519-.993.572-.672.858-1.652.858-2.941 0-1.334-.282-2.328-.844-2.982-.554-.653-1.398-.98-2.533-.98h-1.838v7.896h1.838Zm11.639-1.048c0 .418.032.749.095.994.073.236.195.45.368.64-.091.09-.2.163-.327.218a.81.81 0 0 1-.34.081c-.182 0-.336-.104-.463-.313-.118-.208-.195-.494-.232-.857a2.972 2.972 0 0 1-1.13.912 3.5 3.5 0 0 1-1.484.327c-.689 0-1.243-.178-1.661-.531-.417-.364-.626-.836-.626-1.416 0-.853.413-1.52 1.239-2.002.835-.48 2.047-.758 3.635-.83v-.436c0-.599-.154-1.044-.463-1.334-.299-.3-.758-.45-1.375-.45a2.46 2.46 0 0 0-1.116.26c-.336.163-.699.44-1.089.83a.28.28 0 0 1-.205.082.553.553 0 0 1-.299-.11 1.437 1.437 0 0 1-.313-.34 4.304 4.304 0 0 1 1.389-1.102 3.8 3.8 0 0 1 1.674-.382c.844 0 1.507.227 1.988.681.49.454.735 1.076.735 1.865v3.213Zm-3.444 1.24c.49 0 .953-.137 1.388-.41.436-.272.813-.657 1.13-1.157V42.73c-2.614.11-3.921.794-3.921 2.056 0 .799.468 1.198 1.403 1.198Zm8.721-6.958c.318 0 .558.055.722.163.172.1.258.255.258.463a.6.6 0 0 1-.149.395c-.218-.118-.518-.177-.899-.177-.608 0-1.098.24-1.47.722-.363.48-.545 1.112-.545 1.892v4.125h-.926v-7.488h.926v1.348c.209-.417.504-.762.885-1.034.381-.273.781-.409 1.198-.409Zm8.487 7.583c-.154 0-.331.01-.531.028a4.076 4.076 0 0 1-.299.027.438.438 0 0 1-.395-.218l-1.756-2.832c-.264-.426-.74-.626-1.43-.599l-.626.027v3.567h-.926V35.84h.926v6.358l.531-.013c.19-.01.354-.046.49-.11.136-.072.259-.18.368-.326l2.042-2.628h1.143l-2.423 2.968a2.398 2.398 0 0 0-.123.15.873.873 0 0 1-.245.19c.445.119.767.337.967.654l2.287 3.526Zm10.983 0a36.46 36.46 0 0 0-.695-2.763h-4.628a36.46 36.46 0 0 0-.695 2.763h-1.007c.472-1.942.985-3.666 1.538-5.173a31.572 31.572 0 0 1 1.974-4.357h1.021a31.808 31.808 0 0 1 1.961 4.343c.553 1.507 1.066 3.236 1.538 5.187h-1.007Zm-.926-3.58a28.103 28.103 0 0 0-2.083-4.956 28.103 28.103 0 0 0-2.083 4.956h4.166Zm9.355-4.302c.163 0 .281.045.354.136.081.081.122.218.122.408 0 .055-.009.164-.027.327-.672 0-1.139.09-1.402.272.363.436.544.976.544 1.62 0 1.743-1.003 2.614-3.009 2.614-.617 0-1.071.046-1.361.136-.281.082-.422.214-.422.395 0 .409.731.613 2.192.613 1.025 0 1.82.172 2.382.517.563.345.844.835.844 1.47 0 .681-.304 1.203-.912 1.566-.599.372-1.461.558-2.586.558-1.062 0-1.87-.163-2.424-.49-.553-.326-.83-.807-.83-1.443 0-.363.122-.685.367-.966.254-.282.604-.49 1.049-.627v-.04a1.265 1.265 0 0 1-.654-.395 1.086 1.086 0 0 1-.245-.708c0-.227.091-.427.272-.6.182-.18.427-.303.736-.367a2.442 2.442 0 0 1-.913-.858 2.394 2.394 0 0 1-.313-1.211c0-1.78 1.026-2.669 3.077-2.669.645 0 1.194.141 1.647.422a2.73 2.73 0 0 1 .736-.49c.272-.127.531-.19.776-.19Zm-3.336 4.615c.699 0 1.198-.136 1.498-.408.308-.282.463-.745.463-1.39 0-.634-.155-1.097-.463-1.388-.309-.29-.808-.435-1.498-.435-.672 0-1.166.15-1.484.449-.308.29-.463.749-.463 1.375 0 1.198.649 1.797 1.947 1.797Zm.109 2.75c-.771 0-1.357.104-1.756.313-.39.209-.586.513-.586.912 0 .418.196.736.586.953.39.218.957.327 1.702.327.835 0 1.465-.109 1.892-.327.427-.208.64-.526.64-.953 0-.435-.195-.748-.586-.94-.381-.19-1.012-.285-1.892-.285Zm11.054-3.758c0 .21-.009.418-.027.627h-5.418c.018.944.227 1.679.626 2.205.408.527.971.79 1.688.79.49 0 .903-.095 1.239-.286.345-.19.631-.495.858-.912a.306.306 0 0 1 .286-.177c.145 0 .345.086.599.258-.2.59-.568 1.058-1.103 1.403-.536.336-1.162.504-1.879.504-.662 0-1.243-.155-1.743-.463-.49-.318-.866-.767-1.13-1.348-.263-.59-.394-1.285-.394-2.083 0-1.207.299-2.151.898-2.832.599-.69 1.421-1.035 2.464-1.035.953 0 1.698.295 2.233.885.536.59.803 1.412.803 2.465Zm-.953-.109c0-1.633-.708-2.45-2.123-2.45-.69 0-1.235.209-1.634.626-.4.418-.636 1.026-.708 1.824h4.465Zm4.828 4.52a4.23 4.23 0 0 1-1.266-.204 3.406 3.406 0 0 1-1.09-.544c-.29-.227-.435-.468-.435-.722 0-.118.036-.222.109-.313a.61.61 0 0 1 .299-.204c.327.426.681.74 1.062.94.381.19.84.285 1.375.285.572 0 1.003-.131 1.293-.395.3-.263.45-.612.45-1.048 0-.29-.091-.526-.273-.708a1.602 1.602 0 0 0-.653-.408c-.254-.091-.608-.196-1.062-.313a11.865 11.865 0 0 1-1.28-.395 2.159 2.159 0 0 1-.817-.572c-.217-.263-.326-.613-.326-1.048 0-.463.122-.854.367-1.171.245-.318.558-.554.94-.708a3.092 3.092 0 0 1 1.171-.232c.571 0 1.089.114 1.552.34.472.228.839.559 1.102.994-.218.227-.404.34-.558.34-.118 0-.231-.063-.34-.19a1.976 1.976 0 0 0-.763-.558c-.281-.127-.626-.19-1.034-.19-.463 0-.831.108-1.103.326-.272.218-.409.554-.409 1.008 0 .263.082.476.246.64.163.163.367.29.612.38.245.082.581.178 1.008.287.544.127.984.258 1.32.395.345.136.636.349.872.64.236.28.354.662.354 1.143 0 .672-.25 1.207-.749 1.607-.49.399-1.148.599-1.974.599ZM23.168 89.1c0 .204-.03.34-.093.408-.057.068-.173.102-.349.102h-3.123v-5.955h3.557v.51h-2.944v2.144h2.535v.51h-2.535v2.28h2.952Zm4.515-.655c0 .26.02.468.06.62.045.148.121.282.229.4a.644.644 0 0 1-.204.137.507.507 0 0 1-.213.05c-.113 0-.21-.064-.29-.195a1.38 1.38 0 0 1-.144-.536 1.859 1.859 0 0 1-.706.57 2.188 2.188 0 0 1-.927.205c-.432 0-.778-.111-1.038-.332a1.117 1.117 0 0 1-.392-.885c0-.533.258-.95.774-1.25.522-.302 1.28-.475 2.272-.52v-.272c0-.375-.096-.653-.29-.834-.186-.187-.473-.28-.858-.28-.25 0-.483.053-.698.16-.21.103-.437.276-.68.52a.173.173 0 0 1-.128.05.345.345 0 0 1-.188-.067.896.896 0 0 1-.195-.213c.255-.3.544-.53.867-.689a2.376 2.376 0 0 1 1.047-.238c.527 0 .942.142 1.242.425.306.284.46.672.46 1.166v2.008Zm-2.153.774c.306 0 .596-.085.868-.255.272-.17.508-.411.706-.723v-1.055c-1.633.068-2.45.496-2.45 1.284 0 .5.292.749.876.749Zm5.45-4.348c.2 0 .35.034.451.102a.311.311 0 0 1 .162.29c0 .09-.031.173-.093.246-.137-.073-.324-.11-.562-.11-.38 0-.686.15-.919.45-.227.301-.34.696-.34 1.183v2.578H29.1v-4.68h.579v.843c.13-.26.315-.476.553-.647.238-.17.488-.255.749-.255Zm1.655-1.99h.578v6.73h-.578v-6.73Zm5.458 2.05-1.812 5.037c-.159.448-.36.774-.604.978-.238.21-.542.315-.91.315-.216 0-.386-.034-.511-.102-.125-.063-.187-.148-.187-.255 0-.114.048-.205.145-.273a.79.79 0 0 0 .255.103c.119.028.235.042.349.042.232 0 .43-.102.595-.306.17-.204.315-.516.434-.936L34.18 84.93h.613l1.353 3.769 1.336-3.77h.612Zm4.809 4.764c-.687 0-1.223-.215-1.608-.646-.38-.431-.57-1.032-.57-1.804 0-.488.085-.91.255-1.268.176-.363.425-.64.749-.834.323-.198.703-.297 1.14-.297.522 0 .95.133 1.285.4.34.26.538.618.595 1.072a1.352 1.352 0 0 1-.213.068.856.856 0 0 1-.212.034c-.057 0-.1-.014-.128-.043a.813.813 0 0 1-.077-.204.99.99 0 0 0-.425-.621c-.221-.153-.496-.23-.825-.23-.306 0-.579.08-.817.238a1.566 1.566 0 0 0-.544.681c-.125.29-.188.624-.188 1.004 0 .601.142 1.08.426 1.438.289.357.675.536 1.157.536.368 0 .683-.085.944-.255.261-.176.457-.431.587-.766.08 0 .145.034.196.102a.361.361 0 0 1 .085.238c0 .199-.085.389-.255.57a1.757 1.757 0 0 1-.672.426 2.426 2.426 0 0 1-.885.162Zm5.171-4.85c.488 0 .873.143 1.157.426.284.278.426.658.426 1.14v3.2h-.579v-3.14c0-.369-.09-.653-.272-.851-.182-.198-.443-.298-.783-.298-.261 0-.536.06-.825.179-.29.113-.548.266-.775.46v3.65h-.578v-6.73h.578v2.526c.25-.181.517-.32.8-.417a2.63 2.63 0 0 1 .851-.144Zm4.96.026c.198 0 .348.034.45.102a.311.311 0 0 1 .162.29c0 .09-.031.173-.094.246-.136-.073-.323-.11-.561-.11-.38 0-.687.15-.92.45-.226.301-.34.696-.34 1.183v2.578h-.578v-4.68h.579v.843c.13-.26.314-.476.553-.647.238-.17.487-.255.748-.255Zm1.738.06h.579v4.68h-.579v-4.68Zm.256-.86c-.256 0-.383-.127-.383-.382v-.077c0-.255.127-.383.383-.383h.068c.255 0 .383.128.383.383v.077c0 .255-.128.382-.383.382h-.068Zm3.344 5.625c-.255 0-.519-.043-.791-.128a2.123 2.123 0 0 1-.68-.34c-.182-.142-.273-.293-.273-.451 0-.074.023-.14.068-.196a.384.384 0 0 1 .187-.128c.204.267.425.463.664.587.238.12.524.179.86.179.356 0 .626-.082.807-.247a.83.83 0 0 0 .281-.655.599.599 0 0 0-.17-.442 1.004 1.004 0 0 0-.408-.256 8.292 8.292 0 0 0-.664-.195 7.348 7.348 0 0 1-.8-.247 1.344 1.344 0 0 1-.51-.357c-.136-.165-.205-.383-.205-.656 0-.289.077-.533.23-.731.153-.199.349-.346.587-.443.238-.096.482-.144.732-.144.357 0 .68.07.97.212.295.142.525.35.69.622-.137.141-.253.212-.35.212-.073 0-.144-.04-.212-.119a1.236 1.236 0 0 0-.477-.349 1.568 1.568 0 0 0-.646-.119c-.29 0-.52.068-.69.204-.17.136-.255.346-.255.63a.54.54 0 0 0 .153.4c.102.102.23.181.383.238.153.051.363.11.63.179.34.08.615.161.825.246.215.086.397.219.544.4.148.176.222.415.222.715 0 .42-.156.754-.468 1.004-.306.25-.718.375-1.234.375Zm4.955-.656c.04.029.07.071.093.128a.329.329 0 0 1 .043.162c0 .107-.045.184-.136.23-.182.09-.417.136-.706.136-.369 0-.664-.1-.885-.298-.221-.205-.332-.477-.332-.817v-3.19h-.885v-.46h.885v-1.276h.579v1.276h1.225v.46h-1.225v3.08c0 .476.204.714.612.714.261 0 .505-.048.732-.145Zm1.208-4.11h.579v4.68h-.579v-4.68Zm.255-.859c-.255 0-.382-.127-.382-.382v-.077c0-.255.127-.383.383-.383h.068c.255 0 .382.128.382.383v.077c0 .255-.127.382-.382.382h-.069Zm5.31 4.374c0 .26.02.468.06.62.045.148.122.282.23.4a.644.644 0 0 1-.204.137.508.508 0 0 1-.213.05c-.114 0-.21-.064-.29-.195a1.378 1.378 0 0 1-.144-.536 1.86 1.86 0 0 1-.706.57 2.189 2.189 0 0 1-.928.205c-.43 0-.777-.111-1.038-.332a1.117 1.117 0 0 1-.391-.885c0-.533.258-.95.774-1.25.522-.302 1.28-.475 2.272-.52v-.272c0-.375-.097-.653-.29-.834-.187-.187-.473-.28-.859-.28-.25 0-.482.053-.698.16-.21.103-.436.276-.68.52a.173.173 0 0 1-.128.05.345.345 0 0 1-.187-.067.896.896 0 0 1-.196-.213c.256-.3.545-.53.868-.689a2.376 2.376 0 0 1 1.047-.238c.527 0 .941.142 1.242.425.306.284.46.672.46 1.166v2.008Zm-2.152.774c.306 0 .595-.085.868-.255.272-.17.507-.411.706-.723v-1.055c-1.634.068-2.45.496-2.45 1.284 0 .5.292.749.876.749Zm7.271-.698c0 .346.003.582.009.707.011.119.034.226.068.323a.975.975 0 0 1-.443.102c-.085 0-.142-.06-.17-.179-.028-.124-.042-.368-.042-.731v-2.306c0-.397-.074-.684-.222-.86-.147-.181-.385-.272-.714-.272-.51 0-1.033.253-1.566.757v3.548h-.578v-3.088c0-.84-.035-1.339-.103-1.498.182-.085.327-.127.434-.127.165 0 .247.164.247.493v.077c.261-.216.522-.372.783-.468.266-.102.547-.153.842-.153.488 0 .851.133 1.09.4.243.26.365.66.365 1.2v2.075Zm2.122.247c.113 0 .204.037.272.11.068.069.102.165.102.29v.093c0 .2-.034.398-.102.596a2.41 2.41 0 0 1-.255.545c-.148.227-.273.34-.375.34a.361.361 0 0 1-.238-.085c.153-.187.272-.363.357-.528.085-.158.142-.331.17-.519h-.042a.33.33 0 0 1-.255-.102.387.387 0 0 1-.094-.272v-.094c0-.113.031-.204.094-.272a.357.357 0 0 1 .264-.102h.102Zm5.636-5.811c.26 0 .46.031.595.093.136.063.205.154.205.273a.478.478 0 0 1-.034.178c-.017.052-.04.077-.069.077a1.296 1.296 0 0 0-.587-.128c-.238 0-.42.074-.544.222-.125.147-.187.36-.187.638v.62h1.055v.443h-1.055v4.237h-.579v-4.237H80.9v-.442h.876v-.63c0-.408.108-.734.324-.978.22-.244.513-.366.876-.366Zm4.722 5.488c0 .26.02.468.06.62.044.148.121.282.229.4a.645.645 0 0 1-.204.137.508.508 0 0 1-.213.05c-.113 0-.21-.064-.29-.195a1.378 1.378 0 0 1-.144-.536 1.859 1.859 0 0 1-.706.57 2.188 2.188 0 0 1-.928.205c-.43 0-.777-.111-1.038-.332a1.117 1.117 0 0 1-.391-.885c0-.533.258-.95.774-1.25.522-.302 1.28-.475 2.272-.52v-.272c0-.375-.096-.653-.29-.834-.186-.187-.473-.28-.859-.28-.25 0-.482.053-.697.16-.21.103-.437.276-.681.52a.173.173 0 0 1-.128.05.345.345 0 0 1-.187-.067.896.896 0 0 1-.195-.213c.255-.3.544-.53.867-.689a2.376 2.376 0 0 1 1.047-.238c.527 0 .942.142 1.242.425.306.284.46.672.46 1.166v2.008Zm-2.153.774c.306 0 .596-.085.868-.255.272-.17.508-.411.706-.723v-1.055c-1.634.068-2.45.496-2.45 1.284 0 .5.292.749.876.749Zm3.783-4.288h.578v4.68h-.578v-4.68Zm.255-.86c-.255 0-.383-.127-.383-.382v-.077c0-.255.128-.383.383-.383h.068c.255 0 .383.128.383.383v.077c0 .255-.128.382-.383.382h-.068Zm4.17 4.97c.04.028.07.07.094.127a.328.328 0 0 1 .042.162c0 .107-.045.184-.136.23-.182.09-.417.136-.706.136-.369 0-.664-.1-.885-.298-.221-.205-.332-.477-.332-.817v-3.19h-.885v-.46h.885v-1.276h.579v1.276h1.225v.46h-1.225v3.08c0 .476.204.714.612.714.261 0 .505-.048.732-.145Zm3.276-4.195c.488 0 .873.142 1.157.425.284.278.425.658.425 1.14v3.2h-.578v-3.14c0-.369-.091-.653-.273-.851-.181-.198-.442-.298-.782-.298-.261 0-.536.06-.825.179-.29.113-.548.266-.775.46v3.65H94.8v-6.73h.578v2.526c.25-.181.516-.32.8-.417a2.63 2.63 0 0 1 .85-.144Zm8.599 3.599c0 .26.02.468.06.62.045.148.122.282.229.4a.628.628 0 0 1-.204.137.506.506 0 0 1-.213.05c-.113 0-.209-.064-.289-.195a1.363 1.363 0 0 1-.144-.536 1.863 1.863 0 0 1-.707.57 2.188 2.188 0 0 1-.927.205c-.431 0-.777-.111-1.038-.332a1.117 1.117 0 0 1-.391-.885c0-.533.258-.95.774-1.25.522-.302 1.279-.475 2.272-.52v-.272c0-.375-.097-.653-.29-.834-.187-.187-.473-.28-.859-.28-.25 0-.482.053-.698.16-.21.103-.437.276-.68.52a.174.174 0 0 1-.128.05.344.344 0 0 1-.187-.067.89.89 0 0 1-.196-.213c.255-.3.545-.53.868-.689a2.376 2.376 0 0 1 1.046-.238c.528 0 .942.142 1.243.425.306.284.459.672.459 1.166v2.008Zm-2.152.774c.306 0 .595-.085.867-.255.273-.17.508-.411.707-.723v-1.055c-1.634.068-2.451.496-2.451 1.284 0 .5.292.749.877.749Zm7.271-.698c0 .346.003.582.008.707.012.119.034.226.068.323a.972.972 0 0 1-.442.102c-.085 0-.142-.06-.17-.179-.029-.124-.043-.368-.043-.731v-2.306c0-.397-.073-.684-.221-.86-.147-.181-.386-.272-.715-.272-.51 0-1.032.253-1.565.757v3.548h-.579v-3.088c0-.84-.034-1.339-.102-1.498.182-.085.326-.127.434-.127.165 0 .247.164.247.493v.077c.261-.216.522-.372.783-.468a2.33 2.33 0 0 1 .842-.153c.488 0 .851.133 1.089.4.244.26.366.66.366 1.2v2.075Zm5.082 0c0 .182.012.366.034.553.023.188.051.344.085.468a.91.91 0 0 1-.391.102c-.153 0-.25-.192-.289-.578a1.669 1.669 0 0 1-.613.485c-.221.096-.493.145-.817.145-.618 0-1.103-.213-1.455-.639-.351-.43-.527-1.02-.527-1.77 0-.77.187-1.37.561-1.795.38-.43.908-.646 1.583-.646.21 0 .431.04.664.119.238.074.434.167.587.28V82.88h.578v5.641Zm-1.948.698c.289 0 .544-.06.766-.179.221-.119.422-.303.604-.553v-2.68a1.6 1.6 0 0 0-.562-.357 1.787 1.787 0 0 0-.689-.145c-.499 0-.882.17-1.149.51-.266.341-.4.832-.4 1.473 0 .624.122 1.103.366 1.438.244.329.599.493 1.064.493Zm10.537-4.373c.403 0 .729.13.979.391.255.261.382.599.382 1.013v3.36h-.587v-3.335c0-.329-.073-.573-.221-.732-.147-.158-.371-.238-.672-.238-.482 0-.93.221-1.344.664.011.09.017.159.017.204v3.437h-.579v-3.42c0-.266-.082-.48-.247-.638-.158-.165-.371-.247-.638-.247a1.57 1.57 0 0 0-.697.162c-.216.108-.434.28-.656.519v3.624h-.578v-3.088c0-.84-.034-1.339-.102-1.498.181-.085.326-.127.434-.127.164 0 .246.164.246.493v.034c.216-.204.437-.351.664-.442.233-.09.496-.136.791-.136.267 0 .505.062.715.187.21.119.372.284.485.493.244-.238.491-.41.74-.519.256-.107.545-.161.868-.161Zm6.561 2.093c0 .13-.006.26-.017.391h-3.386c.011.59.141 1.05.391 1.379.255.329.607.493 1.055.493.306 0 .564-.06.774-.179.216-.119.394-.309.536-.57.04-.073.1-.11.179-.11.091 0 .216.053.374.161a1.64 1.64 0 0 1-.689.877c-.335.21-.726.315-1.174.315a2.03 2.03 0 0 1-1.089-.29 1.917 1.917 0 0 1-.706-.842c-.165-.369-.247-.803-.247-1.302 0-.754.187-1.344.562-1.77.374-.43.887-.646 1.54-.646.595 0 1.06.184 1.395.553.335.368.502.882.502 1.54Zm-.596-.068c0-1.021-.442-1.532-1.327-1.532-.431 0-.771.13-1.021.392-.25.26-.397.64-.442 1.14h2.79Zm3.536-2c.199 0 .349.034.451.102a.311.311 0 0 1 .162.29.37.37 0 0 1-.094.246c-.136-.073-.323-.11-.561-.11-.38 0-.687.15-.919.45-.227.301-.341.696-.341 1.183v2.578h-.578v-4.68h.578v.843c.131-.26.315-.476.553-.647.239-.17.488-.255.749-.255Zm3.322 4.825c-.687 0-1.223-.216-1.608-.647-.38-.431-.57-1.032-.57-1.804 0-.488.085-.91.255-1.268.176-.363.425-.64.749-.834.323-.198.703-.297 1.14-.297.521 0 .95.133 1.284.4.341.26.539.618.596 1.072a1.35 1.35 0 0 1-.213.068.856.856 0 0 1-.212.034c-.057 0-.1-.014-.128-.043a.822.822 0 0 1-.077-.204.988.988 0 0 0-.425-.621c-.221-.153-.496-.23-.825-.23-.307 0-.579.08-.817.238a1.568 1.568 0 0 0-.545.681 2.53 2.53 0 0 0-.187 1.004c0 .601.142 1.08.426 1.438.289.357.675.536 1.157.536.368 0 .683-.085.944-.255.261-.176.457-.431.587-.766.08 0 .145.034.196.102a.36.36 0 0 1 .085.238c0 .199-.085.389-.255.57a1.765 1.765 0 0 1-.672.426 2.426 2.426 0 0 1-.885.162Zm6.2-4.765-1.812 5.037c-.159.448-.36.774-.604.978-.238.21-.542.315-.91.315-.216 0-.386-.034-.511-.102-.125-.063-.187-.148-.187-.255 0-.114.048-.205.145-.273.056.04.141.074.255.103.119.028.235.042.349.042.232 0 .431-.102.595-.306.17-.204.315-.516.434-.936l-1.667-4.603h.612l1.353 3.769 1.336-3.77h.612Zm1.45 3.837c.113 0 .204.037.272.11.068.069.102.165.102.29v.093c0 .2-.034.398-.102.596a2.415 2.415 0 0 1-.255.545c-.148.227-.272.34-.375.34a.362.362 0 0 1-.238-.085c.153-.187.272-.363.358-.528.085-.158.141-.331.17-.519h-.043a.328.328 0 0 1-.255-.102.385.385 0 0 1-.094-.272v-.094c0-.113.031-.204.094-.272a.357.357 0 0 1 .264-.102h.102Zm9.082-3.922c.402 0 .729.13.978.391.255.261.383.599.383 1.013v3.36h-.587v-3.335c0-.329-.074-.573-.221-.732-.148-.158-.372-.238-.672-.238-.483 0-.931.221-1.345.664.012.09.017.159.017.204v3.437h-.578v-3.42c0-.266-.082-.48-.247-.638-.159-.165-.371-.247-.638-.247-.244 0-.477.054-.698.162-.215.108-.434.28-.655.519v3.624h-.578v-3.088c0-.84-.035-1.339-.103-1.498.182-.085.327-.127.434-.127.165 0 .247.164.247.493v.034c.216-.204.437-.351.664-.442.232-.09.496-.136.791-.136.267 0 .505.062.715.187.21.119.371.284.485.493.244-.238.49-.41.74-.519a2.21 2.21 0 0 1 .868-.161Zm6.186 3.599c0 .26.02.468.06.62.045.148.122.282.229.4a.628.628 0 0 1-.204.137.502.502 0 0 1-.212.05c-.114 0-.21-.064-.29-.195a1.38 1.38 0 0 1-.144-.536 1.863 1.863 0 0 1-.707.57 2.188 2.188 0 0 1-.927.205c-.431 0-.777-.111-1.038-.332a1.117 1.117 0 0 1-.391-.885c0-.533.258-.95.774-1.25.522-.302 1.279-.475 2.272-.52v-.272c0-.375-.097-.653-.29-.834-.187-.187-.473-.28-.859-.28-.25 0-.482.053-.698.16-.21.103-.436.276-.68.52a.174.174 0 0 1-.128.05.344.344 0 0 1-.187-.067.912.912 0 0 1-.196-.213c.255-.3.545-.53.868-.689a2.377 2.377 0 0 1 1.047-.238c.527 0 .941.142 1.242.425.306.284.459.672.459 1.166v2.008Zm-2.152.774c.306 0 .595-.085.867-.255.273-.17.508-.411.707-.723v-1.055c-1.634.068-2.451.496-2.451 1.284 0 .5.292.749.877.749Zm3.136 2.025c-.114 0-.238-.017-.374-.051a.647.647 0 0 1-.307-.145.254.254 0 0 1-.076-.187c0-.068.014-.127.042-.179.029-.05.06-.076.094-.076.181.096.397.144.646.144.171 0 .301-.05.392-.153.096-.102.144-.255.144-.46V84.93h.579v5.13c0 .386-.099.678-.298.877-.198.204-.479.306-.842.306Zm.817-7.172c-.256 0-.383-.128-.383-.383v-.077c0-.255.127-.383.383-.383h.068c.255 0 .383.128.383.383v.077c0 .255-.128.382-.383.382h-.068Zm5.611 2.867c0 .13-.006.26-.017.391h-3.386c.011.59.142 1.05.391 1.379.255.329.607.493 1.055.493.307 0 .565-.06.775-.179.215-.119.394-.309.536-.57a.19.19 0 0 1 .178-.11c.091 0 .216.053.375.161-.125.369-.355.661-.69.877-.334.21-.726.315-1.174.315a2.03 2.03 0 0 1-1.089-.29 1.917 1.917 0 0 1-.706-.842c-.164-.369-.247-.803-.247-1.302 0-.754.187-1.344.562-1.77.374-.43.888-.646 1.54-.646.595 0 1.061.184 1.395.553.335.368.502.882.502 1.54Zm-.595-.068c0-1.021-.443-1.532-1.328-1.532-.431 0-.771.13-1.021.392-.249.26-.397.64-.442 1.14h2.791Zm3.016 2.825c-.255 0-.519-.043-.791-.128a2.133 2.133 0 0 1-.681-.34c-.181-.142-.272-.293-.272-.451 0-.074.023-.14.068-.196a.387.387 0 0 1 .187-.128c.205.267.426.463.664.587.238.12.525.179.859.179.358 0 .627-.082.809-.247a.83.83 0 0 0 .28-.655.596.596 0 0 0-.17-.442 1 1 0 0 0-.408-.256 8.285 8.285 0 0 0-.664-.195 7.41 7.41 0 0 1-.8-.247 1.349 1.349 0 0 1-.51-.357c-.136-.165-.204-.383-.204-.656 0-.289.076-.533.229-.731.154-.199.349-.346.588-.443.238-.096.482-.144.731-.144.358 0 .681.07.97.212.295.142.525.35.689.622-.136.141-.252.212-.348.212-.074 0-.145-.04-.213-.119a1.232 1.232 0 0 0-.477-.349 1.563 1.563 0 0 0-.646-.119c-.29 0-.519.068-.689.204-.171.136-.256.346-.256.63 0 .164.051.298.153.4.103.102.23.181.383.238.154.051.363.11.63.179.34.08.615.161.825.246.216.086.397.219.545.4.147.176.221.415.221.715 0 .42-.156.754-.468 1.004-.306.25-.717.375-1.234.375Zm4.955-.656a.28.28 0 0 1 .094.128.332.332 0 0 1 .042.162c0 .107-.045.184-.136.23-.181.09-.417.136-.706.136-.369 0-.664-.1-.885-.298-.221-.205-.332-.477-.332-.817v-3.19h-.885v-.46h.885v-1.276h.579v1.276h1.225v.46h-1.225v3.08c0 .476.204.714.612.714.261 0 .505-.048.732-.145Zm4.306-4.11-1.813 5.038c-.159.448-.36.774-.604.978-.238.21-.541.315-.91.315-.216 0-.386-.034-.511-.102-.124-.063-.187-.148-.187-.255 0-.114.048-.205.145-.273.057.04.142.074.255.103.119.028.235.042.349.042.232 0 .431-.102.595-.306.171-.204.315-.516.434-.936l-1.667-4.603h.612l1.353 3.769 1.336-3.77h.613Zm4.621 4.766c-.658 0-1.154-.205-1.489-.613-.335-.408-.502-1.015-.502-1.82 0-1.612.664-2.417 1.991-2.417s1.991.805 1.991 2.416c0 .806-.167 1.413-.502 1.82-.335.41-.831.614-1.489.614Zm0-.477c.482 0 .834-.156 1.055-.468.227-.318.34-.814.34-1.489 0-.67-.113-1.16-.34-1.472-.221-.312-.573-.468-1.055-.468s-.837.156-1.064.468c-.221.312-.331.803-.331 1.472 0 .675.11 1.171.331 1.489.227.312.582.468 1.064.468Zm4.508-6.262c.261 0 .46.031.596.093.136.063.204.154.204.273a.47.47 0 0 1-.034.178c-.017.052-.04.077-.068.077a1.295 1.295 0 0 0-.587-.128c-.239 0-.42.074-.545.222-.125.147-.187.36-.187.638v.62h1.055v.443h-1.055v4.237h-.579v-4.237h-.876v-.442h.876v-.63c0-.408.108-.734.324-.978.221-.244.513-.366.876-.366Zm7.375 1.727c.102 0 .176.028.221.085.051.051.077.136.077.255 0 .034-.006.103-.017.205-.42 0-.712.056-.877.17.227.272.341.61.341 1.012 0 1.09-.627 1.634-1.881 1.634-.385 0-.669.028-.851.085-.175.051-.263.133-.263.247 0 .255.456.382 1.369.382.641 0 1.138.108 1.489.324.352.215.528.522.528.919 0 .425-.19.751-.57.978-.374.233-.913.349-1.617.349-.663 0-1.168-.102-1.514-.306a.985.985 0 0 1-.519-.902.89.89 0 0 1 .23-.604c.158-.176.377-.306.655-.392V89.1a.791.791 0 0 1-.409-.247.677.677 0 0 1-.153-.442c0-.142.057-.267.17-.375a.887.887 0 0 1 .46-.23 1.526 1.526 0 0 1-.57-.535 1.487 1.487 0 0 1-.196-.758c0-1.111.641-1.667 1.923-1.667.403 0 .746.088 1.029.264.142-.131.295-.233.46-.307.17-.08.332-.119.485-.119Zm-2.085 2.884c.437 0 .749-.085.936-.255.193-.176.289-.465.289-.868 0-.397-.096-.686-.289-.868-.193-.181-.505-.272-.936-.272-.419 0-.729.094-.927.281-.193.181-.289.468-.289.86 0 .748.405 1.122 1.216 1.122Zm.068 1.72c-.482 0-.848.064-1.097.195-.244.13-.366.32-.366.57 0 .26.122.46.366.595.244.136.598.205 1.063.205.522 0 .916-.069 1.183-.205.267-.13.4-.329.4-.595a.608.608 0 0 0-.366-.587c-.238-.12-.632-.179-1.183-.179Zm4.816.407c-.658 0-1.155-.204-1.489-.612-.335-.408-.502-1.015-.502-1.82 0-1.612.663-2.417 1.991-2.417 1.327 0 1.991.805 1.991 2.416 0 .806-.168 1.413-.502 1.82-.335.41-.831.614-1.489.614Zm0-.476c.482 0 .834-.156 1.055-.468.227-.318.34-.814.34-1.489 0-.67-.113-1.16-.34-1.472-.221-.312-.573-.468-1.055-.468s-.837.156-1.064.468c-.221.312-.332.803-.332 1.472 0 .675.111 1.171.332 1.489.227.312.582.468 1.064.468Zm6.643-.698c0 .182.012.366.034.553.023.188.051.344.086.468a.917.917 0 0 1-.392.102c-.153 0-.249-.192-.289-.578a1.669 1.669 0 0 1-.613.485c-.221.096-.493.145-.817.145-.618 0-1.103-.213-1.454-.639-.352-.43-.528-1.02-.528-1.77 0-.77.187-1.37.562-1.795.38-.43.907-.646 1.582-.646.21 0 .431.04.664.119.238.074.434.167.587.28V82.88h.578v5.641Zm-1.948.698c.289 0 .545-.06.766-.179.221-.119.422-.303.604-.553v-2.68a1.591 1.591 0 0 0-.562-.357 1.787 1.787 0 0 0-.689-.145c-.499 0-.882.17-1.148.51-.267.341-.4.832-.4 1.473 0 .624.122 1.103.365 1.438.244.329.599.493 1.064.493ZM39.559 104.654h.613v5.955h-.613v-5.955Zm6.217 4.866c0 .346.002.582.008.707.011.119.034.226.068.323a.976.976 0 0 1-.442.102c-.085 0-.142-.06-.17-.179-.029-.125-.043-.368-.043-.731v-2.306c0-.397-.074-.684-.221-.86-.148-.181-.386-.272-.715-.272-.51 0-1.032.253-1.565.757v3.548h-.579v-3.088c0-.84-.034-1.339-.102-1.498.181-.085.326-.127.434-.127.164 0 .247.164.247.493v.077c.26-.216.522-.372.782-.468.267-.102.548-.153.843-.153.488 0 .85.133 1.089.4.244.261.366.66.366 1.199v2.076Zm3.678.519c.04.029.071.071.094.128a.328.328 0 0 1 .042.162c0 .107-.045.184-.136.229-.181.091-.417.136-.706.136-.369 0-.664-.099-.885-.297-.221-.205-.332-.477-.332-.817v-3.191h-.884v-.459h.884v-1.276h.579v1.276h1.225v.459H48.11v3.08c0 .477.204.715.612.715.261 0 .505-.048.732-.145Zm4.697-2.101c0 .13-.006.261-.017.391h-3.386c.011.59.142 1.05.391 1.378.255.329.607.494 1.055.494.306 0 .564-.06.774-.179.216-.119.395-.309.536-.57.04-.073.1-.11.179-.11.09 0 .216.054.374.161a1.646 1.646 0 0 1-.689.877c-.334.21-.726.314-1.174.314-.414 0-.777-.096-1.089-.289a1.914 1.914 0 0 1-.706-.842c-.165-.369-.247-.803-.247-1.302 0-.754.187-1.344.562-1.77.374-.431.887-.646 1.54-.646.595 0 1.06.184 1.395.553.335.368.502.882.502 1.54Zm-.596-.068c0-1.021-.442-1.532-1.327-1.532-.431 0-.771.131-1.02.392-.25.261-.398.641-.443 1.14h2.79Zm5.442-2.187c.102 0 .176.028.221.085.051.051.077.136.077.255 0 .034-.006.103-.017.205-.42 0-.712.056-.877.17.227.272.34.61.34 1.012 0 1.089-.626 1.634-1.88 1.634-.385 0-.669.028-.85.085-.176.051-.264.133-.264.247 0 .255.456.383 1.37.383.64 0 1.137.107 1.489.323.351.215.527.522.527.919 0 .425-.19.751-.57.978-.374.233-.913.349-1.616.349-.664 0-1.169-.102-1.515-.306a.986.986 0 0 1-.519-.902c0-.227.077-.428.23-.604.159-.176.377-.307.655-.392v-.025a.788.788 0 0 1-.408-.247.677.677 0 0 1-.154-.442c0-.142.057-.267.17-.375a.88.88 0 0 1 .46-.229 1.536 1.536 0 0 1-.57-.536 1.494 1.494 0 0 1-.196-.758c0-1.111.641-1.667 1.923-1.667.403 0 .746.088 1.03.263.141-.13.295-.232.46-.306.17-.079.33-.119.484-.119Zm-2.084 2.884c.436 0 .748-.085.935-.255.193-.176.29-.465.29-.868 0-.397-.097-.686-.29-.868-.192-.181-.504-.272-.935-.272-.42 0-.73.094-.928.281-.193.181-.29.468-.29.859 0 .749.406 1.123 1.218 1.123Zm.068 1.719c-.483 0-.848.065-1.098.196-.244.13-.366.32-.366.57 0 .261.122.459.366.595.244.137.598.205 1.064.205.521 0 .916-.068 1.182-.205.267-.13.4-.329.4-.595a.608.608 0 0 0-.366-.587c-.238-.119-.632-.179-1.182-.179Zm5.087-4.416c.199 0 .35.034.451.102a.313.313 0 0 1 .162.29.37.37 0 0 1-.094.246c-.136-.073-.323-.11-.561-.11-.38 0-.687.15-.92.451-.226.3-.34.695-.34 1.182v2.578h-.578v-4.679h.578v.842c.13-.261.315-.476.553-.646.239-.171.488-.256.75-.256Zm4.853 3.574c0 .261.02.468.06.621.045.147.122.281.23.4a.654.654 0 0 1-.205.136.507.507 0 0 1-.212.051c-.114 0-.21-.065-.29-.196a1.375 1.375 0 0 1-.144-.536 1.862 1.862 0 0 1-.707.57 2.19 2.19 0 0 1-.927.204c-.431 0-.777-.11-1.038-.331a1.118 1.118 0 0 1-.391-.885c0-.533.258-.95.774-1.251.522-.301 1.28-.474 2.272-.519v-.272c0-.375-.097-.653-.29-.834-.187-.187-.473-.281-.859-.281-.25 0-.482.054-.698.162-.21.102-.436.275-.68.519a.173.173 0 0 1-.128.051.348.348 0 0 1-.187-.068.896.896 0 0 1-.196-.213c.255-.3.545-.53.868-.689a2.374 2.374 0 0 1 1.047-.238c.527 0 .941.142 1.242.425.306.284.46.672.46 1.166v2.008Zm-2.152.774c.306 0 .595-.085.867-.255.273-.17.508-.411.707-.723v-1.055c-1.634.068-2.45.496-2.45 1.284 0 .499.291.749.876.749Zm5.756-.179c.04.029.071.071.094.128a.328.328 0 0 1 .043.162c0 .107-.046.184-.137.229-.181.091-.416.136-.706.136-.368 0-.663-.099-.885-.297-.22-.205-.331-.477-.331-.817v-3.191h-.885v-.459h.885v-1.276h.578v1.276h1.225v.459h-1.225v3.08c0 .477.204.715.613.715.26 0 .505-.048.731-.145Zm4.697-2.101c0 .13-.005.261-.017.391H71.82c.011.59.142 1.05.391 1.378.256.329.607.494 1.055.494.307 0 .565-.06.775-.179.215-.119.394-.309.536-.57.04-.073.099-.11.178-.11.091 0 .216.054.375.161a1.646 1.646 0 0 1-.69.877c-.334.21-.725.314-1.174.314-.414 0-.777-.096-1.089-.289a1.914 1.914 0 0 1-.706-.842c-.164-.369-.247-.803-.247-1.302 0-.754.188-1.344.562-1.77.374-.431.888-.646 1.54-.646.596 0 1.06.184 1.395.553.335.368.502.882.502 1.54Zm-.595-.068c0-1.021-.443-1.532-1.328-1.532-.43 0-.771.131-1.02.392-.25.261-.398.641-.443 1.14h2.79Zm5.246 1.65c0 .182.011.366.034.553.022.188.05.344.085.468a.914.914 0 0 1-.392.102c-.153 0-.25-.192-.289-.578a1.673 1.673 0 0 1-.613.485c-.22.096-.493.144-.816.144-.619 0-1.104-.212-1.455-.638-.352-.431-.528-1.021-.528-1.769 0-.772.188-1.37.562-1.796.38-.431.907-.646 1.582-.646.21 0 .431.039.664.119.238.074.434.167.587.281v-2.366h.579v5.641Zm-1.949.698c.29 0 .545-.06.766-.179a1.83 1.83 0 0 0 .604-.553v-2.68a1.586 1.586 0 0 0-.561-.357 1.78 1.78 0 0 0-.69-.145c-.499 0-.882.17-1.148.511-.267.34-.4.831-.4 1.472 0 .624.122 1.103.366 1.438.244.329.598.493 1.063.493Zm11.056-4.288c-.226 1.724-.657 3.284-1.293 4.679h-.527a17.575 17.575 0 0 1-.706-1.769 11.95 11.95 0 0 1-.4-1.668c-.102.59-.241 1.154-.417 1.693a15.837 15.837 0 0 1-.706 1.744h-.545c-.3-.641-.553-1.333-.757-2.076a22.569 22.569 0 0 1-.51-2.603h.595c.096.828.218 1.554.366 2.178.153.618.351 1.194.595 1.727.545-1.117.913-2.419 1.106-3.905h.562c.204 1.537.57 2.844 1.097 3.922.494-1.18.786-2.487.877-3.922h.664Zm1.258 0h.578v4.679h-.578v-4.679Zm.255-.86c-.255 0-.383-.127-.383-.382v-.077c0-.255.128-.383.383-.383h.068c.255 0 .383.128.383.383v.077c0 .255-.128.382-.383.382h-.068Zm4.17 4.969c.04.029.07.071.093.128a.329.329 0 0 1 .043.162c0 .107-.046.184-.136.229-.182.091-.417.136-.706.136-.37 0-.664-.099-.885-.297-.222-.205-.332-.477-.332-.817v-3.191h-.885v-.459h.885v-1.276h.579v1.276h1.225v.459h-1.225v3.08c0 .477.204.715.612.715.261 0 .505-.048.732-.145Zm3.276-4.194c.488 0 .873.142 1.157.425.283.278.425.658.425 1.14v3.199h-.578v-3.139c0-.369-.091-.652-.273-.851-.181-.199-.442-.298-.782-.298-.261 0-.536.06-.826.179-.289.113-.547.266-.774.459v3.65h-.578v-6.73h.578v2.527c.25-.181.516-.32.8-.417a2.64 2.64 0 0 1 .85-.144Zm9.058-.162c.102 0 .176.028.222.085.051.051.076.136.076.255 0 .034-.006.103-.017.205-.42 0-.712.056-.876.17.227.272.34.61.34 1.012 0 1.089-.627 1.634-1.88 1.634-.386 0-.67.028-.851.085-.176.051-.264.133-.264.247 0 .255.457.383 1.37.383.641 0 1.137.107 1.489.323.352.215.528.522.528.919 0 .425-.191.751-.571.978-.374.233-.913.349-1.616.349-.664 0-1.169-.102-1.515-.306a.986.986 0 0 1-.519-.902c0-.227.077-.428.23-.604.159-.176.377-.307.655-.392v-.025a.787.787 0 0 1-.408-.247.677.677 0 0 1-.153-.442c0-.142.056-.267.17-.375a.877.877 0 0 1 .459-.229 1.534 1.534 0 0 1-.57-.536 1.499 1.499 0 0 1-.195-.758c0-1.111.641-1.667 1.922-1.667.403 0 .746.088 1.03.263.142-.13.295-.232.459-.306.171-.079.332-.119.485-.119Zm-2.084 2.884c.437 0 .749-.085.936-.255.193-.176.289-.465.289-.868 0-.397-.096-.686-.289-.868-.193-.181-.505-.272-.936-.272-.42 0-.729.094-.928.281-.192.181-.289.468-.289.859 0 .749.406 1.123 1.217 1.123Zm.068 1.719c-.482 0-.848.065-1.098.196-.244.13-.366.32-.366.57 0 .261.122.459.366.595.244.137.599.205 1.064.205.522 0 .916-.068 1.183-.205.266-.13.399-.329.399-.595a.608.608 0 0 0-.365-.587c-.239-.119-.633-.179-1.183-.179Zm5.088-4.416c.198 0 .348.034.45.102a.312.312 0 0 1 .162.29c0 .09-.031.173-.093.246-.137-.073-.324-.11-.562-.11-.38 0-.686.15-.919.451-.227.3-.34.695-.34 1.182v2.578h-.579v-4.679h.579v.842c.13-.261.315-.476.553-.646.238-.171.488-.256.749-.256Zm5.227 2.068c0 .13-.006.261-.017.391h-3.386c.011.59.141 1.05.391 1.378.255.329.607.494 1.055.494.306 0 .564-.06.774-.179.216-.119.395-.309.536-.57.04-.073.1-.11.179-.11.091 0 .216.054.374.161a1.64 1.64 0 0 1-.689.877c-.334.21-.726.314-1.174.314-.414 0-.777-.096-1.089-.289a1.913 1.913 0 0 1-.706-.842c-.165-.369-.247-.803-.247-1.302 0-.754.187-1.344.562-1.77.374-.431.887-.646 1.54-.646.595 0 1.06.184 1.395.553.335.368.502.882.502 1.54Zm-.596-.068c0-1.021-.442-1.532-1.327-1.532-.431 0-.771.131-1.021.392-.25.261-.397.641-.442 1.14h2.79Zm3.451 2.824c-.686 0-1.222-.215-1.608-.646-.38-.431-.57-1.033-.57-1.804 0-.488.085-.91.255-1.268.176-.363.426-.641.749-.833.323-.199.703-.298 1.14-.298.522 0 .95.133 1.285.4.34.261.539.618.595 1.072a1.486 1.486 0 0 1-.425.102c-.057 0-.099-.014-.128-.043a.83.83 0 0 1-.076-.204.987.987 0 0 0-.426-.621c-.221-.153-.496-.23-.825-.23-.306 0-.579.08-.817.238a1.568 1.568 0 0 0-.544.681 2.512 2.512 0 0 0-.187 1.004c0 .601.141 1.081.425 1.438.289.357.675.536 1.157.536.369 0 .684-.085.944-.255a1.59 1.59 0 0 0 .588-.766c.079 0 .144.034.195.102a.36.36 0 0 1 .085.238c0 .199-.085.389-.255.57a1.75 1.75 0 0 1-.672.426 2.422 2.422 0 0 1-.885.161Zm4.499 0c-.658 0-1.154-.204-1.489-.612-.335-.409-.502-1.015-.502-1.821 0-1.611.664-2.416 1.991-2.416s1.991.805 1.991 2.416c0 .806-.167 1.412-.502 1.821-.335.408-.831.612-1.489.612Zm0-.476c.482 0 .834-.156 1.055-.468.227-.318.34-.814.34-1.489 0-.669-.113-1.16-.34-1.472-.221-.312-.573-.468-1.055-.468s-.837.156-1.063.468c-.222.312-.332.803-.332 1.472 0 .675.11 1.171.332 1.489.226.312.581.468 1.063.468Zm2.841-2.476h3.063v.511h-3.063v-.511Zm6.181-1.872c.198 0 .348.034.451.102a.313.313 0 0 1 .161.29c0 .09-.031.173-.093.246-.137-.073-.324-.11-.562-.11-.38 0-.686.15-.919.451-.227.3-.34.695-.34 1.182v2.578h-.579v-4.679h.579v.842c.13-.261.315-.476.553-.646.238-.171.488-.256.749-.256Zm3.134 4.824c-.658 0-1.154-.204-1.489-.612-.335-.409-.502-1.015-.502-1.821 0-1.611.664-2.416 1.991-2.416s1.991.805 1.991 2.416c0 .806-.167 1.412-.502 1.821-.335.408-.831.612-1.489.612Zm0-.476c.482 0 .834-.156 1.055-.468.227-.318.34-.814.34-1.489 0-.669-.113-1.16-.34-1.472-.221-.312-.573-.468-1.055-.468s-.837.156-1.064.468c-.221.312-.331.803-.331 1.472 0 .675.11 1.171.331 1.489.227.312.582.468 1.064.468Zm7.954-4.373c.403 0 .729.13.978.391.256.261.383.599.383 1.013v3.36h-.587v-3.335c0-.329-.074-.573-.221-.732-.148-.158-.372-.238-.672-.238-.482 0-.93.221-1.344.664a1.9 1.9 0 0 1 .017.204v3.437h-.579v-3.42c0-.267-.082-.479-.247-.638-.159-.165-.371-.247-.638-.247-.244 0-.476.054-.698.162a2.376 2.376 0 0 0-.655.519v3.624h-.578v-3.088c0-.84-.034-1.339-.102-1.498.181-.085.326-.127.434-.127.164 0 .246.164.246.493v.034c.216-.204.437-.351.664-.442.232-.091.496-.136.791-.136.267 0 .505.062.715.187.21.119.371.284.485.493.244-.238.491-.411.74-.519.255-.107.545-.161.868-.161Zm6.186 3.599c0 .261.02.468.06.621.045.147.122.281.23.4a.655.655 0 0 1-.205.136.502.502 0 0 1-.212.051c-.114 0-.21-.065-.29-.196a1.395 1.395 0 0 1-.144-.536 1.863 1.863 0 0 1-.706.57 2.19 2.19 0 0 1-.928.204c-.431 0-.777-.11-1.038-.331a1.117 1.117 0 0 1-.391-.885c0-.533.258-.95.774-1.251.522-.301 1.279-.474 2.272-.519v-.272c0-.375-.097-.653-.289-.834-.188-.187-.474-.281-.86-.281-.249 0-.482.054-.697.162-.21.102-.437.275-.681.519a.174.174 0 0 1-.128.051.35.35 0 0 1-.187-.068.91.91 0 0 1-.196-.213c.256-.3.545-.53.868-.689a2.375 2.375 0 0 1 1.047-.238c.527 0 .941.142 1.242.425.306.284.459.672.459 1.166v2.008Zm-2.152.774c.306 0 .595-.085.868-.255.272-.17.507-.411.706-.723v-1.055c-1.634.068-2.451.496-2.451 1.284 0 .499.293.749.877.749Zm7.271-.698c0 .346.003.582.009.707.011.119.034.226.068.323a.978.978 0 0 1-.443.102c-.085 0-.142-.06-.17-.179-.028-.125-.042-.368-.042-.731v-2.306c0-.397-.074-.684-.222-.86-.147-.181-.385-.272-.714-.272-.511 0-1.033.253-1.566.757v3.548h-.578v-3.088c0-.84-.034-1.339-.103-1.498.182-.085.327-.127.434-.127.165 0 .247.164.247.493v.077c.261-.216.522-.372.783-.468.266-.102.547-.153.842-.153.488 0 .851.133 1.089.4.244.261.366.66.366 1.199v2.076Zm7.276 0a4.521 4.521 0 0 0 .119 1.021.914.914 0 0 1-.391.102c-.153 0-.25-.192-.289-.578a1.682 1.682 0 0 1-.613.485c-.221.096-.494.144-.817.144-.618 0-1.103-.212-1.455-.638-.351-.431-.527-1.021-.527-1.769 0-.772.187-1.37.561-1.796.38-.431.908-.646 1.583-.646.21 0 .431.039.663.119.239.074.434.167.588.281v-2.366h.578v5.641Zm-1.948.698c.289 0 .544-.06.765-.179.222-.119.423-.303.605-.553v-2.68a1.6 1.6 0 0 0-.562-.357 1.78 1.78 0 0 0-.689-.145c-.499 0-.882.17-1.149.511-.266.34-.4.831-.4 1.472 0 .624.122 1.103.366 1.438.244.329.599.493 1.064.493Zm7.144-2.28c0 .13-.006.261-.017.391h-3.387c.012.59.142 1.05.392 1.378.255.329.607.494 1.055.494.306 0 .564-.06.774-.179.216-.119.394-.309.536-.57a.193.193 0 0 1 .179-.11c.091 0 .215.054.374.161a1.645 1.645 0 0 1-.689.877c-.335.21-.726.314-1.174.314-.414 0-.777-.096-1.089-.289a1.906 1.906 0 0 1-.706-.842c-.165-.369-.247-.803-.247-1.302 0-.754.187-1.344.561-1.77.375-.431.888-.646 1.54-.646.596 0 1.061.184 1.396.553.334.368.502.882.502 1.54Zm-.596-.068c0-1.021-.442-1.532-1.327-1.532-.431 0-.772.131-1.021.392-.25.261-.397.641-.443 1.14h2.791Zm1.868-1.94h.579v4.679h-.579v-4.679Zm.256-.86c-.256 0-.383-.127-.383-.382v-.077c0-.255.127-.383.383-.383h.068c.255 0 .382.128.382.383v.077c0 .255-.127.382-.382.382h-.068Zm4.169 4.969c.04.029.071.071.094.128a.332.332 0 0 1 .042.162c0 .107-.045.184-.136.229-.181.091-.417.136-.706.136-.369 0-.664-.099-.885-.297-.221-.205-.332-.477-.332-.817v-3.191h-.884v-.459h.884v-1.276h.579v1.276h1.225v.459h-1.225v3.08c0 .477.204.715.613.715.261 0 .504-.048.731-.145Zm1.209-4.109h.578v4.679h-.578v-4.679Zm.255-.86c-.255 0-.383-.127-.383-.382v-.077c0-.255.128-.383.383-.383h.068c.255 0 .383.128.383.383v.077c0 .255-.128.382-.383.382h-.068Zm5.684 2.868c0 .13-.005.261-.017.391h-3.386c.011.59.142 1.05.391 1.378.256.329.607.494 1.055.494.307 0 .565-.06.775-.179.215-.119.394-.309.536-.57a.191.191 0 0 1 .178-.11c.091 0 .216.054.375.161a1.647 1.647 0 0 1-.69.877c-.334.21-.726.314-1.174.314-.414 0-.777-.096-1.089-.289a1.92 1.92 0 0 1-.706-.842c-.164-.369-.247-.803-.247-1.302 0-.754.188-1.344.562-1.77.374-.431.888-.646 1.54-.646.595 0 1.061.184 1.395.553.335.368.502.882.502 1.54Zm-.595-.068c0-1.021-.443-1.532-1.328-1.532-.431 0-.771.131-1.021.392-.249.261-.397.641-.442 1.14h2.791Zm3.016 2.824c-.255 0-.519-.042-.791-.127a2.15 2.15 0 0 1-.681-.34c-.181-.142-.272-.293-.272-.451 0-.074.023-.139.068-.196a.385.385 0 0 1 .187-.128c.205.267.426.463.664.587.238.119.525.179.859.179.358 0 .627-.082.809-.247a.83.83 0 0 0 .281-.655.596.596 0 0 0-.171-.442.998.998 0 0 0-.408-.256 8.291 8.291 0 0 0-.664-.195 7.393 7.393 0 0 1-.799-.247 1.348 1.348 0 0 1-.511-.357c-.136-.165-.204-.383-.204-.655 0-.29.076-.534.23-.732.153-.199.348-.346.587-.443.238-.096.482-.144.731-.144.358 0 .681.071.97.212.295.142.525.349.689.622-.136.141-.252.212-.348.212-.074 0-.145-.039-.213-.119a1.234 1.234 0 0 0-.477-.349 1.57 1.57 0 0 0-.646-.119c-.289 0-.519.068-.689.204-.171.137-.256.346-.256.63 0 .164.051.298.154.4.102.102.229.181.382.238.154.051.363.111.63.179.34.079.615.161.825.247.216.085.397.218.545.399.147.176.221.414.221.715 0 .42-.156.755-.468 1.004-.306.25-.717.374-1.234.374Zm3.322-.085c-.256 0-.383-.127-.383-.382v-.077c0-.255.127-.383.383-.383h.068c.255 0 .383.128.383.383v.077c0 .255-.128.382-.383.382h-.068Zm-158.43 21.49c0 .204-.03.34-.093.408-.057.068-.173.102-.349.102h-3.122v-5.955h3.556v.51h-2.944v2.144h2.536v.511h-2.536v2.28h2.953Zm6.089-4.254c.403 0 .729.13.978.391.255.261.383.599.383 1.013v3.36h-.587v-3.335c0-.329-.074-.573-.221-.732-.148-.158-.372-.238-.672-.238-.483 0-.93.221-1.345.664.012.091.017.159.017.204v3.437h-.578v-3.42c0-.267-.082-.479-.247-.638-.159-.165-.372-.247-.638-.247a1.57 1.57 0 0 0-.698.162 2.372 2.372 0 0 0-.655.519v3.624h-.578v-3.088c0-.84-.035-1.339-.103-1.498.182-.085.327-.127.434-.127.165 0 .247.164.247.493v.034c.216-.204.437-.351.664-.442.232-.091.496-.136.791-.136.267 0 .505.062.715.187.21.119.371.284.485.493.244-.238.49-.411.74-.519.255-.107.545-.161.868-.161Zm4.927 0c.635 0 1.12.21 1.455.629.335.414.502 1.01.502 1.787 0 .494-.088.925-.264 1.293-.17.363-.42.644-.749.843-.323.198-.703.297-1.14.297a3.21 3.21 0 0 1-.655-.068 3 3 0 0 1-.578-.161v2.016h-.579v-4.96c0-.84-.034-1.339-.102-1.498.181-.085.326-.127.434-.127.164 0 .247.164.247.493v.034c.187-.187.402-.329.646-.425.25-.102.51-.153.783-.153Zm-.196 4.373c.488 0 .865-.17 1.132-.511.272-.34.408-.822.408-1.446 0-1.293-.448-1.94-1.344-1.94-.26 0-.516.06-.766.179a2.17 2.17 0 0 0-.663.51v2.953c.351.17.763.255 1.233.255Zm6.915-2.28c0 .13-.006.261-.017.391h-3.387c.012.59.142 1.05.392 1.378.255.329.607.494 1.055.494.306 0 .564-.06.774-.179.215-.119.394-.309.536-.57.04-.073.1-.11.179-.11.09 0 .215.054.374.161a1.647 1.647 0 0 1-.69.877c-.334.21-.725.314-1.173.314-.414 0-.777-.096-1.09-.289a1.914 1.914 0 0 1-.706-.842c-.164-.369-.246-.803-.246-1.302 0-.754.187-1.344.561-1.77.375-.431.888-.646 1.54-.646.596 0 1.061.184 1.396.553.334.368.502.882.502 1.54Zm-.596-.068c0-1.021-.442-1.532-1.327-1.532-.431 0-.772.131-1.021.392-.25.261-.397.641-.443 1.14h2.791Zm3.536-2c.198 0 .349.034.45.102a.313.313 0 0 1 .162.29.37.37 0 0 1-.093.246c-.136-.073-.324-.11-.562-.11-.38 0-.686.15-.919.451-.227.3-.34.695-.34 1.182v2.578h-.578v-4.679h.578v.842c.13-.261.315-.476.553-.646.238-.171.488-.256.749-.256Zm3.134 4.824c-.658 0-1.154-.204-1.489-.612-.334-.409-.502-1.015-.502-1.821 0-1.611.664-2.416 1.991-2.416 1.328 0 1.991.805 1.991 2.416 0 .806-.167 1.412-.502 1.821-.335.408-.83.612-1.489.612Zm0-.476c.482 0 .834-.156 1.055-.468.227-.318.34-.814.34-1.489 0-.669-.113-1.16-.34-1.472-.221-.312-.573-.468-1.055-.468s-.836.156-1.063.468c-.222.312-.332.803-.332 1.472 0 .675.11 1.171.332 1.489.227.312.581.468 1.063.468Zm4.934-4.348c.198 0 .349.034.45.102a.313.313 0 0 1 .162.29.37.37 0 0 1-.093.246c-.136-.073-.324-.11-.562-.11-.38 0-.686.15-.919.451-.227.3-.34.695-.34 1.182v2.578h-.579v-4.679h.579v.842c.13-.261.315-.476.553-.646.238-.171.488-.256.749-.256Zm5.991 4.824c-.81 0-1.44-.266-1.889-.799-.442-.534-.663-1.288-.663-2.264 0-.981.221-1.735.663-2.263.443-.533 1.072-.8 1.89-.8.328 0 .635.057.918.171.284.107.528.269.732.485a.546.546 0 0 1-.145.246.306.306 0 0 1-.212.085.361.361 0 0 1-.222-.076 1.723 1.723 0 0 0-1.089-.357c-.624 0-1.097.212-1.42.638-.324.425-.486 1.049-.486 1.871 0 .817.162 1.438.485 1.864.324.425.797.638 1.421.638.267 0 .505-.037.715-.111.215-.073.428-.195.638-.366a.273.273 0 0 1 .187.094.265.265 0 0 1 .077.196c0 .13-.077.252-.23.366a1.814 1.814 0 0 1-.595.28 2.871 2.871 0 0 1-.775.102Zm4.405 0c-.658 0-1.154-.204-1.489-.612-.335-.409-.502-1.015-.502-1.821 0-1.611.664-2.416 1.991-2.416s1.991.805 1.991 2.416c0 .806-.167 1.412-.502 1.821-.335.408-.831.612-1.489.612Zm0-.476c.482 0 .834-.156 1.055-.468.227-.318.34-.814.34-1.489 0-.669-.113-1.16-.34-1.472-.221-.312-.573-.468-1.055-.468s-.837.156-1.064.468c-.22.312-.331.803-.331 1.472 0 .675.11 1.171.332 1.489.226.312.58.468 1.063.468Zm6.754-.698c0 .346.003.582.009.707.011.119.034.226.068.323a.976.976 0 0 1-.443.102c-.085 0-.141-.06-.17-.179-.028-.125-.042-.368-.042-.731v-2.306c0-.397-.074-.684-.221-.86-.148-.181-.386-.272-.715-.272-.51 0-1.032.253-1.566.757v3.548h-.578v-3.088c0-.84-.034-1.339-.102-1.498.181-.085.326-.127.434-.127.164 0 .246.164.246.493v.077c.261-.216.522-.372.783-.468.267-.102.547-.153.843-.153.487 0 .85.133 1.088.4.244.261.366.66.366 1.199v2.076Zm2.854 1.174c-.256 0-.52-.042-.792-.127a2.139 2.139 0 0 1-.68-.34c-.182-.142-.273-.293-.273-.451 0-.074.023-.139.069-.196a.382.382 0 0 1 .187-.128c.204.267.425.463.663.587.239.119.525.179.86.179.357 0 .626-.082.808-.247a.829.829 0 0 0 .28-.655.598.598 0 0 0-.17-.442 1.002 1.002 0 0 0-.408-.256 8.315 8.315 0 0 0-.663-.195 7.43 7.43 0 0 1-.8-.247 1.349 1.349 0 0 1-.51-.357c-.137-.165-.205-.383-.205-.655 0-.29.077-.534.23-.732.153-.199.349-.346.587-.443.238-.096.482-.144.731-.144.358 0 .681.071.97.212.295.142.525.349.69.622-.137.141-.253.212-.35.212-.073 0-.144-.039-.212-.119a1.236 1.236 0 0 0-.476-.349 1.575 1.575 0 0 0-.647-.119c-.29 0-.519.068-.69.204-.17.137-.254.346-.254.63 0 .164.05.298.153.4.102.102.23.181.383.238.153.051.363.111.63.179.34.079.615.161.825.247.215.085.397.218.544.399.148.176.221.414.221.715 0 .42-.156.755-.468 1.004-.306.25-.717.374-1.233.374Zm4.954-.655c.04.029.071.071.094.128a.328.328 0 0 1 .043.162c0 .107-.046.184-.137.229-.181.091-.416.136-.706.136-.368 0-.663-.099-.885-.297-.22-.205-.331-.477-.331-.817v-3.191h-.885v-.459h.885v-1.276h.578v1.276h1.225v.459h-1.225v3.08c0 .477.204.715.613.715.26 0 .505-.048.731-.145Zm4.323-.595c0 .261.02.468.06.621.045.147.121.281.23.4a.655.655 0 0 1-.205.136.507.507 0 0 1-.213.051c-.113 0-.21-.065-.29-.196a1.377 1.377 0 0 1-.144-.536 1.862 1.862 0 0 1-.706.57 2.19 2.19 0 0 1-.927.204c-.431 0-.777-.11-1.038-.331a1.118 1.118 0 0 1-.392-.885c0-.533.258-.95.775-1.251.521-.301 1.279-.474 2.271-.519v-.272c0-.375-.096-.653-.289-.834-.187-.187-.474-.281-.86-.281-.249 0-.481.054-.697.162-.21.102-.437.275-.68.519a.173.173 0 0 1-.128.051.348.348 0 0 1-.188-.068.896.896 0 0 1-.195-.213c.255-.3.544-.53.868-.689a2.374 2.374 0 0 1 1.046-.238c.528 0 .942.142 1.242.425.307.284.46.672.46 1.166v2.008Zm-2.153.774c.307 0 .596-.085.868-.255.272-.17.508-.411.706-.723v-1.055c-1.633.068-2.45.496-2.45 1.284 0 .499.292.749.876.749Zm7.272-.698c0 .346.002.582.008.707.011.119.034.226.068.323a.976.976 0 0 1-.442.102c-.085 0-.142-.06-.17-.179-.029-.125-.043-.368-.043-.731v-2.306c0-.397-.074-.684-.221-.86-.148-.181-.386-.272-.715-.272-.51 0-1.032.253-1.565.757v3.548h-.579v-3.088c0-.84-.034-1.339-.102-1.498.181-.085.326-.127.434-.127.164 0 .247.164.247.493v.077c.26-.216.521-.372.782-.468.267-.102.548-.153.843-.153.488 0 .85.133 1.089.4.244.261.366.66.366 1.199v2.076Zm3.678.519c.04.029.071.071.094.128a.328.328 0 0 1 .042.162c0 .107-.045.184-.136.229-.181.091-.417.136-.706.136-.369 0-.664-.099-.885-.297-.221-.205-.332-.477-.332-.817v-3.191h-.885v-.459h.885v-1.276h.579v1.276h1.225v.459h-1.225v3.08c0 .477.204.715.612.715.261 0 .505-.048.732-.145Zm1.209-4.109h.578v4.679h-.578v-4.679Zm.255-.86c-.255 0-.383-.127-.383-.382v-.077c0-.255.128-.383.383-.383h.068c.255 0 .383.128.383.383v.077c0 .255-.128.382-.383.382h-.068Zm5.684 4.45c0 .346.003.582.009.707.011.119.034.226.068.323a.98.98 0 0 1-.443.102c-.085 0-.142-.06-.17-.179-.028-.125-.043-.368-.043-.731v-2.306c0-.397-.073-.684-.22-.86-.148-.181-.386-.272-.715-.272-.511 0-1.033.253-1.566.757v3.548h-.579v-3.088c0-.84-.034-1.339-.102-1.498.182-.085.326-.127.434-.127.165 0 .247.164.247.493v.077c.26-.216.522-.372.783-.468.266-.102.547-.153.842-.153.488 0 .851.133 1.089.4.244.261.366.66.366 1.199v2.076Zm5.193-1.582c0 .13-.006.261-.017.391h-3.386c.011.59.142 1.05.391 1.378.255.329.607.494 1.055.494.306 0 .565-.06.774-.179.216-.119.395-.309.536-.57.04-.073.1-.11.179-.11.091 0 .216.054.374.161a1.64 1.64 0 0 1-.689.877c-.334.21-.726.314-1.174.314-.414 0-.777-.096-1.089-.289a1.913 1.913 0 0 1-.706-.842c-.165-.369-.247-.803-.247-1.302 0-.754.187-1.344.562-1.77.374-.431.887-.646 1.54-.646.595 0 1.06.184 1.395.553.335.368.502.882.502 1.54Zm-.596-.068c0-1.021-.442-1.532-1.327-1.532-.431 0-.771.131-1.021.392-.249.261-.397.641-.442 1.14h2.79Zm5.645 2.824c-.687 0-1.223-.215-1.608-.646-.38-.431-.57-1.033-.57-1.804 0-.488.085-.91.255-1.268.176-.363.425-.641.749-.833.323-.199.703-.298 1.14-.298.522 0 .95.133 1.284.4.341.261.539.618.596 1.072a1.464 1.464 0 0 1-.213.068.89.89 0 0 1-.212.034c-.057 0-.1-.014-.128-.043a.821.821 0 0 1-.077-.204.986.986 0 0 0-.425-.621c-.221-.153-.496-.23-.825-.23-.307 0-.579.08-.817.238a1.57 1.57 0 0 0-.545.681 2.53 2.53 0 0 0-.187 1.004c0 .601.142 1.081.426 1.438.289.357.675.536 1.157.536.368 0 .683-.085.944-.255.261-.176.457-.431.587-.766.08 0 .145.034.196.102a.36.36 0 0 1 .085.238c0 .199-.085.389-.255.57a1.766 1.766 0 0 1-.672.426 2.422 2.422 0 0 1-.885.161Zm4.499 0c-.658 0-1.155-.204-1.489-.612-.335-.409-.502-1.015-.502-1.821 0-1.611.663-2.416 1.991-2.416 1.327 0 1.991.805 1.991 2.416 0 .806-.168 1.412-.502 1.821-.335.408-.831.612-1.489.612Zm0-.476c.482 0 .834-.156 1.055-.468.227-.318.34-.814.34-1.489 0-.669-.113-1.16-.34-1.472-.221-.312-.573-.468-1.055-.468s-.837.156-1.064.468c-.221.312-.332.803-.332 1.472 0 .675.111 1.171.332 1.489.227.312.582.468 1.064.468Zm4.933-4.348c.199 0 .349.034.451.102a.312.312 0 0 1 .162.29c0 .09-.031.173-.094.246-.136-.073-.323-.11-.561-.11-.38 0-.687.15-.919.451-.227.3-.34.695-.34 1.182v2.578h-.579v-4.679h.579v.842c.13-.261.314-.476.553-.646.238-.171.487-.256.748-.256Zm3.135 4.824c-.658 0-1.155-.204-1.489-.612-.335-.409-.502-1.015-.502-1.821 0-1.611.663-2.416 1.991-2.416 1.327 0 1.991.805 1.991 2.416 0 .806-.168 1.412-.502 1.821-.335.408-.831.612-1.489.612Zm0-.476c.482 0 .833-.156 1.055-.468.227-.318.34-.814.34-1.489 0-.669-.113-1.16-.34-1.472-.222-.312-.573-.468-1.055-.468s-.837.156-1.064.468c-.221.312-.332.803-.332 1.472 0 .675.111 1.171.332 1.489.227.312.582.468 1.064.468Zm6.754-.698c0 .346.003.582.008.707.012.119.035.226.069.323a.98.98 0 0 1-.443.102c-.085 0-.142-.06-.17-.179-.028-.125-.043-.368-.043-.731v-2.306c0-.397-.073-.684-.221-.86-.147-.181-.386-.272-.715-.272-.51 0-1.032.253-1.565.757v3.548h-.579v-3.088c0-.84-.034-1.339-.102-1.498.182-.085.326-.127.434-.127.165 0 .247.164.247.493v.077c.261-.216.522-.372.783-.468.266-.102.547-.153.842-.153.488 0 .851.133 1.089.4.244.261.366.66.366 1.199v2.076Zm4.819-.076c0 .261.019.468.059.621.046.147.122.281.23.4a.662.662 0 0 1-.204.136.51.51 0 0 1-.213.051c-.113 0-.21-.065-.289-.196a1.376 1.376 0 0 1-.145-.536 1.863 1.863 0 0 1-.706.57 2.19 2.19 0 0 1-.927.204c-.432 0-.778-.11-1.039-.331a1.12 1.12 0 0 1-.391-.885c0-.533.258-.95.774-1.251.522-.301 1.279-.474 2.272-.519v-.272c0-.375-.096-.653-.289-.834-.187-.187-.474-.281-.86-.281-.249 0-.482.054-.697.162-.21.102-.437.275-.681.519a.173.173 0 0 1-.128.051.35.35 0 0 1-.187-.068.886.886 0 0 1-.195-.213c.255-.3.544-.53.867-.689a2.375 2.375 0 0 1 1.047-.238c.528 0 .942.142 1.242.425.306.284.46.672.46 1.166v2.008Zm-2.153.774c.306 0 .596-.085.868-.255.272-.17.508-.411.706-.723v-1.055c-1.634.068-2.45.496-2.45 1.284 0 .499.292.749.876.749Zm5.757-.179c.04.029.071.071.093.128a.322.322 0 0 1 .043.162c0 .107-.045.184-.136.229-.182.091-.417.136-.706.136-.369 0-.664-.099-.885-.297-.221-.205-.332-.477-.332-.817v-3.191h-.885v-.459h.885v-1.276h.579v1.276h1.225v.459h-1.225v3.08c0 .477.204.715.612.715.261 0 .505-.048.732-.145Zm4.697-2.101c0 .13-.006.261-.017.391h-3.387c.012.59.142 1.05.392 1.378.255.329.607.494 1.055.494.306 0 .564-.06.774-.179.216-.119.394-.309.536-.57a.193.193 0 0 1 .179-.11c.09 0 .215.054.374.161a1.645 1.645 0 0 1-.689.877c-.335.21-.726.314-1.174.314-.414 0-.777-.096-1.089-.289a1.906 1.906 0 0 1-.706-.842c-.165-.369-.247-.803-.247-1.302 0-.754.187-1.344.561-1.77.375-.431.888-.646 1.54-.646.596 0 1.061.184 1.396.553.334.368.502.882.502 1.54Zm-.596-.068c0-1.021-.442-1.532-1.327-1.532-.431 0-.772.131-1.021.392-.25.261-.397.641-.443 1.14h2.791Zm5.246 1.65a4.521 4.521 0 0 0 .119 1.021.914.914 0 0 1-.391.102c-.153 0-.25-.192-.289-.578a1.682 1.682 0 0 1-.613.485c-.221.096-.494.144-.817.144-.618 0-1.103-.212-1.455-.638-.351-.431-.527-1.021-.527-1.769 0-.772.187-1.37.561-1.796.38-.431.908-.646 1.583-.646.21 0 .431.039.663.119.239.074.434.167.587.281v-2.366h.579v5.641Zm-1.948.698c.289 0 .544-.06.765-.179.222-.119.423-.303.604-.553v-2.68a1.585 1.585 0 0 0-.561-.357 1.78 1.78 0 0 0-.689-.145c-.499 0-.882.17-1.149.511-.266.34-.4.831-.4 1.472 0 .624.122 1.103.366 1.438.244.329.599.493 1.064.493Zm7.823-.179a.28.28 0 0 1 .093.128.322.322 0 0 1 .043.162.237.237 0 0 1-.136.229c-.182.091-.417.136-.706.136-.369 0-.664-.099-.885-.297-.222-.205-.332-.477-.332-.817v-3.191h-.885v-.459h.885v-1.276h.578v1.276h1.226v.459h-1.226v3.08c0 .477.205.715.613.715.261 0 .505-.048.732-.145Zm3.276-4.194c.487 0 .873.142 1.157.425.283.278.425.658.425 1.14v3.199h-.578v-3.139c0-.369-.091-.652-.273-.851-.181-.199-.442-.298-.782-.298-.261 0-.536.06-.826.179a2.706 2.706 0 0 0-.774.459v3.65h-.579v-6.73h.579v2.527c.25-.181.516-.32.8-.417.283-.096.567-.144.851-.144Zm6.78 2.093c0 .13-.006.261-.017.391h-3.387c.012.59.142 1.05.392 1.378.255.329.607.494 1.055.494.306 0 .564-.06.774-.179.216-.119.394-.309.536-.57a.193.193 0 0 1 .179-.11c.091 0 .215.054.374.161a1.645 1.645 0 0 1-.689.877c-.335.21-.726.314-1.174.314-.414 0-.777-.096-1.089-.289a1.906 1.906 0 0 1-.706-.842c-.165-.369-.247-.803-.247-1.302 0-.754.187-1.344.561-1.77.375-.431.888-.646 1.54-.646.596 0 1.061.184 1.396.553.334.368.502.882.502 1.54Zm-.596-.068c0-1.021-.442-1.532-1.327-1.532-.431 0-.772.131-1.021.392-.25.261-.397.641-.443 1.14h2.791Zm6.121 2.824c-.811 0-1.441-.266-1.889-.799-.442-.534-.664-1.288-.664-2.264 0-.981.222-1.735.664-2.263.442-.533 1.072-.8 1.889-.8.329 0 .635.057.919.171.283.107.527.269.731.485a.549.549 0 0 1-.144.246.307.307 0 0 1-.213.085.361.361 0 0 1-.221-.076 1.721 1.721 0 0 0-1.089-.357c-.624 0-1.098.212-1.421.638-.323.425-.485 1.049-.485 1.871 0 .817.162 1.438.485 1.864.323.425.797.638 1.421.638.266 0 .505-.037.715-.111.215-.073.428-.195.638-.366a.274.274 0 0 1 .187.094.264.264 0 0 1 .076.196c0 .13-.076.252-.229.366a1.818 1.818 0 0 1-.596.28 2.87 2.87 0 0 1-.774.102Zm5.077-4.849c.488 0 .873.142 1.157.425.284.278.425.658.425 1.14v3.199h-.578v-3.139c0-.369-.091-.652-.273-.851-.181-.199-.442-.298-.782-.298-.261 0-.536.06-.826.179a2.706 2.706 0 0 0-.774.459v3.65h-.578v-6.73h.578v2.527c.25-.181.516-.32.8-.417a2.64 2.64 0 0 1 .851-.144Zm4.959.025c.199 0 .349.034.451.102a.312.312 0 0 1 .162.29c0 .09-.032.173-.094.246-.136-.073-.323-.11-.561-.11-.38 0-.687.15-.919.451-.227.3-.341.695-.341 1.182v2.578h-.578v-4.679h.578v.842c.131-.261.315-.476.553-.646.239-.171.488-.256.749-.256Zm1.739.06h.579v4.679h-.579v-4.679Zm.255-.86c-.255 0-.383-.127-.383-.382v-.077c0-.255.128-.383.383-.383h.068c.256 0 .383.128.383.383v.077c0 .255-.127.382-.383.382h-.068Zm3.345 5.624c-.255 0-.519-.042-.791-.127a2.128 2.128 0 0 1-.681-.34c-.182-.142-.272-.293-.272-.451 0-.074.022-.139.068-.196a.38.38 0 0 1 .187-.128c.204.267.425.463.664.587.238.119.524.179.859.179.357 0 .627-.082.808-.247a.83.83 0 0 0 .281-.655.6.6 0 0 0-.17-.442 1.002 1.002 0 0 0-.409-.256 8.246 8.246 0 0 0-.663-.195 7.42 7.42 0 0 1-.8-.247 1.348 1.348 0 0 1-.511-.357c-.136-.165-.204-.383-.204-.655 0-.29.077-.534.23-.732.153-.199.349-.346.587-.443a1.94 1.94 0 0 1 .732-.144c.357 0 .68.071.97.212.295.142.524.349.689.622-.136.141-.253.212-.349.212-.074 0-.145-.039-.213-.119a1.238 1.238 0 0 0-.476-.349 1.577 1.577 0 0 0-.647-.119c-.289 0-.519.068-.689.204-.17.137-.255.346-.255.63 0 .164.051.298.153.4.102.102.23.181.383.238.153.051.363.111.629.179.341.079.616.161.826.247.215.085.397.218.544.399.148.176.222.414.222.715 0 .42-.156.755-.468 1.004-.307.25-.718.374-1.234.374Zm4.955-.655a.28.28 0 0 1 .093.128.322.322 0 0 1 .043.162.237.237 0 0 1-.136.229c-.182.091-.417.136-.707.136-.368 0-.663-.099-.884-.297-.222-.205-.332-.477-.332-.817v-3.191h-.885v-.459h.885v-1.276h.578v1.276h1.226v.459h-1.226v3.08c0 .477.205.715.613.715.261 0 .505-.048.732-.145Zm1.208-4.109h.579v4.679h-.579v-4.679Zm.255-.86c-.255 0-.383-.127-.383-.382v-.077c0-.255.128-.383.383-.383h.068c.256 0 .383.128.383.383v.077c0 .255-.127.382-.383.382h-.068Zm5.31 4.374c0 .261.02.468.06.621.045.147.122.281.229.4a.64.64 0 0 1-.204.136.502.502 0 0 1-.212.051c-.114 0-.21-.065-.29-.196a1.378 1.378 0 0 1-.144-.536 1.867 1.867 0 0 1-.707.57 2.19 2.19 0 0 1-.927.204c-.431 0-.777-.11-1.038-.331a1.117 1.117 0 0 1-.391-.885c0-.533.258-.95.774-1.251.522-.301 1.279-.474 2.272-.519v-.272c0-.375-.097-.653-.29-.834-.187-.187-.473-.281-.859-.281-.25 0-.482.054-.698.162-.21.102-.436.275-.68.519a.174.174 0 0 1-.128.051.347.347 0 0 1-.187-.068.91.91 0 0 1-.196-.213c.255-.3.545-.53.868-.689a2.375 2.375 0 0 1 1.047-.238c.527 0 .941.142 1.242.425.306.284.459.672.459 1.166v2.008Zm-2.152.774c.306 0 .595-.085.867-.255.273-.17.508-.411.707-.723v-1.055c-1.634.068-2.451.496-2.451 1.284 0 .499.292.749.877.749Zm7.271-.698c0 .346.003.582.008.707.012.119.034.226.068.323a.973.973 0 0 1-.442.102c-.085 0-.142-.06-.17-.179-.028-.125-.043-.368-.043-.731v-2.306c0-.397-.073-.684-.221-.86-.147-.181-.386-.272-.715-.272-.51 0-1.032.253-1.565.757v3.548h-.579v-3.088c0-.84-.034-1.339-.102-1.498.182-.085.326-.127.434-.127.165 0 .247.164.247.493v.077c.261-.216.522-.372.783-.468.266-.102.547-.153.842-.153.488 0 .851.133 1.089.4.244.261.366.66.366 1.199v2.076ZM26.777 153.694c-.811 0-1.44-.266-1.889-.799-.442-.534-.663-1.288-.663-2.264 0-.981.22-1.735.663-2.263.443-.533 1.072-.8 1.89-.8.328 0 .635.057.918.171.284.107.528.269.732.485a.547.547 0 0 1-.145.246.306.306 0 0 1-.213.085.36.36 0 0 1-.22-.076 1.723 1.723 0 0 0-1.09-.357c-.624 0-1.097.212-1.42.638-.324.425-.486 1.049-.486 1.871 0 .817.162 1.438.485 1.864.324.425.797.638 1.421.638.267 0 .505-.037.715-.111.215-.073.428-.195.638-.366a.273.273 0 0 1 .187.094.265.265 0 0 1 .077.196c0 .13-.077.252-.23.366a1.815 1.815 0 0 1-.596.28 2.87 2.87 0 0 1-.774.102Zm5.077-4.849c.488 0 .874.142 1.157.425.284.278.426.658.426 1.14v3.199h-.579v-3.139c0-.369-.09-.652-.272-.851-.182-.199-.443-.298-.783-.298-.26 0-.536.06-.825.179-.29.113-.548.266-.775.459v3.65h-.578v-6.73h.578v2.527c.25-.181.517-.32.8-.417a2.64 2.64 0 0 1 .851-.144Zm6.755 3.803c0 .329.042.63.127.902a.73.73 0 0 1-.366.102.284.284 0 0 1-.263-.145c-.051-.102-.08-.283-.085-.544-.16.221-.383.4-.673.536-.289.13-.6.195-.935.195-.96 0-1.438-.524-1.438-1.574v-3.19h.578v3.131c0 .414.077.715.23.902.153.181.397.272.732.272.3 0 .581-.077.842-.23.267-.153.488-.368.664-.646v-3.429h.587v3.718Zm3.398-3.778c.198 0 .348.034.45.102a.313.313 0 0 1 .162.29.37.37 0 0 1-.093.246c-.137-.073-.324-.11-.562-.11-.38 0-.686.15-.919.451-.227.3-.34.695-.34 1.182v2.578h-.579v-4.679h.579v.842c.13-.261.315-.476.553-.646.238-.171.487-.256.748-.256Zm3.321 4.824c-.686 0-1.222-.215-1.608-.646-.38-.431-.57-1.033-.57-1.804 0-.488.085-.91.255-1.268.176-.363.426-.641.749-.833.323-.199.703-.298 1.14-.298.522 0 .95.133 1.285.4.34.261.539.618.595 1.072a1.466 1.466 0 0 1-.425.102c-.057 0-.1-.014-.128-.043a.813.813 0 0 1-.076-.204.987.987 0 0 0-.426-.621c-.22-.153-.496-.23-.825-.23-.306 0-.579.08-.817.238a1.567 1.567 0 0 0-.544.681 2.515 2.515 0 0 0-.188 1.004c0 .601.142 1.081.426 1.438.29.357.675.536 1.157.536.369 0 .683-.085.944-.255.261-.176.457-.431.587-.766.08 0 .145.034.196.102a.362.362 0 0 1 .085.238c0 .199-.085.389-.255.57a1.758 1.758 0 0 1-.672.426 2.421 2.421 0 0 1-.885.161Zm5.171-4.849c.488 0 .874.142 1.157.425.284.278.426.658.426 1.14v3.199h-.579v-3.139c0-.369-.09-.652-.272-.851-.182-.199-.443-.298-.783-.298-.26 0-.536.06-.825.179-.29.113-.547.266-.774.459v3.65h-.579v-6.73h.579v2.527c.25-.181.516-.32.8-.417a2.64 2.64 0 0 1 .85-.144Zm8.6 3.599c0 .261.02.468.059.621.045.147.122.281.23.4a.655.655 0 0 1-.204.136.507.507 0 0 1-.213.051c-.114 0-.21-.065-.29-.196a1.375 1.375 0 0 1-.144-.536 1.862 1.862 0 0 1-.706.57 2.19 2.19 0 0 1-.928.204c-.43 0-.777-.11-1.038-.331a1.118 1.118 0 0 1-.391-.885c0-.533.258-.95.774-1.251.522-.301 1.28-.474 2.272-.519v-.272c0-.375-.097-.653-.29-.834-.187-.187-.473-.281-.859-.281-.25 0-.482.054-.697.162-.21.102-.437.275-.681.519a.173.173 0 0 1-.128.051.348.348 0 0 1-.187-.068.896.896 0 0 1-.196-.213c.256-.3.545-.53.868-.689a2.374 2.374 0 0 1 1.047-.238c.527 0 .941.142 1.242.425.306.284.46.672.46 1.166v2.008Zm-2.153.774c.306 0 .595-.085.868-.255.272-.17.507-.411.706-.723v-1.055c-1.634.068-2.45.496-2.45 1.284 0 .499.292.749.876.749Zm4.931.476a2.65 2.65 0 0 1-.79-.127 2.14 2.14 0 0 1-.681-.34c-.182-.142-.273-.293-.273-.451 0-.074.023-.139.068-.196a.382.382 0 0 1 .188-.128c.204.267.425.463.663.587.238.119.525.179.86.179.357 0 .626-.082.808-.247a.829.829 0 0 0 .28-.655.597.597 0 0 0-.17-.442 1.001 1.001 0 0 0-.408-.256 8.298 8.298 0 0 0-.664-.195 7.43 7.43 0 0 1-.8-.247 1.349 1.349 0 0 1-.51-.357c-.136-.165-.204-.383-.204-.655 0-.29.076-.534.23-.732.153-.199.348-.346.587-.443.238-.096.482-.144.731-.144.358 0 .681.071.97.212.295.142.525.349.69.622-.137.141-.253.212-.35.212-.073 0-.144-.039-.212-.119a1.236 1.236 0 0 0-.477-.349 1.574 1.574 0 0 0-.646-.119c-.29 0-.52.068-.69.204-.17.137-.255.346-.255.63 0 .164.051.298.153.4.103.102.23.181.383.238.154.051.363.111.63.179.34.079.615.161.825.247.216.085.397.218.545.399.147.176.221.414.221.715 0 .42-.156.755-.468 1.004-.306.25-.717.374-1.234.374Zm7.149-.655a.28.28 0 0 1 .093.128.328.328 0 0 1 .043.162c0 .107-.046.184-.136.229-.182.091-.417.136-.706.136-.37 0-.664-.099-.885-.297-.222-.205-.332-.477-.332-.817v-3.191h-.885v-.459h.885v-1.276h.578v1.276h1.226v.459H67.68v3.08c0 .477.205.715.613.715.261 0 .505-.048.732-.145Zm3.276-4.194c.487 0 .873.142 1.157.425.283.278.425.658.425 1.14v3.199h-.578v-3.139c0-.369-.091-.652-.273-.851-.181-.199-.442-.298-.782-.298-.261 0-.536.06-.826.179-.289.113-.547.266-.774.459v3.65h-.578v-6.73h.578v2.527c.25-.181.516-.32.8-.417a2.64 2.64 0 0 1 .85-.144Zm6.78 2.093c0 .13-.006.261-.017.391h-3.387c.012.59.142 1.05.392 1.378.255.329.607.494 1.055.494.306 0 .564-.06.774-.179.216-.119.394-.309.536-.57.04-.073.1-.11.179-.11.09 0 .215.054.374.161a1.647 1.647 0 0 1-.689.877c-.335.21-.726.314-1.174.314-.414 0-.777-.096-1.09-.289a1.914 1.914 0 0 1-.705-.842c-.165-.369-.247-.803-.247-1.302 0-.754.187-1.344.561-1.77.375-.431.888-.646 1.54-.646.596 0 1.061.184 1.396.553.334.368.502.882.502 1.54Zm-.596-.068c0-1.021-.442-1.532-1.327-1.532-.431 0-.772.131-1.021.392-.25.261-.397.641-.443 1.14h2.791Zm5.917-2.025c.635 0 1.12.21 1.455.629.334.414.502 1.01.502 1.787 0 .494-.088.925-.264 1.293-.17.363-.42.644-.749.843-.323.198-.703.297-1.14.297a3.21 3.21 0 0 1-.655-.068 2.998 2.998 0 0 1-.579-.161v2.016h-.578v-4.96c0-.84-.034-1.339-.102-1.498.181-.085.326-.127.433-.127.165 0 .247.164.247.493v.034a2.05 2.05 0 0 1 1.43-.578Zm-.196 4.373c.488 0 .865-.17 1.132-.511.272-.34.408-.822.408-1.446 0-1.293-.448-1.94-1.344-1.94-.261 0-.517.06-.766.179a2.17 2.17 0 0 0-.664.51v2.953c.352.17.763.255 1.234.255Zm4.821.476c-.658 0-1.154-.204-1.489-.612-.334-.409-.502-1.015-.502-1.821 0-1.611.664-2.416 1.991-2.416 1.328 0 1.991.805 1.991 2.416 0 .806-.167 1.412-.502 1.821-.334.408-.83.612-1.489.612Zm0-.476c.482 0 .834-.156 1.055-.468.227-.318.34-.814.34-1.489 0-.669-.113-1.16-.34-1.472-.22-.312-.573-.468-1.055-.468s-.836.156-1.063.468c-.222.312-.332.803-.332 1.472 0 .675.11 1.171.332 1.489.227.312.581.468 1.063.468Zm8.473-4.288c-.227 1.724-.658 3.284-1.293 4.679h-.528a17.528 17.528 0 0 1-.706-1.769 11.936 11.936 0 0 1-.4-1.668c-.102.59-.24 1.154-.416 1.693a15.839 15.839 0 0 1-.707 1.744h-.544c-.3-.641-.553-1.333-.757-2.076a22.569 22.569 0 0 1-.511-2.603h.596c.096.828.218 1.554.365 2.178.154.618.352 1.194.596 1.727.545-1.117.913-2.419 1.106-3.905h.562c.204 1.537.57 2.844 1.097 3.922.494-1.18.786-2.487.877-3.922h.663Zm4.746 2.008c0 .13-.006.261-.017.391h-3.386c.01.59.141 1.05.39 1.378.256.329.608.494 1.056.494.306 0 .564-.06.774-.179.216-.119.394-.309.536-.57a.193.193 0 0 1 .179-.11c.091 0 .215.054.374.161a1.645 1.645 0 0 1-.689.877c-.335.21-.726.314-1.174.314-.414 0-.777-.096-1.09-.289a1.914 1.914 0 0 1-.705-.842c-.165-.369-.247-.803-.247-1.302 0-.754.187-1.344.561-1.77.375-.431.888-.646 1.541-.646.595 0 1.06.184 1.395.553.335.368.502.882.502 1.54Zm-.596-.068c0-1.021-.442-1.532-1.327-1.532-.431 0-.771.131-1.021.392-.25.261-.397.641-.442 1.14h2.79Zm3.536-2c.199 0 .349.034.451.102a.312.312 0 0 1 .162.29c0 .09-.032.173-.094.246-.136-.073-.323-.11-.561-.11-.381 0-.687.15-.919.451-.227.3-.341.695-.341 1.182v2.578h-.578v-4.679h.578v.842c.131-.261.315-.476.553-.646.239-.171.488-.256.749-.256Zm5.328 4.824c-.658 0-1.154-.204-1.489-.612-.335-.409-.502-1.015-.502-1.821 0-1.611.664-2.416 1.991-2.416s1.991.805 1.991 2.416c0 .806-.167 1.412-.502 1.821-.335.408-.831.612-1.489.612Zm0-.476c.482 0 .834-.156 1.055-.468.227-.318.34-.814.34-1.489 0-.669-.113-1.16-.34-1.472-.221-.312-.573-.468-1.055-.468s-.837.156-1.064.468c-.221.312-.331.803-.331 1.472 0 .675.11 1.171.331 1.489.227.312.582.468 1.064.468Zm4.508-6.262c.261 0 .46.031.596.093.136.063.204.154.204.273a.466.466 0 0 1-.034.178c-.017.051-.04.077-.068.077a1.297 1.297 0 0 0-.587-.128c-.239 0-.42.074-.545.222-.125.147-.187.36-.187.638v.621h1.055v.442h-1.055v4.237h-.579v-4.237h-.876v-.442h.876v-.63c0-.408.108-.734.324-.978.221-.244.513-.366.876-.366Zm7.843 6.628a.754.754 0 0 1-.366.093.496.496 0 0 1-.255-.059.532.532 0 0 1-.17-.196l-.97-1.667c-.137-.239-.304-.406-.502-.502-.193-.103-.457-.154-.792-.154h-.578v2.51h-.613v-5.955h1.932c.686 0 1.225.153 1.616.459.392.301.587.72.587 1.259 0 .426-.142.794-.425 1.106-.284.307-.653.497-1.106.57.164.137.312.31.442.519l1.2 2.017Zm-2.357-3.012c.511 0 .905-.105 1.183-.315.283-.21.425-.505.425-.885 0-.391-.133-.686-.4-.885-.261-.204-.649-.306-1.165-.306h-1.319v2.391h1.276Zm5.062 3.122c-.658 0-1.155-.204-1.489-.612-.335-.409-.502-1.015-.502-1.821 0-1.611.663-2.416 1.991-2.416 1.327 0 1.991.805 1.991 2.416 0 .806-.168 1.412-.502 1.821-.335.408-.831.612-1.489.612Zm0-.476c.482 0 .833-.156 1.055-.468.227-.318.34-.814.34-1.489 0-.669-.113-1.16-.34-1.472-.222-.312-.573-.468-1.055-.468s-.837.156-1.064.468c-.221.312-.332.803-.332 1.472 0 .675.111 1.171.332 1.489.227.312.582.468 1.064.468Zm7.954-4.373c.402 0 .728.13.978.391.255.261.383.599.383 1.013v3.36h-.587v-3.335c0-.329-.074-.573-.221-.732-.148-.158-.372-.238-.672-.238-.483 0-.931.221-1.345.664.012.091.017.159.017.204v3.437h-.578v-3.42c0-.267-.083-.479-.247-.638-.159-.165-.372-.247-.638-.247a1.57 1.57 0 0 0-.698.162 2.376 2.376 0 0 0-.655.519v3.624h-.579v-3.088c0-.84-.034-1.339-.102-1.498.182-.085.326-.127.434-.127.165 0 .247.164.247.493v.034c.216-.204.437-.351.664-.442.232-.091.496-.136.791-.136.266 0 .505.062.715.187.209.119.371.284.485.493.243-.238.49-.411.74-.519.255-.107.544-.161.868-.161Zm6.186 3.599c0 .261.02.468.06.621.045.147.122.281.229.4a.64.64 0 0 1-.204.136.506.506 0 0 1-.213.051c-.113 0-.209-.065-.289-.196a1.36 1.36 0 0 1-.144-.536 1.867 1.867 0 0 1-.707.57 2.19 2.19 0 0 1-.927.204c-.431 0-.777-.11-1.038-.331a1.117 1.117 0 0 1-.391-.885c0-.533.258-.95.774-1.251.522-.301 1.279-.474 2.272-.519v-.272c0-.375-.097-.653-.29-.834-.187-.187-.473-.281-.859-.281-.25 0-.482.054-.698.162-.21.102-.437.275-.68.519a.174.174 0 0 1-.128.051.347.347 0 0 1-.187-.068.889.889 0 0 1-.196-.213c.255-.3.545-.53.868-.689a2.374 2.374 0 0 1 1.046-.238c.528 0 .942.142 1.243.425.306.284.459.672.459 1.166v2.008Zm-2.153.774c.307 0 .596-.085.868-.255.273-.17.508-.411.707-.723v-1.055c-1.634.068-2.451.496-2.451 1.284 0 .499.292.749.876.749Zm7.272-.698c0 .346.003.582.008.707.012.119.034.226.068.323a.973.973 0 0 1-.442.102c-.085 0-.142-.06-.17-.179-.029-.125-.043-.368-.043-.731v-2.306c0-.397-.074-.684-.221-.86-.147-.181-.386-.272-.715-.272-.51 0-1.032.253-1.565.757v3.548h-.579v-3.088c0-.84-.034-1.339-.102-1.498.182-.085.326-.127.434-.127.165 0 .247.164.247.493v.077c.261-.216.522-.372.783-.468.266-.102.547-.153.842-.153.488 0 .851.133 1.089.4.244.261.366.66.366 1.199v2.076Zm5.702 1.174c-.392 0-.752-.059-1.081-.178a2.01 2.01 0 0 1-.783-.502c-.192-.21-.289-.44-.289-.689 0-.114.04-.205.119-.273a.53.53 0 0 1 .332-.119c.091.403.284.709.579.919.295.21.675.315 1.14.315.476 0 .859-.111 1.148-.332.295-.221.443-.51.443-.868a.883.883 0 0 0-.162-.536c-.102-.147-.272-.278-.51-.391a5.13 5.13 0 0 0-.987-.34c-.488-.131-.871-.267-1.149-.409-.278-.147-.479-.312-.604-.493a1.263 1.263 0 0 1-.179-.69c0-.476.176-.85.528-1.123.351-.278.836-.417 1.455-.417.539 0 .987.128 1.344.383.363.25.607.604.732 1.064-.074.074-.187.111-.341.111-.158 0-.275-.077-.348-.23a1.41 1.41 0 0 0-.57-.596 1.583 1.583 0 0 0-.817-.221c-.448 0-.789.088-1.021.264-.233.176-.349.431-.349.765a.72.72 0 0 0 .128.434c.085.114.226.219.425.315a5.2 5.2 0 0 0 .842.298c.607.17 1.064.332 1.37.485.312.153.53.326.655.519s.187.445.187.757c0 .358-.09.672-.272.945a1.768 1.768 0 0 1-.783.621c-.334.142-.728.212-1.182.212Zm5.629-.655c.04.029.071.071.093.128a.322.322 0 0 1 .043.162c0 .107-.045.184-.136.229-.182.091-.417.136-.706.136-.369 0-.664-.099-.885-.297-.221-.205-.332-.477-.332-.817v-3.191h-.885v-.459h.885v-1.276h.579v1.276h1.225v.459h-1.225v3.08c0 .477.204.715.612.715.261 0 .505-.048.732-.145Zm4.322-.595c0 .261.02.468.06.621.045.147.122.281.23.4a.655.655 0 0 1-.205.136.502.502 0 0 1-.212.051c-.114 0-.21-.065-.29-.196a1.378 1.378 0 0 1-.144-.536 1.867 1.867 0 0 1-.707.57 2.186 2.186 0 0 1-.927.204c-.431 0-.777-.11-1.038-.331a1.117 1.117 0 0 1-.391-.885c0-.533.258-.95.774-1.251.522-.301 1.279-.474 2.272-.519v-.272c0-.375-.097-.653-.29-.834-.187-.187-.473-.281-.859-.281-.25 0-.482.054-.698.162-.21.102-.436.275-.68.519a.174.174 0 0 1-.128.051.347.347 0 0 1-.187-.068.91.91 0 0 1-.196-.213c.255-.3.545-.53.868-.689a2.375 2.375 0 0 1 1.047-.238c.527 0 .941.142 1.242.425.306.284.459.672.459 1.166v2.008Zm-2.152.774c.306 0 .595-.085.867-.255.273-.17.508-.411.707-.723v-1.055c-1.634.068-2.451.496-2.451 1.284 0 .499.292.749.877.749Zm5.756-.179c.04.029.071.071.094.128a.333.333 0 0 1 .043.162.236.236 0 0 1-.137.229c-.181.091-.416.136-.706.136-.368 0-.663-.099-.885-.297-.221-.205-.331-.477-.331-.817v-3.191h-.885v-.459h.885v-1.276h.578v1.276h1.225v.459h-1.225v3.08c0 .477.204.715.613.715.261 0 .505-.048.731-.145Zm4.697-2.101c0 .13-.005.261-.017.391h-3.386c.011.59.142 1.05.391 1.378.256.329.607.494 1.055.494.307 0 .565-.06.775-.179.215-.119.394-.309.536-.57a.191.191 0 0 1 .178-.11c.091 0 .216.054.375.161a1.647 1.647 0 0 1-.69.877c-.334.21-.726.314-1.174.314-.414 0-.777-.096-1.089-.289a1.92 1.92 0 0 1-.706-.842c-.164-.369-.247-.803-.247-1.302 0-.754.188-1.344.562-1.77.374-.431.888-.646 1.54-.646.595 0 1.061.184 1.395.553.335.368.502.882.502 1.54Zm-.595-.068c0-1.021-.443-1.532-1.328-1.532-.431 0-.771.131-1.021.392-.249.261-.397.641-.442 1.14h2.791Zm2.285 1.897c.113 0 .204.037.272.111.068.068.102.164.102.289v.094c0 .198-.034.397-.102.595a2.427 2.427 0 0 1-.255.545c-.148.227-.273.34-.375.34a.36.36 0 0 1-.238-.085c.153-.187.272-.363.358-.528a1.6 1.6 0 0 0 .17-.519h-.043a.328.328 0 0 1-.255-.102.385.385 0 0 1-.094-.272v-.094c0-.113.031-.204.094-.272a.357.357 0 0 1 .264-.102h.102Zm6.597-2.238c.278.08.511.233.698.46.193.221.289.527.289.919 0 .556-.181.992-.544 1.31-.363.312-.848.468-1.455.468-.38 0-.712-.048-.996-.145-.283-.096-.502-.218-.655-.366-.147-.147-.221-.297-.221-.45 0-.108.031-.193.094-.256a.335.335 0 0 1 .246-.102c.171.261.366.465.587.613.227.142.551.212.97.212.454 0 .803-.113 1.047-.34.249-.227.374-.539.374-.936 0-.38-.113-.663-.34-.851-.227-.187-.528-.28-.902-.28l-.272.008a3.617 3.617 0 0 1-.298.017c-.079 0-.153-.048-.221-.144a.474.474 0 0 1-.102-.264c0-.051.02-.077.059-.077h.757c.375 0 .664-.099.868-.298.204-.198.307-.493.307-.884 0-.324-.111-.571-.332-.741-.216-.17-.531-.255-.945-.255-.34 0-.621.077-.842.23-.216.147-.408.377-.579.689a.37.37 0 0 1-.246-.085c-.063-.057-.094-.139-.094-.247 0-.153.077-.315.23-.485a1.83 1.83 0 0 1 .646-.425c.273-.114.573-.17.902-.17.539 0 .976.133 1.311.399.334.261.502.63.502 1.107 0 .357-.08.652-.239.884-.158.227-.36.389-.604.485Zm4.789 2.612v.468h-2.587v-.468h1.038v-4.781a2.549 2.549 0 0 1-.51.332c-.187.09-.352.136-.494.136a.344.344 0 0 1-.238-.077.284.284 0 0 1-.076-.196c0-.056.014-.107.042-.153a2.12 2.12 0 0 0 .723-.221 2.94 2.94 0 0 0 .723-.527h.383v5.487h.996Zm3.905 0v.468h-2.587v-.468h1.038v-4.781a2.549 2.549 0 0 1-.51.332c-.187.09-.352.136-.494.136a.344.344 0 0 1-.238-.077.284.284 0 0 1-.076-.196c0-.056.014-.107.042-.153a2.12 2.12 0 0 0 .723-.221c.256-.13.497-.306.724-.527h.383v5.487h.995Zm5.843.553c-.811 0-1.44-.266-1.888-.799-.443-.534-.664-1.288-.664-2.264 0-.981.221-1.735.664-2.263.442-.533 1.072-.8 1.888-.8.329 0 .636.057.919.171.284.107.528.269.732.485a.54.54 0 0 1-.145.246.305.305 0 0 1-.212.085.364.364 0 0 1-.222-.076 1.721 1.721 0 0 0-1.089-.357c-.624 0-1.097.212-1.42.638-.324.425-.485 1.049-.485 1.871 0 .817.161 1.438.485 1.864.323.425.796.638 1.42.638.267 0 .505-.037.715-.111.216-.073.428-.195.638-.366a.272.272 0 0 1 .187.094.265.265 0 0 1 .077.196c0 .13-.077.252-.23.366a1.812 1.812 0 0 1-.595.28 2.873 2.873 0 0 1-.775.102Zm6.371-.595c0 .204-.032.34-.094.408-.057.068-.173.102-.349.102h-3.122v-5.955h3.556v.51h-2.944v2.144h2.536v.511h-2.536v2.28h2.953Zm1.74.51c-.255 0-.383-.127-.383-.382v-.077c0-.255.128-.383.383-.383h.068c.255 0 .383.128.383.383v.077c0 .255-.128.382-.383.382h-.068ZM41.194 171.436v2.552c-.21.216-.491.389-.843.519a3.18 3.18 0 0 1-1.089.187c-.88 0-1.546-.258-2-.774-.453-.522-.68-1.285-.68-2.289 0-.981.23-1.735.69-2.263.464-.533 1.128-.8 1.99-.8.403 0 .777.077 1.123.23.346.148.607.346.783.596-.114.198-.238.298-.374.298a.446.446 0 0 1-.281-.12 1.983 1.983 0 0 0-.587-.357 1.914 1.914 0 0 0-.672-.11c-.67 0-1.177.215-1.523.646-.346.426-.52 1.052-.52 1.88 0 .851.168 1.487.503 1.906.34.414.853.621 1.54.621.283 0 .547-.036.79-.11.245-.074.423-.173.537-.298v-1.787h-1.2c-.113 0-.196-.039-.247-.119-.045-.079-.068-.215-.068-.408h2.127Zm3.13-1.566c.2 0 .35.034.452.102a.313.313 0 0 1 .161.29.37.37 0 0 1-.093.246c-.136-.073-.324-.11-.562-.11-.38 0-.686.15-.919.451-.227.3-.34.695-.34 1.182v2.578h-.579v-4.679h.579v.842c.13-.261.315-.476.553-.646.238-.171.488-.256.749-.256Zm4.854 3.574c0 .261.02.468.06.621.045.147.121.281.229.4a.656.656 0 0 1-.204.136.508.508 0 0 1-.213.051c-.113 0-.21-.065-.29-.196a1.375 1.375 0 0 1-.144-.536 1.862 1.862 0 0 1-.706.57 2.19 2.19 0 0 1-.927.204c-.432 0-.778-.11-1.038-.331a1.118 1.118 0 0 1-.392-.885c0-.533.258-.95.774-1.251.522-.301 1.28-.474 2.272-.519v-.272c0-.375-.096-.653-.29-.834-.186-.187-.473-.281-.858-.281-.25 0-.483.054-.698.162-.21.102-.437.275-.68.519a.173.173 0 0 1-.129.051.348.348 0 0 1-.187-.068.894.894 0 0 1-.195-.213c.255-.3.544-.53.867-.689a2.374 2.374 0 0 1 1.047-.238c.528 0 .942.142 1.242.425.306.284.46.672.46 1.166v2.008Zm-2.153.774c.306 0 .596-.085.868-.255.272-.17.508-.411.706-.723v-1.055c-1.633.068-2.45.496-2.45 1.284 0 .499.292.749.876.749Zm7.16-.698c0 .182.012.366.035.553.023.188.05.344.085.468a.914.914 0 0 1-.392.102c-.153 0-.25-.192-.289-.578a1.671 1.671 0 0 1-.612.485c-.222.096-.494.144-.817.144-.618 0-1.103-.212-1.455-.638-.352-.431-.528-1.021-.528-1.769 0-.772.188-1.37.562-1.796.38-.431.907-.646 1.582-.646.21 0 .432.039.664.119.238.074.434.167.587.281v-2.366h.579v5.641Zm-1.948.698c.29 0 .545-.06.766-.179.221-.119.423-.303.604-.553v-2.68a1.587 1.587 0 0 0-.561-.357 1.78 1.78 0 0 0-.69-.145c-.499 0-.882.17-1.148.511-.267.34-.4.831-.4 1.472 0 .624.122 1.103.366 1.438.244.329.598.493 1.063.493Zm7.119-.57c0 .329.042.63.127.902a.73.73 0 0 1-.365.102.284.284 0 0 1-.264-.145c-.051-.102-.08-.283-.085-.544-.159.221-.383.4-.672.536-.29.13-.602.195-.936.195-.959 0-1.438-.524-1.438-1.574v-3.19h.578v3.131c0 .414.077.715.23.902.153.181.397.272.732.272.3 0 .581-.077.842-.23.267-.153.488-.368.664-.646v-3.429h.587v3.718Zm4.844-.204c0 .261.02.468.06.621.045.147.122.281.23.4a.655.655 0 0 1-.205.136.508.508 0 0 1-.212.051c-.114 0-.21-.065-.29-.196a1.375 1.375 0 0 1-.144-.536 1.864 1.864 0 0 1-.707.57 2.19 2.19 0 0 1-.927.204c-.431 0-.777-.11-1.038-.331a1.118 1.118 0 0 1-.391-.885c0-.533.258-.95.774-1.251.522-.301 1.279-.474 2.271-.519v-.272c0-.375-.096-.653-.289-.834-.187-.187-.473-.281-.86-.281-.249 0-.481.054-.697.162-.21.102-.436.275-.68.519a.173.173 0 0 1-.128.051.348.348 0 0 1-.187-.068.894.894 0 0 1-.196-.213c.255-.3.545-.53.868-.689a2.374 2.374 0 0 1 1.046-.238c.528 0 .942.142 1.243.425.306.284.46.672.46 1.166v2.008Zm-2.153.774c.307 0 .596-.085.868-.255.273-.17.508-.411.706-.723v-1.055c-1.633.068-2.45.496-2.45 1.284 0 .499.292.749.877.749Zm3.698-6.339h.579v6.73h-.579v-6.73Zm2.277 0h.578v6.73h-.578v-6.73Zm5.459 2.051-1.813 5.037c-.158.448-.36.774-.604.978-.238.21-.541.315-.91.315-.216 0-.386-.034-.51-.102-.125-.063-.188-.148-.188-.255 0-.114.048-.205.145-.273.057.04.142.074.255.102.12.029.236.043.349.043.233 0 .431-.102.596-.306.17-.204.314-.516.433-.936l-1.667-4.603h.613l1.352 3.769 1.336-3.769h.613Zm7.914-.085c.403 0 .729.13.978.391.255.261.383.599.383 1.013v3.36h-.587v-3.335c0-.329-.074-.573-.221-.732-.148-.158-.372-.238-.672-.238-.483 0-.93.221-1.345.664.012.091.017.159.017.204v3.437h-.578v-3.42c0-.267-.082-.479-.247-.638-.159-.165-.371-.247-.638-.247a1.57 1.57 0 0 0-.698.162 2.37 2.37 0 0 0-.655.519v3.624h-.578v-3.088c0-.84-.034-1.339-.103-1.498.182-.085.327-.127.434-.127.165 0 .247.164.247.493v.034c.216-.204.437-.351.664-.442.232-.091.496-.136.791-.136.267 0 .505.062.715.187.21.119.371.284.485.493.244-.238.49-.411.74-.519.255-.107.544-.161.868-.161Zm4.468 4.849c-.658 0-1.155-.204-1.49-.612-.334-.409-.501-1.015-.501-1.821 0-1.611.663-2.416 1.99-2.416 1.328 0 1.992.805 1.992 2.416 0 .806-.168 1.412-.502 1.821-.335.408-.831.612-1.49.612Zm0-.476c.482 0 .833-.156 1.055-.468.226-.318.34-.814.34-1.489 0-.669-.114-1.16-.34-1.472-.222-.312-.573-.468-1.055-.468-.483 0-.837.156-1.064.468-.221.312-.332.803-.332 1.472 0 .675.11 1.171.332 1.489.227.312.581.468 1.064.468Zm4.933-4.348c.199 0 .349.034.451.102a.313.313 0 0 1 .162.29.37.37 0 0 1-.094.246c-.136-.073-.323-.11-.561-.11-.38 0-.687.15-.92.451-.226.3-.34.695-.34 1.182v2.578h-.578v-4.679h.578v.842c.13-.261.315-.476.553-.646.239-.171.488-.256.75-.256Zm5.227 2.068c0 .13-.005.261-.016.391H92.62c.012.59.142 1.05.392 1.378.255.329.606.494 1.055.494.306 0 .564-.06.774-.179.215-.119.394-.309.536-.57.04-.073.1-.11.179-.11.09 0 .215.054.374.161a1.647 1.647 0 0 1-.69.877c-.334.21-.725.314-1.173.314-.414 0-.777-.096-1.09-.289a1.914 1.914 0 0 1-.706-.842c-.164-.369-.246-.803-.246-1.302 0-.754.187-1.344.561-1.77.374-.431.888-.646 1.54-.646.596 0 1.06.184 1.395.553.335.368.502.882.502 1.54Zm-.595-.068c0-1.021-.442-1.532-1.327-1.532-.431 0-.772.131-1.021.392-.25.261-.397.641-.443 1.14h2.79Zm7.176 1.574c0 .261.02.468.059.621.046.147.122.281.23.4a.662.662 0 0 1-.204.136.51.51 0 0 1-.213.051c-.113 0-.21-.065-.289-.196a1.376 1.376 0 0 1-.145-.536 1.863 1.863 0 0 1-.706.57 2.19 2.19 0 0 1-.927.204c-.431 0-.778-.11-1.038-.331a1.118 1.118 0 0 1-.392-.885c0-.533.258-.95.774-1.251.522-.301 1.279-.474 2.272-.519v-.272c0-.375-.096-.653-.289-.834-.187-.187-.474-.281-.86-.281-.249 0-.482.054-.697.162-.21.102-.437.275-.68.519a.173.173 0 0 1-.128.051.348.348 0 0 1-.188-.068.896.896 0 0 1-.195-.213c.255-.3.544-.53.868-.689a2.371 2.371 0 0 1 1.046-.238c.528 0 .942.142 1.242.425.307.284.46.672.46 1.166v2.008Zm-2.153.774c.306 0 .596-.085.868-.255.272-.17.508-.411.706-.723v-1.055c-1.633.068-2.45.496-2.45 1.284 0 .499.292.749.876.749Zm7.271-.698c0 .346.003.582.009.707.011.119.034.226.068.323a.977.977 0 0 1-.442.102c-.086 0-.142-.06-.171-.179-.028-.125-.042-.368-.042-.731v-2.306c0-.397-.074-.684-.221-.86-.148-.181-.386-.272-.715-.272-.511 0-1.032.253-1.566.757v3.548h-.578v-3.088c0-.84-.034-1.339-.102-1.498.181-.085.326-.127.434-.127.164 0 .246.164.246.493v.077c.261-.216.522-.372.783-.468a2.34 2.34 0 0 1 .842-.153c.488 0 .851.133 1.09.4.243.261.365.66.365 1.199v2.076Zm5.083 0a4.521 4.521 0 0 0 .119 1.021.914.914 0 0 1-.391.102c-.154 0-.25-.192-.29-.578a1.671 1.671 0 0 1-.612.485 2.057 2.057 0 0 1-.817.144c-.618 0-1.103-.212-1.455-.638-.352-.431-.528-1.021-.528-1.769 0-.772.188-1.37.562-1.796.38-.431.908-.646 1.583-.646.209 0 .431.039.663.119.238.074.434.167.587.281v-2.366h.579v5.641Zm-1.949.698c.29 0 .545-.06.766-.179.221-.119.423-.303.604-.553v-2.68a1.585 1.585 0 0 0-.561-.357 1.784 1.784 0 0 0-.689-.145c-.5 0-.882.17-1.149.511-.267.34-.4.831-.4 1.472 0 .624.122 1.103.366 1.438.244.329.598.493 1.063.493Zm10.538-4.373c.402 0 .729.13.978.391.255.261.383.599.383 1.013v3.36h-.587v-3.335c0-.329-.074-.573-.221-.732-.148-.158-.372-.238-.672-.238-.483 0-.931.221-1.345.664.012.091.017.159.017.204v3.437h-.578v-3.42c0-.267-.083-.479-.247-.638-.159-.165-.372-.247-.638-.247a1.57 1.57 0 0 0-.698.162 2.376 2.376 0 0 0-.655.519v3.624h-.579v-3.088c0-.84-.034-1.339-.102-1.498.182-.085.327-.127.434-.127.165 0 .247.164.247.493v.034c.216-.204.437-.351.664-.442.232-.091.496-.136.791-.136.267 0 .505.062.715.187.21.119.371.284.485.493a2.49 2.49 0 0 1 .74-.519c.255-.107.544-.161.868-.161Zm4.467 4.849c-.658 0-1.154-.204-1.488-.612-.335-.409-.502-1.015-.502-1.821 0-1.611.663-2.416 1.99-2.416 1.328 0 1.991.805 1.991 2.416 0 .806-.167 1.412-.502 1.821-.334.408-.831.612-1.489.612Zm0-.476c.483 0 .834-.156 1.055-.468.227-.318.341-.814.341-1.489 0-.669-.114-1.16-.341-1.472-.221-.312-.572-.468-1.055-.468-.482 0-.836.156-1.063.468-.221.312-.332.803-.332 1.472 0 .675.111 1.171.332 1.489.227.312.581.468 1.063.468Zm4.934-4.348c.199 0 .349.034.451.102a.312.312 0 0 1 .162.29c0 .09-.032.173-.094.246-.136-.073-.323-.11-.562-.11-.38 0-.686.15-.918.451-.227.3-.341.695-.341 1.182v2.578h-.578v-4.679h.578v.842c.131-.261.315-.476.553-.646.238-.171.488-.256.749-.256Zm5.227 2.068c0 .13-.005.261-.017.391h-3.386c.011.59.142 1.05.391 1.378.256.329.607.494 1.055.494.307 0 .565-.06.775-.179.215-.119.394-.309.536-.57a.191.191 0 0 1 .178-.11c.091 0 .216.054.375.161a1.65 1.65 0 0 1-.689.877c-.335.21-.726.314-1.175.314-.414 0-.777-.096-1.089-.289a1.92 1.92 0 0 1-.706-.842c-.164-.369-.246-.803-.246-1.302 0-.754.187-1.344.561-1.77.374-.431.888-.646 1.54-.646.596 0 1.061.184 1.395.553.335.368.502.882.502 1.54Zm-.595-.068c0-1.021-.443-1.532-1.327-1.532-.432 0-.772.131-1.021.392-.25.261-.398.641-.443 1.14h2.791Zm5.644 2.824c-.686 0-1.222-.215-1.608-.646-.38-.431-.57-1.033-.57-1.804 0-.488.085-.91.255-1.268.176-.363.426-.641.749-.833.323-.199.703-.298 1.14-.298.522 0 .95.133 1.285.4.34.261.539.618.595 1.072a1.486 1.486 0 0 1-.425.102c-.057 0-.099-.014-.128-.043a.83.83 0 0 1-.076-.204.987.987 0 0 0-.426-.621c-.221-.153-.496-.23-.825-.23-.306 0-.579.08-.817.238a1.568 1.568 0 0 0-.544.681 2.512 2.512 0 0 0-.187 1.004c0 .601.141 1.081.425 1.438.289.357.675.536 1.157.536.369 0 .684-.085.944-.255a1.59 1.59 0 0 0 .588-.766c.079 0 .144.034.195.102a.36.36 0 0 1 .085.238c0 .199-.085.389-.255.57a1.75 1.75 0 0 1-.672.426 2.422 2.422 0 0 1-.885.161Zm4.499 0c-.658 0-1.154-.204-1.489-.612-.335-.409-.502-1.015-.502-1.821 0-1.611.664-2.416 1.991-2.416s1.991.805 1.991 2.416c0 .806-.167 1.412-.502 1.821-.335.408-.831.612-1.489.612Zm0-.476c.482 0 .834-.156 1.055-.468.227-.318.34-.814.34-1.489 0-.669-.113-1.16-.34-1.472-.221-.312-.573-.468-1.055-.468s-.837.156-1.063.468c-.222.312-.332.803-.332 1.472 0 .675.11 1.171.332 1.489.226.312.581.468 1.063.468Zm6.754-.698c0 .346.003.582.009.707.011.119.034.226.068.323a.977.977 0 0 1-.442.102c-.086 0-.142-.06-.171-.179-.028-.125-.042-.368-.042-.731v-2.306c0-.397-.074-.684-.221-.86-.148-.181-.386-.272-.715-.272-.511 0-1.032.253-1.566.757v3.548h-.578v-3.088c0-.84-.034-1.339-.102-1.498.181-.085.326-.127.434-.127.164 0 .246.164.246.493v.077c.261-.216.522-.372.783-.468a2.34 2.34 0 0 1 .842-.153c.488 0 .851.133 1.09.4.243.261.365.66.365 1.199v2.076Zm2.854 1.174c-.256 0-.519-.042-.792-.127a2.133 2.133 0 0 1-.68-.34c-.182-.142-.273-.293-.273-.451 0-.074.023-.139.069-.196a.38.38 0 0 1 .187-.128c.204.267.425.463.663.587.239.119.525.179.86.179.357 0 .626-.082.808-.247a.83.83 0 0 0 .281-.655.6.6 0 0 0-.17-.442 1.002 1.002 0 0 0-.409-.256 8.373 8.373 0 0 0-.663-.195 7.42 7.42 0 0 1-.8-.247 1.348 1.348 0 0 1-.511-.357c-.136-.165-.204-.383-.204-.655 0-.29.077-.534.23-.732.153-.199.349-.346.587-.443a1.94 1.94 0 0 1 .732-.144c.357 0 .68.071.97.212.294.142.524.349.689.622-.136.141-.253.212-.349.212-.074 0-.145-.039-.213-.119a1.238 1.238 0 0 0-.476-.349 1.577 1.577 0 0 0-.647-.119c-.289 0-.519.068-.689.204-.17.137-.255.346-.255.63 0 .164.051.298.153.4.102.102.229.181.383.238.153.051.363.111.629.179.341.079.616.161.826.247.215.085.397.218.544.399.148.176.221.414.221.715 0 .42-.156.755-.468 1.004-.306.25-.717.374-1.233.374Zm6.469-2.756c0 .13-.006.261-.017.391h-3.386c.011.59.141 1.05.391 1.378.255.329.607.494 1.055.494.306 0 .564-.06.774-.179.216-.119.394-.309.536-.57.04-.073.1-.11.179-.11.091 0 .216.054.374.161a1.64 1.64 0 0 1-.689.877c-.334.21-.726.314-1.174.314-.414 0-.777-.096-1.089-.289a1.913 1.913 0 0 1-.706-.842c-.165-.369-.247-.803-.247-1.302 0-.754.187-1.344.562-1.77.374-.431.887-.646 1.54-.646.595 0 1.06.184 1.395.553.335.368.502.882.502 1.54Zm-.596-.068c0-1.021-.442-1.532-1.327-1.532-.431 0-.771.131-1.021.392-.25.261-.397.641-.442 1.14h2.79Zm3.536-2c.199 0 .349.034.451.102a.312.312 0 0 1 .162.29c0 .09-.031.173-.094.246-.136-.073-.323-.11-.561-.11-.38 0-.687.15-.919.451-.227.3-.341.695-.341 1.182v2.578h-.578v-4.679h.578v.842c.131-.261.315-.476.553-.646.239-.171.488-.256.749-.256Zm4.794.06a9.66 9.66 0 0 1-.502 2.45 9.685 9.685 0 0 1-1.149 2.229h-.553a9.685 9.685 0 0 1-1.149-2.229 9.66 9.66 0 0 1-.502-2.45h.579c.079.822.224 1.554.434 2.195.215.635.522 1.254.919 1.855.397-.601.7-1.22.91-1.855.21-.641.355-1.373.434-2.195h.579Zm4.189 3.514c0 .261.02.468.059.621.046.147.122.281.23.4a.662.662 0 0 1-.204.136.51.51 0 0 1-.213.051c-.113 0-.21-.065-.289-.196a1.376 1.376 0 0 1-.145-.536 1.863 1.863 0 0 1-.706.57 2.19 2.19 0 0 1-.927.204c-.432 0-.778-.11-1.038-.331a1.118 1.118 0 0 1-.392-.885c0-.533.258-.95.774-1.251.522-.301 1.279-.474 2.272-.519v-.272c0-.375-.096-.653-.289-.834-.187-.187-.474-.281-.859-.281-.25 0-.483.054-.698.162-.21.102-.437.275-.681.519a.172.172 0 0 1-.127.051.35.35 0 0 1-.188-.068.886.886 0 0 1-.195-.213c.255-.3.544-.53.868-.689a2.368 2.368 0 0 1 1.046-.238c.528 0 .942.142 1.242.425.307.284.46.672.46 1.166v2.008Zm-2.153.774c.306 0 .596-.085.868-.255.272-.17.508-.411.706-.723v-1.055c-1.633.068-2.45.496-2.45 1.284 0 .499.292.749.876.749Zm5.757-.179c.04.029.071.071.094.128a.332.332 0 0 1 .042.162c0 .107-.045.184-.136.229-.182.091-.417.136-.706.136-.369 0-.664-.099-.885-.297-.221-.205-.332-.477-.332-.817v-3.191h-.885v-.459h.885v-1.276h.579v1.276h1.225v.459h-1.225v3.08c0 .477.204.715.612.715.261 0 .505-.048.732-.145Zm1.208-4.109h.579v4.679h-.579v-4.679Zm.256-.86c-.256 0-.383-.127-.383-.382v-.077c0-.255.127-.383.383-.383h.068c.255 0 .383.128.383.383v.077c0 .255-.128.382-.383.382h-.068Zm5.25.86a9.616 9.616 0 0 1-.502 2.45 9.685 9.685 0 0 1-1.149 2.229h-.553a9.641 9.641 0 0 1-1.148-2.229 9.616 9.616 0 0 1-.502-2.45h.578c.08.822.224 1.554.434 2.195.216.635.522 1.254.919 1.855.397-.601.701-1.22.91-1.855.21-.641.355-1.373.434-2.195h.579Zm4.563 2.008c0 .13-.005.261-.017.391h-3.386c.011.59.142 1.05.391 1.378.256.329.607.494 1.055.494.307 0 .565-.06.775-.179.215-.119.394-.309.536-.57a.191.191 0 0 1 .178-.11c.091 0 .216.054.375.161a1.65 1.65 0 0 1-.689.877c-.335.21-.726.314-1.175.314-.414 0-.777-.096-1.089-.289a1.92 1.92 0 0 1-.706-.842c-.164-.369-.247-.803-.247-1.302 0-.754.188-1.344.562-1.77.374-.431.888-.646 1.54-.646.596 0 1.061.184 1.395.553.335.368.502.882.502 1.54Zm-.595-.068c0-1.021-.443-1.532-1.328-1.532-.431 0-.771.131-1.021.392-.249.261-.397.641-.442 1.14h2.791Z"/></svg>